G04 #@! TF.GenerationSoftware,KiCad,Pcbnew,(6.0.4-0)*
G04 #@! TF.CreationDate,2022-04-05T21:31:33-07:00*
G04 #@! TF.ProjectId,led-driver,6c65642d-6472-4697-9665-722e6b696361,rev?*
G04 #@! TF.SameCoordinates,Original*
G04 #@! TF.FileFunction,Legend,Top*
G04 #@! TF.FilePolarity,Positive*
%FSLAX46Y46*%
G04 Gerber Fmt 4.6, Leading zero omitted, Abs format (unit mm)*
G04 Created by KiCad (PCBNEW (6.0.4-0)) date 2022-04-05 21:31:33*
%MOMM*%
%LPD*%
G01*
G04 APERTURE LIST*
%ADD10C,0.150000*%
%ADD11C,0.190500*%
%ADD12C,0.120000*%
%ADD13C,0.200000*%
G04 APERTURE END LIST*
D10*
X150404761Y-34452380D02*
X150404761Y-33452380D01*
X150785714Y-33452380D01*
X150880952Y-33500000D01*
X150928571Y-33547619D01*
X150976190Y-33642857D01*
X150976190Y-33785714D01*
X150928571Y-33880952D01*
X150880952Y-33928571D01*
X150785714Y-33976190D01*
X150404761Y-33976190D01*
X151976190Y-34357142D02*
X151928571Y-34404761D01*
X151785714Y-34452380D01*
X151690476Y-34452380D01*
X151547619Y-34404761D01*
X151452380Y-34309523D01*
X151404761Y-34214285D01*
X151357142Y-34023809D01*
X151357142Y-33880952D01*
X151404761Y-33690476D01*
X151452380Y-33595238D01*
X151547619Y-33500000D01*
X151690476Y-33452380D01*
X151785714Y-33452380D01*
X151928571Y-33500000D01*
X151976190Y-33547619D01*
X152357142Y-34166666D02*
X152833333Y-34166666D01*
X152261904Y-34452380D02*
X152595238Y-33452380D01*
X152928571Y-34452380D01*
X153309523Y-34452380D02*
X153500000Y-34452380D01*
X153595238Y-34404761D01*
X153642857Y-34357142D01*
X153738095Y-34214285D01*
X153785714Y-34023809D01*
X153785714Y-33642857D01*
X153738095Y-33547619D01*
X153690476Y-33500000D01*
X153595238Y-33452380D01*
X153404761Y-33452380D01*
X153309523Y-33500000D01*
X153261904Y-33547619D01*
X153214285Y-33642857D01*
X153214285Y-33880952D01*
X153261904Y-33976190D01*
X153309523Y-34023809D01*
X153404761Y-34071428D01*
X153595238Y-34071428D01*
X153690476Y-34023809D01*
X153738095Y-33976190D01*
X153785714Y-33880952D01*
X154642857Y-33452380D02*
X154452380Y-33452380D01*
X154357142Y-33500000D01*
X154309523Y-33547619D01*
X154214285Y-33690476D01*
X154166666Y-33880952D01*
X154166666Y-34261904D01*
X154214285Y-34357142D01*
X154261904Y-34404761D01*
X154357142Y-34452380D01*
X154547619Y-34452380D01*
X154642857Y-34404761D01*
X154690476Y-34357142D01*
X154738095Y-34261904D01*
X154738095Y-34023809D01*
X154690476Y-33928571D01*
X154642857Y-33880952D01*
X154547619Y-33833333D01*
X154357142Y-33833333D01*
X154261904Y-33880952D01*
X154214285Y-33928571D01*
X154166666Y-34023809D01*
X155071428Y-33452380D02*
X155690476Y-33452380D01*
X155357142Y-33833333D01*
X155500000Y-33833333D01*
X155595238Y-33880952D01*
X155642857Y-33928571D01*
X155690476Y-34023809D01*
X155690476Y-34261904D01*
X155642857Y-34357142D01*
X155595238Y-34404761D01*
X155500000Y-34452380D01*
X155214285Y-34452380D01*
X155119047Y-34404761D01*
X155071428Y-34357142D01*
X156547619Y-33785714D02*
X156547619Y-34452380D01*
X156309523Y-33404761D02*
X156071428Y-34119047D01*
X156690476Y-34119047D01*
X188404761Y-34452380D02*
X188404761Y-33452380D01*
X188785714Y-33452380D01*
X188880952Y-33500000D01*
X188928571Y-33547619D01*
X188976190Y-33642857D01*
X188976190Y-33785714D01*
X188928571Y-33880952D01*
X188880952Y-33928571D01*
X188785714Y-33976190D01*
X188404761Y-33976190D01*
X189976190Y-34357142D02*
X189928571Y-34404761D01*
X189785714Y-34452380D01*
X189690476Y-34452380D01*
X189547619Y-34404761D01*
X189452380Y-34309523D01*
X189404761Y-34214285D01*
X189357142Y-34023809D01*
X189357142Y-33880952D01*
X189404761Y-33690476D01*
X189452380Y-33595238D01*
X189547619Y-33500000D01*
X189690476Y-33452380D01*
X189785714Y-33452380D01*
X189928571Y-33500000D01*
X189976190Y-33547619D01*
X190357142Y-34166666D02*
X190833333Y-34166666D01*
X190261904Y-34452380D02*
X190595238Y-33452380D01*
X190928571Y-34452380D01*
X191309523Y-34452380D02*
X191500000Y-34452380D01*
X191595238Y-34404761D01*
X191642857Y-34357142D01*
X191738095Y-34214285D01*
X191785714Y-34023809D01*
X191785714Y-33642857D01*
X191738095Y-33547619D01*
X191690476Y-33500000D01*
X191595238Y-33452380D01*
X191404761Y-33452380D01*
X191309523Y-33500000D01*
X191261904Y-33547619D01*
X191214285Y-33642857D01*
X191214285Y-33880952D01*
X191261904Y-33976190D01*
X191309523Y-34023809D01*
X191404761Y-34071428D01*
X191595238Y-34071428D01*
X191690476Y-34023809D01*
X191738095Y-33976190D01*
X191785714Y-33880952D01*
X192642857Y-33452380D02*
X192452380Y-33452380D01*
X192357142Y-33500000D01*
X192309523Y-33547619D01*
X192214285Y-33690476D01*
X192166666Y-33880952D01*
X192166666Y-34261904D01*
X192214285Y-34357142D01*
X192261904Y-34404761D01*
X192357142Y-34452380D01*
X192547619Y-34452380D01*
X192642857Y-34404761D01*
X192690476Y-34357142D01*
X192738095Y-34261904D01*
X192738095Y-34023809D01*
X192690476Y-33928571D01*
X192642857Y-33880952D01*
X192547619Y-33833333D01*
X192357142Y-33833333D01*
X192261904Y-33880952D01*
X192214285Y-33928571D01*
X192166666Y-34023809D01*
X193071428Y-33452380D02*
X193690476Y-33452380D01*
X193357142Y-33833333D01*
X193500000Y-33833333D01*
X193595238Y-33880952D01*
X193642857Y-33928571D01*
X193690476Y-34023809D01*
X193690476Y-34261904D01*
X193642857Y-34357142D01*
X193595238Y-34404761D01*
X193500000Y-34452380D01*
X193214285Y-34452380D01*
X193119047Y-34404761D01*
X193071428Y-34357142D01*
X194547619Y-33785714D02*
X194547619Y-34452380D01*
X194309523Y-33404761D02*
X194071428Y-34119047D01*
X194690476Y-34119047D01*
X112585714Y-30528571D02*
X112728571Y-30576190D01*
X112776190Y-30623809D01*
X112823809Y-30719047D01*
X112823809Y-30861904D01*
X112776190Y-30957142D01*
X112728571Y-31004761D01*
X112633333Y-31052380D01*
X112252380Y-31052380D01*
X112252380Y-30052380D01*
X112585714Y-30052380D01*
X112680952Y-30100000D01*
X112728571Y-30147619D01*
X112776190Y-30242857D01*
X112776190Y-30338095D01*
X112728571Y-30433333D01*
X112680952Y-30480952D01*
X112585714Y-30528571D01*
X112252380Y-30528571D01*
X113395238Y-31052380D02*
X113300000Y-31004761D01*
X113252380Y-30957142D01*
X113204761Y-30861904D01*
X113204761Y-30576190D01*
X113252380Y-30480952D01*
X113300000Y-30433333D01*
X113395238Y-30385714D01*
X113538095Y-30385714D01*
X113633333Y-30433333D01*
X113680952Y-30480952D01*
X113728571Y-30576190D01*
X113728571Y-30861904D01*
X113680952Y-30957142D01*
X113633333Y-31004761D01*
X113538095Y-31052380D01*
X113395238Y-31052380D01*
X114585714Y-31052380D02*
X114585714Y-30528571D01*
X114538095Y-30433333D01*
X114442857Y-30385714D01*
X114252380Y-30385714D01*
X114157142Y-30433333D01*
X114585714Y-31004761D02*
X114490476Y-31052380D01*
X114252380Y-31052380D01*
X114157142Y-31004761D01*
X114109523Y-30909523D01*
X114109523Y-30814285D01*
X114157142Y-30719047D01*
X114252380Y-30671428D01*
X114490476Y-30671428D01*
X114585714Y-30623809D01*
X115061904Y-31052380D02*
X115061904Y-30385714D01*
X115061904Y-30576190D02*
X115109523Y-30480952D01*
X115157142Y-30433333D01*
X115252380Y-30385714D01*
X115347619Y-30385714D01*
X116109523Y-31052380D02*
X116109523Y-30052380D01*
X116109523Y-31004761D02*
X116014285Y-31052380D01*
X115823809Y-31052380D01*
X115728571Y-31004761D01*
X115680952Y-30957142D01*
X115633333Y-30861904D01*
X115633333Y-30576190D01*
X115680952Y-30480952D01*
X115728571Y-30433333D01*
X115823809Y-30385714D01*
X116014285Y-30385714D01*
X116109523Y-30433333D01*
X117300000Y-31004761D02*
X117395238Y-31052380D01*
X117585714Y-31052380D01*
X117680952Y-31004761D01*
X117728571Y-30909523D01*
X117728571Y-30861904D01*
X117680952Y-30766666D01*
X117585714Y-30719047D01*
X117442857Y-30719047D01*
X117347619Y-30671428D01*
X117300000Y-30576190D01*
X117300000Y-30528571D01*
X117347619Y-30433333D01*
X117442857Y-30385714D01*
X117585714Y-30385714D01*
X117680952Y-30433333D01*
X118538095Y-31004761D02*
X118442857Y-31052380D01*
X118252380Y-31052380D01*
X118157142Y-31004761D01*
X118109523Y-30909523D01*
X118109523Y-30528571D01*
X118157142Y-30433333D01*
X118252380Y-30385714D01*
X118442857Y-30385714D01*
X118538095Y-30433333D01*
X118585714Y-30528571D01*
X118585714Y-30623809D01*
X118109523Y-30719047D01*
X119157142Y-31052380D02*
X119061904Y-31004761D01*
X119014285Y-30909523D01*
X119014285Y-30052380D01*
X119919047Y-31004761D02*
X119823809Y-31052380D01*
X119633333Y-31052380D01*
X119538095Y-31004761D01*
X119490476Y-30909523D01*
X119490476Y-30528571D01*
X119538095Y-30433333D01*
X119633333Y-30385714D01*
X119823809Y-30385714D01*
X119919047Y-30433333D01*
X119966666Y-30528571D01*
X119966666Y-30623809D01*
X119490476Y-30719047D01*
X120823809Y-31004761D02*
X120728571Y-31052380D01*
X120538095Y-31052380D01*
X120442857Y-31004761D01*
X120395238Y-30957142D01*
X120347619Y-30861904D01*
X120347619Y-30576190D01*
X120395238Y-30480952D01*
X120442857Y-30433333D01*
X120538095Y-30385714D01*
X120728571Y-30385714D01*
X120823809Y-30433333D01*
X121109523Y-30385714D02*
X121490476Y-30385714D01*
X121252380Y-30052380D02*
X121252380Y-30909523D01*
X121300000Y-31004761D01*
X121395238Y-31052380D01*
X121490476Y-31052380D01*
X208923809Y-69247380D02*
X208923809Y-68247380D01*
X209304761Y-68247380D01*
X209400000Y-68295000D01*
X209447619Y-68342619D01*
X209495238Y-68437857D01*
X209495238Y-68580714D01*
X209447619Y-68675952D01*
X209400000Y-68723571D01*
X209304761Y-68771190D01*
X208923809Y-68771190D01*
X210066666Y-69247380D02*
X209971428Y-69199761D01*
X209923809Y-69152142D01*
X209876190Y-69056904D01*
X209876190Y-68771190D01*
X209923809Y-68675952D01*
X209971428Y-68628333D01*
X210066666Y-68580714D01*
X210209523Y-68580714D01*
X210304761Y-68628333D01*
X210352380Y-68675952D01*
X210400000Y-68771190D01*
X210400000Y-69056904D01*
X210352380Y-69152142D01*
X210304761Y-69199761D01*
X210209523Y-69247380D01*
X210066666Y-69247380D01*
X210733333Y-68580714D02*
X210923809Y-69247380D01*
X211114285Y-68771190D01*
X211304761Y-69247380D01*
X211495238Y-68580714D01*
X212257142Y-69199761D02*
X212161904Y-69247380D01*
X211971428Y-69247380D01*
X211876190Y-69199761D01*
X211828571Y-69104523D01*
X211828571Y-68723571D01*
X211876190Y-68628333D01*
X211971428Y-68580714D01*
X212161904Y-68580714D01*
X212257142Y-68628333D01*
X212304761Y-68723571D01*
X212304761Y-68818809D01*
X211828571Y-68914047D01*
X212733333Y-69247380D02*
X212733333Y-68580714D01*
X212733333Y-68771190D02*
X212780952Y-68675952D01*
X212828571Y-68628333D01*
X212923809Y-68580714D01*
X213019047Y-68580714D01*
X205304761Y-70476428D02*
X206066666Y-70476428D01*
X205685714Y-70857380D02*
X205685714Y-70095476D01*
X207019047Y-69857380D02*
X206542857Y-69857380D01*
X206495238Y-70333571D01*
X206542857Y-70285952D01*
X206638095Y-70238333D01*
X206876190Y-70238333D01*
X206971428Y-70285952D01*
X207019047Y-70333571D01*
X207066666Y-70428809D01*
X207066666Y-70666904D01*
X207019047Y-70762142D01*
X206971428Y-70809761D01*
X206876190Y-70857380D01*
X206638095Y-70857380D01*
X206542857Y-70809761D01*
X206495238Y-70762142D01*
X208257142Y-70476428D02*
X209019047Y-70476428D01*
X208638095Y-70857380D02*
X208638095Y-70095476D01*
X209971428Y-69857380D02*
X209495238Y-69857380D01*
X209447619Y-70333571D01*
X209495238Y-70285952D01*
X209590476Y-70238333D01*
X209828571Y-70238333D01*
X209923809Y-70285952D01*
X209971428Y-70333571D01*
X210019047Y-70428809D01*
X210019047Y-70666904D01*
X209971428Y-70762142D01*
X209923809Y-70809761D01*
X209828571Y-70857380D01*
X209590476Y-70857380D01*
X209495238Y-70809761D01*
X209447619Y-70762142D01*
X211638095Y-70190714D02*
X211638095Y-71000238D01*
X211590476Y-71095476D01*
X211542857Y-71143095D01*
X211447619Y-71190714D01*
X211304761Y-71190714D01*
X211209523Y-71143095D01*
X211638095Y-70809761D02*
X211542857Y-70857380D01*
X211352380Y-70857380D01*
X211257142Y-70809761D01*
X211209523Y-70762142D01*
X211161904Y-70666904D01*
X211161904Y-70381190D01*
X211209523Y-70285952D01*
X211257142Y-70238333D01*
X211352380Y-70190714D01*
X211542857Y-70190714D01*
X211638095Y-70238333D01*
X214066666Y-70190714D02*
X214066666Y-71000238D01*
X214019047Y-71095476D01*
X213971428Y-71143095D01*
X213876190Y-71190714D01*
X213733333Y-71190714D01*
X213638095Y-71143095D01*
X214066666Y-70809761D02*
X213971428Y-70857380D01*
X213780952Y-70857380D01*
X213685714Y-70809761D01*
X213638095Y-70762142D01*
X213590476Y-70666904D01*
X213590476Y-70381190D01*
X213638095Y-70285952D01*
X213685714Y-70238333D01*
X213780952Y-70190714D01*
X213971428Y-70190714D01*
X214066666Y-70238333D01*
X216495238Y-70190714D02*
X216495238Y-71000238D01*
X216447619Y-71095476D01*
X216400000Y-71143095D01*
X216304761Y-71190714D01*
X216161904Y-71190714D01*
X216066666Y-71143095D01*
X216495238Y-70809761D02*
X216400000Y-70857380D01*
X216209523Y-70857380D01*
X216114285Y-70809761D01*
X216066666Y-70762142D01*
X216019047Y-70666904D01*
X216019047Y-70381190D01*
X216066666Y-70285952D01*
X216114285Y-70238333D01*
X216209523Y-70190714D01*
X216400000Y-70190714D01*
X216495238Y-70238333D01*
X151810714Y-47977380D02*
X151239285Y-47977380D01*
X151525000Y-47977380D02*
X151525000Y-46977380D01*
X151429761Y-47120238D01*
X151334523Y-47215476D01*
X151239285Y-47263095D01*
X67404761Y-34452380D02*
X67404761Y-33452380D01*
X67785714Y-33452380D01*
X67880952Y-33500000D01*
X67928571Y-33547619D01*
X67976190Y-33642857D01*
X67976190Y-33785714D01*
X67928571Y-33880952D01*
X67880952Y-33928571D01*
X67785714Y-33976190D01*
X67404761Y-33976190D01*
X68976190Y-34357142D02*
X68928571Y-34404761D01*
X68785714Y-34452380D01*
X68690476Y-34452380D01*
X68547619Y-34404761D01*
X68452380Y-34309523D01*
X68404761Y-34214285D01*
X68357142Y-34023809D01*
X68357142Y-33880952D01*
X68404761Y-33690476D01*
X68452380Y-33595238D01*
X68547619Y-33500000D01*
X68690476Y-33452380D01*
X68785714Y-33452380D01*
X68928571Y-33500000D01*
X68976190Y-33547619D01*
X69357142Y-34166666D02*
X69833333Y-34166666D01*
X69261904Y-34452380D02*
X69595238Y-33452380D01*
X69928571Y-34452380D01*
X70309523Y-34452380D02*
X70500000Y-34452380D01*
X70595238Y-34404761D01*
X70642857Y-34357142D01*
X70738095Y-34214285D01*
X70785714Y-34023809D01*
X70785714Y-33642857D01*
X70738095Y-33547619D01*
X70690476Y-33500000D01*
X70595238Y-33452380D01*
X70404761Y-33452380D01*
X70309523Y-33500000D01*
X70261904Y-33547619D01*
X70214285Y-33642857D01*
X70214285Y-33880952D01*
X70261904Y-33976190D01*
X70309523Y-34023809D01*
X70404761Y-34071428D01*
X70595238Y-34071428D01*
X70690476Y-34023809D01*
X70738095Y-33976190D01*
X70785714Y-33880952D01*
X71642857Y-33452380D02*
X71452380Y-33452380D01*
X71357142Y-33500000D01*
X71309523Y-33547619D01*
X71214285Y-33690476D01*
X71166666Y-33880952D01*
X71166666Y-34261904D01*
X71214285Y-34357142D01*
X71261904Y-34404761D01*
X71357142Y-34452380D01*
X71547619Y-34452380D01*
X71642857Y-34404761D01*
X71690476Y-34357142D01*
X71738095Y-34261904D01*
X71738095Y-34023809D01*
X71690476Y-33928571D01*
X71642857Y-33880952D01*
X71547619Y-33833333D01*
X71357142Y-33833333D01*
X71261904Y-33880952D01*
X71214285Y-33928571D01*
X71166666Y-34023809D01*
X72071428Y-33452380D02*
X72690476Y-33452380D01*
X72357142Y-33833333D01*
X72500000Y-33833333D01*
X72595238Y-33880952D01*
X72642857Y-33928571D01*
X72690476Y-34023809D01*
X72690476Y-34261904D01*
X72642857Y-34357142D01*
X72595238Y-34404761D01*
X72500000Y-34452380D01*
X72214285Y-34452380D01*
X72119047Y-34404761D01*
X72071428Y-34357142D01*
X73547619Y-33785714D02*
X73547619Y-34452380D01*
X73309523Y-33404761D02*
X73071428Y-34119047D01*
X73690476Y-34119047D01*
X28300000Y-70752380D02*
X28300000Y-69752380D01*
X28680952Y-69752380D01*
X28776190Y-69800000D01*
X28823809Y-69847619D01*
X28871428Y-69942857D01*
X28871428Y-70085714D01*
X28823809Y-70180952D01*
X28776190Y-70228571D01*
X28680952Y-70276190D01*
X28300000Y-70276190D01*
X29442857Y-70752380D02*
X29347619Y-70704761D01*
X29300000Y-70657142D01*
X29252380Y-70561904D01*
X29252380Y-70276190D01*
X29300000Y-70180952D01*
X29347619Y-70133333D01*
X29442857Y-70085714D01*
X29585714Y-70085714D01*
X29680952Y-70133333D01*
X29728571Y-70180952D01*
X29776190Y-70276190D01*
X29776190Y-70561904D01*
X29728571Y-70657142D01*
X29680952Y-70704761D01*
X29585714Y-70752380D01*
X29442857Y-70752380D01*
X30109523Y-70085714D02*
X30300000Y-70752380D01*
X30490476Y-70276190D01*
X30680952Y-70752380D01*
X30871428Y-70085714D01*
X31633333Y-70704761D02*
X31538095Y-70752380D01*
X31347619Y-70752380D01*
X31252380Y-70704761D01*
X31204761Y-70609523D01*
X31204761Y-70228571D01*
X31252380Y-70133333D01*
X31347619Y-70085714D01*
X31538095Y-70085714D01*
X31633333Y-70133333D01*
X31680952Y-70228571D01*
X31680952Y-70323809D01*
X31204761Y-70419047D01*
X32109523Y-70752380D02*
X32109523Y-70085714D01*
X32109523Y-70276190D02*
X32157142Y-70180952D01*
X32204761Y-70133333D01*
X32300000Y-70085714D01*
X32395238Y-70085714D01*
X33490476Y-70752380D02*
X33490476Y-70085714D01*
X33490476Y-69752380D02*
X33442857Y-69800000D01*
X33490476Y-69847619D01*
X33538095Y-69800000D01*
X33490476Y-69752380D01*
X33490476Y-69847619D01*
X33966666Y-70085714D02*
X33966666Y-70752380D01*
X33966666Y-70180952D02*
X34014285Y-70133333D01*
X34109523Y-70085714D01*
X34252380Y-70085714D01*
X34347619Y-70133333D01*
X34395238Y-70228571D01*
X34395238Y-70752380D01*
X34871428Y-70657142D02*
X34919047Y-70704761D01*
X34871428Y-70752380D01*
X34823809Y-70704761D01*
X34871428Y-70657142D01*
X34871428Y-70752380D01*
X34871428Y-70133333D02*
X34919047Y-70180952D01*
X34871428Y-70228571D01*
X34823809Y-70180952D01*
X34871428Y-70133333D01*
X34871428Y-70228571D01*
X36109523Y-70371428D02*
X36871428Y-70371428D01*
X36490476Y-70752380D02*
X36490476Y-69990476D01*
X37823809Y-69752380D02*
X37347619Y-69752380D01*
X37300000Y-70228571D01*
X37347619Y-70180952D01*
X37442857Y-70133333D01*
X37680952Y-70133333D01*
X37776190Y-70180952D01*
X37823809Y-70228571D01*
X37871428Y-70323809D01*
X37871428Y-70561904D01*
X37823809Y-70657142D01*
X37776190Y-70704761D01*
X37680952Y-70752380D01*
X37442857Y-70752380D01*
X37347619Y-70704761D01*
X37300000Y-70657142D01*
X39061904Y-70371428D02*
X39823809Y-70371428D01*
X39442857Y-70752380D02*
X39442857Y-69990476D01*
X40776190Y-69752380D02*
X40300000Y-69752380D01*
X40252380Y-70228571D01*
X40300000Y-70180952D01*
X40395238Y-70133333D01*
X40633333Y-70133333D01*
X40728571Y-70180952D01*
X40776190Y-70228571D01*
X40823809Y-70323809D01*
X40823809Y-70561904D01*
X40776190Y-70657142D01*
X40728571Y-70704761D01*
X40633333Y-70752380D01*
X40395238Y-70752380D01*
X40300000Y-70704761D01*
X40252380Y-70657142D01*
X42442857Y-70085714D02*
X42442857Y-70895238D01*
X42395238Y-70990476D01*
X42347619Y-71038095D01*
X42252380Y-71085714D01*
X42109523Y-71085714D01*
X42014285Y-71038095D01*
X42442857Y-70704761D02*
X42347619Y-70752380D01*
X42157142Y-70752380D01*
X42061904Y-70704761D01*
X42014285Y-70657142D01*
X41966666Y-70561904D01*
X41966666Y-70276190D01*
X42014285Y-70180952D01*
X42061904Y-70133333D01*
X42157142Y-70085714D01*
X42347619Y-70085714D01*
X42442857Y-70133333D01*
X44871428Y-70085714D02*
X44871428Y-70895238D01*
X44823809Y-70990476D01*
X44776190Y-71038095D01*
X44680952Y-71085714D01*
X44538095Y-71085714D01*
X44442857Y-71038095D01*
X44871428Y-70704761D02*
X44776190Y-70752380D01*
X44585714Y-70752380D01*
X44490476Y-70704761D01*
X44442857Y-70657142D01*
X44395238Y-70561904D01*
X44395238Y-70276190D01*
X44442857Y-70180952D01*
X44490476Y-70133333D01*
X44585714Y-70085714D01*
X44776190Y-70085714D01*
X44871428Y-70133333D01*
X47299999Y-70085714D02*
X47299999Y-70895238D01*
X47252380Y-70990476D01*
X47204761Y-71038095D01*
X47109523Y-71085714D01*
X46966666Y-71085714D01*
X46871428Y-71038095D01*
X47299999Y-70704761D02*
X47204761Y-70752380D01*
X47014285Y-70752380D01*
X46919047Y-70704761D01*
X46871428Y-70657142D01*
X46823809Y-70561904D01*
X46823809Y-70276190D01*
X46871428Y-70180952D01*
X46919047Y-70133333D01*
X47014285Y-70085714D01*
X47204761Y-70085714D01*
X47299999Y-70133333D01*
X233838857Y-64587428D02*
X234600761Y-64587428D01*
X234219809Y-64968380D02*
X234219809Y-64206476D01*
X235553142Y-63968380D02*
X235076952Y-63968380D01*
X235029333Y-64444571D01*
X235076952Y-64396952D01*
X235172190Y-64349333D01*
X235410285Y-64349333D01*
X235505523Y-64396952D01*
X235553142Y-64444571D01*
X235600761Y-64539809D01*
X235600761Y-64777904D01*
X235553142Y-64873142D01*
X235505523Y-64920761D01*
X235410285Y-64968380D01*
X235172190Y-64968380D01*
X235076952Y-64920761D01*
X235029333Y-64873142D01*
X52923809Y-71104761D02*
X53066666Y-71152380D01*
X53304761Y-71152380D01*
X53400000Y-71104761D01*
X53447619Y-71057142D01*
X53495238Y-70961904D01*
X53495238Y-70866666D01*
X53447619Y-70771428D01*
X53400000Y-70723809D01*
X53304761Y-70676190D01*
X53114285Y-70628571D01*
X53019047Y-70580952D01*
X52971428Y-70533333D01*
X52923809Y-70438095D01*
X52923809Y-70342857D01*
X52971428Y-70247619D01*
X53019047Y-70200000D01*
X53114285Y-70152380D01*
X53352380Y-70152380D01*
X53495238Y-70200000D01*
X53923809Y-71152380D02*
X53923809Y-70152380D01*
X54161904Y-70152380D01*
X54304761Y-70200000D01*
X54400000Y-70295238D01*
X54447619Y-70390476D01*
X54495238Y-70580952D01*
X54495238Y-70723809D01*
X54447619Y-70914285D01*
X54400000Y-71009523D01*
X54304761Y-71104761D01*
X54161904Y-71152380D01*
X53923809Y-71152380D01*
X54876190Y-70866666D02*
X55352380Y-70866666D01*
X54780952Y-71152380D02*
X55114285Y-70152380D01*
X55447619Y-71152380D01*
X56495238Y-71104761D02*
X56638095Y-71152380D01*
X56876190Y-71152380D01*
X56971428Y-71104761D01*
X57019047Y-71057142D01*
X57066666Y-70961904D01*
X57066666Y-70866666D01*
X57019047Y-70771428D01*
X56971428Y-70723809D01*
X56876190Y-70676190D01*
X56685714Y-70628571D01*
X56590476Y-70580952D01*
X56542857Y-70533333D01*
X56495238Y-70438095D01*
X56495238Y-70342857D01*
X56542857Y-70247619D01*
X56590476Y-70200000D01*
X56685714Y-70152380D01*
X56923809Y-70152380D01*
X57066666Y-70200000D01*
X58066666Y-71057142D02*
X58019047Y-71104761D01*
X57876190Y-71152380D01*
X57780952Y-71152380D01*
X57638095Y-71104761D01*
X57542857Y-71009523D01*
X57495238Y-70914285D01*
X57447619Y-70723809D01*
X57447619Y-70580952D01*
X57495238Y-70390476D01*
X57542857Y-70295238D01*
X57638095Y-70200000D01*
X57780952Y-70152380D01*
X57876190Y-70152380D01*
X58019047Y-70200000D01*
X58066666Y-70247619D01*
X58971428Y-71152380D02*
X58495238Y-71152380D01*
X58495238Y-70152380D01*
X113984547Y-49693676D02*
X114274833Y-49790438D01*
X114758642Y-49790438D01*
X114952166Y-49693676D01*
X115048928Y-49596914D01*
X115145690Y-49403390D01*
X115145690Y-49209866D01*
X115048928Y-49016342D01*
X114952166Y-48919580D01*
X114758642Y-48822819D01*
X114371595Y-48726057D01*
X114178071Y-48629295D01*
X114081309Y-48532533D01*
X113984547Y-48339009D01*
X113984547Y-48145485D01*
X114081309Y-47951961D01*
X114178071Y-47855200D01*
X114371595Y-47758438D01*
X114855404Y-47758438D01*
X115145690Y-47855200D01*
X115823023Y-48435771D02*
X116306833Y-49790438D01*
X116790642Y-48435771D02*
X116306833Y-49790438D01*
X116113309Y-50274247D01*
X116016547Y-50371009D01*
X115823023Y-50467771D01*
X117467976Y-49693676D02*
X117661500Y-49790438D01*
X118048547Y-49790438D01*
X118242071Y-49693676D01*
X118338833Y-49500152D01*
X118338833Y-49403390D01*
X118242071Y-49209866D01*
X118048547Y-49113104D01*
X117758261Y-49113104D01*
X117564738Y-49016342D01*
X117467976Y-48822819D01*
X117467976Y-48726057D01*
X117564738Y-48532533D01*
X117758261Y-48435771D01*
X118048547Y-48435771D01*
X118242071Y-48532533D01*
X118919404Y-48435771D02*
X119693500Y-48435771D01*
X119209690Y-47758438D02*
X119209690Y-49500152D01*
X119306452Y-49693676D01*
X119499976Y-49790438D01*
X119693500Y-49790438D01*
X121144928Y-49693676D02*
X120951404Y-49790438D01*
X120564357Y-49790438D01*
X120370833Y-49693676D01*
X120274071Y-49500152D01*
X120274071Y-48726057D01*
X120370833Y-48532533D01*
X120564357Y-48435771D01*
X120951404Y-48435771D01*
X121144928Y-48532533D01*
X121241690Y-48726057D01*
X121241690Y-48919580D01*
X120274071Y-49113104D01*
X122112547Y-49790438D02*
X122112547Y-48435771D01*
X122112547Y-48629295D02*
X122209309Y-48532533D01*
X122402833Y-48435771D01*
X122693119Y-48435771D01*
X122886642Y-48532533D01*
X122983404Y-48726057D01*
X122983404Y-49790438D01*
X122983404Y-48726057D02*
X123080166Y-48532533D01*
X123273690Y-48435771D01*
X123563976Y-48435771D01*
X123757500Y-48532533D01*
X123854261Y-48726057D01*
X123854261Y-49790438D01*
X126273309Y-47661676D02*
X124531595Y-50274247D01*
X126757119Y-47758438D02*
X128015023Y-47758438D01*
X127337690Y-48532533D01*
X127627976Y-48532533D01*
X127821500Y-48629295D01*
X127918261Y-48726057D01*
X128015023Y-48919580D01*
X128015023Y-49403390D01*
X127918261Y-49596914D01*
X127821500Y-49693676D01*
X127627976Y-49790438D01*
X127047404Y-49790438D01*
X126853880Y-49693676D01*
X126757119Y-49596914D01*
X129756738Y-47758438D02*
X129369690Y-47758438D01*
X129176166Y-47855200D01*
X129079404Y-47951961D01*
X128885880Y-48242247D01*
X128789119Y-48629295D01*
X128789119Y-49403390D01*
X128885880Y-49596914D01*
X128982642Y-49693676D01*
X129176166Y-49790438D01*
X129563214Y-49790438D01*
X129756738Y-49693676D01*
X129853500Y-49596914D01*
X129950261Y-49403390D01*
X129950261Y-48919580D01*
X129853500Y-48726057D01*
X129756738Y-48629295D01*
X129563214Y-48532533D01*
X129176166Y-48532533D01*
X128982642Y-48629295D01*
X128885880Y-48726057D01*
X128789119Y-48919580D01*
X131208166Y-47758438D02*
X131401690Y-47758438D01*
X131595214Y-47855200D01*
X131691976Y-47951961D01*
X131788738Y-48145485D01*
X131885500Y-48532533D01*
X131885500Y-49016342D01*
X131788738Y-49403390D01*
X131691976Y-49596914D01*
X131595214Y-49693676D01*
X131401690Y-49790438D01*
X131208166Y-49790438D01*
X131014642Y-49693676D01*
X130917880Y-49596914D01*
X130821119Y-49403390D01*
X130724357Y-49016342D01*
X130724357Y-48532533D01*
X130821119Y-48145485D01*
X130917880Y-47951961D01*
X131014642Y-47855200D01*
X131208166Y-47758438D01*
X134304547Y-49790438D02*
X134304547Y-47758438D01*
X134981880Y-49209866D01*
X135659214Y-47758438D01*
X135659214Y-49790438D01*
X136917119Y-49790438D02*
X136723595Y-49693676D01*
X136626833Y-49596914D01*
X136530071Y-49403390D01*
X136530071Y-48822819D01*
X136626833Y-48629295D01*
X136723595Y-48532533D01*
X136917119Y-48435771D01*
X137207404Y-48435771D01*
X137400928Y-48532533D01*
X137497690Y-48629295D01*
X137594452Y-48822819D01*
X137594452Y-49403390D01*
X137497690Y-49596914D01*
X137400928Y-49693676D01*
X137207404Y-49790438D01*
X136917119Y-49790438D01*
X139336166Y-49790438D02*
X139336166Y-47758438D01*
X139336166Y-49693676D02*
X139142642Y-49790438D01*
X138755595Y-49790438D01*
X138562071Y-49693676D01*
X138465309Y-49596914D01*
X138368547Y-49403390D01*
X138368547Y-48822819D01*
X138465309Y-48629295D01*
X138562071Y-48532533D01*
X138755595Y-48435771D01*
X139142642Y-48435771D01*
X139336166Y-48532533D01*
X141077880Y-49693676D02*
X140884357Y-49790438D01*
X140497309Y-49790438D01*
X140303785Y-49693676D01*
X140207023Y-49500152D01*
X140207023Y-48726057D01*
X140303785Y-48532533D01*
X140497309Y-48435771D01*
X140884357Y-48435771D01*
X141077880Y-48532533D01*
X141174642Y-48726057D01*
X141174642Y-48919580D01*
X140207023Y-49113104D01*
X142335785Y-49790438D02*
X142142261Y-49693676D01*
X142045500Y-49500152D01*
X142045500Y-47758438D01*
X145625690Y-47758438D02*
X144658071Y-47758438D01*
X144561309Y-48726057D01*
X144658071Y-48629295D01*
X144851595Y-48532533D01*
X145335404Y-48532533D01*
X145528928Y-48629295D01*
X145625690Y-48726057D01*
X145722452Y-48919580D01*
X145722452Y-49403390D01*
X145625690Y-49596914D01*
X145528928Y-49693676D01*
X145335404Y-49790438D01*
X144851595Y-49790438D01*
X144658071Y-49693676D01*
X144561309Y-49596914D01*
X146980357Y-47758438D02*
X147173880Y-47758438D01*
X147367404Y-47855200D01*
X147464166Y-47951961D01*
X147560928Y-48145485D01*
X147657690Y-48532533D01*
X147657690Y-49016342D01*
X147560928Y-49403390D01*
X147464166Y-49596914D01*
X147367404Y-49693676D01*
X147173880Y-49790438D01*
X146980357Y-49790438D01*
X146786833Y-49693676D01*
X146690071Y-49596914D01*
X146593309Y-49403390D01*
X146496547Y-49016342D01*
X146496547Y-48532533D01*
X146593309Y-48145485D01*
X146690071Y-47951961D01*
X146786833Y-47855200D01*
X146980357Y-47758438D01*
X114952166Y-52965196D02*
X114758642Y-53061958D01*
X114371595Y-53061958D01*
X114178071Y-52965196D01*
X114081309Y-52868434D01*
X113984547Y-52674910D01*
X113984547Y-52094339D01*
X114081309Y-51900815D01*
X114178071Y-51804053D01*
X114371595Y-51707291D01*
X114758642Y-51707291D01*
X114952166Y-51804053D01*
X116113309Y-53061958D02*
X115919785Y-52965196D01*
X115823023Y-52868434D01*
X115726261Y-52674910D01*
X115726261Y-52094339D01*
X115823023Y-51900815D01*
X115919785Y-51804053D01*
X116113309Y-51707291D01*
X116403595Y-51707291D01*
X116597119Y-51804053D01*
X116693880Y-51900815D01*
X116790642Y-52094339D01*
X116790642Y-52674910D01*
X116693880Y-52868434D01*
X116597119Y-52965196D01*
X116403595Y-53061958D01*
X116113309Y-53061958D01*
X117661500Y-51707291D02*
X117661500Y-53061958D01*
X117661500Y-51900815D02*
X117758261Y-51804053D01*
X117951785Y-51707291D01*
X118242071Y-51707291D01*
X118435595Y-51804053D01*
X118532357Y-51997577D01*
X118532357Y-53061958D01*
X119403214Y-52965196D02*
X119596738Y-53061958D01*
X119983785Y-53061958D01*
X120177309Y-52965196D01*
X120274071Y-52771672D01*
X120274071Y-52674910D01*
X120177309Y-52481386D01*
X119983785Y-52384624D01*
X119693500Y-52384624D01*
X119499976Y-52287862D01*
X119403214Y-52094339D01*
X119403214Y-51997577D01*
X119499976Y-51804053D01*
X119693500Y-51707291D01*
X119983785Y-51707291D01*
X120177309Y-51804053D01*
X121435214Y-53061958D02*
X121241690Y-52965196D01*
X121144928Y-52868434D01*
X121048166Y-52674910D01*
X121048166Y-52094339D01*
X121144928Y-51900815D01*
X121241690Y-51804053D01*
X121435214Y-51707291D01*
X121725500Y-51707291D01*
X121919023Y-51804053D01*
X122015785Y-51900815D01*
X122112547Y-52094339D01*
X122112547Y-52674910D01*
X122015785Y-52868434D01*
X121919023Y-52965196D01*
X121725500Y-53061958D01*
X121435214Y-53061958D01*
X123273690Y-53061958D02*
X123080166Y-52965196D01*
X122983404Y-52771672D01*
X122983404Y-51029958D01*
X124821880Y-52965196D02*
X124628357Y-53061958D01*
X124241309Y-53061958D01*
X124047785Y-52965196D01*
X123951023Y-52771672D01*
X123951023Y-51997577D01*
X124047785Y-51804053D01*
X124241309Y-51707291D01*
X124628357Y-51707291D01*
X124821880Y-51804053D01*
X124918642Y-51997577D01*
X124918642Y-52191100D01*
X123951023Y-52384624D01*
X128208547Y-53061958D02*
X128208547Y-51029958D01*
X128208547Y-52965196D02*
X128015023Y-53061958D01*
X127627976Y-53061958D01*
X127434452Y-52965196D01*
X127337690Y-52868434D01*
X127240928Y-52674910D01*
X127240928Y-52094339D01*
X127337690Y-51900815D01*
X127434452Y-51804053D01*
X127627976Y-51707291D01*
X128015023Y-51707291D01*
X128208547Y-51804053D01*
X129176166Y-53061958D02*
X129176166Y-51707291D01*
X129176166Y-52094339D02*
X129272928Y-51900815D01*
X129369690Y-51804053D01*
X129563214Y-51707291D01*
X129756738Y-51707291D01*
X130434071Y-53061958D02*
X130434071Y-51707291D01*
X130434071Y-51029958D02*
X130337309Y-51126720D01*
X130434071Y-51223481D01*
X130530833Y-51126720D01*
X130434071Y-51029958D01*
X130434071Y-51223481D01*
X131208166Y-51707291D02*
X131691976Y-53061958D01*
X132175785Y-51707291D01*
X133723976Y-52965196D02*
X133530452Y-53061958D01*
X133143404Y-53061958D01*
X132949880Y-52965196D01*
X132853119Y-52771672D01*
X132853119Y-51997577D01*
X132949880Y-51804053D01*
X133143404Y-51707291D01*
X133530452Y-51707291D01*
X133723976Y-51804053D01*
X133820738Y-51997577D01*
X133820738Y-52191100D01*
X132853119Y-52384624D01*
X134691595Y-53061958D02*
X134691595Y-51707291D01*
X134691595Y-52094339D02*
X134788357Y-51900815D01*
X134885119Y-51804053D01*
X135078642Y-51707291D01*
X135272166Y-51707291D01*
X114081309Y-59604998D02*
X114081309Y-57572998D01*
X115242452Y-59604998D02*
X114371595Y-58443855D01*
X115242452Y-57572998D02*
X114081309Y-58734140D01*
X116887404Y-59508236D02*
X116693880Y-59604998D01*
X116306833Y-59604998D01*
X116113309Y-59508236D01*
X116016547Y-59314712D01*
X116016547Y-58540617D01*
X116113309Y-58347093D01*
X116306833Y-58250331D01*
X116693880Y-58250331D01*
X116887404Y-58347093D01*
X116984166Y-58540617D01*
X116984166Y-58734140D01*
X116016547Y-58927664D01*
X117855023Y-58250331D02*
X117855023Y-59604998D01*
X117855023Y-58443855D02*
X117951785Y-58347093D01*
X118145309Y-58250331D01*
X118435595Y-58250331D01*
X118629119Y-58347093D01*
X118725880Y-58540617D01*
X118725880Y-59604998D01*
X121144928Y-59508236D02*
X121435214Y-59604998D01*
X121919023Y-59604998D01*
X122112547Y-59508236D01*
X122209309Y-59411474D01*
X122306071Y-59217950D01*
X122306071Y-59024426D01*
X122209309Y-58830902D01*
X122112547Y-58734140D01*
X121919023Y-58637379D01*
X121531976Y-58540617D01*
X121338452Y-58443855D01*
X121241690Y-58347093D01*
X121144928Y-58153569D01*
X121144928Y-57960045D01*
X121241690Y-57766521D01*
X121338452Y-57669760D01*
X121531976Y-57572998D01*
X122015785Y-57572998D01*
X122306071Y-57669760D01*
X123176928Y-59604998D02*
X123176928Y-57572998D01*
X124047785Y-59604998D02*
X124047785Y-58540617D01*
X123951023Y-58347093D01*
X123757500Y-58250331D01*
X123467214Y-58250331D01*
X123273690Y-58347093D01*
X123176928Y-58443855D01*
X125015404Y-59604998D02*
X125015404Y-58250331D01*
X125015404Y-57572998D02*
X124918642Y-57669760D01*
X125015404Y-57766521D01*
X125112166Y-57669760D01*
X125015404Y-57572998D01*
X125015404Y-57766521D01*
X125983023Y-59604998D02*
X125983023Y-58250331D01*
X125983023Y-58637379D02*
X126079785Y-58443855D01*
X126176547Y-58347093D01*
X126370071Y-58250331D01*
X126563595Y-58250331D01*
X127240928Y-59604998D02*
X127240928Y-58250331D01*
X127240928Y-58637379D02*
X127337690Y-58443855D01*
X127434452Y-58347093D01*
X127627976Y-58250331D01*
X127821500Y-58250331D01*
X128498833Y-59604998D02*
X128498833Y-58250331D01*
X128498833Y-57572998D02*
X128402071Y-57669760D01*
X128498833Y-57766521D01*
X128595595Y-57669760D01*
X128498833Y-57572998D01*
X128498833Y-57766521D01*
X129176166Y-58250331D02*
X129950261Y-58250331D01*
X129466452Y-59604998D02*
X129466452Y-57863283D01*
X129563214Y-57669760D01*
X129756738Y-57572998D01*
X129950261Y-57572998D01*
X130337309Y-58250331D02*
X131111404Y-58250331D01*
X130627595Y-59604998D02*
X130627595Y-57863283D01*
X130724357Y-57669760D01*
X130917880Y-57572998D01*
X131111404Y-57572998D01*
X114081309Y-62876518D02*
X114081309Y-61521851D01*
X114081309Y-61908899D02*
X114178071Y-61715375D01*
X114274833Y-61618613D01*
X114468357Y-61521851D01*
X114661880Y-61521851D01*
X115339214Y-62876518D02*
X115339214Y-61521851D01*
X115339214Y-60844518D02*
X115242452Y-60941280D01*
X115339214Y-61038041D01*
X115435976Y-60941280D01*
X115339214Y-60844518D01*
X115339214Y-61038041D01*
X117177690Y-61521851D02*
X117177690Y-63166803D01*
X117080928Y-63360327D01*
X116984166Y-63457089D01*
X116790642Y-63553851D01*
X116500357Y-63553851D01*
X116306833Y-63457089D01*
X117177690Y-62779756D02*
X116984166Y-62876518D01*
X116597119Y-62876518D01*
X116403595Y-62779756D01*
X116306833Y-62682994D01*
X116210071Y-62489470D01*
X116210071Y-61908899D01*
X116306833Y-61715375D01*
X116403595Y-61618613D01*
X116597119Y-61521851D01*
X116984166Y-61521851D01*
X117177690Y-61618613D01*
X118145309Y-62876518D02*
X118145309Y-60844518D01*
X119016166Y-62876518D02*
X119016166Y-61812137D01*
X118919404Y-61618613D01*
X118725880Y-61521851D01*
X118435595Y-61521851D01*
X118242071Y-61618613D01*
X118145309Y-61715375D01*
X119693500Y-61521851D02*
X120467595Y-61521851D01*
X119983785Y-60844518D02*
X119983785Y-62586232D01*
X120080547Y-62779756D01*
X120274071Y-62876518D01*
X120467595Y-62876518D01*
X121435214Y-62876518D02*
X121241690Y-62779756D01*
X121144928Y-62682994D01*
X121048166Y-62489470D01*
X121048166Y-61908899D01*
X121144928Y-61715375D01*
X121241690Y-61618613D01*
X121435214Y-61521851D01*
X121725500Y-61521851D01*
X121919023Y-61618613D01*
X122015785Y-61715375D01*
X122112547Y-61908899D01*
X122112547Y-62489470D01*
X122015785Y-62682994D01*
X121919023Y-62779756D01*
X121725500Y-62876518D01*
X121435214Y-62876518D01*
X122983404Y-62682994D02*
X123080166Y-62779756D01*
X122983404Y-62876518D01*
X122886642Y-62779756D01*
X122983404Y-62682994D01*
X122983404Y-62876518D01*
X124821880Y-62779756D02*
X124628357Y-62876518D01*
X124241309Y-62876518D01*
X124047785Y-62779756D01*
X123951023Y-62682994D01*
X123854261Y-62489470D01*
X123854261Y-61908899D01*
X123951023Y-61715375D01*
X124047785Y-61618613D01*
X124241309Y-61521851D01*
X124628357Y-61521851D01*
X124821880Y-61618613D01*
X125983023Y-62876518D02*
X125789500Y-62779756D01*
X125692738Y-62682994D01*
X125595976Y-62489470D01*
X125595976Y-61908899D01*
X125692738Y-61715375D01*
X125789500Y-61618613D01*
X125983023Y-61521851D01*
X126273309Y-61521851D01*
X126466833Y-61618613D01*
X126563595Y-61715375D01*
X126660357Y-61908899D01*
X126660357Y-62489470D01*
X126563595Y-62682994D01*
X126466833Y-62779756D01*
X126273309Y-62876518D01*
X125983023Y-62876518D01*
X127531214Y-62876518D02*
X127531214Y-61521851D01*
X127531214Y-61715375D02*
X127627976Y-61618613D01*
X127821500Y-61521851D01*
X128111785Y-61521851D01*
X128305309Y-61618613D01*
X128402071Y-61812137D01*
X128402071Y-62876518D01*
X128402071Y-61812137D02*
X128498833Y-61618613D01*
X128692357Y-61521851D01*
X128982642Y-61521851D01*
X129176166Y-61618613D01*
X129272928Y-61812137D01*
X129272928Y-62876518D01*
X131691976Y-60747756D02*
X129950261Y-63360327D01*
X132175785Y-60844518D02*
X133433690Y-60844518D01*
X132756357Y-61618613D01*
X133046642Y-61618613D01*
X133240166Y-61715375D01*
X133336928Y-61812137D01*
X133433690Y-62005660D01*
X133433690Y-62489470D01*
X133336928Y-62682994D01*
X133240166Y-62779756D01*
X133046642Y-62876518D01*
X132466071Y-62876518D01*
X132272547Y-62779756D01*
X132175785Y-62682994D01*
X135175404Y-60844518D02*
X134788357Y-60844518D01*
X134594833Y-60941280D01*
X134498071Y-61038041D01*
X134304547Y-61328327D01*
X134207785Y-61715375D01*
X134207785Y-62489470D01*
X134304547Y-62682994D01*
X134401309Y-62779756D01*
X134594833Y-62876518D01*
X134981880Y-62876518D01*
X135175404Y-62779756D01*
X135272166Y-62682994D01*
X135368928Y-62489470D01*
X135368928Y-62005660D01*
X135272166Y-61812137D01*
X135175404Y-61715375D01*
X134981880Y-61618613D01*
X134594833Y-61618613D01*
X134401309Y-61715375D01*
X134304547Y-61812137D01*
X134207785Y-62005660D01*
X136626833Y-60844518D02*
X136820357Y-60844518D01*
X137013880Y-60941280D01*
X137110642Y-61038041D01*
X137207404Y-61231565D01*
X137304166Y-61618613D01*
X137304166Y-62102422D01*
X137207404Y-62489470D01*
X137110642Y-62682994D01*
X137013880Y-62779756D01*
X136820357Y-62876518D01*
X136626833Y-62876518D01*
X136433309Y-62779756D01*
X136336547Y-62682994D01*
X136239785Y-62489470D01*
X136143023Y-62102422D01*
X136143023Y-61618613D01*
X136239785Y-61231565D01*
X136336547Y-61038041D01*
X136433309Y-60941280D01*
X136626833Y-60844518D01*
X138465309Y-62876518D02*
X138271785Y-62779756D01*
X138175023Y-62586232D01*
X138175023Y-60844518D01*
X140013500Y-62779756D02*
X139819976Y-62876518D01*
X139432928Y-62876518D01*
X139239404Y-62779756D01*
X139142642Y-62586232D01*
X139142642Y-61812137D01*
X139239404Y-61618613D01*
X139432928Y-61521851D01*
X139819976Y-61521851D01*
X140013500Y-61618613D01*
X140110261Y-61812137D01*
X140110261Y-62005660D01*
X139142642Y-62199184D01*
X141851976Y-62876518D02*
X141851976Y-60844518D01*
X141851976Y-62779756D02*
X141658452Y-62876518D01*
X141271404Y-62876518D01*
X141077880Y-62779756D01*
X140981119Y-62682994D01*
X140884357Y-62489470D01*
X140884357Y-61908899D01*
X140981119Y-61715375D01*
X141077880Y-61618613D01*
X141271404Y-61521851D01*
X141658452Y-61521851D01*
X141851976Y-61618613D01*
X113887785Y-64793371D02*
X114371595Y-66148038D01*
X114855404Y-64793371D01*
X116693880Y-66148038D02*
X115532738Y-66148038D01*
X116113309Y-66148038D02*
X116113309Y-64116038D01*
X115919785Y-64406323D01*
X115726261Y-64599847D01*
X115532738Y-64696609D01*
X117564738Y-65954514D02*
X117661500Y-66051276D01*
X117564738Y-66148038D01*
X117467976Y-66051276D01*
X117564738Y-65954514D01*
X117564738Y-66148038D01*
X118435595Y-64309561D02*
X118532357Y-64212800D01*
X118725880Y-64116038D01*
X119209690Y-64116038D01*
X119403214Y-64212800D01*
X119499976Y-64309561D01*
X119596738Y-64503085D01*
X119596738Y-64696609D01*
X119499976Y-64986895D01*
X118338833Y-66148038D01*
X119596738Y-66148038D01*
X120467595Y-65954514D02*
X120564357Y-66051276D01*
X120467595Y-66148038D01*
X120370833Y-66051276D01*
X120467595Y-65954514D01*
X120467595Y-66148038D01*
X122499595Y-66148038D02*
X121338452Y-66148038D01*
X121919023Y-66148038D02*
X121919023Y-64116038D01*
X121725500Y-64406323D01*
X121531976Y-64599847D01*
X121338452Y-64696609D01*
X223433333Y-64702380D02*
X223433333Y-63702380D01*
X223766666Y-64416666D01*
X224100000Y-63702380D01*
X224100000Y-64702380D01*
X225147619Y-64607142D02*
X225100000Y-64654761D01*
X224957142Y-64702380D01*
X224861904Y-64702380D01*
X224719047Y-64654761D01*
X224623809Y-64559523D01*
X224576190Y-64464285D01*
X224528571Y-64273809D01*
X224528571Y-64130952D01*
X224576190Y-63940476D01*
X224623809Y-63845238D01*
X224719047Y-63750000D01*
X224861904Y-63702380D01*
X224957142Y-63702380D01*
X225100000Y-63750000D01*
X225147619Y-63797619D01*
X225576190Y-64702380D02*
X225576190Y-63702380D01*
X225957142Y-63702380D01*
X226052380Y-63750000D01*
X226100000Y-63797619D01*
X226147619Y-63892857D01*
X226147619Y-64035714D01*
X226100000Y-64130952D01*
X226052380Y-64178571D01*
X225957142Y-64226190D01*
X225576190Y-64226190D01*
X227004761Y-64035714D02*
X227004761Y-64702380D01*
X226766666Y-63654761D02*
X226528571Y-64369047D01*
X227147619Y-64369047D01*
X227433333Y-63702380D02*
X228100000Y-63702380D01*
X227671428Y-64702380D01*
X229052380Y-64607142D02*
X229004761Y-64654761D01*
X228861904Y-64702380D01*
X228766666Y-64702380D01*
X228623809Y-64654761D01*
X228528571Y-64559523D01*
X228480952Y-64464285D01*
X228433333Y-64273809D01*
X228433333Y-64130952D01*
X228480952Y-63940476D01*
X228528571Y-63845238D01*
X228623809Y-63750000D01*
X228766666Y-63702380D01*
X228861904Y-63702380D01*
X229004761Y-63750000D01*
X229052380Y-63797619D01*
X229338095Y-63702380D02*
X229671428Y-64702380D01*
X230004761Y-63702380D01*
X230671428Y-64178571D02*
X230814285Y-64226190D01*
X230861904Y-64273809D01*
X230909523Y-64369047D01*
X230909523Y-64511904D01*
X230861904Y-64607142D01*
X230814285Y-64654761D01*
X230719047Y-64702380D01*
X230338095Y-64702380D01*
X230338095Y-63702380D01*
X230671428Y-63702380D01*
X230766666Y-63750000D01*
X230814285Y-63797619D01*
X230861904Y-63892857D01*
X230861904Y-63988095D01*
X230814285Y-64083333D01*
X230766666Y-64130952D01*
X230671428Y-64178571D01*
X230338095Y-64178571D01*
X231528571Y-63702380D02*
X231623809Y-63702380D01*
X231719047Y-63750000D01*
X231766666Y-63797619D01*
X231814285Y-63892857D01*
X231861904Y-64083333D01*
X231861904Y-64321428D01*
X231814285Y-64511904D01*
X231766666Y-64607142D01*
X231719047Y-64654761D01*
X231623809Y-64702380D01*
X231528571Y-64702380D01*
X231433333Y-64654761D01*
X231385714Y-64607142D01*
X231338095Y-64511904D01*
X231290476Y-64321428D01*
X231290476Y-64083333D01*
X231338095Y-63892857D01*
X231385714Y-63797619D01*
X231433333Y-63750000D01*
X231528571Y-63702380D01*
X232814285Y-64702380D02*
X232242857Y-64702380D01*
X232528571Y-64702380D02*
X232528571Y-63702380D01*
X232433333Y-63845238D01*
X232338095Y-63940476D01*
X232242857Y-63988095D01*
X189785714Y-47877380D02*
X189214285Y-47877380D01*
X189500000Y-47877380D02*
X189500000Y-46877380D01*
X189404761Y-47020238D01*
X189309523Y-47115476D01*
X189214285Y-47163095D01*
D11*
X233592714Y-46119714D02*
X233157285Y-46119714D01*
X233375000Y-46119714D02*
X233375000Y-45357714D01*
X233302428Y-45466571D01*
X233229857Y-45539142D01*
X233157285Y-45575428D01*
D10*
X228490476Y-35261666D02*
X228966666Y-35261666D01*
X228395238Y-35547380D02*
X228728571Y-34547380D01*
X229061904Y-35547380D01*
X229395238Y-34880714D02*
X229395238Y-35547380D01*
X229395238Y-34975952D02*
X229442857Y-34928333D01*
X229538095Y-34880714D01*
X229680952Y-34880714D01*
X229776190Y-34928333D01*
X229823809Y-35023571D01*
X229823809Y-35547380D01*
X230728571Y-35547380D02*
X230728571Y-35023571D01*
X230680952Y-34928333D01*
X230585714Y-34880714D01*
X230395238Y-34880714D01*
X230300000Y-34928333D01*
X230728571Y-35499761D02*
X230633333Y-35547380D01*
X230395238Y-35547380D01*
X230300000Y-35499761D01*
X230252380Y-35404523D01*
X230252380Y-35309285D01*
X230300000Y-35214047D01*
X230395238Y-35166428D01*
X230633333Y-35166428D01*
X230728571Y-35118809D01*
X231347619Y-35547380D02*
X231252380Y-35499761D01*
X231204761Y-35404523D01*
X231204761Y-34547380D01*
X231871428Y-35547380D02*
X231776190Y-35499761D01*
X231728571Y-35452142D01*
X231680952Y-35356904D01*
X231680952Y-35071190D01*
X231728571Y-34975952D01*
X231776190Y-34928333D01*
X231871428Y-34880714D01*
X232014285Y-34880714D01*
X232109523Y-34928333D01*
X232157142Y-34975952D01*
X232204761Y-35071190D01*
X232204761Y-35356904D01*
X232157142Y-35452142D01*
X232109523Y-35499761D01*
X232014285Y-35547380D01*
X231871428Y-35547380D01*
X233061904Y-34880714D02*
X233061904Y-35690238D01*
X233014285Y-35785476D01*
X232966666Y-35833095D01*
X232871428Y-35880714D01*
X232728571Y-35880714D01*
X232633333Y-35833095D01*
X233061904Y-35499761D02*
X232966666Y-35547380D01*
X232776190Y-35547380D01*
X232680952Y-35499761D01*
X232633333Y-35452142D01*
X232585714Y-35356904D01*
X232585714Y-35071190D01*
X232633333Y-34975952D01*
X232680952Y-34928333D01*
X232776190Y-34880714D01*
X232966666Y-34880714D01*
X233061904Y-34928333D01*
X230347619Y-37157380D02*
X230347619Y-36490714D01*
X230347619Y-36157380D02*
X230300000Y-36205000D01*
X230347619Y-36252619D01*
X230395238Y-36205000D01*
X230347619Y-36157380D01*
X230347619Y-36252619D01*
X230823809Y-36490714D02*
X230823809Y-37157380D01*
X230823809Y-36585952D02*
X230871428Y-36538333D01*
X230966666Y-36490714D01*
X231109523Y-36490714D01*
X231204761Y-36538333D01*
X231252380Y-36633571D01*
X231252380Y-37157380D01*
X62379761Y-53752380D02*
X62379761Y-52752380D01*
X62760714Y-52752380D01*
X62855952Y-52800000D01*
X62903571Y-52847619D01*
X62951190Y-52942857D01*
X62951190Y-53085714D01*
X62903571Y-53180952D01*
X62855952Y-53228571D01*
X62760714Y-53276190D01*
X62379761Y-53276190D01*
X63951190Y-53657142D02*
X63903571Y-53704761D01*
X63760714Y-53752380D01*
X63665476Y-53752380D01*
X63522619Y-53704761D01*
X63427380Y-53609523D01*
X63379761Y-53514285D01*
X63332142Y-53323809D01*
X63332142Y-53180952D01*
X63379761Y-52990476D01*
X63427380Y-52895238D01*
X63522619Y-52800000D01*
X63665476Y-52752380D01*
X63760714Y-52752380D01*
X63903571Y-52800000D01*
X63951190Y-52847619D01*
X64332142Y-53466666D02*
X64808333Y-53466666D01*
X64236904Y-53752380D02*
X64570238Y-52752380D01*
X64903571Y-53752380D01*
X65284523Y-53752380D02*
X65475000Y-53752380D01*
X65570238Y-53704761D01*
X65617857Y-53657142D01*
X65713095Y-53514285D01*
X65760714Y-53323809D01*
X65760714Y-52942857D01*
X65713095Y-52847619D01*
X65665476Y-52800000D01*
X65570238Y-52752380D01*
X65379761Y-52752380D01*
X65284523Y-52800000D01*
X65236904Y-52847619D01*
X65189285Y-52942857D01*
X65189285Y-53180952D01*
X65236904Y-53276190D01*
X65284523Y-53323809D01*
X65379761Y-53371428D01*
X65570238Y-53371428D01*
X65665476Y-53323809D01*
X65713095Y-53276190D01*
X65760714Y-53180952D01*
X66665476Y-52752380D02*
X66189285Y-52752380D01*
X66141666Y-53228571D01*
X66189285Y-53180952D01*
X66284523Y-53133333D01*
X66522619Y-53133333D01*
X66617857Y-53180952D01*
X66665476Y-53228571D01*
X66713095Y-53323809D01*
X66713095Y-53561904D01*
X66665476Y-53657142D01*
X66617857Y-53704761D01*
X66522619Y-53752380D01*
X66284523Y-53752380D01*
X66189285Y-53704761D01*
X66141666Y-53657142D01*
X67617857Y-52752380D02*
X67141666Y-52752380D01*
X67094047Y-53228571D01*
X67141666Y-53180952D01*
X67236904Y-53133333D01*
X67475000Y-53133333D01*
X67570238Y-53180952D01*
X67617857Y-53228571D01*
X67665476Y-53323809D01*
X67665476Y-53561904D01*
X67617857Y-53657142D01*
X67570238Y-53704761D01*
X67475000Y-53752380D01*
X67236904Y-53752380D01*
X67141666Y-53704761D01*
X67094047Y-53657142D01*
X68570238Y-52752380D02*
X68094047Y-52752380D01*
X68046428Y-53228571D01*
X68094047Y-53180952D01*
X68189285Y-53133333D01*
X68427380Y-53133333D01*
X68522619Y-53180952D01*
X68570238Y-53228571D01*
X68617857Y-53323809D01*
X68617857Y-53561904D01*
X68570238Y-53657142D01*
X68522619Y-53704761D01*
X68427380Y-53752380D01*
X68189285Y-53752380D01*
X68094047Y-53704761D01*
X68046428Y-53657142D01*
X69046428Y-53752380D02*
X69046428Y-52752380D01*
X69284523Y-52752380D01*
X69427380Y-52800000D01*
X69522619Y-52895238D01*
X69570238Y-52990476D01*
X69617857Y-53180952D01*
X69617857Y-53323809D01*
X69570238Y-53514285D01*
X69522619Y-53609523D01*
X69427380Y-53704761D01*
X69284523Y-53752380D01*
X69046428Y-53752380D01*
X171352380Y-68152380D02*
X170876190Y-68152380D01*
X170876190Y-67152380D01*
X171685714Y-67628571D02*
X172019047Y-67628571D01*
X172161904Y-68152380D02*
X171685714Y-68152380D01*
X171685714Y-67152380D01*
X172161904Y-67152380D01*
X172590476Y-68152380D02*
X172590476Y-67152380D01*
X172828571Y-67152380D01*
X172971428Y-67200000D01*
X173066666Y-67295238D01*
X173114285Y-67390476D01*
X173161904Y-67580952D01*
X173161904Y-67723809D01*
X173114285Y-67914285D01*
X173066666Y-68009523D01*
X172971428Y-68104761D01*
X172828571Y-68152380D01*
X172590476Y-68152380D01*
X173542857Y-68104761D02*
X173638095Y-68152380D01*
X173828571Y-68152380D01*
X173923809Y-68104761D01*
X173971428Y-68009523D01*
X173971428Y-67961904D01*
X173923809Y-67866666D01*
X173828571Y-67819047D01*
X173685714Y-67819047D01*
X173590476Y-67771428D01*
X173542857Y-67676190D01*
X173542857Y-67628571D01*
X173590476Y-67533333D01*
X173685714Y-67485714D01*
X173828571Y-67485714D01*
X173923809Y-67533333D01*
X115847619Y-33052380D02*
X115276190Y-33052380D01*
X115561904Y-33052380D02*
X115561904Y-32052380D01*
X115466666Y-32195238D01*
X115371428Y-32290476D01*
X115276190Y-32338095D01*
X117990476Y-32052380D02*
X118085714Y-32052380D01*
X118180952Y-32100000D01*
X118228571Y-32147619D01*
X118276190Y-32242857D01*
X118323809Y-32433333D01*
X118323809Y-32671428D01*
X118276190Y-32861904D01*
X118228571Y-32957142D01*
X118180952Y-33004761D01*
X118085714Y-33052380D01*
X117990476Y-33052380D01*
X117895238Y-33004761D01*
X117847619Y-32957142D01*
X117800000Y-32861904D01*
X117752380Y-32671428D01*
X117752380Y-32433333D01*
X117800000Y-32242857D01*
X117847619Y-32147619D01*
X117895238Y-32100000D01*
X117990476Y-32052380D01*
X46969047Y-51421428D02*
X47730952Y-51421428D01*
X232740476Y-70371428D02*
X233502380Y-70371428D01*
X233121428Y-70752380D02*
X233121428Y-69990476D01*
X235169047Y-70085714D02*
X235169047Y-70895238D01*
X235121428Y-70990476D01*
X235073809Y-71038095D01*
X234978571Y-71085714D01*
X234835714Y-71085714D01*
X234740476Y-71038095D01*
X235169047Y-70704761D02*
X235073809Y-70752380D01*
X234883333Y-70752380D01*
X234788095Y-70704761D01*
X234740476Y-70657142D01*
X234692857Y-70561904D01*
X234692857Y-70276190D01*
X234740476Y-70180952D01*
X234788095Y-70133333D01*
X234883333Y-70085714D01*
X235073809Y-70085714D01*
X235169047Y-70133333D01*
X235645238Y-70085714D02*
X235645238Y-70752380D01*
X235645238Y-70180952D02*
X235692857Y-70133333D01*
X235788095Y-70085714D01*
X235930952Y-70085714D01*
X236026190Y-70133333D01*
X236073809Y-70228571D01*
X236073809Y-70752380D01*
X236978571Y-70752380D02*
X236978571Y-69752380D01*
X236978571Y-70704761D02*
X236883333Y-70752380D01*
X236692857Y-70752380D01*
X236597619Y-70704761D01*
X236550000Y-70657142D01*
X236502380Y-70561904D01*
X236502380Y-70276190D01*
X236550000Y-70180952D01*
X236597619Y-70133333D01*
X236692857Y-70085714D01*
X236883333Y-70085714D01*
X236978571Y-70133333D01*
X237454761Y-70657142D02*
X237502380Y-70704761D01*
X237454761Y-70752380D01*
X237407142Y-70704761D01*
X237454761Y-70657142D01*
X237454761Y-70752380D01*
X237454761Y-70133333D02*
X237502380Y-70180952D01*
X237454761Y-70228571D01*
X237407142Y-70180952D01*
X237454761Y-70133333D01*
X237454761Y-70228571D01*
X238645238Y-70466666D02*
X239121428Y-70466666D01*
X238550000Y-70752380D02*
X238883333Y-69752380D01*
X239216666Y-70752380D01*
X239550000Y-70085714D02*
X239550000Y-70752380D01*
X239550000Y-70180952D02*
X239597619Y-70133333D01*
X239692857Y-70085714D01*
X239835714Y-70085714D01*
X239930952Y-70133333D01*
X239978571Y-70228571D01*
X239978571Y-70752380D01*
X240883333Y-70752380D02*
X240883333Y-70228571D01*
X240835714Y-70133333D01*
X240740476Y-70085714D01*
X240550000Y-70085714D01*
X240454761Y-70133333D01*
X240883333Y-70704761D02*
X240788095Y-70752380D01*
X240550000Y-70752380D01*
X240454761Y-70704761D01*
X240407142Y-70609523D01*
X240407142Y-70514285D01*
X240454761Y-70419047D01*
X240550000Y-70371428D01*
X240788095Y-70371428D01*
X240883333Y-70323809D01*
X241502380Y-70752380D02*
X241407142Y-70704761D01*
X241359523Y-70609523D01*
X241359523Y-69752380D01*
X242026190Y-70752380D02*
X241930952Y-70704761D01*
X241883333Y-70657142D01*
X241835714Y-70561904D01*
X241835714Y-70276190D01*
X241883333Y-70180952D01*
X241930952Y-70133333D01*
X242026190Y-70085714D01*
X242169047Y-70085714D01*
X242264285Y-70133333D01*
X242311904Y-70180952D01*
X242359523Y-70276190D01*
X242359523Y-70561904D01*
X242311904Y-70657142D01*
X242264285Y-70704761D01*
X242169047Y-70752380D01*
X242026190Y-70752380D01*
X243216666Y-70085714D02*
X243216666Y-70895238D01*
X243169047Y-70990476D01*
X243121428Y-71038095D01*
X243026190Y-71085714D01*
X242883333Y-71085714D01*
X242788095Y-71038095D01*
X243216666Y-70704761D02*
X243121428Y-70752380D01*
X242930952Y-70752380D01*
X242835714Y-70704761D01*
X242788095Y-70657142D01*
X242740476Y-70561904D01*
X242740476Y-70276190D01*
X242788095Y-70180952D01*
X242835714Y-70133333D01*
X242930952Y-70085714D01*
X243121428Y-70085714D01*
X243216666Y-70133333D01*
X244597619Y-70752380D02*
X244502380Y-70704761D01*
X244454761Y-70657142D01*
X244407142Y-70561904D01*
X244407142Y-70276190D01*
X244454761Y-70180952D01*
X244502380Y-70133333D01*
X244597619Y-70085714D01*
X244740476Y-70085714D01*
X244835714Y-70133333D01*
X244883333Y-70180952D01*
X244930952Y-70276190D01*
X244930952Y-70561904D01*
X244883333Y-70657142D01*
X244835714Y-70704761D01*
X244740476Y-70752380D01*
X244597619Y-70752380D01*
X245788095Y-70085714D02*
X245788095Y-70752380D01*
X245359523Y-70085714D02*
X245359523Y-70609523D01*
X245407142Y-70704761D01*
X245502380Y-70752380D01*
X245645238Y-70752380D01*
X245740476Y-70704761D01*
X245788095Y-70657142D01*
X246121428Y-70085714D02*
X246502380Y-70085714D01*
X246264285Y-69752380D02*
X246264285Y-70609523D01*
X246311904Y-70704761D01*
X246407142Y-70752380D01*
X246502380Y-70752380D01*
X221148809Y-71154761D02*
X221291666Y-71202380D01*
X221529761Y-71202380D01*
X221625000Y-71154761D01*
X221672619Y-71107142D01*
X221720238Y-71011904D01*
X221720238Y-70916666D01*
X221672619Y-70821428D01*
X221625000Y-70773809D01*
X221529761Y-70726190D01*
X221339285Y-70678571D01*
X221244047Y-70630952D01*
X221196428Y-70583333D01*
X221148809Y-70488095D01*
X221148809Y-70392857D01*
X221196428Y-70297619D01*
X221244047Y-70250000D01*
X221339285Y-70202380D01*
X221577380Y-70202380D01*
X221720238Y-70250000D01*
X222148809Y-71202380D02*
X222148809Y-70202380D01*
X222386904Y-70202380D01*
X222529761Y-70250000D01*
X222625000Y-70345238D01*
X222672619Y-70440476D01*
X222720238Y-70630952D01*
X222720238Y-70773809D01*
X222672619Y-70964285D01*
X222625000Y-71059523D01*
X222529761Y-71154761D01*
X222386904Y-71202380D01*
X222148809Y-71202380D01*
X223101190Y-70916666D02*
X223577380Y-70916666D01*
X223005952Y-71202380D02*
X223339285Y-70202380D01*
X223672619Y-71202380D01*
X224720238Y-71154761D02*
X224863095Y-71202380D01*
X225101190Y-71202380D01*
X225196428Y-71154761D01*
X225244047Y-71107142D01*
X225291666Y-71011904D01*
X225291666Y-70916666D01*
X225244047Y-70821428D01*
X225196428Y-70773809D01*
X225101190Y-70726190D01*
X224910714Y-70678571D01*
X224815476Y-70630952D01*
X224767857Y-70583333D01*
X224720238Y-70488095D01*
X224720238Y-70392857D01*
X224767857Y-70297619D01*
X224815476Y-70250000D01*
X224910714Y-70202380D01*
X225148809Y-70202380D01*
X225291666Y-70250000D01*
X226291666Y-71107142D02*
X226244047Y-71154761D01*
X226101190Y-71202380D01*
X226005952Y-71202380D01*
X225863095Y-71154761D01*
X225767857Y-71059523D01*
X225720238Y-70964285D01*
X225672619Y-70773809D01*
X225672619Y-70630952D01*
X225720238Y-70440476D01*
X225767857Y-70345238D01*
X225863095Y-70250000D01*
X226005952Y-70202380D01*
X226101190Y-70202380D01*
X226244047Y-70250000D01*
X226291666Y-70297619D01*
X227196428Y-71202380D02*
X226720238Y-71202380D01*
X226720238Y-70202380D01*
X233799142Y-61476000D02*
X233703904Y-61428380D01*
X233561047Y-61428380D01*
X233418190Y-61476000D01*
X233322952Y-61571238D01*
X233275333Y-61666476D01*
X233227714Y-61856952D01*
X233227714Y-61999809D01*
X233275333Y-62190285D01*
X233322952Y-62285523D01*
X233418190Y-62380761D01*
X233561047Y-62428380D01*
X233656285Y-62428380D01*
X233799142Y-62380761D01*
X233846761Y-62333142D01*
X233846761Y-61999809D01*
X233656285Y-61999809D01*
X234275333Y-61761714D02*
X234275333Y-62428380D01*
X234275333Y-61856952D02*
X234322952Y-61809333D01*
X234418190Y-61761714D01*
X234561047Y-61761714D01*
X234656285Y-61809333D01*
X234703904Y-61904571D01*
X234703904Y-62428380D01*
X235608666Y-62428380D02*
X235608666Y-61428380D01*
X235608666Y-62380761D02*
X235513428Y-62428380D01*
X235322952Y-62428380D01*
X235227714Y-62380761D01*
X235180095Y-62333142D01*
X235132476Y-62237904D01*
X235132476Y-61952190D01*
X235180095Y-61856952D01*
X235227714Y-61809333D01*
X235322952Y-61761714D01*
X235513428Y-61761714D01*
X235608666Y-61809333D01*
X217905952Y-41666666D02*
X218382142Y-41666666D01*
X217810714Y-41952380D02*
X218144047Y-40952380D01*
X218477380Y-41952380D01*
X218810714Y-41952380D02*
X218810714Y-40952380D01*
X219048809Y-40952380D01*
X219191666Y-41000000D01*
X219286904Y-41095238D01*
X219334523Y-41190476D01*
X219382142Y-41380952D01*
X219382142Y-41523809D01*
X219334523Y-41714285D01*
X219286904Y-41809523D01*
X219191666Y-41904761D01*
X219048809Y-41952380D01*
X218810714Y-41952380D01*
X219763095Y-41904761D02*
X219905952Y-41952380D01*
X220144047Y-41952380D01*
X220239285Y-41904761D01*
X220286904Y-41857142D01*
X220334523Y-41761904D01*
X220334523Y-41666666D01*
X220286904Y-41571428D01*
X220239285Y-41523809D01*
X220144047Y-41476190D01*
X219953571Y-41428571D01*
X219858333Y-41380952D01*
X219810714Y-41333333D01*
X219763095Y-41238095D01*
X219763095Y-41142857D01*
X219810714Y-41047619D01*
X219858333Y-41000000D01*
X219953571Y-40952380D01*
X220191666Y-40952380D01*
X220334523Y-41000000D01*
X220667857Y-40952380D02*
X221334523Y-40952380D01*
X220905952Y-41952380D01*
X221858333Y-41380952D02*
X221763095Y-41333333D01*
X221715476Y-41285714D01*
X221667857Y-41190476D01*
X221667857Y-41142857D01*
X221715476Y-41047619D01*
X221763095Y-41000000D01*
X221858333Y-40952380D01*
X222048809Y-40952380D01*
X222144047Y-41000000D01*
X222191666Y-41047619D01*
X222239285Y-41142857D01*
X222239285Y-41190476D01*
X222191666Y-41285714D01*
X222144047Y-41333333D01*
X222048809Y-41380952D01*
X221858333Y-41380952D01*
X221763095Y-41428571D01*
X221715476Y-41476190D01*
X221667857Y-41571428D01*
X221667857Y-41761904D01*
X221715476Y-41857142D01*
X221763095Y-41904761D01*
X221858333Y-41952380D01*
X222048809Y-41952380D01*
X222144047Y-41904761D01*
X222191666Y-41857142D01*
X222239285Y-41761904D01*
X222239285Y-41571428D01*
X222191666Y-41476190D01*
X222144047Y-41428571D01*
X222048809Y-41380952D01*
X222620238Y-41047619D02*
X222667857Y-41000000D01*
X222763095Y-40952380D01*
X223001190Y-40952380D01*
X223096428Y-41000000D01*
X223144047Y-41047619D01*
X223191666Y-41142857D01*
X223191666Y-41238095D01*
X223144047Y-41380952D01*
X222572619Y-41952380D01*
X223191666Y-41952380D01*
X223763095Y-41380952D02*
X223667857Y-41333333D01*
X223620238Y-41285714D01*
X223572619Y-41190476D01*
X223572619Y-41142857D01*
X223620238Y-41047619D01*
X223667857Y-41000000D01*
X223763095Y-40952380D01*
X223953571Y-40952380D01*
X224048809Y-41000000D01*
X224096428Y-41047619D01*
X224144047Y-41142857D01*
X224144047Y-41190476D01*
X224096428Y-41285714D01*
X224048809Y-41333333D01*
X223953571Y-41380952D01*
X223763095Y-41380952D01*
X223667857Y-41428571D01*
X223620238Y-41476190D01*
X223572619Y-41571428D01*
X223572619Y-41761904D01*
X223620238Y-41857142D01*
X223667857Y-41904761D01*
X223763095Y-41952380D01*
X223953571Y-41952380D01*
X224048809Y-41904761D01*
X224096428Y-41857142D01*
X224144047Y-41761904D01*
X224144047Y-41571428D01*
X224096428Y-41476190D01*
X224048809Y-41428571D01*
X223953571Y-41380952D01*
D11*
X231742714Y-68219714D02*
X231307285Y-68219714D01*
X231525000Y-68219714D02*
X231525000Y-67457714D01*
X231452428Y-67566571D01*
X231379857Y-67639142D01*
X231307285Y-67675428D01*
D10*
X122623809Y-68847380D02*
X122623809Y-67847380D01*
X123004761Y-67847380D01*
X123100000Y-67895000D01*
X123147619Y-67942619D01*
X123195238Y-68037857D01*
X123195238Y-68180714D01*
X123147619Y-68275952D01*
X123100000Y-68323571D01*
X123004761Y-68371190D01*
X122623809Y-68371190D01*
X123766666Y-68847380D02*
X123671428Y-68799761D01*
X123623809Y-68752142D01*
X123576190Y-68656904D01*
X123576190Y-68371190D01*
X123623809Y-68275952D01*
X123671428Y-68228333D01*
X123766666Y-68180714D01*
X123909523Y-68180714D01*
X124004761Y-68228333D01*
X124052380Y-68275952D01*
X124100000Y-68371190D01*
X124100000Y-68656904D01*
X124052380Y-68752142D01*
X124004761Y-68799761D01*
X123909523Y-68847380D01*
X123766666Y-68847380D01*
X124433333Y-68180714D02*
X124623809Y-68847380D01*
X124814285Y-68371190D01*
X125004761Y-68847380D01*
X125195238Y-68180714D01*
X125957142Y-68799761D02*
X125861904Y-68847380D01*
X125671428Y-68847380D01*
X125576190Y-68799761D01*
X125528571Y-68704523D01*
X125528571Y-68323571D01*
X125576190Y-68228333D01*
X125671428Y-68180714D01*
X125861904Y-68180714D01*
X125957142Y-68228333D01*
X126004761Y-68323571D01*
X126004761Y-68418809D01*
X125528571Y-68514047D01*
X126433333Y-68847380D02*
X126433333Y-68180714D01*
X126433333Y-68371190D02*
X126480952Y-68275952D01*
X126528571Y-68228333D01*
X126623809Y-68180714D01*
X126719047Y-68180714D01*
X119004761Y-70076428D02*
X119766666Y-70076428D01*
X119385714Y-70457380D02*
X119385714Y-69695476D01*
X120719047Y-69457380D02*
X120242857Y-69457380D01*
X120195238Y-69933571D01*
X120242857Y-69885952D01*
X120338095Y-69838333D01*
X120576190Y-69838333D01*
X120671428Y-69885952D01*
X120719047Y-69933571D01*
X120766666Y-70028809D01*
X120766666Y-70266904D01*
X120719047Y-70362142D01*
X120671428Y-70409761D01*
X120576190Y-70457380D01*
X120338095Y-70457380D01*
X120242857Y-70409761D01*
X120195238Y-70362142D01*
X121957142Y-70076428D02*
X122719047Y-70076428D01*
X122338095Y-70457380D02*
X122338095Y-69695476D01*
X123671428Y-69457380D02*
X123195238Y-69457380D01*
X123147619Y-69933571D01*
X123195238Y-69885952D01*
X123290476Y-69838333D01*
X123528571Y-69838333D01*
X123623809Y-69885952D01*
X123671428Y-69933571D01*
X123719047Y-70028809D01*
X123719047Y-70266904D01*
X123671428Y-70362142D01*
X123623809Y-70409761D01*
X123528571Y-70457380D01*
X123290476Y-70457380D01*
X123195238Y-70409761D01*
X123147619Y-70362142D01*
X125338095Y-69790714D02*
X125338095Y-70600238D01*
X125290476Y-70695476D01*
X125242857Y-70743095D01*
X125147619Y-70790714D01*
X125004761Y-70790714D01*
X124909523Y-70743095D01*
X125338095Y-70409761D02*
X125242857Y-70457380D01*
X125052380Y-70457380D01*
X124957142Y-70409761D01*
X124909523Y-70362142D01*
X124861904Y-70266904D01*
X124861904Y-69981190D01*
X124909523Y-69885952D01*
X124957142Y-69838333D01*
X125052380Y-69790714D01*
X125242857Y-69790714D01*
X125338095Y-69838333D01*
X127766666Y-69790714D02*
X127766666Y-70600238D01*
X127719047Y-70695476D01*
X127671428Y-70743095D01*
X127576190Y-70790714D01*
X127433333Y-70790714D01*
X127338095Y-70743095D01*
X127766666Y-70409761D02*
X127671428Y-70457380D01*
X127480952Y-70457380D01*
X127385714Y-70409761D01*
X127338095Y-70362142D01*
X127290476Y-70266904D01*
X127290476Y-69981190D01*
X127338095Y-69885952D01*
X127385714Y-69838333D01*
X127480952Y-69790714D01*
X127671428Y-69790714D01*
X127766666Y-69838333D01*
X130195238Y-69790714D02*
X130195238Y-70600238D01*
X130147619Y-70695476D01*
X130100000Y-70743095D01*
X130004761Y-70790714D01*
X129861904Y-70790714D01*
X129766666Y-70743095D01*
X130195238Y-70409761D02*
X130100000Y-70457380D01*
X129909523Y-70457380D01*
X129814285Y-70409761D01*
X129766666Y-70362142D01*
X129719047Y-70266904D01*
X129719047Y-69981190D01*
X129766666Y-69885952D01*
X129814285Y-69838333D01*
X129909523Y-69790714D01*
X130100000Y-69790714D01*
X130195238Y-69838333D01*
X85629761Y-53427380D02*
X85629761Y-52427380D01*
X86010714Y-52427380D01*
X86105952Y-52475000D01*
X86153571Y-52522619D01*
X86201190Y-52617857D01*
X86201190Y-52760714D01*
X86153571Y-52855952D01*
X86105952Y-52903571D01*
X86010714Y-52951190D01*
X85629761Y-52951190D01*
X87201190Y-53332142D02*
X87153571Y-53379761D01*
X87010714Y-53427380D01*
X86915476Y-53427380D01*
X86772619Y-53379761D01*
X86677380Y-53284523D01*
X86629761Y-53189285D01*
X86582142Y-52998809D01*
X86582142Y-52855952D01*
X86629761Y-52665476D01*
X86677380Y-52570238D01*
X86772619Y-52475000D01*
X86915476Y-52427380D01*
X87010714Y-52427380D01*
X87153571Y-52475000D01*
X87201190Y-52522619D01*
X87582142Y-53141666D02*
X88058333Y-53141666D01*
X87486904Y-53427380D02*
X87820238Y-52427380D01*
X88153571Y-53427380D01*
X88534523Y-53427380D02*
X88725000Y-53427380D01*
X88820238Y-53379761D01*
X88867857Y-53332142D01*
X88963095Y-53189285D01*
X89010714Y-52998809D01*
X89010714Y-52617857D01*
X88963095Y-52522619D01*
X88915476Y-52475000D01*
X88820238Y-52427380D01*
X88629761Y-52427380D01*
X88534523Y-52475000D01*
X88486904Y-52522619D01*
X88439285Y-52617857D01*
X88439285Y-52855952D01*
X88486904Y-52951190D01*
X88534523Y-52998809D01*
X88629761Y-53046428D01*
X88820238Y-53046428D01*
X88915476Y-52998809D01*
X88963095Y-52951190D01*
X89010714Y-52855952D01*
X89915476Y-52427380D02*
X89439285Y-52427380D01*
X89391666Y-52903571D01*
X89439285Y-52855952D01*
X89534523Y-52808333D01*
X89772619Y-52808333D01*
X89867857Y-52855952D01*
X89915476Y-52903571D01*
X89963095Y-52998809D01*
X89963095Y-53236904D01*
X89915476Y-53332142D01*
X89867857Y-53379761D01*
X89772619Y-53427380D01*
X89534523Y-53427380D01*
X89439285Y-53379761D01*
X89391666Y-53332142D01*
X90867857Y-52427380D02*
X90391666Y-52427380D01*
X90344047Y-52903571D01*
X90391666Y-52855952D01*
X90486904Y-52808333D01*
X90725000Y-52808333D01*
X90820238Y-52855952D01*
X90867857Y-52903571D01*
X90915476Y-52998809D01*
X90915476Y-53236904D01*
X90867857Y-53332142D01*
X90820238Y-53379761D01*
X90725000Y-53427380D01*
X90486904Y-53427380D01*
X90391666Y-53379761D01*
X90344047Y-53332142D01*
X91820238Y-52427380D02*
X91344047Y-52427380D01*
X91296428Y-52903571D01*
X91344047Y-52855952D01*
X91439285Y-52808333D01*
X91677380Y-52808333D01*
X91772619Y-52855952D01*
X91820238Y-52903571D01*
X91867857Y-52998809D01*
X91867857Y-53236904D01*
X91820238Y-53332142D01*
X91772619Y-53379761D01*
X91677380Y-53427380D01*
X91439285Y-53427380D01*
X91344047Y-53379761D01*
X91296428Y-53332142D01*
X92296428Y-53427380D02*
X92296428Y-52427380D01*
X92534523Y-52427380D01*
X92677380Y-52475000D01*
X92772619Y-52570238D01*
X92820238Y-52665476D01*
X92867857Y-52855952D01*
X92867857Y-52998809D01*
X92820238Y-53189285D01*
X92772619Y-53284523D01*
X92677380Y-53379761D01*
X92534523Y-53427380D01*
X92296428Y-53427380D01*
D11*
X233067714Y-56569714D02*
X232632285Y-56569714D01*
X232850000Y-56569714D02*
X232850000Y-55807714D01*
X232777428Y-55916571D01*
X232704857Y-55989142D01*
X232632285Y-56025428D01*
D10*
X68285714Y-47877380D02*
X67714285Y-47877380D01*
X68000000Y-47877380D02*
X68000000Y-46877380D01*
X67904761Y-47020238D01*
X67809523Y-47115476D01*
X67714285Y-47163095D01*
X218005952Y-52741666D02*
X218482142Y-52741666D01*
X217910714Y-53027380D02*
X218244047Y-52027380D01*
X218577380Y-53027380D01*
X218910714Y-53027380D02*
X218910714Y-52027380D01*
X219148809Y-52027380D01*
X219291666Y-52075000D01*
X219386904Y-52170238D01*
X219434523Y-52265476D01*
X219482142Y-52455952D01*
X219482142Y-52598809D01*
X219434523Y-52789285D01*
X219386904Y-52884523D01*
X219291666Y-52979761D01*
X219148809Y-53027380D01*
X218910714Y-53027380D01*
X219863095Y-52979761D02*
X220005952Y-53027380D01*
X220244047Y-53027380D01*
X220339285Y-52979761D01*
X220386904Y-52932142D01*
X220434523Y-52836904D01*
X220434523Y-52741666D01*
X220386904Y-52646428D01*
X220339285Y-52598809D01*
X220244047Y-52551190D01*
X220053571Y-52503571D01*
X219958333Y-52455952D01*
X219910714Y-52408333D01*
X219863095Y-52313095D01*
X219863095Y-52217857D01*
X219910714Y-52122619D01*
X219958333Y-52075000D01*
X220053571Y-52027380D01*
X220291666Y-52027380D01*
X220434523Y-52075000D01*
X220767857Y-52027380D02*
X221434523Y-52027380D01*
X221005952Y-53027380D01*
X221958333Y-52455952D02*
X221863095Y-52408333D01*
X221815476Y-52360714D01*
X221767857Y-52265476D01*
X221767857Y-52217857D01*
X221815476Y-52122619D01*
X221863095Y-52075000D01*
X221958333Y-52027380D01*
X222148809Y-52027380D01*
X222244047Y-52075000D01*
X222291666Y-52122619D01*
X222339285Y-52217857D01*
X222339285Y-52265476D01*
X222291666Y-52360714D01*
X222244047Y-52408333D01*
X222148809Y-52455952D01*
X221958333Y-52455952D01*
X221863095Y-52503571D01*
X221815476Y-52551190D01*
X221767857Y-52646428D01*
X221767857Y-52836904D01*
X221815476Y-52932142D01*
X221863095Y-52979761D01*
X221958333Y-53027380D01*
X222148809Y-53027380D01*
X222244047Y-52979761D01*
X222291666Y-52932142D01*
X222339285Y-52836904D01*
X222339285Y-52646428D01*
X222291666Y-52551190D01*
X222244047Y-52503571D01*
X222148809Y-52455952D01*
X222720238Y-52122619D02*
X222767857Y-52075000D01*
X222863095Y-52027380D01*
X223101190Y-52027380D01*
X223196428Y-52075000D01*
X223244047Y-52122619D01*
X223291666Y-52217857D01*
X223291666Y-52313095D01*
X223244047Y-52455952D01*
X222672619Y-53027380D01*
X223291666Y-53027380D01*
X223863095Y-52455952D02*
X223767857Y-52408333D01*
X223720238Y-52360714D01*
X223672619Y-52265476D01*
X223672619Y-52217857D01*
X223720238Y-52122619D01*
X223767857Y-52075000D01*
X223863095Y-52027380D01*
X224053571Y-52027380D01*
X224148809Y-52075000D01*
X224196428Y-52122619D01*
X224244047Y-52217857D01*
X224244047Y-52265476D01*
X224196428Y-52360714D01*
X224148809Y-52408333D01*
X224053571Y-52455952D01*
X223863095Y-52455952D01*
X223767857Y-52503571D01*
X223720238Y-52551190D01*
X223672619Y-52646428D01*
X223672619Y-52836904D01*
X223720238Y-52932142D01*
X223767857Y-52979761D01*
X223863095Y-53027380D01*
X224053571Y-53027380D01*
X224148809Y-52979761D01*
X224196428Y-52932142D01*
X224244047Y-52836904D01*
X224244047Y-52646428D01*
X224196428Y-52551190D01*
X224148809Y-52503571D01*
X224053571Y-52455952D01*
X63095142Y-41060666D02*
X63142761Y-41108285D01*
X63190380Y-41251142D01*
X63190380Y-41346380D01*
X63142761Y-41489238D01*
X63047523Y-41584476D01*
X62952285Y-41632095D01*
X62761809Y-41679714D01*
X62618952Y-41679714D01*
X62428476Y-41632095D01*
X62333238Y-41584476D01*
X62238000Y-41489238D01*
X62190380Y-41346380D01*
X62190380Y-41251142D01*
X62238000Y-41108285D01*
X62285619Y-41060666D01*
X62190380Y-40727333D02*
X62190380Y-40108285D01*
X62571333Y-40441619D01*
X62571333Y-40298761D01*
X62618952Y-40203523D01*
X62666571Y-40155904D01*
X62761809Y-40108285D01*
X62999904Y-40108285D01*
X63095142Y-40155904D01*
X63142761Y-40203523D01*
X63190380Y-40298761D01*
X63190380Y-40584476D01*
X63142761Y-40679714D01*
X63095142Y-40727333D01*
X149407142Y-34659866D02*
X149454761Y-34707485D01*
X149502380Y-34850342D01*
X149502380Y-34945580D01*
X149454761Y-35088438D01*
X149359523Y-35183676D01*
X149264285Y-35231295D01*
X149073809Y-35278914D01*
X148930952Y-35278914D01*
X148740476Y-35231295D01*
X148645238Y-35183676D01*
X148550000Y-35088438D01*
X148502380Y-34945580D01*
X148502380Y-34850342D01*
X148550000Y-34707485D01*
X148597619Y-34659866D01*
X148502380Y-34326533D02*
X148502380Y-33659866D01*
X149502380Y-34088438D01*
X185218342Y-38158657D02*
X185265961Y-38206276D01*
X185313580Y-38349133D01*
X185313580Y-38444371D01*
X185265961Y-38587228D01*
X185170723Y-38682466D01*
X185075485Y-38730085D01*
X184885009Y-38777704D01*
X184742152Y-38777704D01*
X184551676Y-38730085D01*
X184456438Y-38682466D01*
X184361200Y-38587228D01*
X184313580Y-38444371D01*
X184313580Y-38349133D01*
X184361200Y-38206276D01*
X184408819Y-38158657D01*
X185313580Y-37206276D02*
X185313580Y-37777704D01*
X185313580Y-37491990D02*
X184313580Y-37491990D01*
X184456438Y-37587228D01*
X184551676Y-37682466D01*
X184599295Y-37777704D01*
X184313580Y-36587228D02*
X184313580Y-36491990D01*
X184361200Y-36396752D01*
X184408819Y-36349133D01*
X184504057Y-36301514D01*
X184694533Y-36253895D01*
X184932628Y-36253895D01*
X185123104Y-36301514D01*
X185218342Y-36349133D01*
X185265961Y-36396752D01*
X185313580Y-36491990D01*
X185313580Y-36587228D01*
X185265961Y-36682466D01*
X185218342Y-36730085D01*
X185123104Y-36777704D01*
X184932628Y-36825323D01*
X184694533Y-36825323D01*
X184504057Y-36777704D01*
X184408819Y-36730085D01*
X184361200Y-36682466D01*
X184313580Y-36587228D01*
X40155904Y-29154380D02*
X40155904Y-28154380D01*
X40394000Y-28154380D01*
X40536857Y-28202000D01*
X40632095Y-28297238D01*
X40679714Y-28392476D01*
X40727333Y-28582952D01*
X40727333Y-28725809D01*
X40679714Y-28916285D01*
X40632095Y-29011523D01*
X40536857Y-29106761D01*
X40394000Y-29154380D01*
X40155904Y-29154380D01*
X41679714Y-29154380D02*
X41108285Y-29154380D01*
X41394000Y-29154380D02*
X41394000Y-28154380D01*
X41298761Y-28297238D01*
X41203523Y-28392476D01*
X41108285Y-28440095D01*
X52855904Y-29154380D02*
X52855904Y-28154380D01*
X53094000Y-28154380D01*
X53236857Y-28202000D01*
X53332095Y-28297238D01*
X53379714Y-28392476D01*
X53427333Y-28582952D01*
X53427333Y-28725809D01*
X53379714Y-28916285D01*
X53332095Y-29011523D01*
X53236857Y-29106761D01*
X53094000Y-29154380D01*
X52855904Y-29154380D01*
X53808285Y-28249619D02*
X53855904Y-28202000D01*
X53951142Y-28154380D01*
X54189238Y-28154380D01*
X54284476Y-28202000D01*
X54332095Y-28249619D01*
X54379714Y-28344857D01*
X54379714Y-28440095D01*
X54332095Y-28582952D01*
X53760666Y-29154380D01*
X54379714Y-29154380D01*
X65555904Y-29154380D02*
X65555904Y-28154380D01*
X65794000Y-28154380D01*
X65936857Y-28202000D01*
X66032095Y-28297238D01*
X66079714Y-28392476D01*
X66127333Y-28582952D01*
X66127333Y-28725809D01*
X66079714Y-28916285D01*
X66032095Y-29011523D01*
X65936857Y-29106761D01*
X65794000Y-29154380D01*
X65555904Y-29154380D01*
X66460666Y-28154380D02*
X67079714Y-28154380D01*
X66746380Y-28535333D01*
X66889238Y-28535333D01*
X66984476Y-28582952D01*
X67032095Y-28630571D01*
X67079714Y-28725809D01*
X67079714Y-28963904D01*
X67032095Y-29059142D01*
X66984476Y-29106761D01*
X66889238Y-29154380D01*
X66603523Y-29154380D01*
X66508285Y-29106761D01*
X66460666Y-29059142D01*
X78255904Y-29154380D02*
X78255904Y-28154380D01*
X78494000Y-28154380D01*
X78636857Y-28202000D01*
X78732095Y-28297238D01*
X78779714Y-28392476D01*
X78827333Y-28582952D01*
X78827333Y-28725809D01*
X78779714Y-28916285D01*
X78732095Y-29011523D01*
X78636857Y-29106761D01*
X78494000Y-29154380D01*
X78255904Y-29154380D01*
X79684476Y-28487714D02*
X79684476Y-29154380D01*
X79446380Y-28106761D02*
X79208285Y-28821047D01*
X79827333Y-28821047D01*
X90955904Y-29154380D02*
X90955904Y-28154380D01*
X91194000Y-28154380D01*
X91336857Y-28202000D01*
X91432095Y-28297238D01*
X91479714Y-28392476D01*
X91527333Y-28582952D01*
X91527333Y-28725809D01*
X91479714Y-28916285D01*
X91432095Y-29011523D01*
X91336857Y-29106761D01*
X91194000Y-29154380D01*
X90955904Y-29154380D01*
X92432095Y-28154380D02*
X91955904Y-28154380D01*
X91908285Y-28630571D01*
X91955904Y-28582952D01*
X92051142Y-28535333D01*
X92289238Y-28535333D01*
X92384476Y-28582952D01*
X92432095Y-28630571D01*
X92479714Y-28725809D01*
X92479714Y-28963904D01*
X92432095Y-29059142D01*
X92384476Y-29106761D01*
X92289238Y-29154380D01*
X92051142Y-29154380D01*
X91955904Y-29106761D01*
X91908285Y-29059142D01*
X103655904Y-29154380D02*
X103655904Y-28154380D01*
X103894000Y-28154380D01*
X104036857Y-28202000D01*
X104132095Y-28297238D01*
X104179714Y-28392476D01*
X104227333Y-28582952D01*
X104227333Y-28725809D01*
X104179714Y-28916285D01*
X104132095Y-29011523D01*
X104036857Y-29106761D01*
X103894000Y-29154380D01*
X103655904Y-29154380D01*
X105084476Y-28154380D02*
X104894000Y-28154380D01*
X104798761Y-28202000D01*
X104751142Y-28249619D01*
X104655904Y-28392476D01*
X104608285Y-28582952D01*
X104608285Y-28963904D01*
X104655904Y-29059142D01*
X104703523Y-29106761D01*
X104798761Y-29154380D01*
X104989238Y-29154380D01*
X105084476Y-29106761D01*
X105132095Y-29059142D01*
X105179714Y-28963904D01*
X105179714Y-28725809D01*
X105132095Y-28630571D01*
X105084476Y-28582952D01*
X104989238Y-28535333D01*
X104798761Y-28535333D01*
X104703523Y-28582952D01*
X104655904Y-28630571D01*
X104608285Y-28725809D01*
X116355904Y-29154380D02*
X116355904Y-28154380D01*
X116594000Y-28154380D01*
X116736857Y-28202000D01*
X116832095Y-28297238D01*
X116879714Y-28392476D01*
X116927333Y-28582952D01*
X116927333Y-28725809D01*
X116879714Y-28916285D01*
X116832095Y-29011523D01*
X116736857Y-29106761D01*
X116594000Y-29154380D01*
X116355904Y-29154380D01*
X117260666Y-28154380D02*
X117927333Y-28154380D01*
X117498761Y-29154380D01*
X166652778Y-29154380D02*
X166652778Y-28154380D01*
X166890873Y-28154380D01*
X167033730Y-28202000D01*
X167128968Y-28297238D01*
X167176587Y-28392476D01*
X167224206Y-28582952D01*
X167224206Y-28725809D01*
X167176587Y-28916285D01*
X167128968Y-29011523D01*
X167033730Y-29106761D01*
X166890873Y-29154380D01*
X166652778Y-29154380D01*
X168176587Y-29154380D02*
X167605159Y-29154380D01*
X167890873Y-29154380D02*
X167890873Y-28154380D01*
X167795635Y-28297238D01*
X167700397Y-28392476D01*
X167605159Y-28440095D01*
X168795635Y-28154380D02*
X168890873Y-28154380D01*
X168986111Y-28202000D01*
X169033730Y-28249619D01*
X169081349Y-28344857D01*
X169128968Y-28535333D01*
X169128968Y-28773428D01*
X169081349Y-28963904D01*
X169033730Y-29059142D01*
X168986111Y-29106761D01*
X168890873Y-29154380D01*
X168795635Y-29154380D01*
X168700397Y-29106761D01*
X168652778Y-29059142D01*
X168605159Y-28963904D01*
X168557540Y-28773428D01*
X168557540Y-28535333D01*
X168605159Y-28344857D01*
X168652778Y-28249619D01*
X168700397Y-28202000D01*
X168795635Y-28154380D01*
X179379714Y-29154380D02*
X179379714Y-28154380D01*
X179617809Y-28154380D01*
X179760666Y-28202000D01*
X179855904Y-28297238D01*
X179903523Y-28392476D01*
X179951142Y-28582952D01*
X179951142Y-28725809D01*
X179903523Y-28916285D01*
X179855904Y-29011523D01*
X179760666Y-29106761D01*
X179617809Y-29154380D01*
X179379714Y-29154380D01*
X180903523Y-29154380D02*
X180332095Y-29154380D01*
X180617809Y-29154380D02*
X180617809Y-28154380D01*
X180522571Y-28297238D01*
X180427333Y-28392476D01*
X180332095Y-28440095D01*
X181855904Y-29154380D02*
X181284476Y-29154380D01*
X181570190Y-29154380D02*
X181570190Y-28154380D01*
X181474952Y-28297238D01*
X181379714Y-28392476D01*
X181284476Y-28440095D01*
X192079714Y-29154380D02*
X192079714Y-28154380D01*
X192317809Y-28154380D01*
X192460666Y-28202000D01*
X192555904Y-28297238D01*
X192603523Y-28392476D01*
X192651142Y-28582952D01*
X192651142Y-28725809D01*
X192603523Y-28916285D01*
X192555904Y-29011523D01*
X192460666Y-29106761D01*
X192317809Y-29154380D01*
X192079714Y-29154380D01*
X193603523Y-29154380D02*
X193032095Y-29154380D01*
X193317809Y-29154380D02*
X193317809Y-28154380D01*
X193222571Y-28297238D01*
X193127333Y-28392476D01*
X193032095Y-28440095D01*
X193984476Y-28249619D02*
X194032095Y-28202000D01*
X194127333Y-28154380D01*
X194365428Y-28154380D01*
X194460666Y-28202000D01*
X194508285Y-28249619D01*
X194555904Y-28344857D01*
X194555904Y-28440095D01*
X194508285Y-28582952D01*
X193936857Y-29154380D01*
X194555904Y-29154380D01*
X217479714Y-29154380D02*
X217479714Y-28154380D01*
X217717809Y-28154380D01*
X217860666Y-28202000D01*
X217955904Y-28297238D01*
X218003523Y-28392476D01*
X218051142Y-28582952D01*
X218051142Y-28725809D01*
X218003523Y-28916285D01*
X217955904Y-29011523D01*
X217860666Y-29106761D01*
X217717809Y-29154380D01*
X217479714Y-29154380D01*
X219003523Y-29154380D02*
X218432095Y-29154380D01*
X218717809Y-29154380D02*
X218717809Y-28154380D01*
X218622571Y-28297238D01*
X218527333Y-28392476D01*
X218432095Y-28440095D01*
X219860666Y-28487714D02*
X219860666Y-29154380D01*
X219622571Y-28106761D02*
X219384476Y-28821047D01*
X220003523Y-28821047D01*
X230326778Y-29154380D02*
X230326778Y-28154380D01*
X230564873Y-28154380D01*
X230707730Y-28202000D01*
X230802968Y-28297238D01*
X230850587Y-28392476D01*
X230898206Y-28582952D01*
X230898206Y-28725809D01*
X230850587Y-28916285D01*
X230802968Y-29011523D01*
X230707730Y-29106761D01*
X230564873Y-29154380D01*
X230326778Y-29154380D01*
X231850587Y-29154380D02*
X231279159Y-29154380D01*
X231564873Y-29154380D02*
X231564873Y-28154380D01*
X231469635Y-28297238D01*
X231374397Y-28392476D01*
X231279159Y-28440095D01*
X232755349Y-28154380D02*
X232279159Y-28154380D01*
X232231540Y-28630571D01*
X232279159Y-28582952D01*
X232374397Y-28535333D01*
X232612492Y-28535333D01*
X232707730Y-28582952D01*
X232755349Y-28630571D01*
X232802968Y-28725809D01*
X232802968Y-28963904D01*
X232755349Y-29059142D01*
X232707730Y-29106761D01*
X232612492Y-29154380D01*
X232374397Y-29154380D01*
X232279159Y-29106761D01*
X232231540Y-29059142D01*
X120054380Y-33867380D02*
X120149619Y-33867380D01*
X120244857Y-33915000D01*
X120292476Y-33962619D01*
X120340095Y-34057857D01*
X120387714Y-34248333D01*
X120387714Y-34486428D01*
X120340095Y-34676904D01*
X120292476Y-34772142D01*
X120244857Y-34819761D01*
X120149619Y-34867380D01*
X120054380Y-34867380D01*
X119959142Y-34819761D01*
X119911523Y-34772142D01*
X119863904Y-34676904D01*
X119816285Y-34486428D01*
X119816285Y-34248333D01*
X119863904Y-34057857D01*
X119911523Y-33962619D01*
X119959142Y-33915000D01*
X120054380Y-33867380D01*
X119689285Y-41074619D02*
X119736904Y-41027000D01*
X119832142Y-40979380D01*
X120070238Y-40979380D01*
X120165476Y-41027000D01*
X120213095Y-41074619D01*
X120260714Y-41169857D01*
X120260714Y-41265095D01*
X120213095Y-41407952D01*
X119641666Y-41979380D01*
X120260714Y-41979380D01*
X120260714Y-38423380D02*
X119689285Y-38423380D01*
X119975000Y-38423380D02*
X119975000Y-37423380D01*
X119879761Y-37566238D01*
X119784523Y-37661476D01*
X119689285Y-37709095D01*
X119641666Y-44379380D02*
X120260714Y-44379380D01*
X119927380Y-44760333D01*
X120070238Y-44760333D01*
X120165476Y-44807952D01*
X120213095Y-44855571D01*
X120260714Y-44950809D01*
X120260714Y-45188904D01*
X120213095Y-45284142D01*
X120165476Y-45331761D01*
X120070238Y-45379380D01*
X119784523Y-45379380D01*
X119689285Y-45331761D01*
X119641666Y-45284142D01*
X56101333Y-40924380D02*
X55768000Y-40448190D01*
X55529904Y-40924380D02*
X55529904Y-39924380D01*
X55910857Y-39924380D01*
X56006095Y-39972000D01*
X56053714Y-40019619D01*
X56101333Y-40114857D01*
X56101333Y-40257714D01*
X56053714Y-40352952D01*
X56006095Y-40400571D01*
X55910857Y-40448190D01*
X55529904Y-40448190D01*
X56482285Y-40019619D02*
X56529904Y-39972000D01*
X56625142Y-39924380D01*
X56863238Y-39924380D01*
X56958476Y-39972000D01*
X57006095Y-40019619D01*
X57053714Y-40114857D01*
X57053714Y-40210095D01*
X57006095Y-40352952D01*
X56434666Y-40924380D01*
X57053714Y-40924380D01*
X56151333Y-34774380D02*
X55818000Y-34298190D01*
X55579904Y-34774380D02*
X55579904Y-33774380D01*
X55960857Y-33774380D01*
X56056095Y-33822000D01*
X56103714Y-33869619D01*
X56151333Y-33964857D01*
X56151333Y-34107714D01*
X56103714Y-34202952D01*
X56056095Y-34250571D01*
X55960857Y-34298190D01*
X55579904Y-34298190D01*
X57008476Y-34107714D02*
X57008476Y-34774380D01*
X56770380Y-33726761D02*
X56532285Y-34441047D01*
X57151333Y-34441047D01*
X86828333Y-36592380D02*
X86495000Y-36116190D01*
X86256904Y-36592380D02*
X86256904Y-35592380D01*
X86637857Y-35592380D01*
X86733095Y-35640000D01*
X86780714Y-35687619D01*
X86828333Y-35782857D01*
X86828333Y-35925714D01*
X86780714Y-36020952D01*
X86733095Y-36068571D01*
X86637857Y-36116190D01*
X86256904Y-36116190D01*
X87733095Y-35592380D02*
X87256904Y-35592380D01*
X87209285Y-36068571D01*
X87256904Y-36020952D01*
X87352142Y-35973333D01*
X87590238Y-35973333D01*
X87685476Y-36020952D01*
X87733095Y-36068571D01*
X87780714Y-36163809D01*
X87780714Y-36401904D01*
X87733095Y-36497142D01*
X87685476Y-36544761D01*
X87590238Y-36592380D01*
X87352142Y-36592380D01*
X87256904Y-36544761D01*
X87209285Y-36497142D01*
X86701333Y-39568380D02*
X86368000Y-39092190D01*
X86129904Y-39568380D02*
X86129904Y-38568380D01*
X86510857Y-38568380D01*
X86606095Y-38616000D01*
X86653714Y-38663619D01*
X86701333Y-38758857D01*
X86701333Y-38901714D01*
X86653714Y-38996952D01*
X86606095Y-39044571D01*
X86510857Y-39092190D01*
X86129904Y-39092190D01*
X87558476Y-38568380D02*
X87368000Y-38568380D01*
X87272761Y-38616000D01*
X87225142Y-38663619D01*
X87129904Y-38806476D01*
X87082285Y-38996952D01*
X87082285Y-39377904D01*
X87129904Y-39473142D01*
X87177523Y-39520761D01*
X87272761Y-39568380D01*
X87463238Y-39568380D01*
X87558476Y-39520761D01*
X87606095Y-39473142D01*
X87653714Y-39377904D01*
X87653714Y-39139809D01*
X87606095Y-39044571D01*
X87558476Y-38996952D01*
X87463238Y-38949333D01*
X87272761Y-38949333D01*
X87177523Y-38996952D01*
X87129904Y-39044571D01*
X87082285Y-39139809D01*
X86701333Y-42616380D02*
X86368000Y-42140190D01*
X86129904Y-42616380D02*
X86129904Y-41616380D01*
X86510857Y-41616380D01*
X86606095Y-41664000D01*
X86653714Y-41711619D01*
X86701333Y-41806857D01*
X86701333Y-41949714D01*
X86653714Y-42044952D01*
X86606095Y-42092571D01*
X86510857Y-42140190D01*
X86129904Y-42140190D01*
X87034666Y-41616380D02*
X87701333Y-41616380D01*
X87272761Y-42616380D01*
X86701333Y-45664380D02*
X86368000Y-45188190D01*
X86129904Y-45664380D02*
X86129904Y-44664380D01*
X86510857Y-44664380D01*
X86606095Y-44712000D01*
X86653714Y-44759619D01*
X86701333Y-44854857D01*
X86701333Y-44997714D01*
X86653714Y-45092952D01*
X86606095Y-45140571D01*
X86510857Y-45188190D01*
X86129904Y-45188190D01*
X87272761Y-45092952D02*
X87177523Y-45045333D01*
X87129904Y-44997714D01*
X87082285Y-44902476D01*
X87082285Y-44854857D01*
X87129904Y-44759619D01*
X87177523Y-44712000D01*
X87272761Y-44664380D01*
X87463238Y-44664380D01*
X87558476Y-44712000D01*
X87606095Y-44759619D01*
X87653714Y-44854857D01*
X87653714Y-44902476D01*
X87606095Y-44997714D01*
X87558476Y-45045333D01*
X87463238Y-45092952D01*
X87272761Y-45092952D01*
X87177523Y-45140571D01*
X87129904Y-45188190D01*
X87082285Y-45283428D01*
X87082285Y-45473904D01*
X87129904Y-45569142D01*
X87177523Y-45616761D01*
X87272761Y-45664380D01*
X87463238Y-45664380D01*
X87558476Y-45616761D01*
X87606095Y-45569142D01*
X87653714Y-45473904D01*
X87653714Y-45283428D01*
X87606095Y-45188190D01*
X87558476Y-45140571D01*
X87463238Y-45092952D01*
X141920933Y-44699180D02*
X141587600Y-44222990D01*
X141349504Y-44699180D02*
X141349504Y-43699180D01*
X141730457Y-43699180D01*
X141825695Y-43746800D01*
X141873314Y-43794419D01*
X141920933Y-43889657D01*
X141920933Y-44032514D01*
X141873314Y-44127752D01*
X141825695Y-44175371D01*
X141730457Y-44222990D01*
X141349504Y-44222990D01*
X142397123Y-44699180D02*
X142587600Y-44699180D01*
X142682838Y-44651561D01*
X142730457Y-44603942D01*
X142825695Y-44461085D01*
X142873314Y-44270609D01*
X142873314Y-43889657D01*
X142825695Y-43794419D01*
X142778076Y-43746800D01*
X142682838Y-43699180D01*
X142492361Y-43699180D01*
X142397123Y-43746800D01*
X142349504Y-43794419D01*
X142301885Y-43889657D01*
X142301885Y-44127752D01*
X142349504Y-44222990D01*
X142397123Y-44270609D01*
X142492361Y-44318228D01*
X142682838Y-44318228D01*
X142778076Y-44270609D01*
X142825695Y-44222990D01*
X142873314Y-44127752D01*
X141038342Y-41651180D02*
X140705009Y-41174990D01*
X140466914Y-41651180D02*
X140466914Y-40651180D01*
X140847866Y-40651180D01*
X140943104Y-40698800D01*
X140990723Y-40746419D01*
X141038342Y-40841657D01*
X141038342Y-40984514D01*
X140990723Y-41079752D01*
X140943104Y-41127371D01*
X140847866Y-41174990D01*
X140466914Y-41174990D01*
X141990723Y-41651180D02*
X141419295Y-41651180D01*
X141705009Y-41651180D02*
X141705009Y-40651180D01*
X141609771Y-40794038D01*
X141514533Y-40889276D01*
X141419295Y-40936895D01*
X142609771Y-40651180D02*
X142705009Y-40651180D01*
X142800247Y-40698800D01*
X142847866Y-40746419D01*
X142895485Y-40841657D01*
X142943104Y-41032133D01*
X142943104Y-41270228D01*
X142895485Y-41460704D01*
X142847866Y-41555942D01*
X142800247Y-41603561D01*
X142705009Y-41651180D01*
X142609771Y-41651180D01*
X142514533Y-41603561D01*
X142466914Y-41555942D01*
X142419295Y-41460704D01*
X142371676Y-41270228D01*
X142371676Y-41032133D01*
X142419295Y-40841657D01*
X142466914Y-40746419D01*
X142514533Y-40698800D01*
X142609771Y-40651180D01*
X141038342Y-39263580D02*
X140705009Y-38787390D01*
X140466914Y-39263580D02*
X140466914Y-38263580D01*
X140847866Y-38263580D01*
X140943104Y-38311200D01*
X140990723Y-38358819D01*
X141038342Y-38454057D01*
X141038342Y-38596914D01*
X140990723Y-38692152D01*
X140943104Y-38739771D01*
X140847866Y-38787390D01*
X140466914Y-38787390D01*
X141990723Y-39263580D02*
X141419295Y-39263580D01*
X141705009Y-39263580D02*
X141705009Y-38263580D01*
X141609771Y-38406438D01*
X141514533Y-38501676D01*
X141419295Y-38549295D01*
X142943104Y-39263580D02*
X142371676Y-39263580D01*
X142657390Y-39263580D02*
X142657390Y-38263580D01*
X142562152Y-38406438D01*
X142466914Y-38501676D01*
X142371676Y-38549295D01*
X169791142Y-47188380D02*
X169457809Y-46712190D01*
X169219714Y-47188380D02*
X169219714Y-46188380D01*
X169600666Y-46188380D01*
X169695904Y-46236000D01*
X169743523Y-46283619D01*
X169791142Y-46378857D01*
X169791142Y-46521714D01*
X169743523Y-46616952D01*
X169695904Y-46664571D01*
X169600666Y-46712190D01*
X169219714Y-46712190D01*
X170743523Y-47188380D02*
X170172095Y-47188380D01*
X170457809Y-47188380D02*
X170457809Y-46188380D01*
X170362571Y-46331238D01*
X170267333Y-46426476D01*
X170172095Y-46474095D01*
X171124476Y-46283619D02*
X171172095Y-46236000D01*
X171267333Y-46188380D01*
X171505428Y-46188380D01*
X171600666Y-46236000D01*
X171648285Y-46283619D01*
X171695904Y-46378857D01*
X171695904Y-46474095D01*
X171648285Y-46616952D01*
X171076857Y-47188380D01*
X171695904Y-47188380D01*
X169740342Y-36317180D02*
X169407009Y-35840990D01*
X169168914Y-36317180D02*
X169168914Y-35317180D01*
X169549866Y-35317180D01*
X169645104Y-35364800D01*
X169692723Y-35412419D01*
X169740342Y-35507657D01*
X169740342Y-35650514D01*
X169692723Y-35745752D01*
X169645104Y-35793371D01*
X169549866Y-35840990D01*
X169168914Y-35840990D01*
X170692723Y-36317180D02*
X170121295Y-36317180D01*
X170407009Y-36317180D02*
X170407009Y-35317180D01*
X170311771Y-35460038D01*
X170216533Y-35555276D01*
X170121295Y-35602895D01*
X171026057Y-35317180D02*
X171645104Y-35317180D01*
X171311771Y-35698133D01*
X171454628Y-35698133D01*
X171549866Y-35745752D01*
X171597485Y-35793371D01*
X171645104Y-35888609D01*
X171645104Y-36126704D01*
X171597485Y-36221942D01*
X171549866Y-36269561D01*
X171454628Y-36317180D01*
X171168914Y-36317180D01*
X171073676Y-36269561D01*
X171026057Y-36221942D01*
X169689542Y-38907980D02*
X169356209Y-38431790D01*
X169118114Y-38907980D02*
X169118114Y-37907980D01*
X169499066Y-37907980D01*
X169594304Y-37955600D01*
X169641923Y-38003219D01*
X169689542Y-38098457D01*
X169689542Y-38241314D01*
X169641923Y-38336552D01*
X169594304Y-38384171D01*
X169499066Y-38431790D01*
X169118114Y-38431790D01*
X170641923Y-38907980D02*
X170070495Y-38907980D01*
X170356209Y-38907980D02*
X170356209Y-37907980D01*
X170260971Y-38050838D01*
X170165733Y-38146076D01*
X170070495Y-38193695D01*
X171499066Y-38241314D02*
X171499066Y-38907980D01*
X171260971Y-37860361D02*
X171022876Y-38574647D01*
X171641923Y-38574647D01*
X169638742Y-41905180D02*
X169305409Y-41428990D01*
X169067314Y-41905180D02*
X169067314Y-40905180D01*
X169448266Y-40905180D01*
X169543504Y-40952800D01*
X169591123Y-41000419D01*
X169638742Y-41095657D01*
X169638742Y-41238514D01*
X169591123Y-41333752D01*
X169543504Y-41381371D01*
X169448266Y-41428990D01*
X169067314Y-41428990D01*
X170591123Y-41905180D02*
X170019695Y-41905180D01*
X170305409Y-41905180D02*
X170305409Y-40905180D01*
X170210171Y-41048038D01*
X170114933Y-41143276D01*
X170019695Y-41190895D01*
X171495885Y-40905180D02*
X171019695Y-40905180D01*
X170972076Y-41381371D01*
X171019695Y-41333752D01*
X171114933Y-41286133D01*
X171353028Y-41286133D01*
X171448266Y-41333752D01*
X171495885Y-41381371D01*
X171543504Y-41476609D01*
X171543504Y-41714704D01*
X171495885Y-41809942D01*
X171448266Y-41857561D01*
X171353028Y-41905180D01*
X171114933Y-41905180D01*
X171019695Y-41857561D01*
X170972076Y-41809942D01*
X169689542Y-44648380D02*
X169356209Y-44172190D01*
X169118114Y-44648380D02*
X169118114Y-43648380D01*
X169499066Y-43648380D01*
X169594304Y-43696000D01*
X169641923Y-43743619D01*
X169689542Y-43838857D01*
X169689542Y-43981714D01*
X169641923Y-44076952D01*
X169594304Y-44124571D01*
X169499066Y-44172190D01*
X169118114Y-44172190D01*
X170641923Y-44648380D02*
X170070495Y-44648380D01*
X170356209Y-44648380D02*
X170356209Y-43648380D01*
X170260971Y-43791238D01*
X170165733Y-43886476D01*
X170070495Y-43934095D01*
X171499066Y-43648380D02*
X171308590Y-43648380D01*
X171213352Y-43696000D01*
X171165733Y-43743619D01*
X171070495Y-43886476D01*
X171022876Y-44076952D01*
X171022876Y-44457904D01*
X171070495Y-44553142D01*
X171118114Y-44600761D01*
X171213352Y-44648380D01*
X171403828Y-44648380D01*
X171499066Y-44600761D01*
X171546685Y-44553142D01*
X171594304Y-44457904D01*
X171594304Y-44219809D01*
X171546685Y-44124571D01*
X171499066Y-44076952D01*
X171403828Y-44029333D01*
X171213352Y-44029333D01*
X171118114Y-44076952D01*
X171070495Y-44124571D01*
X171022876Y-44219809D01*
X174955942Y-43752380D02*
X174622609Y-43276190D01*
X174384514Y-43752380D02*
X174384514Y-42752380D01*
X174765466Y-42752380D01*
X174860704Y-42800000D01*
X174908323Y-42847619D01*
X174955942Y-42942857D01*
X174955942Y-43085714D01*
X174908323Y-43180952D01*
X174860704Y-43228571D01*
X174765466Y-43276190D01*
X174384514Y-43276190D01*
X175908323Y-43752380D02*
X175336895Y-43752380D01*
X175622609Y-43752380D02*
X175622609Y-42752380D01*
X175527371Y-42895238D01*
X175432133Y-42990476D01*
X175336895Y-43038095D01*
X176241657Y-42752380D02*
X176908323Y-42752380D01*
X176479752Y-43752380D01*
X174971942Y-45999980D02*
X174638609Y-45523790D01*
X174400514Y-45999980D02*
X174400514Y-44999980D01*
X174781466Y-44999980D01*
X174876704Y-45047600D01*
X174924323Y-45095219D01*
X174971942Y-45190457D01*
X174971942Y-45333314D01*
X174924323Y-45428552D01*
X174876704Y-45476171D01*
X174781466Y-45523790D01*
X174400514Y-45523790D01*
X175924323Y-45999980D02*
X175352895Y-45999980D01*
X175638609Y-45999980D02*
X175638609Y-44999980D01*
X175543371Y-45142838D01*
X175448133Y-45238076D01*
X175352895Y-45285695D01*
X176495752Y-45428552D02*
X176400514Y-45380933D01*
X176352895Y-45333314D01*
X176305276Y-45238076D01*
X176305276Y-45190457D01*
X176352895Y-45095219D01*
X176400514Y-45047600D01*
X176495752Y-44999980D01*
X176686228Y-44999980D01*
X176781466Y-45047600D01*
X176829085Y-45095219D01*
X176876704Y-45190457D01*
X176876704Y-45238076D01*
X176829085Y-45333314D01*
X176781466Y-45380933D01*
X176686228Y-45428552D01*
X176495752Y-45428552D01*
X176400514Y-45476171D01*
X176352895Y-45523790D01*
X176305276Y-45619028D01*
X176305276Y-45809504D01*
X176352895Y-45904742D01*
X176400514Y-45952361D01*
X176495752Y-45999980D01*
X176686228Y-45999980D01*
X176781466Y-45952361D01*
X176829085Y-45904742D01*
X176876704Y-45809504D01*
X176876704Y-45619028D01*
X176829085Y-45523790D01*
X176781466Y-45476171D01*
X176686228Y-45428552D01*
X186503180Y-61290857D02*
X186026990Y-61624190D01*
X186503180Y-61862285D02*
X185503180Y-61862285D01*
X185503180Y-61481333D01*
X185550800Y-61386095D01*
X185598419Y-61338476D01*
X185693657Y-61290857D01*
X185836514Y-61290857D01*
X185931752Y-61338476D01*
X185979371Y-61386095D01*
X186026990Y-61481333D01*
X186026990Y-61862285D01*
X185598419Y-60909904D02*
X185550800Y-60862285D01*
X185503180Y-60767047D01*
X185503180Y-60528952D01*
X185550800Y-60433714D01*
X185598419Y-60386095D01*
X185693657Y-60338476D01*
X185788895Y-60338476D01*
X185931752Y-60386095D01*
X186503180Y-60957523D01*
X186503180Y-60338476D01*
X185503180Y-59719428D02*
X185503180Y-59624190D01*
X185550800Y-59528952D01*
X185598419Y-59481333D01*
X185693657Y-59433714D01*
X185884133Y-59386095D01*
X186122228Y-59386095D01*
X186312704Y-59433714D01*
X186407942Y-59481333D01*
X186455561Y-59528952D01*
X186503180Y-59624190D01*
X186503180Y-59719428D01*
X186455561Y-59814666D01*
X186407942Y-59862285D01*
X186312704Y-59909904D01*
X186122228Y-59957523D01*
X185884133Y-59957523D01*
X185693657Y-59909904D01*
X185598419Y-59862285D01*
X185550800Y-59814666D01*
X185503180Y-59719428D01*
X188954780Y-61113857D02*
X188478590Y-61447190D01*
X188954780Y-61685285D02*
X187954780Y-61685285D01*
X187954780Y-61304333D01*
X188002400Y-61209095D01*
X188050019Y-61161476D01*
X188145257Y-61113857D01*
X188288114Y-61113857D01*
X188383352Y-61161476D01*
X188430971Y-61209095D01*
X188478590Y-61304333D01*
X188478590Y-61685285D01*
X188050019Y-60732904D02*
X188002400Y-60685285D01*
X187954780Y-60590047D01*
X187954780Y-60351952D01*
X188002400Y-60256714D01*
X188050019Y-60209095D01*
X188145257Y-60161476D01*
X188240495Y-60161476D01*
X188383352Y-60209095D01*
X188954780Y-60780523D01*
X188954780Y-60161476D01*
X188954780Y-59209095D02*
X188954780Y-59780523D01*
X188954780Y-59494809D02*
X187954780Y-59494809D01*
X188097638Y-59590047D01*
X188192876Y-59685285D01*
X188240495Y-59780523D01*
X191527780Y-61063857D02*
X191051590Y-61397190D01*
X191527780Y-61635285D02*
X190527780Y-61635285D01*
X190527780Y-61254333D01*
X190575400Y-61159095D01*
X190623019Y-61111476D01*
X190718257Y-61063857D01*
X190861114Y-61063857D01*
X190956352Y-61111476D01*
X191003971Y-61159095D01*
X191051590Y-61254333D01*
X191051590Y-61635285D01*
X190623019Y-60682904D02*
X190575400Y-60635285D01*
X190527780Y-60540047D01*
X190527780Y-60301952D01*
X190575400Y-60206714D01*
X190623019Y-60159095D01*
X190718257Y-60111476D01*
X190813495Y-60111476D01*
X190956352Y-60159095D01*
X191527780Y-60730523D01*
X191527780Y-60111476D01*
X190623019Y-59730523D02*
X190575400Y-59682904D01*
X190527780Y-59587666D01*
X190527780Y-59349571D01*
X190575400Y-59254333D01*
X190623019Y-59206714D01*
X190718257Y-59159095D01*
X190813495Y-59159095D01*
X190956352Y-59206714D01*
X191527780Y-59778142D01*
X191527780Y-59159095D01*
X194203980Y-61113857D02*
X193727790Y-61447190D01*
X194203980Y-61685285D02*
X193203980Y-61685285D01*
X193203980Y-61304333D01*
X193251600Y-61209095D01*
X193299219Y-61161476D01*
X193394457Y-61113857D01*
X193537314Y-61113857D01*
X193632552Y-61161476D01*
X193680171Y-61209095D01*
X193727790Y-61304333D01*
X193727790Y-61685285D01*
X193299219Y-60732904D02*
X193251600Y-60685285D01*
X193203980Y-60590047D01*
X193203980Y-60351952D01*
X193251600Y-60256714D01*
X193299219Y-60209095D01*
X193394457Y-60161476D01*
X193489695Y-60161476D01*
X193632552Y-60209095D01*
X194203980Y-60780523D01*
X194203980Y-60161476D01*
X193203980Y-59828142D02*
X193203980Y-59209095D01*
X193584933Y-59542428D01*
X193584933Y-59399571D01*
X193632552Y-59304333D01*
X193680171Y-59256714D01*
X193775409Y-59209095D01*
X194013504Y-59209095D01*
X194108742Y-59256714D01*
X194156361Y-59304333D01*
X194203980Y-59399571D01*
X194203980Y-59685285D01*
X194156361Y-59780523D01*
X194108742Y-59828142D01*
X65762380Y-41401904D02*
X66571904Y-41401904D01*
X66667142Y-41354285D01*
X66714761Y-41306666D01*
X66762380Y-41211428D01*
X66762380Y-41020952D01*
X66714761Y-40925714D01*
X66667142Y-40878095D01*
X66571904Y-40830476D01*
X65762380Y-40830476D01*
X66762380Y-39830476D02*
X66762380Y-40401904D01*
X66762380Y-40116190D02*
X65762380Y-40116190D01*
X65905238Y-40211428D01*
X66000476Y-40306666D01*
X66048095Y-40401904D01*
X187301380Y-41401904D02*
X188110904Y-41401904D01*
X188206142Y-41354285D01*
X188253761Y-41306666D01*
X188301380Y-41211428D01*
X188301380Y-41020952D01*
X188253761Y-40925714D01*
X188206142Y-40878095D01*
X188110904Y-40830476D01*
X187301380Y-40830476D01*
X187301380Y-40449523D02*
X187301380Y-39830476D01*
X187682333Y-40163809D01*
X187682333Y-40020952D01*
X187729952Y-39925714D01*
X187777571Y-39878095D01*
X187872809Y-39830476D01*
X188110904Y-39830476D01*
X188206142Y-39878095D01*
X188253761Y-39925714D01*
X188301380Y-40020952D01*
X188301380Y-40306666D01*
X188253761Y-40401904D01*
X188206142Y-40449523D01*
X204779714Y-29154380D02*
X204779714Y-28154380D01*
X205017809Y-28154380D01*
X205160666Y-28202000D01*
X205255904Y-28297238D01*
X205303523Y-28392476D01*
X205351142Y-28582952D01*
X205351142Y-28725809D01*
X205303523Y-28916285D01*
X205255904Y-29011523D01*
X205160666Y-29106761D01*
X205017809Y-29154380D01*
X204779714Y-29154380D01*
X206303523Y-29154380D02*
X205732095Y-29154380D01*
X206017809Y-29154380D02*
X206017809Y-28154380D01*
X205922571Y-28297238D01*
X205827333Y-28392476D01*
X205732095Y-28440095D01*
X206636857Y-28154380D02*
X207255904Y-28154380D01*
X206922571Y-28535333D01*
X207065428Y-28535333D01*
X207160666Y-28582952D01*
X207208285Y-28630571D01*
X207255904Y-28725809D01*
X207255904Y-28963904D01*
X207208285Y-29059142D01*
X207160666Y-29106761D01*
X207065428Y-29154380D01*
X206779714Y-29154380D01*
X206684476Y-29106761D01*
X206636857Y-29059142D01*
X56233333Y-43752380D02*
X55900000Y-43276190D01*
X55661904Y-43752380D02*
X55661904Y-42752380D01*
X56042857Y-42752380D01*
X56138095Y-42800000D01*
X56185714Y-42847619D01*
X56233333Y-42942857D01*
X56233333Y-43085714D01*
X56185714Y-43180952D01*
X56138095Y-43228571D01*
X56042857Y-43276190D01*
X55661904Y-43276190D01*
X57185714Y-43752380D02*
X56614285Y-43752380D01*
X56900000Y-43752380D02*
X56900000Y-42752380D01*
X56804761Y-42895238D01*
X56709523Y-42990476D01*
X56614285Y-43038095D01*
X56251333Y-37826380D02*
X55918000Y-37350190D01*
X55679904Y-37826380D02*
X55679904Y-36826380D01*
X56060857Y-36826380D01*
X56156095Y-36874000D01*
X56203714Y-36921619D01*
X56251333Y-37016857D01*
X56251333Y-37159714D01*
X56203714Y-37254952D01*
X56156095Y-37302571D01*
X56060857Y-37350190D01*
X55679904Y-37350190D01*
X56584666Y-36826380D02*
X57203714Y-36826380D01*
X56870380Y-37207333D01*
X57013238Y-37207333D01*
X57108476Y-37254952D01*
X57156095Y-37302571D01*
X57203714Y-37397809D01*
X57203714Y-37635904D01*
X57156095Y-37731142D01*
X57108476Y-37778761D01*
X57013238Y-37826380D01*
X56727523Y-37826380D01*
X56632285Y-37778761D01*
X56584666Y-37731142D01*
X141755904Y-29154380D02*
X141755904Y-28154380D01*
X141994000Y-28154380D01*
X142136857Y-28202000D01*
X142232095Y-28297238D01*
X142279714Y-28392476D01*
X142327333Y-28582952D01*
X142327333Y-28725809D01*
X142279714Y-28916285D01*
X142232095Y-29011523D01*
X142136857Y-29106761D01*
X141994000Y-29154380D01*
X141755904Y-29154380D01*
X142898761Y-28582952D02*
X142803523Y-28535333D01*
X142755904Y-28487714D01*
X142708285Y-28392476D01*
X142708285Y-28344857D01*
X142755904Y-28249619D01*
X142803523Y-28202000D01*
X142898761Y-28154380D01*
X143089238Y-28154380D01*
X143184476Y-28202000D01*
X143232095Y-28249619D01*
X143279714Y-28344857D01*
X143279714Y-28392476D01*
X143232095Y-28487714D01*
X143184476Y-28535333D01*
X143089238Y-28582952D01*
X142898761Y-28582952D01*
X142803523Y-28630571D01*
X142755904Y-28678190D01*
X142708285Y-28773428D01*
X142708285Y-28963904D01*
X142755904Y-29059142D01*
X142803523Y-29106761D01*
X142898761Y-29154380D01*
X143089238Y-29154380D01*
X143184476Y-29106761D01*
X143232095Y-29059142D01*
X143279714Y-28963904D01*
X143279714Y-28773428D01*
X143232095Y-28678190D01*
X143184476Y-28630571D01*
X143089238Y-28582952D01*
X183926180Y-61163857D02*
X183449990Y-61497190D01*
X183926180Y-61735285D02*
X182926180Y-61735285D01*
X182926180Y-61354333D01*
X182973800Y-61259095D01*
X183021419Y-61211476D01*
X183116657Y-61163857D01*
X183259514Y-61163857D01*
X183354752Y-61211476D01*
X183402371Y-61259095D01*
X183449990Y-61354333D01*
X183449990Y-61735285D01*
X183926180Y-60211476D02*
X183926180Y-60782904D01*
X183926180Y-60497190D02*
X182926180Y-60497190D01*
X183069038Y-60592428D01*
X183164276Y-60687666D01*
X183211895Y-60782904D01*
X183926180Y-59735285D02*
X183926180Y-59544809D01*
X183878561Y-59449571D01*
X183830942Y-59401952D01*
X183688085Y-59306714D01*
X183497609Y-59259095D01*
X183116657Y-59259095D01*
X183021419Y-59306714D01*
X182973800Y-59354333D01*
X182926180Y-59449571D01*
X182926180Y-59640047D01*
X182973800Y-59735285D01*
X183021419Y-59782904D01*
X183116657Y-59830523D01*
X183354752Y-59830523D01*
X183449990Y-59782904D01*
X183497609Y-59735285D01*
X183545228Y-59640047D01*
X183545228Y-59449571D01*
X183497609Y-59354333D01*
X183449990Y-59306714D01*
X183354752Y-59259095D01*
X149201380Y-41401904D02*
X150010904Y-41401904D01*
X150106142Y-41354285D01*
X150153761Y-41306666D01*
X150201380Y-41211428D01*
X150201380Y-41020952D01*
X150153761Y-40925714D01*
X150106142Y-40878095D01*
X150010904Y-40830476D01*
X149201380Y-40830476D01*
X149296619Y-40401904D02*
X149249000Y-40354285D01*
X149201380Y-40259047D01*
X149201380Y-40020952D01*
X149249000Y-39925714D01*
X149296619Y-39878095D01*
X149391857Y-39830476D01*
X149487095Y-39830476D01*
X149629952Y-39878095D01*
X150201380Y-40449523D01*
X150201380Y-39830476D01*
X196779380Y-61063857D02*
X196303190Y-61397190D01*
X196779380Y-61635285D02*
X195779380Y-61635285D01*
X195779380Y-61254333D01*
X195827000Y-61159095D01*
X195874619Y-61111476D01*
X195969857Y-61063857D01*
X196112714Y-61063857D01*
X196207952Y-61111476D01*
X196255571Y-61159095D01*
X196303190Y-61254333D01*
X196303190Y-61635285D01*
X195874619Y-60682904D02*
X195827000Y-60635285D01*
X195779380Y-60540047D01*
X195779380Y-60301952D01*
X195827000Y-60206714D01*
X195874619Y-60159095D01*
X195969857Y-60111476D01*
X196065095Y-60111476D01*
X196207952Y-60159095D01*
X196779380Y-60730523D01*
X196779380Y-60111476D01*
X196112714Y-59254333D02*
X196779380Y-59254333D01*
X195731761Y-59492428D02*
X196446047Y-59730523D01*
X196446047Y-59111476D01*
X154455904Y-29154380D02*
X154455904Y-28154380D01*
X154694000Y-28154380D01*
X154836857Y-28202000D01*
X154932095Y-28297238D01*
X154979714Y-28392476D01*
X155027333Y-28582952D01*
X155027333Y-28725809D01*
X154979714Y-28916285D01*
X154932095Y-29011523D01*
X154836857Y-29106761D01*
X154694000Y-29154380D01*
X154455904Y-29154380D01*
X155503523Y-29154380D02*
X155694000Y-29154380D01*
X155789238Y-29106761D01*
X155836857Y-29059142D01*
X155932095Y-28916285D01*
X155979714Y-28725809D01*
X155979714Y-28344857D01*
X155932095Y-28249619D01*
X155884476Y-28202000D01*
X155789238Y-28154380D01*
X155598761Y-28154380D01*
X155503523Y-28202000D01*
X155455904Y-28249619D01*
X155408285Y-28344857D01*
X155408285Y-28582952D01*
X155455904Y-28678190D01*
X155503523Y-28725809D01*
X155598761Y-28773428D01*
X155789238Y-28773428D01*
X155884476Y-28725809D01*
X155932095Y-28678190D01*
X155979714Y-28582952D01*
X56058333Y-52502380D02*
X55582142Y-52502380D01*
X55582142Y-51502380D01*
X56344047Y-51597619D02*
X56391666Y-51550000D01*
X56486904Y-51502380D01*
X56725000Y-51502380D01*
X56820238Y-51550000D01*
X56867857Y-51597619D01*
X56915476Y-51692857D01*
X56915476Y-51788095D01*
X56867857Y-51930952D01*
X56296428Y-52502380D01*
X56915476Y-52502380D01*
X231170833Y-48632142D02*
X231123214Y-48679761D01*
X230980357Y-48727380D01*
X230885119Y-48727380D01*
X230742261Y-48679761D01*
X230647023Y-48584523D01*
X230599404Y-48489285D01*
X230551785Y-48298809D01*
X230551785Y-48155952D01*
X230599404Y-47965476D01*
X230647023Y-47870238D01*
X230742261Y-47775000D01*
X230885119Y-47727380D01*
X230980357Y-47727380D01*
X231123214Y-47775000D01*
X231170833Y-47822619D01*
X232027976Y-48060714D02*
X232027976Y-48727380D01*
X231789880Y-47679761D02*
X231551785Y-48394047D01*
X232170833Y-48394047D01*
X37032142Y-49042857D02*
X37079761Y-49090476D01*
X37127380Y-49233333D01*
X37127380Y-49328571D01*
X37079761Y-49471428D01*
X36984523Y-49566666D01*
X36889285Y-49614285D01*
X36698809Y-49661904D01*
X36555952Y-49661904D01*
X36365476Y-49614285D01*
X36270238Y-49566666D01*
X36175000Y-49471428D01*
X36127380Y-49328571D01*
X36127380Y-49233333D01*
X36175000Y-49090476D01*
X36222619Y-49042857D01*
X37127380Y-48090476D02*
X37127380Y-48661904D01*
X37127380Y-48376190D02*
X36127380Y-48376190D01*
X36270238Y-48471428D01*
X36365476Y-48566666D01*
X36413095Y-48661904D01*
X36222619Y-47709523D02*
X36175000Y-47661904D01*
X36127380Y-47566666D01*
X36127380Y-47328571D01*
X36175000Y-47233333D01*
X36222619Y-47185714D01*
X36317857Y-47138095D01*
X36413095Y-47138095D01*
X36555952Y-47185714D01*
X37127380Y-47757142D01*
X37127380Y-47138095D01*
X67577380Y-65136904D02*
X68386904Y-65136904D01*
X68482142Y-65089285D01*
X68529761Y-65041666D01*
X68577380Y-64946428D01*
X68577380Y-64755952D01*
X68529761Y-64660714D01*
X68482142Y-64613095D01*
X68386904Y-64565476D01*
X67577380Y-64565476D01*
X67910714Y-63660714D02*
X68577380Y-63660714D01*
X67529761Y-63898809D02*
X68244047Y-64136904D01*
X68244047Y-63517857D01*
X91514380Y-64494205D02*
X92323904Y-64494205D01*
X92419142Y-64446586D01*
X92466761Y-64398967D01*
X92514380Y-64303729D01*
X92514380Y-64113253D01*
X92466761Y-64018015D01*
X92419142Y-63970396D01*
X92323904Y-63922777D01*
X91514380Y-63922777D01*
X91942952Y-63303729D02*
X91895333Y-63398967D01*
X91847714Y-63446586D01*
X91752476Y-63494205D01*
X91704857Y-63494205D01*
X91609619Y-63446586D01*
X91562000Y-63398967D01*
X91514380Y-63303729D01*
X91514380Y-63113253D01*
X91562000Y-63018015D01*
X91609619Y-62970396D01*
X91704857Y-62922777D01*
X91752476Y-62922777D01*
X91847714Y-62970396D01*
X91895333Y-63018015D01*
X91942952Y-63113253D01*
X91942952Y-63303729D01*
X91990571Y-63398967D01*
X92038190Y-63446586D01*
X92133428Y-63494205D01*
X92323904Y-63494205D01*
X92419142Y-63446586D01*
X92466761Y-63398967D01*
X92514380Y-63303729D01*
X92514380Y-63113253D01*
X92466761Y-63018015D01*
X92419142Y-62970396D01*
X92323904Y-62922777D01*
X92133428Y-62922777D01*
X92038190Y-62970396D01*
X91990571Y-63018015D01*
X91942952Y-63113253D01*
X90282142Y-61156458D02*
X90329761Y-61204077D01*
X90377380Y-61346934D01*
X90377380Y-61442172D01*
X90329761Y-61585029D01*
X90234523Y-61680267D01*
X90139285Y-61727886D01*
X89948809Y-61775505D01*
X89805952Y-61775505D01*
X89615476Y-61727886D01*
X89520238Y-61680267D01*
X89425000Y-61585029D01*
X89377380Y-61442172D01*
X89377380Y-61346934D01*
X89425000Y-61204077D01*
X89472619Y-61156458D01*
X90377380Y-60204077D02*
X90377380Y-60775505D01*
X90377380Y-60489791D02*
X89377380Y-60489791D01*
X89520238Y-60585029D01*
X89615476Y-60680267D01*
X89663095Y-60775505D01*
X90377380Y-59251696D02*
X90377380Y-59823124D01*
X90377380Y-59537410D02*
X89377380Y-59537410D01*
X89520238Y-59632648D01*
X89615476Y-59727886D01*
X89663095Y-59823124D01*
X128461904Y-29252380D02*
X128461904Y-28252380D01*
X128700000Y-28252380D01*
X128842857Y-28300000D01*
X128938095Y-28395238D01*
X128985714Y-28490476D01*
X129033333Y-28680952D01*
X129033333Y-28823809D01*
X128985714Y-29014285D01*
X128938095Y-29109523D01*
X128842857Y-29204761D01*
X128700000Y-29252380D01*
X128461904Y-29252380D01*
X129461904Y-29252380D02*
X129461904Y-28252380D01*
X129842857Y-28252380D01*
X129938095Y-28300000D01*
X129985714Y-28347619D01*
X130033333Y-28442857D01*
X130033333Y-28585714D01*
X129985714Y-28680952D01*
X129938095Y-28728571D01*
X129842857Y-28776190D01*
X129461904Y-28776190D01*
X130652380Y-28252380D02*
X130747619Y-28252380D01*
X130842857Y-28300000D01*
X130890476Y-28347619D01*
X130938095Y-28442857D01*
X130985714Y-28633333D01*
X130985714Y-28871428D01*
X130938095Y-29061904D01*
X130890476Y-29157142D01*
X130842857Y-29204761D01*
X130747619Y-29252380D01*
X130652380Y-29252380D01*
X130557142Y-29204761D01*
X130509523Y-29157142D01*
X130461904Y-29061904D01*
X130414285Y-28871428D01*
X130414285Y-28633333D01*
X130461904Y-28442857D01*
X130509523Y-28347619D01*
X130557142Y-28300000D01*
X130652380Y-28252380D01*
X225000595Y-46369880D02*
X225000595Y-47179404D01*
X225048214Y-47274642D01*
X225095833Y-47322261D01*
X225191071Y-47369880D01*
X225381547Y-47369880D01*
X225476785Y-47322261D01*
X225524404Y-47274642D01*
X225572023Y-47179404D01*
X225572023Y-46369880D01*
X226524404Y-46369880D02*
X226048214Y-46369880D01*
X226000595Y-46846071D01*
X226048214Y-46798452D01*
X226143452Y-46750833D01*
X226381547Y-46750833D01*
X226476785Y-46798452D01*
X226524404Y-46846071D01*
X226572023Y-46941309D01*
X226572023Y-47179404D01*
X226524404Y-47274642D01*
X226476785Y-47322261D01*
X226381547Y-47369880D01*
X226143452Y-47369880D01*
X226048214Y-47322261D01*
X226000595Y-47274642D01*
X231258333Y-50132142D02*
X231210714Y-50179761D01*
X231067857Y-50227380D01*
X230972619Y-50227380D01*
X230829761Y-50179761D01*
X230734523Y-50084523D01*
X230686904Y-49989285D01*
X230639285Y-49798809D01*
X230639285Y-49655952D01*
X230686904Y-49465476D01*
X230734523Y-49370238D01*
X230829761Y-49275000D01*
X230972619Y-49227380D01*
X231067857Y-49227380D01*
X231210714Y-49275000D01*
X231258333Y-49322619D01*
X231829761Y-49655952D02*
X231734523Y-49608333D01*
X231686904Y-49560714D01*
X231639285Y-49465476D01*
X231639285Y-49417857D01*
X231686904Y-49322619D01*
X231734523Y-49275000D01*
X231829761Y-49227380D01*
X232020238Y-49227380D01*
X232115476Y-49275000D01*
X232163095Y-49322619D01*
X232210714Y-49417857D01*
X232210714Y-49465476D01*
X232163095Y-49560714D01*
X232115476Y-49608333D01*
X232020238Y-49655952D01*
X231829761Y-49655952D01*
X231734523Y-49703571D01*
X231686904Y-49751190D01*
X231639285Y-49846428D01*
X231639285Y-50036904D01*
X231686904Y-50132142D01*
X231734523Y-50179761D01*
X231829761Y-50227380D01*
X232020238Y-50227380D01*
X232115476Y-50179761D01*
X232163095Y-50132142D01*
X232210714Y-50036904D01*
X232210714Y-49846428D01*
X232163095Y-49751190D01*
X232115476Y-49703571D01*
X232020238Y-49655952D01*
X243161904Y-29352380D02*
X243161904Y-28352380D01*
X243400000Y-28352380D01*
X243542857Y-28400000D01*
X243638095Y-28495238D01*
X243685714Y-28590476D01*
X243733333Y-28780952D01*
X243733333Y-28923809D01*
X243685714Y-29114285D01*
X243638095Y-29209523D01*
X243542857Y-29304761D01*
X243400000Y-29352380D01*
X243161904Y-29352380D01*
X244161904Y-29352380D02*
X244161904Y-28352380D01*
X244542857Y-28352380D01*
X244638095Y-28400000D01*
X244685714Y-28447619D01*
X244733333Y-28542857D01*
X244733333Y-28685714D01*
X244685714Y-28780952D01*
X244638095Y-28828571D01*
X244542857Y-28876190D01*
X244161904Y-28876190D01*
X245685714Y-29352380D02*
X245114285Y-29352380D01*
X245400000Y-29352380D02*
X245400000Y-28352380D01*
X245304761Y-28495238D01*
X245209523Y-28590476D01*
X245114285Y-28638095D01*
X224033333Y-39507142D02*
X223985714Y-39554761D01*
X223842857Y-39602380D01*
X223747619Y-39602380D01*
X223604761Y-39554761D01*
X223509523Y-39459523D01*
X223461904Y-39364285D01*
X223414285Y-39173809D01*
X223414285Y-39030952D01*
X223461904Y-38840476D01*
X223509523Y-38745238D01*
X223604761Y-38650000D01*
X223747619Y-38602380D01*
X223842857Y-38602380D01*
X223985714Y-38650000D01*
X224033333Y-38697619D01*
X224938095Y-38602380D02*
X224461904Y-38602380D01*
X224414285Y-39078571D01*
X224461904Y-39030952D01*
X224557142Y-38983333D01*
X224795238Y-38983333D01*
X224890476Y-39030952D01*
X224938095Y-39078571D01*
X224985714Y-39173809D01*
X224985714Y-39411904D01*
X224938095Y-39507142D01*
X224890476Y-39554761D01*
X224795238Y-39602380D01*
X224557142Y-39602380D01*
X224461904Y-39554761D01*
X224414285Y-39507142D01*
X27361904Y-29252380D02*
X27361904Y-28252380D01*
X27600000Y-28252380D01*
X27742857Y-28300000D01*
X27838095Y-28395238D01*
X27885714Y-28490476D01*
X27933333Y-28680952D01*
X27933333Y-28823809D01*
X27885714Y-29014285D01*
X27838095Y-29109523D01*
X27742857Y-29204761D01*
X27600000Y-29252380D01*
X27361904Y-29252380D01*
X28552380Y-28252380D02*
X28647619Y-28252380D01*
X28742857Y-28300000D01*
X28790476Y-28347619D01*
X28838095Y-28442857D01*
X28885714Y-28633333D01*
X28885714Y-28871428D01*
X28838095Y-29061904D01*
X28790476Y-29157142D01*
X28742857Y-29204761D01*
X28647619Y-29252380D01*
X28552380Y-29252380D01*
X28457142Y-29204761D01*
X28409523Y-29157142D01*
X28361904Y-29061904D01*
X28314285Y-28871428D01*
X28314285Y-28633333D01*
X28361904Y-28442857D01*
X28409523Y-28347619D01*
X28457142Y-28300000D01*
X28552380Y-28252380D01*
X236184380Y-67642857D02*
X235708190Y-67976190D01*
X236184380Y-68214285D02*
X235184380Y-68214285D01*
X235184380Y-67833333D01*
X235232000Y-67738095D01*
X235279619Y-67690476D01*
X235374857Y-67642857D01*
X235517714Y-67642857D01*
X235612952Y-67690476D01*
X235660571Y-67738095D01*
X235708190Y-67833333D01*
X235708190Y-68214285D01*
X235279619Y-67261904D02*
X235232000Y-67214285D01*
X235184380Y-67119047D01*
X235184380Y-66880952D01*
X235232000Y-66785714D01*
X235279619Y-66738095D01*
X235374857Y-66690476D01*
X235470095Y-66690476D01*
X235612952Y-66738095D01*
X236184380Y-67309523D01*
X236184380Y-66690476D01*
X235184380Y-65785714D02*
X235184380Y-66261904D01*
X235660571Y-66309523D01*
X235612952Y-66261904D01*
X235565333Y-66166666D01*
X235565333Y-65928571D01*
X235612952Y-65833333D01*
X235660571Y-65785714D01*
X235755809Y-65738095D01*
X235993904Y-65738095D01*
X236089142Y-65785714D01*
X236136761Y-65833333D01*
X236184380Y-65928571D01*
X236184380Y-66166666D01*
X236136761Y-66261904D01*
X236089142Y-66309523D01*
X65617142Y-60441666D02*
X65664761Y-60489285D01*
X65712380Y-60632142D01*
X65712380Y-60727380D01*
X65664761Y-60870238D01*
X65569523Y-60965476D01*
X65474285Y-61013095D01*
X65283809Y-61060714D01*
X65140952Y-61060714D01*
X64950476Y-61013095D01*
X64855238Y-60965476D01*
X64760000Y-60870238D01*
X64712380Y-60727380D01*
X64712380Y-60632142D01*
X64760000Y-60489285D01*
X64807619Y-60441666D01*
X65712380Y-59489285D02*
X65712380Y-60060714D01*
X65712380Y-59775000D02*
X64712380Y-59775000D01*
X64855238Y-59870238D01*
X64950476Y-59965476D01*
X64998095Y-60060714D01*
X231033333Y-59657142D02*
X230985714Y-59704761D01*
X230842857Y-59752380D01*
X230747619Y-59752380D01*
X230604761Y-59704761D01*
X230509523Y-59609523D01*
X230461904Y-59514285D01*
X230414285Y-59323809D01*
X230414285Y-59180952D01*
X230461904Y-58990476D01*
X230509523Y-58895238D01*
X230604761Y-58800000D01*
X230747619Y-58752380D01*
X230842857Y-58752380D01*
X230985714Y-58800000D01*
X231033333Y-58847619D01*
X231890476Y-58752380D02*
X231700000Y-58752380D01*
X231604761Y-58800000D01*
X231557142Y-58847619D01*
X231461904Y-58990476D01*
X231414285Y-59180952D01*
X231414285Y-59561904D01*
X231461904Y-59657142D01*
X231509523Y-59704761D01*
X231604761Y-59752380D01*
X231795238Y-59752380D01*
X231890476Y-59704761D01*
X231938095Y-59657142D01*
X231985714Y-59561904D01*
X231985714Y-59323809D01*
X231938095Y-59228571D01*
X231890476Y-59180952D01*
X231795238Y-59133333D01*
X231604761Y-59133333D01*
X231509523Y-59180952D01*
X231461904Y-59228571D01*
X231414285Y-59323809D01*
X222488095Y-65202380D02*
X222488095Y-66011904D01*
X222535714Y-66107142D01*
X222583333Y-66154761D01*
X222678571Y-66202380D01*
X222869047Y-66202380D01*
X222964285Y-66154761D01*
X223011904Y-66107142D01*
X223059523Y-66011904D01*
X223059523Y-65202380D01*
X223440476Y-65202380D02*
X224107142Y-65202380D01*
X223678571Y-66202380D01*
X31958333Y-52552380D02*
X31482142Y-52552380D01*
X31482142Y-51552380D01*
X32815476Y-52552380D02*
X32244047Y-52552380D01*
X32529761Y-52552380D02*
X32529761Y-51552380D01*
X32434523Y-51695238D01*
X32339285Y-51790476D01*
X32244047Y-51838095D01*
X226133333Y-69657142D02*
X226085714Y-69704761D01*
X225942857Y-69752380D01*
X225847619Y-69752380D01*
X225704761Y-69704761D01*
X225609523Y-69609523D01*
X225561904Y-69514285D01*
X225514285Y-69323809D01*
X225514285Y-69180952D01*
X225561904Y-68990476D01*
X225609523Y-68895238D01*
X225704761Y-68800000D01*
X225847619Y-68752380D01*
X225942857Y-68752380D01*
X226085714Y-68800000D01*
X226133333Y-68847619D01*
X226609523Y-69752380D02*
X226800000Y-69752380D01*
X226895238Y-69704761D01*
X226942857Y-69657142D01*
X227038095Y-69514285D01*
X227085714Y-69323809D01*
X227085714Y-68942857D01*
X227038095Y-68847619D01*
X226990476Y-68800000D01*
X226895238Y-68752380D01*
X226704761Y-68752380D01*
X226609523Y-68800000D01*
X226561904Y-68847619D01*
X226514285Y-68942857D01*
X226514285Y-69180952D01*
X226561904Y-69276190D01*
X226609523Y-69323809D01*
X226704761Y-69371428D01*
X226895238Y-69371428D01*
X226990476Y-69323809D01*
X227038095Y-69276190D01*
X227085714Y-69180952D01*
X222863095Y-55777380D02*
X222863095Y-56586904D01*
X222910714Y-56682142D01*
X222958333Y-56729761D01*
X223053571Y-56777380D01*
X223244047Y-56777380D01*
X223339285Y-56729761D01*
X223386904Y-56682142D01*
X223434523Y-56586904D01*
X223434523Y-55777380D01*
X224339285Y-55777380D02*
X224148809Y-55777380D01*
X224053571Y-55825000D01*
X224005952Y-55872619D01*
X223910714Y-56015476D01*
X223863095Y-56205952D01*
X223863095Y-56586904D01*
X223910714Y-56682142D01*
X223958333Y-56729761D01*
X224053571Y-56777380D01*
X224244047Y-56777380D01*
X224339285Y-56729761D01*
X224386904Y-56682142D01*
X224434523Y-56586904D01*
X224434523Y-56348809D01*
X224386904Y-56253571D01*
X224339285Y-56205952D01*
X224244047Y-56158333D01*
X224053571Y-56158333D01*
X223958333Y-56205952D01*
X223910714Y-56253571D01*
X223863095Y-56348809D01*
D12*
X65251000Y-40378748D02*
X65251000Y-40901252D01*
X63781000Y-40378748D02*
X63781000Y-40901252D01*
X148315000Y-37330748D02*
X148315000Y-37853252D01*
X149785000Y-37330748D02*
X149785000Y-37853252D01*
X185955000Y-37076748D02*
X185955000Y-37599252D01*
X187425000Y-37076748D02*
X187425000Y-37599252D01*
D13*
X219481400Y-73280000D02*
X219481400Y-82170000D01*
X219481400Y-82170000D02*
X202971400Y-82170000D01*
X217341400Y-73280000D02*
X219481400Y-73280000D01*
X205111400Y-73280000D02*
X202971400Y-73280000D01*
X202971400Y-82170000D02*
X202971400Y-73280000D01*
X220231400Y-72390000D02*
G75*
G03*
X220231400Y-72390000I-100000J0D01*
G01*
D12*
X118200000Y-35542000D02*
X115400000Y-35542000D01*
X118850000Y-34242000D02*
X118850000Y-34842000D01*
X114750000Y-34842000D02*
X114750000Y-34242000D01*
X115400000Y-33542000D02*
X118200000Y-33542000D01*
X115450000Y-33542000D02*
G75*
G03*
X114750000Y-34242000I0J-700000D01*
G01*
X118850000Y-34242000D02*
G75*
G03*
X118150000Y-33542000I-699999J1D01*
G01*
X118150000Y-35542000D02*
G75*
G03*
X118850000Y-34842000I1J699999D01*
G01*
X114750000Y-34842000D02*
G75*
G03*
X115450000Y-35542000I700000J0D01*
G01*
X114750000Y-41700000D02*
X114750000Y-41100000D01*
X118200000Y-42400000D02*
X115400000Y-42400000D01*
X118850000Y-41100000D02*
X118850000Y-41700000D01*
X115400000Y-40400000D02*
X118200000Y-40400000D01*
X114750000Y-41700000D02*
G75*
G03*
X115450000Y-42400000I700000J0D01*
G01*
X118150000Y-42400000D02*
G75*
G03*
X118850000Y-41700000I1J699999D01*
G01*
X118850000Y-41100000D02*
G75*
G03*
X118150000Y-40400000I-699999J1D01*
G01*
X115450000Y-40400000D02*
G75*
G03*
X114750000Y-41100000I0J-700000D01*
G01*
X118850000Y-37671000D02*
X118850000Y-38271000D01*
X118200000Y-38971000D02*
X115400000Y-38971000D01*
X114750000Y-38271000D02*
X114750000Y-37671000D01*
X115400000Y-36971000D02*
X118200000Y-36971000D01*
X115450000Y-36971000D02*
G75*
G03*
X114750000Y-37671000I0J-700000D01*
G01*
X118150000Y-38971000D02*
G75*
G03*
X118850000Y-38271000I1J699999D01*
G01*
X118850000Y-37671000D02*
G75*
G03*
X118150000Y-36971000I-699999J1D01*
G01*
X114750000Y-38271000D02*
G75*
G03*
X115450000Y-38971000I700000J0D01*
G01*
X118200000Y-45800000D02*
X115400000Y-45800000D01*
X115400000Y-43800000D02*
X118200000Y-43800000D01*
X114750000Y-45100000D02*
X114750000Y-44500000D01*
X118850000Y-44500000D02*
X118850000Y-45100000D01*
X114750000Y-45100000D02*
G75*
G03*
X115450000Y-45800000I700000J0D01*
G01*
X115450000Y-43800000D02*
G75*
G03*
X114750000Y-44500000I0J-700000D01*
G01*
X118850000Y-44500000D02*
G75*
G03*
X118150000Y-43800000I-699999J1D01*
G01*
X118150000Y-45800000D02*
G75*
G03*
X118850000Y-45100000I1J699999D01*
G01*
X58922936Y-39615000D02*
X59377064Y-39615000D01*
X58922936Y-41085000D02*
X59377064Y-41085000D01*
X58972936Y-33515000D02*
X59427064Y-33515000D01*
X58972936Y-34985000D02*
X59427064Y-34985000D01*
X84301064Y-36803000D02*
X83846936Y-36803000D01*
X84301064Y-35333000D02*
X83846936Y-35333000D01*
X84301064Y-39851000D02*
X83846936Y-39851000D01*
X84301064Y-38381000D02*
X83846936Y-38381000D01*
X84301064Y-42899000D02*
X83846936Y-42899000D01*
X84301064Y-41429000D02*
X83846936Y-41429000D01*
X84285064Y-44477000D02*
X83830936Y-44477000D01*
X84285064Y-45947000D02*
X83830936Y-45947000D01*
X144857736Y-44931000D02*
X145311864Y-44931000D01*
X144857736Y-43461000D02*
X145311864Y-43461000D01*
X144857736Y-40667000D02*
X145311864Y-40667000D01*
X144857736Y-42137000D02*
X145311864Y-42137000D01*
X144873736Y-39546200D02*
X145327864Y-39546200D01*
X144873736Y-38076200D02*
X145327864Y-38076200D01*
X167155864Y-45950200D02*
X166701736Y-45950200D01*
X167155864Y-47420200D02*
X166701736Y-47420200D01*
X167155864Y-36650600D02*
X166701736Y-36650600D01*
X167155864Y-35180600D02*
X166701736Y-35180600D01*
X167155864Y-37822200D02*
X166701736Y-37822200D01*
X167155864Y-39292200D02*
X166701736Y-39292200D01*
X167155864Y-42289400D02*
X166701736Y-42289400D01*
X167155864Y-40819400D02*
X166701736Y-40819400D01*
X167105064Y-44880200D02*
X166650936Y-44880200D01*
X167105064Y-43410200D02*
X166650936Y-43410200D01*
X178622936Y-44035000D02*
X179077064Y-44035000D01*
X178622936Y-42565000D02*
X179077064Y-42565000D01*
X178622936Y-44965000D02*
X179077064Y-44965000D01*
X178622936Y-46435000D02*
X179077064Y-46435000D01*
X185265000Y-64177064D02*
X185265000Y-63722936D01*
X186735000Y-64177064D02*
X186735000Y-63722936D01*
X189085000Y-64127064D02*
X189085000Y-63672936D01*
X187615000Y-64127064D02*
X187615000Y-63672936D01*
X190315000Y-64077064D02*
X190315000Y-63622936D01*
X191785000Y-64077064D02*
X191785000Y-63622936D01*
X192915000Y-64127064D02*
X192915000Y-63672936D01*
X194385000Y-64127064D02*
X194385000Y-63672936D01*
X67150000Y-36780000D02*
X67385000Y-36780000D01*
X80170000Y-40640000D02*
X80170000Y-44500000D01*
X80170000Y-44500000D02*
X79935000Y-44500000D01*
X67150000Y-40640000D02*
X67150000Y-44500000D01*
X67150000Y-40640000D02*
X67150000Y-36780000D01*
X67150000Y-44500000D02*
X67385000Y-44500000D01*
X67385000Y-44500000D02*
X67385000Y-46315000D01*
X80170000Y-36780000D02*
X79935000Y-36780000D01*
X80170000Y-40640000D02*
X80170000Y-36780000D01*
X188689000Y-44500000D02*
X188924000Y-44500000D01*
X188689000Y-40640000D02*
X188689000Y-44500000D01*
X188689000Y-36780000D02*
X188924000Y-36780000D01*
X201709000Y-44500000D02*
X201474000Y-44500000D01*
X201709000Y-36780000D02*
X201474000Y-36780000D01*
X188924000Y-44500000D02*
X188924000Y-46315000D01*
X201709000Y-40640000D02*
X201709000Y-44500000D01*
X188689000Y-40640000D02*
X188689000Y-36780000D01*
X201709000Y-40640000D02*
X201709000Y-36780000D01*
X59192936Y-42699000D02*
X59647064Y-42699000D01*
X59192936Y-44169000D02*
X59647064Y-44169000D01*
X59072936Y-36615000D02*
X59527064Y-36615000D01*
X59072936Y-38085000D02*
X59527064Y-38085000D01*
X184285000Y-64177064D02*
X184285000Y-63722936D01*
X182815000Y-64177064D02*
X182815000Y-63722936D01*
X163609000Y-36780000D02*
X163374000Y-36780000D01*
X163609000Y-40640000D02*
X163609000Y-44500000D01*
X163609000Y-44500000D02*
X163374000Y-44500000D01*
X150824000Y-44500000D02*
X150824000Y-46315000D01*
X150589000Y-40640000D02*
X150589000Y-44500000D01*
X150589000Y-36780000D02*
X150824000Y-36780000D01*
X150589000Y-40640000D02*
X150589000Y-36780000D01*
X150589000Y-44500000D02*
X150824000Y-44500000D01*
X163609000Y-40640000D02*
X163609000Y-36780000D01*
X196935000Y-64077064D02*
X196935000Y-63622936D01*
X195465000Y-64077064D02*
X195465000Y-63622936D01*
X61150000Y-53675000D02*
X61150000Y-67675000D01*
X61000000Y-67825000D02*
X47000000Y-67825000D01*
X47000000Y-53525000D02*
X61000000Y-53525000D01*
X46850000Y-53675000D02*
X46850000Y-67675000D01*
X46850000Y-67675000D02*
G75*
G03*
X47000000Y-67825000I150000J0D01*
G01*
X47000000Y-53525000D02*
G75*
G03*
X46850000Y-53675000I0J-150000D01*
G01*
X61150000Y-53675000D02*
G75*
G03*
X61000000Y-53525000I-150000J0D01*
G01*
X61000000Y-67825000D02*
G75*
G03*
X61150000Y-67675000I0J150000D01*
G01*
X228088748Y-46615000D02*
X228611252Y-46615000D01*
X228088748Y-48085000D02*
X228611252Y-48085000D01*
X37590000Y-46640000D02*
X37590000Y-51160000D01*
X45825000Y-46640000D02*
X37590000Y-46640000D01*
X37590000Y-51160000D02*
X45825000Y-51160000D01*
X69270000Y-60130301D02*
X69270000Y-63990301D01*
X69270000Y-56270301D02*
X69535000Y-56270301D01*
X84890000Y-63990301D02*
X84625000Y-63990301D01*
X69270000Y-63990301D02*
X69535000Y-63990301D01*
X84890000Y-56270301D02*
X84625000Y-56270301D01*
X69270000Y-60130301D02*
X69270000Y-56270301D01*
X84890000Y-60130301D02*
X84890000Y-56270301D01*
X84890000Y-60130301D02*
X84890000Y-63990301D01*
X69535000Y-63990301D02*
X69535000Y-65805301D01*
D13*
X53524200Y-73280000D02*
X51384200Y-73280000D01*
X60274200Y-73280000D02*
X60274200Y-82170000D01*
X51384200Y-82170000D02*
X51384200Y-73280000D01*
X60274200Y-82170000D02*
X51384200Y-82170000D01*
X58134200Y-73280000D02*
X60274200Y-73280000D01*
X61024200Y-72390000D02*
G75*
G03*
X61024200Y-72390000I-100000J0D01*
G01*
X34045000Y-82170000D02*
X34045000Y-73280000D01*
X48415000Y-73280000D02*
X50555000Y-73280000D01*
X50555000Y-82170000D02*
X34045000Y-82170000D01*
X36185000Y-73280000D02*
X34045000Y-73280000D01*
X50555000Y-73280000D02*
X50555000Y-82170000D01*
X51305000Y-72390000D02*
G75*
G03*
X51305000Y-72390000I-100000J0D01*
G01*
D12*
X92990000Y-60084301D02*
X92990000Y-56224301D01*
X92990000Y-56224301D02*
X93255000Y-56224301D01*
X92990000Y-60084301D02*
X92990000Y-63944301D01*
X93255000Y-63944301D02*
X93255000Y-65759301D01*
X108610000Y-60084301D02*
X108610000Y-56224301D01*
X108610000Y-63944301D02*
X108345000Y-63944301D01*
X92990000Y-63944301D02*
X93255000Y-63944301D01*
X108610000Y-60084301D02*
X108610000Y-63944301D01*
X108610000Y-56224301D02*
X108345000Y-56224301D01*
D13*
X201904600Y-82170000D02*
X201904600Y-73280000D01*
X134594600Y-82170000D02*
X201904600Y-82170000D01*
X199764600Y-73280000D02*
X201904600Y-73280000D01*
X136734600Y-73280000D02*
X134594600Y-73280000D01*
X134594600Y-73280000D02*
X134594600Y-82170000D01*
X134044600Y-69850000D02*
G75*
G03*
X134044600Y-69850000I-100000J0D01*
G01*
D12*
X91065000Y-60152349D02*
X91065000Y-60674853D01*
X92535000Y-60152349D02*
X92535000Y-60674853D01*
D13*
X220548200Y-82170000D02*
X220548200Y-73280000D01*
X229438200Y-82170000D02*
X220548200Y-82170000D01*
X227298200Y-73280000D02*
X229438200Y-73280000D01*
X222688200Y-73280000D02*
X220548200Y-73280000D01*
X229438200Y-73280000D02*
X229438200Y-82170000D01*
X230188200Y-72390000D02*
G75*
G03*
X230188200Y-72390000I-100000J0D01*
G01*
X238212500Y-36992500D02*
X238212500Y-34852500D01*
X247102500Y-34852500D02*
X238212500Y-34852500D01*
X238212500Y-64062500D02*
X247102500Y-64062500D01*
X238212500Y-61922500D02*
X238212500Y-64062500D01*
X247102500Y-64062500D02*
X247102500Y-34852500D01*
X234882500Y-31662500D02*
G75*
G03*
X234882500Y-31662500I-100000J0D01*
G01*
D12*
X229100000Y-45935000D02*
X232700000Y-45935000D01*
X229100000Y-45935000D02*
X226900000Y-45935000D01*
X229100000Y-40465000D02*
X231300000Y-40465000D01*
X229100000Y-40465000D02*
X226900000Y-40465000D01*
X228088748Y-49140000D02*
X228611252Y-49140000D01*
X228088748Y-50610000D02*
X228611252Y-50610000D01*
D13*
X237255000Y-73280000D02*
X239395000Y-73280000D01*
X232645000Y-73280000D02*
X230505000Y-73280000D01*
X230505000Y-82170000D02*
X230505000Y-73280000D01*
X239395000Y-82170000D02*
X230505000Y-82170000D01*
X239395000Y-73280000D02*
X239395000Y-82170000D01*
X240145000Y-72390000D02*
G75*
G03*
X240145000Y-72390000I-100000J0D01*
G01*
X113552500Y-73312500D02*
X115692500Y-73312500D01*
X61082500Y-73312500D02*
X61082500Y-82202500D01*
X61082500Y-82202500D02*
X115692500Y-82202500D01*
X63222500Y-73312500D02*
X61082500Y-73312500D01*
X115692500Y-82202500D02*
X115692500Y-73312500D01*
X60532500Y-69882500D02*
G75*
G03*
X60532500Y-69882500I-100000J0D01*
G01*
D12*
X226938748Y-39935000D02*
X227461252Y-39935000D01*
X226938748Y-38465000D02*
X227461252Y-38465000D01*
X234435000Y-67227064D02*
X234435000Y-66772936D01*
X232965000Y-67227064D02*
X232965000Y-66772936D01*
X67065000Y-60013748D02*
X67065000Y-60536252D01*
X68535000Y-60013748D02*
X68535000Y-60536252D01*
X228088748Y-57315000D02*
X228611252Y-57315000D01*
X228088748Y-58785000D02*
X228611252Y-58785000D01*
D10*
X229505000Y-65150000D02*
X229505000Y-65450000D01*
X229505000Y-68500000D02*
X229505000Y-68275000D01*
X226155000Y-65150000D02*
X226155000Y-65450000D01*
X229505000Y-68275000D02*
X230730000Y-68275000D01*
X229505000Y-68500000D02*
X226155000Y-68500000D01*
X229505000Y-65150000D02*
X226155000Y-65150000D01*
X226155000Y-68500000D02*
X226155000Y-68200000D01*
D12*
X26075000Y-67625000D02*
X26075000Y-53625000D01*
X26225000Y-67775000D02*
X40225000Y-67775000D01*
X26225000Y-53475000D02*
X40225000Y-53475000D01*
X40375000Y-53625000D02*
X40375000Y-67625000D01*
X40375000Y-53625000D02*
G75*
G03*
X40225000Y-53475000I-150000J0D01*
G01*
X26075000Y-67625000D02*
G75*
G03*
X26225000Y-67775000I150000J0D01*
G01*
X26225000Y-53475000D02*
G75*
G03*
X26075000Y-53625000I0J-150000D01*
G01*
X40225000Y-67775000D02*
G75*
G03*
X40375000Y-67625000I0J150000D01*
G01*
D13*
X133527800Y-73280000D02*
X133527800Y-82170000D01*
X133527800Y-82170000D02*
X117017800Y-82170000D01*
X117017800Y-82170000D02*
X117017800Y-73280000D01*
X119157800Y-73280000D02*
X117017800Y-73280000D01*
X131387800Y-73280000D02*
X133527800Y-73280000D01*
X134277800Y-72390000D02*
G75*
G03*
X134277800Y-72390000I-100000J0D01*
G01*
D12*
X228838748Y-70585000D02*
X229361252Y-70585000D01*
X228838748Y-69115000D02*
X229361252Y-69115000D01*
X228500000Y-56635000D02*
X232100000Y-56635000D01*
X228500000Y-51165000D02*
X226300000Y-51165000D01*
X228500000Y-51165000D02*
X230700000Y-51165000D01*
X228500000Y-56635000D02*
X226300000Y-56635000D01*
M02*
