M48
INCH,TZ
T1C0.0118
T2C0.0354
T3C0.0402
%
G90
G05
T1
X11000Y-22000
X11500Y-22500
X12000Y-22000
X12500Y-22500
X13000Y-22000
X13500Y-22500
X14000Y-22000
X14500Y-22500
X15000Y-22000
X22165Y-19449
X23396Y-20325
X23684Y-20554
X23694Y-15700
X23858Y-17126
X23898Y-14724
X24094Y-20761
X24311Y-14183
X24331Y-21102
X25020Y-19449
X25276Y-20000
X25748Y-18583
X26750Y-14169
X26750Y-18900
X27008Y-19449
X27240Y-19120
X27596Y-21843
X27720Y-19500
X28002Y-20020
X28268Y-19719
X28301Y-15766
X28563Y-18583
X28760Y-17835
X28872Y-14954
X29016Y-17087
X29092Y-18900
X29488Y-14705
X29606Y-24915
X30079Y-24679
X30315Y-16535
X30512Y-17126
X30551Y-24459
X30768Y-15374
X31122Y-24075
X31250Y-14169
X32111Y-23650
X32372Y-23425
X32559Y-14213
X32598Y-17835
X32619Y-23164
X32638Y-16575
X32677Y-15394
X33091Y-25309
X33386Y-23211
X33600Y-15400
X33600Y-16600
X33750Y-23431
X33770Y-17874
X33967Y-23652
X34183Y-24065
X34252Y-21299
X34419Y-24409
X34656Y-24675
X34892Y-24941
X36142Y-23376
X36358Y-25309
X36614Y-15374
X36935Y-21825
X37221Y-19147
X37417Y-20000
X37923Y-24872
X37943Y-18583
X38408Y-18900
X38947Y-24016
X39469Y-23750
X39951Y-23524
X40453Y-23323
X40963Y-23126
X41407Y-22874
X41614Y-16732
X41939Y-22569
X42461Y-25309
X42904Y-22559
X43189Y-22884
X43474Y-23126
X43543Y-15374
X43553Y-21575
X43780Y-23323
X43848Y-16722
X43878Y-21801
X44104Y-23543
X44222Y-17874
X44291Y-22021
X44478Y-23780
X44774Y-24016
X45463Y-14961
X45492Y-13612
X45492Y-16329
X45502Y-17677
X45531Y-25309
X46024Y-19719
X47067Y-19488
X48084Y-19147
X49057Y-18900
X54252Y-20276
X54281Y-18071
X54646Y-20472
X55394Y-20669
X56260Y-20984
X56890Y-20276
X57008Y-21299
X57514Y-16300
X57540Y-15440
X57795Y-21575
X57845Y-17200
X58110Y-20551
X58346Y-20787
X58699Y-14392
X59600Y-14169
X59618Y-18895
X59813Y-20020
X60095Y-19125
X60246Y-21713
X60579Y-19479
X60856Y-18583
X61086Y-19726
X61240Y-21929
X61594Y-17667
X61604Y-14173
X62100Y-17160
X62323Y-20315
X62600Y-16800
X63120Y-16380
X63228Y-20528
X64236Y-20733
X64882Y-20512
X66181Y-15039
X66238Y-17200
X66360Y-16280
X66400Y-14200
X68346Y-20512
X68947Y-17362
X69160Y-16200
X69488Y-15039
X69514Y-18116
X69868Y-14308
X70925Y-17913
X70955Y-17047
X72297Y-20426
X72933Y-20059
X73228Y-17598
X73504Y-14110
X73858Y-18563
X74110Y-16608
X74596Y-18868
X74600Y-14110
X75105Y-19125
X75636Y-19506
X76087Y-19689
X76100Y-14110
X76299Y-16378
X77100Y-17300
X77343Y-16102
X77600Y-17831
X78071Y-16102
X78110Y-20453
X78504Y-16339
X78600Y-17831
X79055Y-16535
X86919Y-20020
X87215Y-26953
X87283Y-18563
X87623Y-19115
X87874Y-18858
X87963Y-19882
X88094Y-18554
X88140Y-26751
X88535Y-18592
X88740Y-18858
X89163Y-17136
X89493Y-18642
X89493Y-22854
X89788Y-27500
T2
X10600Y-10600
X11600Y-10600
X15600Y-10600
X16600Y-10600
X20600Y-10600
X21600Y-10600
X25600Y-10600
X26600Y-10600
X30600Y-10600
X31600Y-10600
X35600Y-10600
X36600Y-10600
X40600Y-10600
X41600Y-10600
X45600Y-10600
X46600Y-10600
X50600Y-10600
X51600Y-10600
X55600Y-10600
X56600Y-10600
X60600Y-10600
X61600Y-10600
X65600Y-10600
X66600Y-10600
X70600Y-10600
X71600Y-10600
X75600Y-10600
X76600Y-10600
X80600Y-10600
X81600Y-10600
X85600Y-10600
X86600Y-10600
X90600Y-10600
X91600Y-10600
X95600Y-10600
X96600Y-10600
T3
X14654Y-28500
X15654Y-28500
X16654Y-28500
X17654Y-28500
X18654Y-28500
X21480Y-28500
X22480Y-28500
X25298Y-27513
X25298Y-28513
X26298Y-27513
X26298Y-28513
X27298Y-27513
X27298Y-28513
X28298Y-27513
X28298Y-28513
X29298Y-27513
X29298Y-28513
X30298Y-27513
X30298Y-28513
X31298Y-27513
X31298Y-28513
X32298Y-27513
X32298Y-28513
X33298Y-27513
X33298Y-28513
X34298Y-27513
X34298Y-28513
X35298Y-27513
X35298Y-28513
X36298Y-27513
X36298Y-28513
X37298Y-27513
X37298Y-28513
X38298Y-27513
X38298Y-28513
X39298Y-27513
X39298Y-28513
X40298Y-27513
X40298Y-28513
X41298Y-27513
X41298Y-28513
X42298Y-27513
X42298Y-28513
X43298Y-27513
X43298Y-28513
X44298Y-27513
X44298Y-28513
X47320Y-28500
X48320Y-28500
X49320Y-28500
X50320Y-28500
X51320Y-28500
X54240Y-27500
X54240Y-28500
X55240Y-27500
X55240Y-28500
X56240Y-27500
X56240Y-28500
X57240Y-27500
X57240Y-28500
X58240Y-27500
X58240Y-28500
X59240Y-27500
X59240Y-28500
X60240Y-27500
X60240Y-28500
X61240Y-27500
X61240Y-28500
X62240Y-27500
X62240Y-28500
X63240Y-27500
X63240Y-28500
X64240Y-27500
X64240Y-28500
X65240Y-27500
X65240Y-28500
X66240Y-27500
X66240Y-28500
X67240Y-27500
X67240Y-28500
X68240Y-27500
X68240Y-28500
X69240Y-27500
X69240Y-28500
X70240Y-27500
X70240Y-28500
X71240Y-27500
X71240Y-28500
X72240Y-27500
X72240Y-28500
X73240Y-27500
X73240Y-28500
X74240Y-27500
X74240Y-28500
X75240Y-27500
X75240Y-28500
X76240Y-27500
X76240Y-28500
X77240Y-27500
X77240Y-28500
X78240Y-27500
X78240Y-28500
X81160Y-28500
X82160Y-28500
X83160Y-28500
X84160Y-28500
X85160Y-28500
X88080Y-28500
X89080Y-28500
X92000Y-28500
X92434Y-14971
X92434Y-15971
X92434Y-16971
X92434Y-17971
X92434Y-18971
X92434Y-19971
X92434Y-20971
X92434Y-21971
X92434Y-22971
X92434Y-23971
X93000Y-28500
X93434Y-14971
X93434Y-15971
X93434Y-16971
X93434Y-17971
X93434Y-18971
X93434Y-19971
X93434Y-20971
X93434Y-21971
X93434Y-22971
X93434Y-23971
T0
M30
