G04 #@! TF.GenerationSoftware,KiCad,Pcbnew,(6.0.4-0)*
G04 #@! TF.CreationDate,2022-04-05T21:31:34-07:00*
G04 #@! TF.ProjectId,led-driver,6c65642d-6472-4697-9665-722e6b696361,rev?*
G04 #@! TF.SameCoordinates,Original*
G04 #@! TF.FileFunction,Soldermask,Bot*
G04 #@! TF.FilePolarity,Negative*
%FSLAX46Y46*%
G04 Gerber Fmt 4.6, Leading zero omitted, Abs format (unit mm)*
G04 Created by KiCad (PCBNEW (6.0.4-0)) date 2022-04-05 21:31:34*
%MOMM*%
%LPD*%
G01*
G04 APERTURE LIST*
%ADD10R,1.800000X1.800000*%
%ADD11C,1.800000*%
%ADD12R,1.370000X1.370000*%
%ADD13C,1.370000*%
%ADD14C,3.700000*%
G04 APERTURE END LIST*
D10*
X42164000Y-26924000D03*
D11*
X39624000Y-26924000D03*
D10*
X54864000Y-26924000D03*
D11*
X52324000Y-26924000D03*
D10*
X67564000Y-26924000D03*
D11*
X65024000Y-26924000D03*
D10*
X80264000Y-26924000D03*
D11*
X77724000Y-26924000D03*
D10*
X92964000Y-26924000D03*
D11*
X90424000Y-26924000D03*
D10*
X105664000Y-26924000D03*
D11*
X103124000Y-26924000D03*
D10*
X118364000Y-26924000D03*
D11*
X115824000Y-26924000D03*
D10*
X169164000Y-26924000D03*
D11*
X166624000Y-26924000D03*
D10*
X181864000Y-26924000D03*
D11*
X179324000Y-26924000D03*
D10*
X194564000Y-26924000D03*
D11*
X192024000Y-26924000D03*
D10*
X219964000Y-26924000D03*
D11*
X217424000Y-26924000D03*
D10*
X232664000Y-26924000D03*
D11*
X230124000Y-26924000D03*
D12*
X216306400Y-72390000D03*
D13*
X213766400Y-72390000D03*
X211226400Y-72390000D03*
X208686400Y-72390000D03*
X206146400Y-72390000D03*
D10*
X207264000Y-26924000D03*
D11*
X204724000Y-26924000D03*
D10*
X143764000Y-26924000D03*
D11*
X141224000Y-26924000D03*
D14*
X243700000Y-78600000D03*
X29400000Y-78600000D03*
D10*
X156464000Y-26924000D03*
D11*
X153924000Y-26924000D03*
D12*
X57099200Y-72390000D03*
D13*
X54559200Y-72390000D03*
D12*
X47380000Y-72390000D03*
D13*
X44840000Y-72390000D03*
X42300000Y-72390000D03*
X39760000Y-72390000D03*
X37220000Y-72390000D03*
X137769600Y-72390000D03*
D12*
X137769600Y-69850000D03*
D13*
X140309600Y-72390000D03*
X140309600Y-69850000D03*
X142849600Y-72390000D03*
X142849600Y-69850000D03*
X145389600Y-72390000D03*
X145389600Y-69850000D03*
X147929600Y-72390000D03*
X147929600Y-69850000D03*
X150469600Y-72390000D03*
X150469600Y-69850000D03*
X153009600Y-72390000D03*
X153009600Y-69850000D03*
X155549600Y-72390000D03*
X155549600Y-69850000D03*
X158089600Y-72390000D03*
X158089600Y-69850000D03*
X160629600Y-72390000D03*
X160629600Y-69850000D03*
X163169600Y-72390000D03*
X163169600Y-69850000D03*
X165709600Y-72390000D03*
X165709600Y-69850000D03*
X168249600Y-72390000D03*
X168249600Y-69850000D03*
X170789600Y-72390000D03*
X170789600Y-69850000D03*
X173329600Y-72390000D03*
X173329600Y-69850000D03*
X175869600Y-72390000D03*
X175869600Y-69850000D03*
X178409600Y-72390000D03*
X178409600Y-69850000D03*
X180949600Y-72390000D03*
X180949600Y-69850000D03*
X183489600Y-72390000D03*
X183489600Y-69850000D03*
X186029600Y-72390000D03*
X186029600Y-69850000D03*
X188569600Y-72390000D03*
X188569600Y-69850000D03*
X191109600Y-72390000D03*
X191109600Y-69850000D03*
X193649600Y-72390000D03*
X193649600Y-69850000D03*
X196189600Y-72390000D03*
X196189600Y-69850000D03*
X198729600Y-72390000D03*
X198729600Y-69850000D03*
D12*
X226263200Y-72390000D03*
D13*
X223723200Y-72390000D03*
D10*
X131064000Y-26924000D03*
D11*
X128524000Y-26924000D03*
D12*
X234782500Y-60887500D03*
D13*
X237322500Y-60887500D03*
X234782500Y-58347500D03*
X237322500Y-58347500D03*
X234782500Y-55807500D03*
X237322500Y-55807500D03*
X234782500Y-53267500D03*
X237322500Y-53267500D03*
X234782500Y-50727500D03*
X237322500Y-50727500D03*
X234782500Y-48187500D03*
X237322500Y-48187500D03*
X234782500Y-45647500D03*
X237322500Y-45647500D03*
X234782500Y-43107500D03*
X237322500Y-43107500D03*
X234782500Y-40567500D03*
X237322500Y-40567500D03*
X234782500Y-38027500D03*
X237322500Y-38027500D03*
D12*
X236220000Y-72390000D03*
D13*
X233680000Y-72390000D03*
D10*
X245364000Y-26924000D03*
D11*
X242824000Y-26924000D03*
D12*
X64257500Y-69882500D03*
D13*
X64257500Y-72422500D03*
X66797500Y-69882500D03*
X66797500Y-72422500D03*
X69337500Y-69882500D03*
X69337500Y-72422500D03*
X71877500Y-69882500D03*
X71877500Y-72422500D03*
X74417500Y-69882500D03*
X74417500Y-72422500D03*
X76957500Y-69882500D03*
X76957500Y-72422500D03*
X79497500Y-69882500D03*
X79497500Y-72422500D03*
X82037500Y-69882500D03*
X82037500Y-72422500D03*
X84577500Y-69882500D03*
X84577500Y-72422500D03*
X87117500Y-69882500D03*
X87117500Y-72422500D03*
X89657500Y-69882500D03*
X89657500Y-72422500D03*
X92197500Y-69882500D03*
X92197500Y-72422500D03*
X94737500Y-69882500D03*
X94737500Y-72422500D03*
X97277500Y-69882500D03*
X97277500Y-72422500D03*
X99817500Y-69882500D03*
X99817500Y-72422500D03*
X102357500Y-69882500D03*
X102357500Y-72422500D03*
X104897500Y-69882500D03*
X104897500Y-72422500D03*
X107437500Y-69882500D03*
X107437500Y-72422500D03*
X109977500Y-69882500D03*
X109977500Y-72422500D03*
X112517500Y-69882500D03*
X112517500Y-72422500D03*
D10*
X29464000Y-26924000D03*
D11*
X26924000Y-26924000D03*
D12*
X130352800Y-72390000D03*
D13*
X127812800Y-72390000D03*
X125272800Y-72390000D03*
X122732800Y-72390000D03*
X120192800Y-72390000D03*
M02*
