G04 #@! TF.GenerationSoftware,KiCad,Pcbnew,(6.0.1-0)*
G04 #@! TF.CreationDate,2022-02-06T20:22:51-08:00*
G04 #@! TF.ProjectId,led-driver,6c65642d-6472-4697-9665-722e6b696361,rev?*
G04 #@! TF.SameCoordinates,Original*
G04 #@! TF.FileFunction,Legend,Top*
G04 #@! TF.FilePolarity,Positive*
%FSLAX46Y46*%
G04 Gerber Fmt 4.6, Leading zero omitted, Abs format (unit mm)*
G04 Created by KiCad (PCBNEW (6.0.1-0)) date 2022-02-06 20:22:51*
%MOMM*%
%LPD*%
G01*
G04 APERTURE LIST*
%ADD10C,0.150000*%
%ADD11C,0.120000*%
G04 APERTURE END LIST*
D10*
X114759314Y-34701171D02*
X114902171Y-34748790D01*
X114949790Y-34796409D01*
X114997409Y-34891647D01*
X114997409Y-35034504D01*
X114949790Y-35129742D01*
X114902171Y-35177361D01*
X114806933Y-35224980D01*
X114425980Y-35224980D01*
X114425980Y-34224980D01*
X114759314Y-34224980D01*
X114854552Y-34272600D01*
X114902171Y-34320219D01*
X114949790Y-34415457D01*
X114949790Y-34510695D01*
X114902171Y-34605933D01*
X114854552Y-34653552D01*
X114759314Y-34701171D01*
X114425980Y-34701171D01*
X115568838Y-35224980D02*
X115473600Y-35177361D01*
X115425980Y-35129742D01*
X115378361Y-35034504D01*
X115378361Y-34748790D01*
X115425980Y-34653552D01*
X115473600Y-34605933D01*
X115568838Y-34558314D01*
X115711695Y-34558314D01*
X115806933Y-34605933D01*
X115854552Y-34653552D01*
X115902171Y-34748790D01*
X115902171Y-35034504D01*
X115854552Y-35129742D01*
X115806933Y-35177361D01*
X115711695Y-35224980D01*
X115568838Y-35224980D01*
X116759314Y-35224980D02*
X116759314Y-34701171D01*
X116711695Y-34605933D01*
X116616457Y-34558314D01*
X116425980Y-34558314D01*
X116330742Y-34605933D01*
X116759314Y-35177361D02*
X116664076Y-35224980D01*
X116425980Y-35224980D01*
X116330742Y-35177361D01*
X116283123Y-35082123D01*
X116283123Y-34986885D01*
X116330742Y-34891647D01*
X116425980Y-34844028D01*
X116664076Y-34844028D01*
X116759314Y-34796409D01*
X117235504Y-35224980D02*
X117235504Y-34558314D01*
X117235504Y-34748790D02*
X117283123Y-34653552D01*
X117330742Y-34605933D01*
X117425980Y-34558314D01*
X117521219Y-34558314D01*
X118283123Y-35224980D02*
X118283123Y-34224980D01*
X118283123Y-35177361D02*
X118187885Y-35224980D01*
X117997409Y-35224980D01*
X117902171Y-35177361D01*
X117854552Y-35129742D01*
X117806933Y-35034504D01*
X117806933Y-34748790D01*
X117854552Y-34653552D01*
X117902171Y-34605933D01*
X117997409Y-34558314D01*
X118187885Y-34558314D01*
X118283123Y-34605933D01*
X119473600Y-35177361D02*
X119568838Y-35224980D01*
X119759314Y-35224980D01*
X119854552Y-35177361D01*
X119902171Y-35082123D01*
X119902171Y-35034504D01*
X119854552Y-34939266D01*
X119759314Y-34891647D01*
X119616457Y-34891647D01*
X119521219Y-34844028D01*
X119473600Y-34748790D01*
X119473600Y-34701171D01*
X119521219Y-34605933D01*
X119616457Y-34558314D01*
X119759314Y-34558314D01*
X119854552Y-34605933D01*
X120711695Y-35177361D02*
X120616457Y-35224980D01*
X120425980Y-35224980D01*
X120330742Y-35177361D01*
X120283123Y-35082123D01*
X120283123Y-34701171D01*
X120330742Y-34605933D01*
X120425980Y-34558314D01*
X120616457Y-34558314D01*
X120711695Y-34605933D01*
X120759314Y-34701171D01*
X120759314Y-34796409D01*
X120283123Y-34891647D01*
X121330742Y-35224980D02*
X121235504Y-35177361D01*
X121187885Y-35082123D01*
X121187885Y-34224980D01*
X122092647Y-35177361D02*
X121997409Y-35224980D01*
X121806933Y-35224980D01*
X121711695Y-35177361D01*
X121664076Y-35082123D01*
X121664076Y-34701171D01*
X121711695Y-34605933D01*
X121806933Y-34558314D01*
X121997409Y-34558314D01*
X122092647Y-34605933D01*
X122140266Y-34701171D01*
X122140266Y-34796409D01*
X121664076Y-34891647D01*
X122997409Y-35177361D02*
X122902171Y-35224980D01*
X122711695Y-35224980D01*
X122616457Y-35177361D01*
X122568838Y-35129742D01*
X122521219Y-35034504D01*
X122521219Y-34748790D01*
X122568838Y-34653552D01*
X122616457Y-34605933D01*
X122711695Y-34558314D01*
X122902171Y-34558314D01*
X122997409Y-34605933D01*
X123283123Y-34558314D02*
X123664076Y-34558314D01*
X123425980Y-34224980D02*
X123425980Y-35082123D01*
X123473600Y-35177361D01*
X123568838Y-35224980D01*
X123664076Y-35224980D01*
X137874523Y-70572380D02*
X138207857Y-71572380D01*
X138541190Y-70572380D01*
X139303095Y-71524761D02*
X139207857Y-71572380D01*
X139017380Y-71572380D01*
X138922142Y-71524761D01*
X138874523Y-71477142D01*
X138826904Y-71381904D01*
X138826904Y-71096190D01*
X138874523Y-71000952D01*
X138922142Y-70953333D01*
X139017380Y-70905714D01*
X139207857Y-70905714D01*
X139303095Y-70953333D01*
X140160238Y-71524761D02*
X140065000Y-71572380D01*
X139874523Y-71572380D01*
X139779285Y-71524761D01*
X139731666Y-71477142D01*
X139684047Y-71381904D01*
X139684047Y-71096190D01*
X139731666Y-71000952D01*
X139779285Y-70953333D01*
X139874523Y-70905714D01*
X140065000Y-70905714D01*
X140160238Y-70953333D01*
X165814523Y-70572380D02*
X166147857Y-71572380D01*
X166481190Y-70572380D01*
X167243095Y-71524761D02*
X167147857Y-71572380D01*
X166957380Y-71572380D01*
X166862142Y-71524761D01*
X166814523Y-71477142D01*
X166766904Y-71381904D01*
X166766904Y-71096190D01*
X166814523Y-71000952D01*
X166862142Y-70953333D01*
X166957380Y-70905714D01*
X167147857Y-70905714D01*
X167243095Y-70953333D01*
X168100238Y-71524761D02*
X168005000Y-71572380D01*
X167814523Y-71572380D01*
X167719285Y-71524761D01*
X167671666Y-71477142D01*
X167624047Y-71381904D01*
X167624047Y-71096190D01*
X167671666Y-71000952D01*
X167719285Y-70953333D01*
X167814523Y-70905714D01*
X168005000Y-70905714D01*
X168100238Y-70953333D01*
X143716761Y-43124380D02*
X143716761Y-42124380D01*
X144097714Y-42124380D01*
X144192952Y-42172000D01*
X144240571Y-42219619D01*
X144288190Y-42314857D01*
X144288190Y-42457714D01*
X144240571Y-42552952D01*
X144192952Y-42600571D01*
X144097714Y-42648190D01*
X143716761Y-42648190D01*
X145288190Y-43029142D02*
X145240571Y-43076761D01*
X145097714Y-43124380D01*
X145002476Y-43124380D01*
X144859619Y-43076761D01*
X144764380Y-42981523D01*
X144716761Y-42886285D01*
X144669142Y-42695809D01*
X144669142Y-42552952D01*
X144716761Y-42362476D01*
X144764380Y-42267238D01*
X144859619Y-42172000D01*
X145002476Y-42124380D01*
X145097714Y-42124380D01*
X145240571Y-42172000D01*
X145288190Y-42219619D01*
X145669142Y-42838666D02*
X146145333Y-42838666D01*
X145573904Y-43124380D02*
X145907238Y-42124380D01*
X146240571Y-43124380D01*
X146621523Y-43124380D02*
X146812000Y-43124380D01*
X146907238Y-43076761D01*
X146954857Y-43029142D01*
X147050095Y-42886285D01*
X147097714Y-42695809D01*
X147097714Y-42314857D01*
X147050095Y-42219619D01*
X147002476Y-42172000D01*
X146907238Y-42124380D01*
X146716761Y-42124380D01*
X146621523Y-42172000D01*
X146573904Y-42219619D01*
X146526285Y-42314857D01*
X146526285Y-42552952D01*
X146573904Y-42648190D01*
X146621523Y-42695809D01*
X146716761Y-42743428D01*
X146907238Y-42743428D01*
X147002476Y-42695809D01*
X147050095Y-42648190D01*
X147097714Y-42552952D01*
X147954857Y-42124380D02*
X147764380Y-42124380D01*
X147669142Y-42172000D01*
X147621523Y-42219619D01*
X147526285Y-42362476D01*
X147478666Y-42552952D01*
X147478666Y-42933904D01*
X147526285Y-43029142D01*
X147573904Y-43076761D01*
X147669142Y-43124380D01*
X147859619Y-43124380D01*
X147954857Y-43076761D01*
X148002476Y-43029142D01*
X148050095Y-42933904D01*
X148050095Y-42695809D01*
X148002476Y-42600571D01*
X147954857Y-42552952D01*
X147859619Y-42505333D01*
X147669142Y-42505333D01*
X147573904Y-42552952D01*
X147526285Y-42600571D01*
X147478666Y-42695809D01*
X148383428Y-42124380D02*
X149002476Y-42124380D01*
X148669142Y-42505333D01*
X148812000Y-42505333D01*
X148907238Y-42552952D01*
X148954857Y-42600571D01*
X149002476Y-42695809D01*
X149002476Y-42933904D01*
X148954857Y-43029142D01*
X148907238Y-43076761D01*
X148812000Y-43124380D01*
X148526285Y-43124380D01*
X148431047Y-43076761D01*
X148383428Y-43029142D01*
X149859619Y-42457714D02*
X149859619Y-43124380D01*
X149621523Y-42076761D02*
X149383428Y-42791047D01*
X150002476Y-42791047D01*
X181943761Y-43251380D02*
X181943761Y-42251380D01*
X182324714Y-42251380D01*
X182419952Y-42299000D01*
X182467571Y-42346619D01*
X182515190Y-42441857D01*
X182515190Y-42584714D01*
X182467571Y-42679952D01*
X182419952Y-42727571D01*
X182324714Y-42775190D01*
X181943761Y-42775190D01*
X183515190Y-43156142D02*
X183467571Y-43203761D01*
X183324714Y-43251380D01*
X183229476Y-43251380D01*
X183086619Y-43203761D01*
X182991380Y-43108523D01*
X182943761Y-43013285D01*
X182896142Y-42822809D01*
X182896142Y-42679952D01*
X182943761Y-42489476D01*
X182991380Y-42394238D01*
X183086619Y-42299000D01*
X183229476Y-42251380D01*
X183324714Y-42251380D01*
X183467571Y-42299000D01*
X183515190Y-42346619D01*
X183896142Y-42965666D02*
X184372333Y-42965666D01*
X183800904Y-43251380D02*
X184134238Y-42251380D01*
X184467571Y-43251380D01*
X184848523Y-43251380D02*
X185039000Y-43251380D01*
X185134238Y-43203761D01*
X185181857Y-43156142D01*
X185277095Y-43013285D01*
X185324714Y-42822809D01*
X185324714Y-42441857D01*
X185277095Y-42346619D01*
X185229476Y-42299000D01*
X185134238Y-42251380D01*
X184943761Y-42251380D01*
X184848523Y-42299000D01*
X184800904Y-42346619D01*
X184753285Y-42441857D01*
X184753285Y-42679952D01*
X184800904Y-42775190D01*
X184848523Y-42822809D01*
X184943761Y-42870428D01*
X185134238Y-42870428D01*
X185229476Y-42822809D01*
X185277095Y-42775190D01*
X185324714Y-42679952D01*
X186181857Y-42251380D02*
X185991380Y-42251380D01*
X185896142Y-42299000D01*
X185848523Y-42346619D01*
X185753285Y-42489476D01*
X185705666Y-42679952D01*
X185705666Y-43060904D01*
X185753285Y-43156142D01*
X185800904Y-43203761D01*
X185896142Y-43251380D01*
X186086619Y-43251380D01*
X186181857Y-43203761D01*
X186229476Y-43156142D01*
X186277095Y-43060904D01*
X186277095Y-42822809D01*
X186229476Y-42727571D01*
X186181857Y-42679952D01*
X186086619Y-42632333D01*
X185896142Y-42632333D01*
X185800904Y-42679952D01*
X185753285Y-42727571D01*
X185705666Y-42822809D01*
X186610428Y-42251380D02*
X187229476Y-42251380D01*
X186896142Y-42632333D01*
X187039000Y-42632333D01*
X187134238Y-42679952D01*
X187181857Y-42727571D01*
X187229476Y-42822809D01*
X187229476Y-43060904D01*
X187181857Y-43156142D01*
X187134238Y-43203761D01*
X187039000Y-43251380D01*
X186753285Y-43251380D01*
X186658047Y-43203761D01*
X186610428Y-43156142D01*
X188086619Y-42584714D02*
X188086619Y-43251380D01*
X187848523Y-42203761D02*
X187610428Y-42918047D01*
X188229476Y-42918047D01*
X30559523Y-68984761D02*
X30702380Y-69032380D01*
X30940476Y-69032380D01*
X31035714Y-68984761D01*
X31083333Y-68937142D01*
X31130952Y-68841904D01*
X31130952Y-68746666D01*
X31083333Y-68651428D01*
X31035714Y-68603809D01*
X30940476Y-68556190D01*
X30750000Y-68508571D01*
X30654761Y-68460952D01*
X30607142Y-68413333D01*
X30559523Y-68318095D01*
X30559523Y-68222857D01*
X30607142Y-68127619D01*
X30654761Y-68080000D01*
X30750000Y-68032380D01*
X30988095Y-68032380D01*
X31130952Y-68080000D01*
X32130952Y-68937142D02*
X32083333Y-68984761D01*
X31940476Y-69032380D01*
X31845238Y-69032380D01*
X31702380Y-68984761D01*
X31607142Y-68889523D01*
X31559523Y-68794285D01*
X31511904Y-68603809D01*
X31511904Y-68460952D01*
X31559523Y-68270476D01*
X31607142Y-68175238D01*
X31702380Y-68080000D01*
X31845238Y-68032380D01*
X31940476Y-68032380D01*
X32083333Y-68080000D01*
X32130952Y-68127619D01*
X33035714Y-69032380D02*
X32559523Y-69032380D01*
X32559523Y-68032380D01*
X135247142Y-70620000D02*
X135151904Y-70572380D01*
X135009047Y-70572380D01*
X134866190Y-70620000D01*
X134770952Y-70715238D01*
X134723333Y-70810476D01*
X134675714Y-71000952D01*
X134675714Y-71143809D01*
X134723333Y-71334285D01*
X134770952Y-71429523D01*
X134866190Y-71524761D01*
X135009047Y-71572380D01*
X135104285Y-71572380D01*
X135247142Y-71524761D01*
X135294761Y-71477142D01*
X135294761Y-71143809D01*
X135104285Y-71143809D01*
X135723333Y-70905714D02*
X135723333Y-71572380D01*
X135723333Y-71000952D02*
X135770952Y-70953333D01*
X135866190Y-70905714D01*
X136009047Y-70905714D01*
X136104285Y-70953333D01*
X136151904Y-71048571D01*
X136151904Y-71572380D01*
X137056666Y-71572380D02*
X137056666Y-70572380D01*
X137056666Y-71524761D02*
X136961428Y-71572380D01*
X136770952Y-71572380D01*
X136675714Y-71524761D01*
X136628095Y-71477142D01*
X136580476Y-71381904D01*
X136580476Y-71096190D01*
X136628095Y-71000952D01*
X136675714Y-70953333D01*
X136770952Y-70905714D01*
X136961428Y-70905714D01*
X137056666Y-70953333D01*
X117868819Y-49880780D02*
X117297390Y-49880780D01*
X117583104Y-49880780D02*
X117583104Y-48880780D01*
X117487866Y-49023638D01*
X117392628Y-49118876D01*
X117297390Y-49166495D01*
X120011676Y-48880780D02*
X120106914Y-48880780D01*
X120202152Y-48928400D01*
X120249771Y-48976019D01*
X120297390Y-49071257D01*
X120345009Y-49261733D01*
X120345009Y-49499828D01*
X120297390Y-49690304D01*
X120249771Y-49785542D01*
X120202152Y-49833161D01*
X120106914Y-49880780D01*
X120011676Y-49880780D01*
X119916438Y-49833161D01*
X119868819Y-49785542D01*
X119821200Y-49690304D01*
X119773580Y-49499828D01*
X119773580Y-49261733D01*
X119821200Y-49071257D01*
X119868819Y-48976019D01*
X119916438Y-48928400D01*
X120011676Y-48880780D01*
X163187142Y-70620000D02*
X163091904Y-70572380D01*
X162949047Y-70572380D01*
X162806190Y-70620000D01*
X162710952Y-70715238D01*
X162663333Y-70810476D01*
X162615714Y-71000952D01*
X162615714Y-71143809D01*
X162663333Y-71334285D01*
X162710952Y-71429523D01*
X162806190Y-71524761D01*
X162949047Y-71572380D01*
X163044285Y-71572380D01*
X163187142Y-71524761D01*
X163234761Y-71477142D01*
X163234761Y-71143809D01*
X163044285Y-71143809D01*
X163663333Y-70905714D02*
X163663333Y-71572380D01*
X163663333Y-71000952D02*
X163710952Y-70953333D01*
X163806190Y-70905714D01*
X163949047Y-70905714D01*
X164044285Y-70953333D01*
X164091904Y-71048571D01*
X164091904Y-71572380D01*
X164996666Y-71572380D02*
X164996666Y-70572380D01*
X164996666Y-71524761D02*
X164901428Y-71572380D01*
X164710952Y-71572380D01*
X164615714Y-71524761D01*
X164568095Y-71477142D01*
X164520476Y-71381904D01*
X164520476Y-71096190D01*
X164568095Y-71000952D01*
X164615714Y-70953333D01*
X164710952Y-70905714D01*
X164901428Y-70905714D01*
X164996666Y-70953333D01*
X56158095Y-70620000D02*
X56062857Y-70572380D01*
X55920000Y-70572380D01*
X55777142Y-70620000D01*
X55681904Y-70715238D01*
X55634285Y-70810476D01*
X55586666Y-71000952D01*
X55586666Y-71143809D01*
X55634285Y-71334285D01*
X55681904Y-71429523D01*
X55777142Y-71524761D01*
X55920000Y-71572380D01*
X56015238Y-71572380D01*
X56158095Y-71524761D01*
X56205714Y-71477142D01*
X56205714Y-71143809D01*
X56015238Y-71143809D01*
X56634285Y-71572380D02*
X56634285Y-70905714D01*
X56634285Y-71096190D02*
X56681904Y-71000952D01*
X56729523Y-70953333D01*
X56824761Y-70905714D01*
X56920000Y-70905714D01*
X57396190Y-71572380D02*
X57300952Y-71524761D01*
X57253333Y-71477142D01*
X57205714Y-71381904D01*
X57205714Y-71096190D01*
X57253333Y-71000952D01*
X57300952Y-70953333D01*
X57396190Y-70905714D01*
X57539047Y-70905714D01*
X57634285Y-70953333D01*
X57681904Y-71000952D01*
X57729523Y-71096190D01*
X57729523Y-71381904D01*
X57681904Y-71477142D01*
X57634285Y-71524761D01*
X57539047Y-71572380D01*
X57396190Y-71572380D01*
X58586666Y-70905714D02*
X58586666Y-71572380D01*
X58158095Y-70905714D02*
X58158095Y-71429523D01*
X58205714Y-71524761D01*
X58300952Y-71572380D01*
X58443809Y-71572380D01*
X58539047Y-71524761D01*
X58586666Y-71477142D01*
X59062857Y-70905714D02*
X59062857Y-71572380D01*
X59062857Y-71000952D02*
X59110476Y-70953333D01*
X59205714Y-70905714D01*
X59348571Y-70905714D01*
X59443809Y-70953333D01*
X59491428Y-71048571D01*
X59491428Y-71572380D01*
X60396190Y-71572380D02*
X60396190Y-70572380D01*
X60396190Y-71524761D02*
X60300952Y-71572380D01*
X60110476Y-71572380D01*
X60015238Y-71524761D01*
X59967619Y-71477142D01*
X59920000Y-71381904D01*
X59920000Y-71096190D01*
X59967619Y-71000952D01*
X60015238Y-70953333D01*
X60110476Y-70905714D01*
X60300952Y-70905714D01*
X60396190Y-70953333D01*
X60824761Y-71524761D02*
X60920000Y-71572380D01*
X61110476Y-71572380D01*
X61205714Y-71524761D01*
X61253333Y-71429523D01*
X61253333Y-71381904D01*
X61205714Y-71286666D01*
X61110476Y-71239047D01*
X60967619Y-71239047D01*
X60872380Y-71191428D01*
X60824761Y-71096190D01*
X60824761Y-71048571D01*
X60872380Y-70953333D01*
X60967619Y-70905714D01*
X61110476Y-70905714D01*
X61205714Y-70953333D01*
X240085714Y-71524761D02*
X240228571Y-71572380D01*
X240466666Y-71572380D01*
X240561904Y-71524761D01*
X240609523Y-71477142D01*
X240657142Y-71381904D01*
X240657142Y-71286666D01*
X240609523Y-71191428D01*
X240561904Y-71143809D01*
X240466666Y-71096190D01*
X240276190Y-71048571D01*
X240180952Y-71000952D01*
X240133333Y-70953333D01*
X240085714Y-70858095D01*
X240085714Y-70762857D01*
X240133333Y-70667619D01*
X240180952Y-70620000D01*
X240276190Y-70572380D01*
X240514285Y-70572380D01*
X240657142Y-70620000D01*
X241085714Y-71572380D02*
X241085714Y-70572380D01*
X241323809Y-70572380D01*
X241466666Y-70620000D01*
X241561904Y-70715238D01*
X241609523Y-70810476D01*
X241657142Y-71000952D01*
X241657142Y-71143809D01*
X241609523Y-71334285D01*
X241561904Y-71429523D01*
X241466666Y-71524761D01*
X241323809Y-71572380D01*
X241085714Y-71572380D01*
X242038095Y-71286666D02*
X242514285Y-71286666D01*
X241942857Y-71572380D02*
X242276190Y-70572380D01*
X242609523Y-71572380D01*
X60277761Y-46045380D02*
X60277761Y-45045380D01*
X60658714Y-45045380D01*
X60753952Y-45093000D01*
X60801571Y-45140619D01*
X60849190Y-45235857D01*
X60849190Y-45378714D01*
X60801571Y-45473952D01*
X60753952Y-45521571D01*
X60658714Y-45569190D01*
X60277761Y-45569190D01*
X61849190Y-45950142D02*
X61801571Y-45997761D01*
X61658714Y-46045380D01*
X61563476Y-46045380D01*
X61420619Y-45997761D01*
X61325380Y-45902523D01*
X61277761Y-45807285D01*
X61230142Y-45616809D01*
X61230142Y-45473952D01*
X61277761Y-45283476D01*
X61325380Y-45188238D01*
X61420619Y-45093000D01*
X61563476Y-45045380D01*
X61658714Y-45045380D01*
X61801571Y-45093000D01*
X61849190Y-45140619D01*
X62230142Y-45759666D02*
X62706333Y-45759666D01*
X62134904Y-46045380D02*
X62468238Y-45045380D01*
X62801571Y-46045380D01*
X63182523Y-46045380D02*
X63373000Y-46045380D01*
X63468238Y-45997761D01*
X63515857Y-45950142D01*
X63611095Y-45807285D01*
X63658714Y-45616809D01*
X63658714Y-45235857D01*
X63611095Y-45140619D01*
X63563476Y-45093000D01*
X63468238Y-45045380D01*
X63277761Y-45045380D01*
X63182523Y-45093000D01*
X63134904Y-45140619D01*
X63087285Y-45235857D01*
X63087285Y-45473952D01*
X63134904Y-45569190D01*
X63182523Y-45616809D01*
X63277761Y-45664428D01*
X63468238Y-45664428D01*
X63563476Y-45616809D01*
X63611095Y-45569190D01*
X63658714Y-45473952D01*
X64515857Y-45045380D02*
X64325380Y-45045380D01*
X64230142Y-45093000D01*
X64182523Y-45140619D01*
X64087285Y-45283476D01*
X64039666Y-45473952D01*
X64039666Y-45854904D01*
X64087285Y-45950142D01*
X64134904Y-45997761D01*
X64230142Y-46045380D01*
X64420619Y-46045380D01*
X64515857Y-45997761D01*
X64563476Y-45950142D01*
X64611095Y-45854904D01*
X64611095Y-45616809D01*
X64563476Y-45521571D01*
X64515857Y-45473952D01*
X64420619Y-45426333D01*
X64230142Y-45426333D01*
X64134904Y-45473952D01*
X64087285Y-45521571D01*
X64039666Y-45616809D01*
X64944428Y-45045380D02*
X65563476Y-45045380D01*
X65230142Y-45426333D01*
X65373000Y-45426333D01*
X65468238Y-45473952D01*
X65515857Y-45521571D01*
X65563476Y-45616809D01*
X65563476Y-45854904D01*
X65515857Y-45950142D01*
X65468238Y-45997761D01*
X65373000Y-46045380D01*
X65087285Y-46045380D01*
X64992047Y-45997761D01*
X64944428Y-45950142D01*
X66420619Y-45378714D02*
X66420619Y-46045380D01*
X66182523Y-44997761D02*
X65944428Y-45712047D01*
X66563476Y-45712047D01*
X240442857Y-66111428D02*
X241204761Y-66111428D01*
X240823809Y-66492380D02*
X240823809Y-65730476D01*
X242157142Y-65492380D02*
X241680952Y-65492380D01*
X241633333Y-65968571D01*
X241680952Y-65920952D01*
X241776190Y-65873333D01*
X242014285Y-65873333D01*
X242109523Y-65920952D01*
X242157142Y-65968571D01*
X242204761Y-66063809D01*
X242204761Y-66301904D01*
X242157142Y-66397142D01*
X242109523Y-66444761D01*
X242014285Y-66492380D01*
X241776190Y-66492380D01*
X241680952Y-66444761D01*
X241633333Y-66397142D01*
X75644761Y-67762380D02*
X75644761Y-66762380D01*
X76025714Y-66762380D01*
X76120952Y-66810000D01*
X76168571Y-66857619D01*
X76216190Y-66952857D01*
X76216190Y-67095714D01*
X76168571Y-67190952D01*
X76120952Y-67238571D01*
X76025714Y-67286190D01*
X75644761Y-67286190D01*
X77216190Y-67667142D02*
X77168571Y-67714761D01*
X77025714Y-67762380D01*
X76930476Y-67762380D01*
X76787619Y-67714761D01*
X76692380Y-67619523D01*
X76644761Y-67524285D01*
X76597142Y-67333809D01*
X76597142Y-67190952D01*
X76644761Y-67000476D01*
X76692380Y-66905238D01*
X76787619Y-66810000D01*
X76930476Y-66762380D01*
X77025714Y-66762380D01*
X77168571Y-66810000D01*
X77216190Y-66857619D01*
X77597142Y-67476666D02*
X78073333Y-67476666D01*
X77501904Y-67762380D02*
X77835238Y-66762380D01*
X78168571Y-67762380D01*
X78549523Y-67762380D02*
X78740000Y-67762380D01*
X78835238Y-67714761D01*
X78882857Y-67667142D01*
X78978095Y-67524285D01*
X79025714Y-67333809D01*
X79025714Y-66952857D01*
X78978095Y-66857619D01*
X78930476Y-66810000D01*
X78835238Y-66762380D01*
X78644761Y-66762380D01*
X78549523Y-66810000D01*
X78501904Y-66857619D01*
X78454285Y-66952857D01*
X78454285Y-67190952D01*
X78501904Y-67286190D01*
X78549523Y-67333809D01*
X78644761Y-67381428D01*
X78835238Y-67381428D01*
X78930476Y-67333809D01*
X78978095Y-67286190D01*
X79025714Y-67190952D01*
X79930476Y-66762380D02*
X79454285Y-66762380D01*
X79406666Y-67238571D01*
X79454285Y-67190952D01*
X79549523Y-67143333D01*
X79787619Y-67143333D01*
X79882857Y-67190952D01*
X79930476Y-67238571D01*
X79978095Y-67333809D01*
X79978095Y-67571904D01*
X79930476Y-67667142D01*
X79882857Y-67714761D01*
X79787619Y-67762380D01*
X79549523Y-67762380D01*
X79454285Y-67714761D01*
X79406666Y-67667142D01*
X80882857Y-66762380D02*
X80406666Y-66762380D01*
X80359047Y-67238571D01*
X80406666Y-67190952D01*
X80501904Y-67143333D01*
X80740000Y-67143333D01*
X80835238Y-67190952D01*
X80882857Y-67238571D01*
X80930476Y-67333809D01*
X80930476Y-67571904D01*
X80882857Y-67667142D01*
X80835238Y-67714761D01*
X80740000Y-67762380D01*
X80501904Y-67762380D01*
X80406666Y-67714761D01*
X80359047Y-67667142D01*
X81835238Y-66762380D02*
X81359047Y-66762380D01*
X81311428Y-67238571D01*
X81359047Y-67190952D01*
X81454285Y-67143333D01*
X81692380Y-67143333D01*
X81787619Y-67190952D01*
X81835238Y-67238571D01*
X81882857Y-67333809D01*
X81882857Y-67571904D01*
X81835238Y-67667142D01*
X81787619Y-67714761D01*
X81692380Y-67762380D01*
X81454285Y-67762380D01*
X81359047Y-67714761D01*
X81311428Y-67667142D01*
X37117976Y-63564761D02*
X37260833Y-63612380D01*
X37498928Y-63612380D01*
X37594166Y-63564761D01*
X37641785Y-63517142D01*
X37689404Y-63421904D01*
X37689404Y-63326666D01*
X37641785Y-63231428D01*
X37594166Y-63183809D01*
X37498928Y-63136190D01*
X37308452Y-63088571D01*
X37213214Y-63040952D01*
X37165595Y-62993333D01*
X37117976Y-62898095D01*
X37117976Y-62802857D01*
X37165595Y-62707619D01*
X37213214Y-62660000D01*
X37308452Y-62612380D01*
X37546547Y-62612380D01*
X37689404Y-62660000D01*
X38022738Y-62945714D02*
X38260833Y-63612380D01*
X38498928Y-62945714D02*
X38260833Y-63612380D01*
X38165595Y-63850476D01*
X38117976Y-63898095D01*
X38022738Y-63945714D01*
X38832261Y-63564761D02*
X38927500Y-63612380D01*
X39117976Y-63612380D01*
X39213214Y-63564761D01*
X39260833Y-63469523D01*
X39260833Y-63421904D01*
X39213214Y-63326666D01*
X39117976Y-63279047D01*
X38975119Y-63279047D01*
X38879880Y-63231428D01*
X38832261Y-63136190D01*
X38832261Y-63088571D01*
X38879880Y-62993333D01*
X38975119Y-62945714D01*
X39117976Y-62945714D01*
X39213214Y-62993333D01*
X39546547Y-62945714D02*
X39927500Y-62945714D01*
X39689404Y-62612380D02*
X39689404Y-63469523D01*
X39737023Y-63564761D01*
X39832261Y-63612380D01*
X39927500Y-63612380D01*
X40641785Y-63564761D02*
X40546547Y-63612380D01*
X40356071Y-63612380D01*
X40260833Y-63564761D01*
X40213214Y-63469523D01*
X40213214Y-63088571D01*
X40260833Y-62993333D01*
X40356071Y-62945714D01*
X40546547Y-62945714D01*
X40641785Y-62993333D01*
X40689404Y-63088571D01*
X40689404Y-63183809D01*
X40213214Y-63279047D01*
X41117976Y-63612380D02*
X41117976Y-62945714D01*
X41117976Y-63040952D02*
X41165595Y-62993333D01*
X41260833Y-62945714D01*
X41403690Y-62945714D01*
X41498928Y-62993333D01*
X41546547Y-63088571D01*
X41546547Y-63612380D01*
X41546547Y-63088571D02*
X41594166Y-62993333D01*
X41689404Y-62945714D01*
X41832261Y-62945714D01*
X41927500Y-62993333D01*
X41975119Y-63088571D01*
X41975119Y-63612380D01*
X43165595Y-62564761D02*
X42308452Y-63850476D01*
X43403690Y-62612380D02*
X44022738Y-62612380D01*
X43689404Y-62993333D01*
X43832261Y-62993333D01*
X43927500Y-63040952D01*
X43975119Y-63088571D01*
X44022738Y-63183809D01*
X44022738Y-63421904D01*
X43975119Y-63517142D01*
X43927500Y-63564761D01*
X43832261Y-63612380D01*
X43546547Y-63612380D01*
X43451309Y-63564761D01*
X43403690Y-63517142D01*
X44879880Y-62612380D02*
X44689404Y-62612380D01*
X44594166Y-62660000D01*
X44546547Y-62707619D01*
X44451309Y-62850476D01*
X44403690Y-63040952D01*
X44403690Y-63421904D01*
X44451309Y-63517142D01*
X44498928Y-63564761D01*
X44594166Y-63612380D01*
X44784642Y-63612380D01*
X44879880Y-63564761D01*
X44927500Y-63517142D01*
X44975119Y-63421904D01*
X44975119Y-63183809D01*
X44927500Y-63088571D01*
X44879880Y-63040952D01*
X44784642Y-62993333D01*
X44594166Y-62993333D01*
X44498928Y-63040952D01*
X44451309Y-63088571D01*
X44403690Y-63183809D01*
X45594166Y-62612380D02*
X45689404Y-62612380D01*
X45784642Y-62660000D01*
X45832261Y-62707619D01*
X45879880Y-62802857D01*
X45927500Y-62993333D01*
X45927500Y-63231428D01*
X45879880Y-63421904D01*
X45832261Y-63517142D01*
X45784642Y-63564761D01*
X45689404Y-63612380D01*
X45594166Y-63612380D01*
X45498928Y-63564761D01*
X45451309Y-63517142D01*
X45403690Y-63421904D01*
X45356071Y-63231428D01*
X45356071Y-62993333D01*
X45403690Y-62802857D01*
X45451309Y-62707619D01*
X45498928Y-62660000D01*
X45594166Y-62612380D01*
X47117976Y-63612380D02*
X47117976Y-62612380D01*
X47451309Y-63326666D01*
X47784642Y-62612380D01*
X47784642Y-63612380D01*
X48403690Y-63612380D02*
X48308452Y-63564761D01*
X48260833Y-63517142D01*
X48213214Y-63421904D01*
X48213214Y-63136190D01*
X48260833Y-63040952D01*
X48308452Y-62993333D01*
X48403690Y-62945714D01*
X48546547Y-62945714D01*
X48641785Y-62993333D01*
X48689404Y-63040952D01*
X48737023Y-63136190D01*
X48737023Y-63421904D01*
X48689404Y-63517142D01*
X48641785Y-63564761D01*
X48546547Y-63612380D01*
X48403690Y-63612380D01*
X49594166Y-63612380D02*
X49594166Y-62612380D01*
X49594166Y-63564761D02*
X49498928Y-63612380D01*
X49308452Y-63612380D01*
X49213214Y-63564761D01*
X49165595Y-63517142D01*
X49117976Y-63421904D01*
X49117976Y-63136190D01*
X49165595Y-63040952D01*
X49213214Y-62993333D01*
X49308452Y-62945714D01*
X49498928Y-62945714D01*
X49594166Y-62993333D01*
X50451309Y-63564761D02*
X50356071Y-63612380D01*
X50165595Y-63612380D01*
X50070357Y-63564761D01*
X50022738Y-63469523D01*
X50022738Y-63088571D01*
X50070357Y-62993333D01*
X50165595Y-62945714D01*
X50356071Y-62945714D01*
X50451309Y-62993333D01*
X50498928Y-63088571D01*
X50498928Y-63183809D01*
X50022738Y-63279047D01*
X51070357Y-63612380D02*
X50975119Y-63564761D01*
X50927500Y-63469523D01*
X50927500Y-62612380D01*
X52689404Y-62612380D02*
X52213214Y-62612380D01*
X52165595Y-63088571D01*
X52213214Y-63040952D01*
X52308452Y-62993333D01*
X52546547Y-62993333D01*
X52641785Y-63040952D01*
X52689404Y-63088571D01*
X52737023Y-63183809D01*
X52737023Y-63421904D01*
X52689404Y-63517142D01*
X52641785Y-63564761D01*
X52546547Y-63612380D01*
X52308452Y-63612380D01*
X52213214Y-63564761D01*
X52165595Y-63517142D01*
X53356071Y-62612380D02*
X53451309Y-62612380D01*
X53546547Y-62660000D01*
X53594166Y-62707619D01*
X53641785Y-62802857D01*
X53689404Y-62993333D01*
X53689404Y-63231428D01*
X53641785Y-63421904D01*
X53594166Y-63517142D01*
X53546547Y-63564761D01*
X53451309Y-63612380D01*
X53356071Y-63612380D01*
X53260833Y-63564761D01*
X53213214Y-63517142D01*
X53165595Y-63421904D01*
X53117976Y-63231428D01*
X53117976Y-62993333D01*
X53165595Y-62802857D01*
X53213214Y-62707619D01*
X53260833Y-62660000D01*
X53356071Y-62612380D01*
X55308452Y-63564761D02*
X55213214Y-63612380D01*
X55022738Y-63612380D01*
X54927500Y-63564761D01*
X54879880Y-63517142D01*
X54832261Y-63421904D01*
X54832261Y-63136190D01*
X54879880Y-63040952D01*
X54927500Y-62993333D01*
X55022738Y-62945714D01*
X55213214Y-62945714D01*
X55308452Y-62993333D01*
X55879880Y-63612380D02*
X55784642Y-63564761D01*
X55737023Y-63517142D01*
X55689404Y-63421904D01*
X55689404Y-63136190D01*
X55737023Y-63040952D01*
X55784642Y-62993333D01*
X55879880Y-62945714D01*
X56022738Y-62945714D01*
X56117976Y-62993333D01*
X56165595Y-63040952D01*
X56213214Y-63136190D01*
X56213214Y-63421904D01*
X56165595Y-63517142D01*
X56117976Y-63564761D01*
X56022738Y-63612380D01*
X55879880Y-63612380D01*
X56641785Y-62945714D02*
X56641785Y-63612380D01*
X56641785Y-63040952D02*
X56689404Y-62993333D01*
X56784642Y-62945714D01*
X56927499Y-62945714D01*
X57022738Y-62993333D01*
X57070357Y-63088571D01*
X57070357Y-63612380D01*
X57498928Y-63564761D02*
X57594166Y-63612380D01*
X57784642Y-63612380D01*
X57879880Y-63564761D01*
X57927499Y-63469523D01*
X57927499Y-63421904D01*
X57879880Y-63326666D01*
X57784642Y-63279047D01*
X57641785Y-63279047D01*
X57546547Y-63231428D01*
X57498928Y-63136190D01*
X57498928Y-63088571D01*
X57546547Y-62993333D01*
X57641785Y-62945714D01*
X57784642Y-62945714D01*
X57879880Y-62993333D01*
X58498928Y-63612380D02*
X58403690Y-63564761D01*
X58356071Y-63517142D01*
X58308452Y-63421904D01*
X58308452Y-63136190D01*
X58356071Y-63040952D01*
X58403690Y-62993333D01*
X58498928Y-62945714D01*
X58641785Y-62945714D01*
X58737023Y-62993333D01*
X58784642Y-63040952D01*
X58832261Y-63136190D01*
X58832261Y-63421904D01*
X58784642Y-63517142D01*
X58737023Y-63564761D01*
X58641785Y-63612380D01*
X58498928Y-63612380D01*
X59403690Y-63612380D02*
X59308452Y-63564761D01*
X59260833Y-63469523D01*
X59260833Y-62612380D01*
X60165595Y-63564761D02*
X60070357Y-63612380D01*
X59879880Y-63612380D01*
X59784642Y-63564761D01*
X59737023Y-63469523D01*
X59737023Y-63088571D01*
X59784642Y-62993333D01*
X59879880Y-62945714D01*
X60070357Y-62945714D01*
X60165595Y-62993333D01*
X60213214Y-63088571D01*
X60213214Y-63183809D01*
X59737023Y-63279047D01*
X61832261Y-63612380D02*
X61832261Y-62612380D01*
X61832261Y-63564761D02*
X61737023Y-63612380D01*
X61546547Y-63612380D01*
X61451309Y-63564761D01*
X61403690Y-63517142D01*
X61356071Y-63421904D01*
X61356071Y-63136190D01*
X61403690Y-63040952D01*
X61451309Y-62993333D01*
X61546547Y-62945714D01*
X61737023Y-62945714D01*
X61832261Y-62993333D01*
X62308452Y-63612380D02*
X62308452Y-62945714D01*
X62308452Y-63136190D02*
X62356071Y-63040952D01*
X62403690Y-62993333D01*
X62498928Y-62945714D01*
X62594166Y-62945714D01*
X62927499Y-63612380D02*
X62927499Y-62945714D01*
X62927499Y-62612380D02*
X62879880Y-62660000D01*
X62927499Y-62707619D01*
X62975119Y-62660000D01*
X62927499Y-62612380D01*
X62927499Y-62707619D01*
X63308452Y-62945714D02*
X63546547Y-63612380D01*
X63784642Y-62945714D01*
X64546547Y-63564761D02*
X64451309Y-63612380D01*
X64260833Y-63612380D01*
X64165595Y-63564761D01*
X64117976Y-63469523D01*
X64117976Y-63088571D01*
X64165595Y-62993333D01*
X64260833Y-62945714D01*
X64451309Y-62945714D01*
X64546547Y-62993333D01*
X64594166Y-63088571D01*
X64594166Y-63183809D01*
X64117976Y-63279047D01*
X65022738Y-63612380D02*
X65022738Y-62945714D01*
X65022738Y-63136190D02*
X65070357Y-63040952D01*
X65117976Y-62993333D01*
X65213214Y-62945714D01*
X65308452Y-62945714D01*
X37165595Y-65222380D02*
X37165595Y-64222380D01*
X37737023Y-65222380D02*
X37308452Y-64650952D01*
X37737023Y-64222380D02*
X37165595Y-64793809D01*
X38546547Y-65174761D02*
X38451309Y-65222380D01*
X38260833Y-65222380D01*
X38165595Y-65174761D01*
X38117976Y-65079523D01*
X38117976Y-64698571D01*
X38165595Y-64603333D01*
X38260833Y-64555714D01*
X38451309Y-64555714D01*
X38546547Y-64603333D01*
X38594166Y-64698571D01*
X38594166Y-64793809D01*
X38117976Y-64889047D01*
X39022738Y-64555714D02*
X39022738Y-65222380D01*
X39022738Y-64650952D02*
X39070357Y-64603333D01*
X39165595Y-64555714D01*
X39308452Y-64555714D01*
X39403690Y-64603333D01*
X39451309Y-64698571D01*
X39451309Y-65222380D01*
X40641785Y-65174761D02*
X40784642Y-65222380D01*
X41022738Y-65222380D01*
X41117976Y-65174761D01*
X41165595Y-65127142D01*
X41213214Y-65031904D01*
X41213214Y-64936666D01*
X41165595Y-64841428D01*
X41117976Y-64793809D01*
X41022738Y-64746190D01*
X40832261Y-64698571D01*
X40737023Y-64650952D01*
X40689404Y-64603333D01*
X40641785Y-64508095D01*
X40641785Y-64412857D01*
X40689404Y-64317619D01*
X40737023Y-64270000D01*
X40832261Y-64222380D01*
X41070357Y-64222380D01*
X41213214Y-64270000D01*
X41641785Y-65222380D02*
X41641785Y-64222380D01*
X42070357Y-65222380D02*
X42070357Y-64698571D01*
X42022738Y-64603333D01*
X41927500Y-64555714D01*
X41784642Y-64555714D01*
X41689404Y-64603333D01*
X41641785Y-64650952D01*
X42546547Y-65222380D02*
X42546547Y-64555714D01*
X42546547Y-64222380D02*
X42498928Y-64270000D01*
X42546547Y-64317619D01*
X42594166Y-64270000D01*
X42546547Y-64222380D01*
X42546547Y-64317619D01*
X43022738Y-65222380D02*
X43022738Y-64555714D01*
X43022738Y-64746190D02*
X43070357Y-64650952D01*
X43117976Y-64603333D01*
X43213214Y-64555714D01*
X43308452Y-64555714D01*
X43641785Y-65222380D02*
X43641785Y-64555714D01*
X43641785Y-64746190D02*
X43689404Y-64650952D01*
X43737023Y-64603333D01*
X43832261Y-64555714D01*
X43927500Y-64555714D01*
X44260833Y-65222380D02*
X44260833Y-64555714D01*
X44260833Y-64222380D02*
X44213214Y-64270000D01*
X44260833Y-64317619D01*
X44308452Y-64270000D01*
X44260833Y-64222380D01*
X44260833Y-64317619D01*
X44594166Y-64555714D02*
X44975119Y-64555714D01*
X44737023Y-65222380D02*
X44737023Y-64365238D01*
X44784642Y-64270000D01*
X44879880Y-64222380D01*
X44975119Y-64222380D01*
X45165595Y-64555714D02*
X45546547Y-64555714D01*
X45308452Y-65222380D02*
X45308452Y-64365238D01*
X45356071Y-64270000D01*
X45451309Y-64222380D01*
X45546547Y-64222380D01*
X48927500Y-65222380D02*
X48927500Y-64555714D01*
X48927500Y-64746190D02*
X48975119Y-64650952D01*
X49022738Y-64603333D01*
X49117976Y-64555714D01*
X49213214Y-64555714D01*
X49546547Y-65222380D02*
X49546547Y-64555714D01*
X49546547Y-64222380D02*
X49498928Y-64270000D01*
X49546547Y-64317619D01*
X49594166Y-64270000D01*
X49546547Y-64222380D01*
X49546547Y-64317619D01*
X50451309Y-64555714D02*
X50451309Y-65365238D01*
X50403690Y-65460476D01*
X50356071Y-65508095D01*
X50260833Y-65555714D01*
X50117976Y-65555714D01*
X50022738Y-65508095D01*
X50451309Y-65174761D02*
X50356071Y-65222380D01*
X50165595Y-65222380D01*
X50070357Y-65174761D01*
X50022738Y-65127142D01*
X49975119Y-65031904D01*
X49975119Y-64746190D01*
X50022738Y-64650952D01*
X50070357Y-64603333D01*
X50165595Y-64555714D01*
X50356071Y-64555714D01*
X50451309Y-64603333D01*
X50927500Y-65222380D02*
X50927500Y-64222380D01*
X51356071Y-65222380D02*
X51356071Y-64698571D01*
X51308452Y-64603333D01*
X51213214Y-64555714D01*
X51070357Y-64555714D01*
X50975119Y-64603333D01*
X50927500Y-64650952D01*
X51689404Y-64555714D02*
X52070357Y-64555714D01*
X51832261Y-64222380D02*
X51832261Y-65079523D01*
X51879880Y-65174761D01*
X51975119Y-65222380D01*
X52070357Y-65222380D01*
X52546547Y-65222380D02*
X52451309Y-65174761D01*
X52403690Y-65127142D01*
X52356071Y-65031904D01*
X52356071Y-64746190D01*
X52403690Y-64650952D01*
X52451309Y-64603333D01*
X52546547Y-64555714D01*
X52689404Y-64555714D01*
X52784642Y-64603333D01*
X52832261Y-64650952D01*
X52879880Y-64746190D01*
X52879880Y-65031904D01*
X52832261Y-65127142D01*
X52784642Y-65174761D01*
X52689404Y-65222380D01*
X52546547Y-65222380D01*
X53308452Y-65127142D02*
X53356071Y-65174761D01*
X53308452Y-65222380D01*
X53260833Y-65174761D01*
X53308452Y-65127142D01*
X53308452Y-65222380D01*
X54213214Y-65174761D02*
X54117976Y-65222380D01*
X53927500Y-65222380D01*
X53832261Y-65174761D01*
X53784642Y-65127142D01*
X53737023Y-65031904D01*
X53737023Y-64746190D01*
X53784642Y-64650952D01*
X53832261Y-64603333D01*
X53927500Y-64555714D01*
X54117976Y-64555714D01*
X54213214Y-64603333D01*
X54784642Y-65222380D02*
X54689404Y-65174761D01*
X54641785Y-65127142D01*
X54594166Y-65031904D01*
X54594166Y-64746190D01*
X54641785Y-64650952D01*
X54689404Y-64603333D01*
X54784642Y-64555714D01*
X54927499Y-64555714D01*
X55022738Y-64603333D01*
X55070357Y-64650952D01*
X55117976Y-64746190D01*
X55117976Y-65031904D01*
X55070357Y-65127142D01*
X55022738Y-65174761D01*
X54927499Y-65222380D01*
X54784642Y-65222380D01*
X55546547Y-65222380D02*
X55546547Y-64555714D01*
X55546547Y-64650952D02*
X55594166Y-64603333D01*
X55689404Y-64555714D01*
X55832261Y-64555714D01*
X55927499Y-64603333D01*
X55975119Y-64698571D01*
X55975119Y-65222380D01*
X55975119Y-64698571D02*
X56022738Y-64603333D01*
X56117976Y-64555714D01*
X56260833Y-64555714D01*
X56356071Y-64603333D01*
X56403690Y-64698571D01*
X56403690Y-65222380D01*
X57594166Y-64174761D02*
X56737023Y-65460476D01*
X57832261Y-64222380D02*
X58451309Y-64222380D01*
X58117976Y-64603333D01*
X58260833Y-64603333D01*
X58356071Y-64650952D01*
X58403690Y-64698571D01*
X58451309Y-64793809D01*
X58451309Y-65031904D01*
X58403690Y-65127142D01*
X58356071Y-65174761D01*
X58260833Y-65222380D01*
X57975119Y-65222380D01*
X57879880Y-65174761D01*
X57832261Y-65127142D01*
X59308452Y-64222380D02*
X59117976Y-64222380D01*
X59022738Y-64270000D01*
X58975119Y-64317619D01*
X58879880Y-64460476D01*
X58832261Y-64650952D01*
X58832261Y-65031904D01*
X58879880Y-65127142D01*
X58927499Y-65174761D01*
X59022738Y-65222380D01*
X59213214Y-65222380D01*
X59308452Y-65174761D01*
X59356071Y-65127142D01*
X59403690Y-65031904D01*
X59403690Y-64793809D01*
X59356071Y-64698571D01*
X59308452Y-64650952D01*
X59213214Y-64603333D01*
X59022738Y-64603333D01*
X58927499Y-64650952D01*
X58879880Y-64698571D01*
X58832261Y-64793809D01*
X60022738Y-64222380D02*
X60117976Y-64222380D01*
X60213214Y-64270000D01*
X60260833Y-64317619D01*
X60308452Y-64412857D01*
X60356071Y-64603333D01*
X60356071Y-64841428D01*
X60308452Y-65031904D01*
X60260833Y-65127142D01*
X60213214Y-65174761D01*
X60117976Y-65222380D01*
X60022738Y-65222380D01*
X59927499Y-65174761D01*
X59879880Y-65127142D01*
X59832261Y-65031904D01*
X59784642Y-64841428D01*
X59784642Y-64603333D01*
X59832261Y-64412857D01*
X59879880Y-64317619D01*
X59927499Y-64270000D01*
X60022738Y-64222380D01*
X60927499Y-65222380D02*
X60832261Y-65174761D01*
X60784642Y-65079523D01*
X60784642Y-64222380D01*
X61689404Y-65174761D02*
X61594166Y-65222380D01*
X61403690Y-65222380D01*
X61308452Y-65174761D01*
X61260833Y-65079523D01*
X61260833Y-64698571D01*
X61308452Y-64603333D01*
X61403690Y-64555714D01*
X61594166Y-64555714D01*
X61689404Y-64603333D01*
X61737023Y-64698571D01*
X61737023Y-64793809D01*
X61260833Y-64889047D01*
X62594166Y-65222380D02*
X62594166Y-64222380D01*
X62594166Y-65174761D02*
X62498928Y-65222380D01*
X62308452Y-65222380D01*
X62213214Y-65174761D01*
X62165595Y-65127142D01*
X62117976Y-65031904D01*
X62117976Y-64746190D01*
X62165595Y-64650952D01*
X62213214Y-64603333D01*
X62308452Y-64555714D01*
X62498928Y-64555714D01*
X62594166Y-64603333D01*
X37070357Y-66165714D02*
X37308452Y-66832380D01*
X37546547Y-66165714D01*
X38451309Y-66832380D02*
X37879880Y-66832380D01*
X38165595Y-66832380D02*
X38165595Y-65832380D01*
X38070357Y-65975238D01*
X37975119Y-66070476D01*
X37879880Y-66118095D01*
X38879880Y-66737142D02*
X38927500Y-66784761D01*
X38879880Y-66832380D01*
X38832261Y-66784761D01*
X38879880Y-66737142D01*
X38879880Y-66832380D01*
X39879880Y-66832380D02*
X39308452Y-66832380D01*
X39594166Y-66832380D02*
X39594166Y-65832380D01*
X39498928Y-65975238D01*
X39403690Y-66070476D01*
X39308452Y-66118095D01*
X170466333Y-60015380D02*
X170466333Y-59015380D01*
X170799666Y-59729666D01*
X171133000Y-59015380D01*
X171133000Y-60015380D01*
X172180619Y-59920142D02*
X172133000Y-59967761D01*
X171990142Y-60015380D01*
X171894904Y-60015380D01*
X171752047Y-59967761D01*
X171656809Y-59872523D01*
X171609190Y-59777285D01*
X171561571Y-59586809D01*
X171561571Y-59443952D01*
X171609190Y-59253476D01*
X171656809Y-59158238D01*
X171752047Y-59063000D01*
X171894904Y-59015380D01*
X171990142Y-59015380D01*
X172133000Y-59063000D01*
X172180619Y-59110619D01*
X172609190Y-60015380D02*
X172609190Y-59015380D01*
X172990142Y-59015380D01*
X173085380Y-59063000D01*
X173133000Y-59110619D01*
X173180619Y-59205857D01*
X173180619Y-59348714D01*
X173133000Y-59443952D01*
X173085380Y-59491571D01*
X172990142Y-59539190D01*
X172609190Y-59539190D01*
X174037761Y-59348714D02*
X174037761Y-60015380D01*
X173799666Y-58967761D02*
X173561571Y-59682047D01*
X174180619Y-59682047D01*
X174466333Y-59015380D02*
X175133000Y-59015380D01*
X174704428Y-60015380D01*
X176085380Y-59920142D02*
X176037761Y-59967761D01*
X175894904Y-60015380D01*
X175799666Y-60015380D01*
X175656809Y-59967761D01*
X175561571Y-59872523D01*
X175513952Y-59777285D01*
X175466333Y-59586809D01*
X175466333Y-59443952D01*
X175513952Y-59253476D01*
X175561571Y-59158238D01*
X175656809Y-59063000D01*
X175799666Y-59015380D01*
X175894904Y-59015380D01*
X176037761Y-59063000D01*
X176085380Y-59110619D01*
X176371095Y-59015380D02*
X176704428Y-60015380D01*
X177037761Y-59015380D01*
X177704428Y-59491571D02*
X177847285Y-59539190D01*
X177894904Y-59586809D01*
X177942523Y-59682047D01*
X177942523Y-59824904D01*
X177894904Y-59920142D01*
X177847285Y-59967761D01*
X177752047Y-60015380D01*
X177371095Y-60015380D01*
X177371095Y-59015380D01*
X177704428Y-59015380D01*
X177799666Y-59063000D01*
X177847285Y-59110619D01*
X177894904Y-59205857D01*
X177894904Y-59301095D01*
X177847285Y-59396333D01*
X177799666Y-59443952D01*
X177704428Y-59491571D01*
X177371095Y-59491571D01*
X178561571Y-59015380D02*
X178656809Y-59015380D01*
X178752047Y-59063000D01*
X178799666Y-59110619D01*
X178847285Y-59205857D01*
X178894904Y-59396333D01*
X178894904Y-59634428D01*
X178847285Y-59824904D01*
X178799666Y-59920142D01*
X178752047Y-59967761D01*
X178656809Y-60015380D01*
X178561571Y-60015380D01*
X178466333Y-59967761D01*
X178418714Y-59920142D01*
X178371095Y-59824904D01*
X178323476Y-59634428D01*
X178323476Y-59396333D01*
X178371095Y-59205857D01*
X178418714Y-59110619D01*
X178466333Y-59063000D01*
X178561571Y-59015380D01*
X179847285Y-60015380D02*
X179275857Y-60015380D01*
X179561571Y-60015380D02*
X179561571Y-59015380D01*
X179466333Y-59158238D01*
X179371095Y-59253476D01*
X179275857Y-59301095D01*
X30535714Y-71524761D02*
X30678571Y-71572380D01*
X30916666Y-71572380D01*
X31011904Y-71524761D01*
X31059523Y-71477142D01*
X31107142Y-71381904D01*
X31107142Y-71286666D01*
X31059523Y-71191428D01*
X31011904Y-71143809D01*
X30916666Y-71096190D01*
X30726190Y-71048571D01*
X30630952Y-71000952D01*
X30583333Y-70953333D01*
X30535714Y-70858095D01*
X30535714Y-70762857D01*
X30583333Y-70667619D01*
X30630952Y-70620000D01*
X30726190Y-70572380D01*
X30964285Y-70572380D01*
X31107142Y-70620000D01*
X31535714Y-71572380D02*
X31535714Y-70572380D01*
X31773809Y-70572380D01*
X31916666Y-70620000D01*
X32011904Y-70715238D01*
X32059523Y-70810476D01*
X32107142Y-71000952D01*
X32107142Y-71143809D01*
X32059523Y-71334285D01*
X32011904Y-71429523D01*
X31916666Y-71524761D01*
X31773809Y-71572380D01*
X31535714Y-71572380D01*
X32488095Y-71286666D02*
X32964285Y-71286666D01*
X32392857Y-71572380D02*
X32726190Y-70572380D01*
X33059523Y-71572380D01*
X239419047Y-31535714D02*
X239419047Y-32535714D01*
X239419047Y-31583333D02*
X239514285Y-31535714D01*
X239704761Y-31535714D01*
X239800000Y-31583333D01*
X239847619Y-31630952D01*
X239895238Y-31726190D01*
X239895238Y-32011904D01*
X239847619Y-32107142D01*
X239800000Y-32154761D01*
X239704761Y-32202380D01*
X239514285Y-32202380D01*
X239419047Y-32154761D01*
X240752380Y-32202380D02*
X240752380Y-31678571D01*
X240704761Y-31583333D01*
X240609523Y-31535714D01*
X240419047Y-31535714D01*
X240323809Y-31583333D01*
X240752380Y-32154761D02*
X240657142Y-32202380D01*
X240419047Y-32202380D01*
X240323809Y-32154761D01*
X240276190Y-32059523D01*
X240276190Y-31964285D01*
X240323809Y-31869047D01*
X240419047Y-31821428D01*
X240657142Y-31821428D01*
X240752380Y-31773809D01*
X241228571Y-32202380D02*
X241228571Y-31535714D01*
X241228571Y-31726190D02*
X241276190Y-31630952D01*
X241323809Y-31583333D01*
X241419047Y-31535714D01*
X241514285Y-31535714D01*
X241847619Y-32202380D02*
X241847619Y-31535714D01*
X241847619Y-31202380D02*
X241800000Y-31250000D01*
X241847619Y-31297619D01*
X241895238Y-31250000D01*
X241847619Y-31202380D01*
X241847619Y-31297619D01*
X242180952Y-31535714D02*
X242561904Y-31535714D01*
X242323809Y-31202380D02*
X242323809Y-32059523D01*
X242371428Y-32154761D01*
X242466666Y-32202380D01*
X242561904Y-32202380D01*
X242800000Y-31535714D02*
X243038095Y-32202380D01*
X243276190Y-31535714D02*
X243038095Y-32202380D01*
X242942857Y-32440476D01*
X242895238Y-32488095D01*
X242800000Y-32535714D01*
X172442476Y-68703666D02*
X172918666Y-68703666D01*
X172347238Y-68989380D02*
X172680571Y-67989380D01*
X173013904Y-68989380D01*
X173347238Y-68322714D02*
X173347238Y-68989380D01*
X173347238Y-68417952D02*
X173394857Y-68370333D01*
X173490095Y-68322714D01*
X173632952Y-68322714D01*
X173728190Y-68370333D01*
X173775809Y-68465571D01*
X173775809Y-68989380D01*
X174680571Y-68989380D02*
X174680571Y-68465571D01*
X174632952Y-68370333D01*
X174537714Y-68322714D01*
X174347238Y-68322714D01*
X174252000Y-68370333D01*
X174680571Y-68941761D02*
X174585333Y-68989380D01*
X174347238Y-68989380D01*
X174252000Y-68941761D01*
X174204380Y-68846523D01*
X174204380Y-68751285D01*
X174252000Y-68656047D01*
X174347238Y-68608428D01*
X174585333Y-68608428D01*
X174680571Y-68560809D01*
X175299619Y-68989380D02*
X175204380Y-68941761D01*
X175156761Y-68846523D01*
X175156761Y-67989380D01*
X175823428Y-68989380D02*
X175728190Y-68941761D01*
X175680571Y-68894142D01*
X175632952Y-68798904D01*
X175632952Y-68513190D01*
X175680571Y-68417952D01*
X175728190Y-68370333D01*
X175823428Y-68322714D01*
X175966285Y-68322714D01*
X176061523Y-68370333D01*
X176109142Y-68417952D01*
X176156761Y-68513190D01*
X176156761Y-68798904D01*
X176109142Y-68894142D01*
X176061523Y-68941761D01*
X175966285Y-68989380D01*
X175823428Y-68989380D01*
X177013904Y-68322714D02*
X177013904Y-69132238D01*
X176966285Y-69227476D01*
X176918666Y-69275095D01*
X176823428Y-69322714D01*
X176680571Y-69322714D01*
X176585333Y-69275095D01*
X177013904Y-68941761D02*
X176918666Y-68989380D01*
X176728190Y-68989380D01*
X176632952Y-68941761D01*
X176585333Y-68894142D01*
X176537714Y-68798904D01*
X176537714Y-68513190D01*
X176585333Y-68417952D01*
X176632952Y-68370333D01*
X176728190Y-68322714D01*
X176918666Y-68322714D01*
X177013904Y-68370333D01*
X173942476Y-70599380D02*
X173847238Y-70551761D01*
X173799619Y-70504142D01*
X173752000Y-70408904D01*
X173752000Y-70123190D01*
X173799619Y-70027952D01*
X173847238Y-69980333D01*
X173942476Y-69932714D01*
X174085333Y-69932714D01*
X174180571Y-69980333D01*
X174228190Y-70027952D01*
X174275809Y-70123190D01*
X174275809Y-70408904D01*
X174228190Y-70504142D01*
X174180571Y-70551761D01*
X174085333Y-70599380D01*
X173942476Y-70599380D01*
X175132952Y-69932714D02*
X175132952Y-70599380D01*
X174704380Y-69932714D02*
X174704380Y-70456523D01*
X174752000Y-70551761D01*
X174847238Y-70599380D01*
X174990095Y-70599380D01*
X175085333Y-70551761D01*
X175132952Y-70504142D01*
X175466285Y-69932714D02*
X175847238Y-69932714D01*
X175609142Y-69599380D02*
X175609142Y-70456523D01*
X175656761Y-70551761D01*
X175752000Y-70599380D01*
X175847238Y-70599380D01*
X199390476Y-64698571D02*
X199723809Y-64698571D01*
X199866666Y-65222380D02*
X199390476Y-65222380D01*
X199390476Y-64222380D01*
X199866666Y-64222380D01*
X200200000Y-65222380D02*
X200723809Y-64555714D01*
X200200000Y-64555714D02*
X200723809Y-65222380D01*
X200961904Y-64555714D02*
X201342857Y-64555714D01*
X201104761Y-64222380D02*
X201104761Y-65079523D01*
X201152380Y-65174761D01*
X201247619Y-65222380D01*
X201342857Y-65222380D01*
X201676190Y-65222380D02*
X201676190Y-64555714D01*
X201676190Y-64746190D02*
X201723809Y-64650952D01*
X201771428Y-64603333D01*
X201866666Y-64555714D01*
X201961904Y-64555714D01*
X202723809Y-65222380D02*
X202723809Y-64698571D01*
X202676190Y-64603333D01*
X202580952Y-64555714D01*
X202390476Y-64555714D01*
X202295238Y-64603333D01*
X202723809Y-65174761D02*
X202628571Y-65222380D01*
X202390476Y-65222380D01*
X202295238Y-65174761D01*
X202247619Y-65079523D01*
X202247619Y-64984285D01*
X202295238Y-64889047D01*
X202390476Y-64841428D01*
X202628571Y-64841428D01*
X202723809Y-64793809D01*
X204438095Y-65222380D02*
X203961904Y-65222380D01*
X203961904Y-64222380D01*
X204771428Y-64698571D02*
X205104761Y-64698571D01*
X205247619Y-65222380D02*
X204771428Y-65222380D01*
X204771428Y-64222380D01*
X205247619Y-64222380D01*
X205676190Y-65222380D02*
X205676190Y-64222380D01*
X205914285Y-64222380D01*
X206057142Y-64270000D01*
X206152380Y-64365238D01*
X206200000Y-64460476D01*
X206247619Y-64650952D01*
X206247619Y-64793809D01*
X206200000Y-64984285D01*
X206152380Y-65079523D01*
X206057142Y-65174761D01*
X205914285Y-65222380D01*
X205676190Y-65222380D01*
X206628571Y-65174761D02*
X206723809Y-65222380D01*
X206914285Y-65222380D01*
X207009523Y-65174761D01*
X207057142Y-65079523D01*
X207057142Y-65031904D01*
X207009523Y-64936666D01*
X206914285Y-64889047D01*
X206771428Y-64889047D01*
X206676190Y-64841428D01*
X206628571Y-64746190D01*
X206628571Y-64698571D01*
X206676190Y-64603333D01*
X206771428Y-64555714D01*
X206914285Y-64555714D01*
X207009523Y-64603333D01*
X83407857Y-71572380D02*
X83407857Y-70572380D01*
X83645952Y-70572380D01*
X83788809Y-70620000D01*
X83884047Y-70715238D01*
X83931666Y-70810476D01*
X83979285Y-71000952D01*
X83979285Y-71143809D01*
X83931666Y-71334285D01*
X83884047Y-71429523D01*
X83788809Y-71524761D01*
X83645952Y-71572380D01*
X83407857Y-71572380D01*
X84407857Y-71572380D02*
X84407857Y-70905714D01*
X84407857Y-70572380D02*
X84360238Y-70620000D01*
X84407857Y-70667619D01*
X84455476Y-70620000D01*
X84407857Y-70572380D01*
X84407857Y-70667619D01*
X85312619Y-70905714D02*
X85312619Y-71715238D01*
X85265000Y-71810476D01*
X85217380Y-71858095D01*
X85122142Y-71905714D01*
X84979285Y-71905714D01*
X84884047Y-71858095D01*
X85312619Y-71524761D02*
X85217380Y-71572380D01*
X85026904Y-71572380D01*
X84931666Y-71524761D01*
X84884047Y-71477142D01*
X84836428Y-71381904D01*
X84836428Y-71096190D01*
X84884047Y-71000952D01*
X84931666Y-70953333D01*
X85026904Y-70905714D01*
X85217380Y-70905714D01*
X85312619Y-70953333D01*
X85788809Y-71572380D02*
X85788809Y-70905714D01*
X85788809Y-70572380D02*
X85741190Y-70620000D01*
X85788809Y-70667619D01*
X85836428Y-70620000D01*
X85788809Y-70572380D01*
X85788809Y-70667619D01*
X86122142Y-70905714D02*
X86503095Y-70905714D01*
X86265000Y-70572380D02*
X86265000Y-71429523D01*
X86312619Y-71524761D01*
X86407857Y-71572380D01*
X86503095Y-71572380D01*
X87265000Y-71572380D02*
X87265000Y-71048571D01*
X87217380Y-70953333D01*
X87122142Y-70905714D01*
X86931666Y-70905714D01*
X86836428Y-70953333D01*
X87265000Y-71524761D02*
X87169761Y-71572380D01*
X86931666Y-71572380D01*
X86836428Y-71524761D01*
X86788809Y-71429523D01*
X86788809Y-71334285D01*
X86836428Y-71239047D01*
X86931666Y-71191428D01*
X87169761Y-71191428D01*
X87265000Y-71143809D01*
X87884047Y-71572380D02*
X87788809Y-71524761D01*
X87741190Y-71429523D01*
X87741190Y-70572380D01*
X89026904Y-71572380D02*
X89026904Y-70905714D01*
X89026904Y-70572380D02*
X88979285Y-70620000D01*
X89026904Y-70667619D01*
X89074523Y-70620000D01*
X89026904Y-70572380D01*
X89026904Y-70667619D01*
X89503095Y-70905714D02*
X89503095Y-71572380D01*
X89503095Y-71000952D02*
X89550714Y-70953333D01*
X89645952Y-70905714D01*
X89788809Y-70905714D01*
X89884047Y-70953333D01*
X89931666Y-71048571D01*
X89931666Y-71572380D01*
X90407857Y-70905714D02*
X90407857Y-71905714D01*
X90407857Y-70953333D02*
X90503095Y-70905714D01*
X90693571Y-70905714D01*
X90788809Y-70953333D01*
X90836428Y-71000952D01*
X90884047Y-71096190D01*
X90884047Y-71381904D01*
X90836428Y-71477142D01*
X90788809Y-71524761D01*
X90693571Y-71572380D01*
X90503095Y-71572380D01*
X90407857Y-71524761D01*
X91741190Y-70905714D02*
X91741190Y-71572380D01*
X91312619Y-70905714D02*
X91312619Y-71429523D01*
X91360238Y-71524761D01*
X91455476Y-71572380D01*
X91598333Y-71572380D01*
X91693571Y-71524761D01*
X91741190Y-71477142D01*
X92074523Y-70905714D02*
X92455476Y-70905714D01*
X92217380Y-70572380D02*
X92217380Y-71429523D01*
X92265000Y-71524761D01*
X92360238Y-71572380D01*
X92455476Y-71572380D01*
X92741190Y-71524761D02*
X92836428Y-71572380D01*
X93026904Y-71572380D01*
X93122142Y-71524761D01*
X93169761Y-71429523D01*
X93169761Y-71381904D01*
X93122142Y-71286666D01*
X93026904Y-71239047D01*
X92884047Y-71239047D01*
X92788809Y-71191428D01*
X92741190Y-71096190D01*
X92741190Y-71048571D01*
X92788809Y-70953333D01*
X92884047Y-70905714D01*
X93026904Y-70905714D01*
X93122142Y-70953333D01*
X146153809Y-71286666D02*
X146630000Y-71286666D01*
X146058571Y-71572380D02*
X146391904Y-70572380D01*
X146725238Y-71572380D01*
X147058571Y-70905714D02*
X147058571Y-71572380D01*
X147058571Y-71000952D02*
X147106190Y-70953333D01*
X147201428Y-70905714D01*
X147344285Y-70905714D01*
X147439523Y-70953333D01*
X147487142Y-71048571D01*
X147487142Y-71572380D01*
X148391904Y-71572380D02*
X148391904Y-71048571D01*
X148344285Y-70953333D01*
X148249047Y-70905714D01*
X148058571Y-70905714D01*
X147963333Y-70953333D01*
X148391904Y-71524761D02*
X148296666Y-71572380D01*
X148058571Y-71572380D01*
X147963333Y-71524761D01*
X147915714Y-71429523D01*
X147915714Y-71334285D01*
X147963333Y-71239047D01*
X148058571Y-71191428D01*
X148296666Y-71191428D01*
X148391904Y-71143809D01*
X149010952Y-71572380D02*
X148915714Y-71524761D01*
X148868095Y-71429523D01*
X148868095Y-70572380D01*
X149534761Y-71572380D02*
X149439523Y-71524761D01*
X149391904Y-71477142D01*
X149344285Y-71381904D01*
X149344285Y-71096190D01*
X149391904Y-71000952D01*
X149439523Y-70953333D01*
X149534761Y-70905714D01*
X149677619Y-70905714D01*
X149772857Y-70953333D01*
X149820476Y-71000952D01*
X149868095Y-71096190D01*
X149868095Y-71381904D01*
X149820476Y-71477142D01*
X149772857Y-71524761D01*
X149677619Y-71572380D01*
X149534761Y-71572380D01*
X150725238Y-70905714D02*
X150725238Y-71715238D01*
X150677619Y-71810476D01*
X150630000Y-71858095D01*
X150534761Y-71905714D01*
X150391904Y-71905714D01*
X150296666Y-71858095D01*
X150725238Y-71524761D02*
X150630000Y-71572380D01*
X150439523Y-71572380D01*
X150344285Y-71524761D01*
X150296666Y-71477142D01*
X150249047Y-71381904D01*
X150249047Y-71096190D01*
X150296666Y-71000952D01*
X150344285Y-70953333D01*
X150439523Y-70905714D01*
X150630000Y-70905714D01*
X150725238Y-70953333D01*
X151963333Y-71572380D02*
X151963333Y-70905714D01*
X151963333Y-70572380D02*
X151915714Y-70620000D01*
X151963333Y-70667619D01*
X152010952Y-70620000D01*
X151963333Y-70572380D01*
X151963333Y-70667619D01*
X152439523Y-70905714D02*
X152439523Y-71572380D01*
X152439523Y-71000952D02*
X152487142Y-70953333D01*
X152582380Y-70905714D01*
X152725238Y-70905714D01*
X152820476Y-70953333D01*
X152868095Y-71048571D01*
X152868095Y-71572380D01*
X153344285Y-70905714D02*
X153344285Y-71905714D01*
X153344285Y-70953333D02*
X153439523Y-70905714D01*
X153630000Y-70905714D01*
X153725238Y-70953333D01*
X153772857Y-71000952D01*
X153820476Y-71096190D01*
X153820476Y-71381904D01*
X153772857Y-71477142D01*
X153725238Y-71524761D01*
X153630000Y-71572380D01*
X153439523Y-71572380D01*
X153344285Y-71524761D01*
X154677619Y-70905714D02*
X154677619Y-71572380D01*
X154249047Y-70905714D02*
X154249047Y-71429523D01*
X154296666Y-71524761D01*
X154391904Y-71572380D01*
X154534761Y-71572380D01*
X154630000Y-71524761D01*
X154677619Y-71477142D01*
X155010952Y-70905714D02*
X155391904Y-70905714D01*
X155153809Y-70572380D02*
X155153809Y-71429523D01*
X155201428Y-71524761D01*
X155296666Y-71572380D01*
X155391904Y-71572380D01*
X155677619Y-71524761D02*
X155772857Y-71572380D01*
X155963333Y-71572380D01*
X156058571Y-71524761D01*
X156106190Y-71429523D01*
X156106190Y-71381904D01*
X156058571Y-71286666D01*
X155963333Y-71239047D01*
X155820476Y-71239047D01*
X155725238Y-71191428D01*
X155677619Y-71096190D01*
X155677619Y-71048571D01*
X155725238Y-70953333D01*
X155820476Y-70905714D01*
X155963333Y-70905714D01*
X156058571Y-70953333D01*
X240657142Y-73160000D02*
X240561904Y-73112380D01*
X240419047Y-73112380D01*
X240276190Y-73160000D01*
X240180952Y-73255238D01*
X240133333Y-73350476D01*
X240085714Y-73540952D01*
X240085714Y-73683809D01*
X240133333Y-73874285D01*
X240180952Y-73969523D01*
X240276190Y-74064761D01*
X240419047Y-74112380D01*
X240514285Y-74112380D01*
X240657142Y-74064761D01*
X240704761Y-74017142D01*
X240704761Y-73683809D01*
X240514285Y-73683809D01*
X241133333Y-73445714D02*
X241133333Y-74112380D01*
X241133333Y-73540952D02*
X241180952Y-73493333D01*
X241276190Y-73445714D01*
X241419047Y-73445714D01*
X241514285Y-73493333D01*
X241561904Y-73588571D01*
X241561904Y-74112380D01*
X242466666Y-74112380D02*
X242466666Y-73112380D01*
X242466666Y-74064761D02*
X242371428Y-74112380D01*
X242180952Y-74112380D01*
X242085714Y-74064761D01*
X242038095Y-74017142D01*
X241990476Y-73921904D01*
X241990476Y-73636190D01*
X242038095Y-73540952D01*
X242085714Y-73493333D01*
X242180952Y-73445714D01*
X242371428Y-73445714D01*
X242466666Y-73493333D01*
X118213809Y-71286666D02*
X118690000Y-71286666D01*
X118118571Y-71572380D02*
X118451904Y-70572380D01*
X118785238Y-71572380D01*
X119118571Y-70905714D02*
X119118571Y-71572380D01*
X119118571Y-71000952D02*
X119166190Y-70953333D01*
X119261428Y-70905714D01*
X119404285Y-70905714D01*
X119499523Y-70953333D01*
X119547142Y-71048571D01*
X119547142Y-71572380D01*
X120451904Y-71572380D02*
X120451904Y-71048571D01*
X120404285Y-70953333D01*
X120309047Y-70905714D01*
X120118571Y-70905714D01*
X120023333Y-70953333D01*
X120451904Y-71524761D02*
X120356666Y-71572380D01*
X120118571Y-71572380D01*
X120023333Y-71524761D01*
X119975714Y-71429523D01*
X119975714Y-71334285D01*
X120023333Y-71239047D01*
X120118571Y-71191428D01*
X120356666Y-71191428D01*
X120451904Y-71143809D01*
X121070952Y-71572380D02*
X120975714Y-71524761D01*
X120928095Y-71429523D01*
X120928095Y-70572380D01*
X121594761Y-71572380D02*
X121499523Y-71524761D01*
X121451904Y-71477142D01*
X121404285Y-71381904D01*
X121404285Y-71096190D01*
X121451904Y-71000952D01*
X121499523Y-70953333D01*
X121594761Y-70905714D01*
X121737619Y-70905714D01*
X121832857Y-70953333D01*
X121880476Y-71000952D01*
X121928095Y-71096190D01*
X121928095Y-71381904D01*
X121880476Y-71477142D01*
X121832857Y-71524761D01*
X121737619Y-71572380D01*
X121594761Y-71572380D01*
X122785238Y-70905714D02*
X122785238Y-71715238D01*
X122737619Y-71810476D01*
X122690000Y-71858095D01*
X122594761Y-71905714D01*
X122451904Y-71905714D01*
X122356666Y-71858095D01*
X122785238Y-71524761D02*
X122690000Y-71572380D01*
X122499523Y-71572380D01*
X122404285Y-71524761D01*
X122356666Y-71477142D01*
X122309047Y-71381904D01*
X122309047Y-71096190D01*
X122356666Y-71000952D01*
X122404285Y-70953333D01*
X122499523Y-70905714D01*
X122690000Y-70905714D01*
X122785238Y-70953333D01*
X124023333Y-71572380D02*
X124023333Y-70905714D01*
X124023333Y-70572380D02*
X123975714Y-70620000D01*
X124023333Y-70667619D01*
X124070952Y-70620000D01*
X124023333Y-70572380D01*
X124023333Y-70667619D01*
X124499523Y-70905714D02*
X124499523Y-71572380D01*
X124499523Y-71000952D02*
X124547142Y-70953333D01*
X124642380Y-70905714D01*
X124785238Y-70905714D01*
X124880476Y-70953333D01*
X124928095Y-71048571D01*
X124928095Y-71572380D01*
X125404285Y-70905714D02*
X125404285Y-71905714D01*
X125404285Y-70953333D02*
X125499523Y-70905714D01*
X125690000Y-70905714D01*
X125785238Y-70953333D01*
X125832857Y-71000952D01*
X125880476Y-71096190D01*
X125880476Y-71381904D01*
X125832857Y-71477142D01*
X125785238Y-71524761D01*
X125690000Y-71572380D01*
X125499523Y-71572380D01*
X125404285Y-71524761D01*
X126737619Y-70905714D02*
X126737619Y-71572380D01*
X126309047Y-70905714D02*
X126309047Y-71429523D01*
X126356666Y-71524761D01*
X126451904Y-71572380D01*
X126594761Y-71572380D01*
X126690000Y-71524761D01*
X126737619Y-71477142D01*
X127070952Y-70905714D02*
X127451904Y-70905714D01*
X127213809Y-70572380D02*
X127213809Y-71429523D01*
X127261428Y-71524761D01*
X127356666Y-71572380D01*
X127451904Y-71572380D01*
X127737619Y-71524761D02*
X127832857Y-71572380D01*
X128023333Y-71572380D01*
X128118571Y-71524761D01*
X128166190Y-71429523D01*
X128166190Y-71381904D01*
X128118571Y-71286666D01*
X128023333Y-71239047D01*
X127880476Y-71239047D01*
X127785238Y-71191428D01*
X127737619Y-71096190D01*
X127737619Y-71048571D01*
X127785238Y-70953333D01*
X127880476Y-70905714D01*
X128023333Y-70905714D01*
X128118571Y-70953333D01*
X141660952Y-68746666D02*
X142137142Y-68746666D01*
X141565714Y-69032380D02*
X141899047Y-68032380D01*
X142232380Y-69032380D01*
X142565714Y-69032380D02*
X142565714Y-68032380D01*
X142803809Y-68032380D01*
X142946666Y-68080000D01*
X143041904Y-68175238D01*
X143089523Y-68270476D01*
X143137142Y-68460952D01*
X143137142Y-68603809D01*
X143089523Y-68794285D01*
X143041904Y-68889523D01*
X142946666Y-68984761D01*
X142803809Y-69032380D01*
X142565714Y-69032380D01*
X143518095Y-68984761D02*
X143660952Y-69032380D01*
X143899047Y-69032380D01*
X143994285Y-68984761D01*
X144041904Y-68937142D01*
X144089523Y-68841904D01*
X144089523Y-68746666D01*
X144041904Y-68651428D01*
X143994285Y-68603809D01*
X143899047Y-68556190D01*
X143708571Y-68508571D01*
X143613333Y-68460952D01*
X143565714Y-68413333D01*
X143518095Y-68318095D01*
X143518095Y-68222857D01*
X143565714Y-68127619D01*
X143613333Y-68080000D01*
X143708571Y-68032380D01*
X143946666Y-68032380D01*
X144089523Y-68080000D01*
X144422857Y-68032380D02*
X145089523Y-68032380D01*
X144660952Y-69032380D01*
X145613333Y-68460952D02*
X145518095Y-68413333D01*
X145470476Y-68365714D01*
X145422857Y-68270476D01*
X145422857Y-68222857D01*
X145470476Y-68127619D01*
X145518095Y-68080000D01*
X145613333Y-68032380D01*
X145803809Y-68032380D01*
X145899047Y-68080000D01*
X145946666Y-68127619D01*
X145994285Y-68222857D01*
X145994285Y-68270476D01*
X145946666Y-68365714D01*
X145899047Y-68413333D01*
X145803809Y-68460952D01*
X145613333Y-68460952D01*
X145518095Y-68508571D01*
X145470476Y-68556190D01*
X145422857Y-68651428D01*
X145422857Y-68841904D01*
X145470476Y-68937142D01*
X145518095Y-68984761D01*
X145613333Y-69032380D01*
X145803809Y-69032380D01*
X145899047Y-68984761D01*
X145946666Y-68937142D01*
X145994285Y-68841904D01*
X145994285Y-68651428D01*
X145946666Y-68556190D01*
X145899047Y-68508571D01*
X145803809Y-68460952D01*
X146375238Y-68127619D02*
X146422857Y-68080000D01*
X146518095Y-68032380D01*
X146756190Y-68032380D01*
X146851428Y-68080000D01*
X146899047Y-68127619D01*
X146946666Y-68222857D01*
X146946666Y-68318095D01*
X146899047Y-68460952D01*
X146327619Y-69032380D01*
X146946666Y-69032380D01*
X147518095Y-68460952D02*
X147422857Y-68413333D01*
X147375238Y-68365714D01*
X147327619Y-68270476D01*
X147327619Y-68222857D01*
X147375238Y-68127619D01*
X147422857Y-68080000D01*
X147518095Y-68032380D01*
X147708571Y-68032380D01*
X147803809Y-68080000D01*
X147851428Y-68127619D01*
X147899047Y-68222857D01*
X147899047Y-68270476D01*
X147851428Y-68365714D01*
X147803809Y-68413333D01*
X147708571Y-68460952D01*
X147518095Y-68460952D01*
X147422857Y-68508571D01*
X147375238Y-68556190D01*
X147327619Y-68651428D01*
X147327619Y-68841904D01*
X147375238Y-68937142D01*
X147422857Y-68984761D01*
X147518095Y-69032380D01*
X147708571Y-69032380D01*
X147803809Y-68984761D01*
X147851428Y-68937142D01*
X147899047Y-68841904D01*
X147899047Y-68651428D01*
X147851428Y-68556190D01*
X147803809Y-68508571D01*
X147708571Y-68460952D01*
X30892857Y-66111428D02*
X31654761Y-66111428D01*
X31273809Y-66492380D02*
X31273809Y-65730476D01*
X32607142Y-65492380D02*
X32130952Y-65492380D01*
X32083333Y-65968571D01*
X32130952Y-65920952D01*
X32226190Y-65873333D01*
X32464285Y-65873333D01*
X32559523Y-65920952D01*
X32607142Y-65968571D01*
X32654761Y-66063809D01*
X32654761Y-66301904D01*
X32607142Y-66397142D01*
X32559523Y-66444761D01*
X32464285Y-66492380D01*
X32226190Y-66492380D01*
X32130952Y-66444761D01*
X32083333Y-66397142D01*
X31107142Y-73160000D02*
X31011904Y-73112380D01*
X30869047Y-73112380D01*
X30726190Y-73160000D01*
X30630952Y-73255238D01*
X30583333Y-73350476D01*
X30535714Y-73540952D01*
X30535714Y-73683809D01*
X30583333Y-73874285D01*
X30630952Y-73969523D01*
X30726190Y-74064761D01*
X30869047Y-74112380D01*
X30964285Y-74112380D01*
X31107142Y-74064761D01*
X31154761Y-74017142D01*
X31154761Y-73683809D01*
X30964285Y-73683809D01*
X31583333Y-73445714D02*
X31583333Y-74112380D01*
X31583333Y-73540952D02*
X31630952Y-73493333D01*
X31726190Y-73445714D01*
X31869047Y-73445714D01*
X31964285Y-73493333D01*
X32011904Y-73588571D01*
X32011904Y-74112380D01*
X32916666Y-74112380D02*
X32916666Y-73112380D01*
X32916666Y-74064761D02*
X32821428Y-74112380D01*
X32630952Y-74112380D01*
X32535714Y-74064761D01*
X32488095Y-74017142D01*
X32440476Y-73921904D01*
X32440476Y-73636190D01*
X32488095Y-73540952D01*
X32535714Y-73493333D01*
X32630952Y-73445714D01*
X32821428Y-73445714D01*
X32916666Y-73493333D01*
X116260952Y-68746666D02*
X116737142Y-68746666D01*
X116165714Y-69032380D02*
X116499047Y-68032380D01*
X116832380Y-69032380D01*
X117165714Y-69032380D02*
X117165714Y-68032380D01*
X117403809Y-68032380D01*
X117546666Y-68080000D01*
X117641904Y-68175238D01*
X117689523Y-68270476D01*
X117737142Y-68460952D01*
X117737142Y-68603809D01*
X117689523Y-68794285D01*
X117641904Y-68889523D01*
X117546666Y-68984761D01*
X117403809Y-69032380D01*
X117165714Y-69032380D01*
X118118095Y-68984761D02*
X118260952Y-69032380D01*
X118499047Y-69032380D01*
X118594285Y-68984761D01*
X118641904Y-68937142D01*
X118689523Y-68841904D01*
X118689523Y-68746666D01*
X118641904Y-68651428D01*
X118594285Y-68603809D01*
X118499047Y-68556190D01*
X118308571Y-68508571D01*
X118213333Y-68460952D01*
X118165714Y-68413333D01*
X118118095Y-68318095D01*
X118118095Y-68222857D01*
X118165714Y-68127619D01*
X118213333Y-68080000D01*
X118308571Y-68032380D01*
X118546666Y-68032380D01*
X118689523Y-68080000D01*
X119022857Y-68032380D02*
X119689523Y-68032380D01*
X119260952Y-69032380D01*
X120213333Y-68460952D02*
X120118095Y-68413333D01*
X120070476Y-68365714D01*
X120022857Y-68270476D01*
X120022857Y-68222857D01*
X120070476Y-68127619D01*
X120118095Y-68080000D01*
X120213333Y-68032380D01*
X120403809Y-68032380D01*
X120499047Y-68080000D01*
X120546666Y-68127619D01*
X120594285Y-68222857D01*
X120594285Y-68270476D01*
X120546666Y-68365714D01*
X120499047Y-68413333D01*
X120403809Y-68460952D01*
X120213333Y-68460952D01*
X120118095Y-68508571D01*
X120070476Y-68556190D01*
X120022857Y-68651428D01*
X120022857Y-68841904D01*
X120070476Y-68937142D01*
X120118095Y-68984761D01*
X120213333Y-69032380D01*
X120403809Y-69032380D01*
X120499047Y-68984761D01*
X120546666Y-68937142D01*
X120594285Y-68841904D01*
X120594285Y-68651428D01*
X120546666Y-68556190D01*
X120499047Y-68508571D01*
X120403809Y-68460952D01*
X120975238Y-68127619D02*
X121022857Y-68080000D01*
X121118095Y-68032380D01*
X121356190Y-68032380D01*
X121451428Y-68080000D01*
X121499047Y-68127619D01*
X121546666Y-68222857D01*
X121546666Y-68318095D01*
X121499047Y-68460952D01*
X120927619Y-69032380D01*
X121546666Y-69032380D01*
X122118095Y-68460952D02*
X122022857Y-68413333D01*
X121975238Y-68365714D01*
X121927619Y-68270476D01*
X121927619Y-68222857D01*
X121975238Y-68127619D01*
X122022857Y-68080000D01*
X122118095Y-68032380D01*
X122308571Y-68032380D01*
X122403809Y-68080000D01*
X122451428Y-68127619D01*
X122499047Y-68222857D01*
X122499047Y-68270476D01*
X122451428Y-68365714D01*
X122403809Y-68413333D01*
X122308571Y-68460952D01*
X122118095Y-68460952D01*
X122022857Y-68508571D01*
X121975238Y-68556190D01*
X121927619Y-68651428D01*
X121927619Y-68841904D01*
X121975238Y-68937142D01*
X122022857Y-68984761D01*
X122118095Y-69032380D01*
X122308571Y-69032380D01*
X122403809Y-68984761D01*
X122451428Y-68937142D01*
X122499047Y-68841904D01*
X122499047Y-68651428D01*
X122451428Y-68556190D01*
X122403809Y-68508571D01*
X122308571Y-68460952D01*
X127659047Y-31535714D02*
X127659047Y-32535714D01*
X127659047Y-31583333D02*
X127754285Y-31535714D01*
X127944761Y-31535714D01*
X128040000Y-31583333D01*
X128087619Y-31630952D01*
X128135238Y-31726190D01*
X128135238Y-32011904D01*
X128087619Y-32107142D01*
X128040000Y-32154761D01*
X127944761Y-32202380D01*
X127754285Y-32202380D01*
X127659047Y-32154761D01*
X128992380Y-32202380D02*
X128992380Y-31678571D01*
X128944761Y-31583333D01*
X128849523Y-31535714D01*
X128659047Y-31535714D01*
X128563809Y-31583333D01*
X128992380Y-32154761D02*
X128897142Y-32202380D01*
X128659047Y-32202380D01*
X128563809Y-32154761D01*
X128516190Y-32059523D01*
X128516190Y-31964285D01*
X128563809Y-31869047D01*
X128659047Y-31821428D01*
X128897142Y-31821428D01*
X128992380Y-31773809D01*
X129468571Y-32202380D02*
X129468571Y-31535714D01*
X129468571Y-31726190D02*
X129516190Y-31630952D01*
X129563809Y-31583333D01*
X129659047Y-31535714D01*
X129754285Y-31535714D01*
X130087619Y-32202380D02*
X130087619Y-31535714D01*
X130087619Y-31202380D02*
X130040000Y-31250000D01*
X130087619Y-31297619D01*
X130135238Y-31250000D01*
X130087619Y-31202380D01*
X130087619Y-31297619D01*
X130420952Y-31535714D02*
X130801904Y-31535714D01*
X130563809Y-31202380D02*
X130563809Y-32059523D01*
X130611428Y-32154761D01*
X130706666Y-32202380D01*
X130801904Y-32202380D01*
X131040000Y-31535714D02*
X131278095Y-32202380D01*
X131516190Y-31535714D02*
X131278095Y-32202380D01*
X131182857Y-32440476D01*
X131135238Y-32488095D01*
X131040000Y-32535714D01*
X173701295Y-71394628D02*
X174463200Y-71394628D01*
X174082247Y-71775580D02*
X174082247Y-71013676D01*
X176463200Y-71394628D02*
X177225104Y-71394628D01*
X240109523Y-68984761D02*
X240252380Y-69032380D01*
X240490476Y-69032380D01*
X240585714Y-68984761D01*
X240633333Y-68937142D01*
X240680952Y-68841904D01*
X240680952Y-68746666D01*
X240633333Y-68651428D01*
X240585714Y-68603809D01*
X240490476Y-68556190D01*
X240300000Y-68508571D01*
X240204761Y-68460952D01*
X240157142Y-68413333D01*
X240109523Y-68318095D01*
X240109523Y-68222857D01*
X240157142Y-68127619D01*
X240204761Y-68080000D01*
X240300000Y-68032380D01*
X240538095Y-68032380D01*
X240680952Y-68080000D01*
X241680952Y-68937142D02*
X241633333Y-68984761D01*
X241490476Y-69032380D01*
X241395238Y-69032380D01*
X241252380Y-68984761D01*
X241157142Y-68889523D01*
X241109523Y-68794285D01*
X241061904Y-68603809D01*
X241061904Y-68460952D01*
X241109523Y-68270476D01*
X241157142Y-68175238D01*
X241252380Y-68080000D01*
X241395238Y-68032380D01*
X241490476Y-68032380D01*
X241633333Y-68080000D01*
X241680952Y-68127619D01*
X242585714Y-69032380D02*
X242109523Y-69032380D01*
X242109523Y-68032380D01*
X66532380Y-73993333D02*
X67246666Y-73993333D01*
X67389523Y-74040952D01*
X67484761Y-74136190D01*
X67532380Y-74279047D01*
X67532380Y-74374285D01*
X66865714Y-73088571D02*
X67532380Y-73088571D01*
X66484761Y-73326666D02*
X67199047Y-73564761D01*
X67199047Y-72945714D01*
X140632380Y-73993333D02*
X141346666Y-73993333D01*
X141489523Y-74040952D01*
X141584761Y-74136190D01*
X141632380Y-74279047D01*
X141632380Y-74374285D01*
X140632380Y-73612380D02*
X140632380Y-72945714D01*
X141632380Y-73374285D01*
X112692380Y-73993333D02*
X113406666Y-73993333D01*
X113549523Y-74040952D01*
X113644761Y-74136190D01*
X113692380Y-74279047D01*
X113692380Y-74374285D01*
X112692380Y-73088571D02*
X112692380Y-73279047D01*
X112740000Y-73374285D01*
X112787619Y-73421904D01*
X112930476Y-73517142D01*
X113120952Y-73564761D01*
X113501904Y-73564761D01*
X113597142Y-73517142D01*
X113644761Y-73469523D01*
X113692380Y-73374285D01*
X113692380Y-73183809D01*
X113644761Y-73088571D01*
X113597142Y-73040952D01*
X113501904Y-72993333D01*
X113263809Y-72993333D01*
X113168571Y-73040952D01*
X113120952Y-73088571D01*
X113073333Y-73183809D01*
X113073333Y-73374285D01*
X113120952Y-73469523D01*
X113168571Y-73517142D01*
X113263809Y-73564761D01*
X37338095Y-75127380D02*
X37338095Y-74127380D01*
X37338095Y-74603571D02*
X37909523Y-74603571D01*
X37909523Y-75127380D02*
X37909523Y-74127380D01*
X38338095Y-74222619D02*
X38385714Y-74175000D01*
X38480952Y-74127380D01*
X38719047Y-74127380D01*
X38814285Y-74175000D01*
X38861904Y-74222619D01*
X38909523Y-74317857D01*
X38909523Y-74413095D01*
X38861904Y-74555952D01*
X38290476Y-75127380D01*
X38909523Y-75127380D01*
X234188095Y-75127380D02*
X234188095Y-74127380D01*
X234188095Y-74603571D02*
X234759523Y-74603571D01*
X234759523Y-75127380D02*
X234759523Y-74127380D01*
X235759523Y-75127380D02*
X235188095Y-75127380D01*
X235473809Y-75127380D02*
X235473809Y-74127380D01*
X235378571Y-74270238D01*
X235283333Y-74365476D01*
X235188095Y-74413095D01*
X139959142Y-32404666D02*
X140006761Y-32452285D01*
X140054380Y-32595142D01*
X140054380Y-32690380D01*
X140006761Y-32833238D01*
X139911523Y-32928476D01*
X139816285Y-32976095D01*
X139625809Y-33023714D01*
X139482952Y-33023714D01*
X139292476Y-32976095D01*
X139197238Y-32928476D01*
X139102000Y-32833238D01*
X139054380Y-32690380D01*
X139054380Y-32595142D01*
X139102000Y-32452285D01*
X139149619Y-32404666D01*
X139149619Y-32023714D02*
X139102000Y-31976095D01*
X139054380Y-31880857D01*
X139054380Y-31642761D01*
X139102000Y-31547523D01*
X139149619Y-31499904D01*
X139244857Y-31452285D01*
X139340095Y-31452285D01*
X139482952Y-31499904D01*
X140054380Y-32071333D01*
X140054380Y-31452285D01*
X63095142Y-41060666D02*
X63142761Y-41108285D01*
X63190380Y-41251142D01*
X63190380Y-41346380D01*
X63142761Y-41489238D01*
X63047523Y-41584476D01*
X62952285Y-41632095D01*
X62761809Y-41679714D01*
X62618952Y-41679714D01*
X62428476Y-41632095D01*
X62333238Y-41584476D01*
X62238000Y-41489238D01*
X62190380Y-41346380D01*
X62190380Y-41251142D01*
X62238000Y-41108285D01*
X62285619Y-41060666D01*
X62190380Y-40727333D02*
X62190380Y-40108285D01*
X62571333Y-40441619D01*
X62571333Y-40298761D01*
X62618952Y-40203523D01*
X62666571Y-40155904D01*
X62761809Y-40108285D01*
X62999904Y-40108285D01*
X63095142Y-40155904D01*
X63142761Y-40203523D01*
X63190380Y-40298761D01*
X63190380Y-40584476D01*
X63142761Y-40679714D01*
X63095142Y-40727333D01*
X150119142Y-37758666D02*
X150166761Y-37806285D01*
X150214380Y-37949142D01*
X150214380Y-38044380D01*
X150166761Y-38187238D01*
X150071523Y-38282476D01*
X149976285Y-38330095D01*
X149785809Y-38377714D01*
X149642952Y-38377714D01*
X149452476Y-38330095D01*
X149357238Y-38282476D01*
X149262000Y-38187238D01*
X149214380Y-38044380D01*
X149214380Y-37949142D01*
X149262000Y-37806285D01*
X149309619Y-37758666D01*
X149214380Y-37425333D02*
X149214380Y-36758666D01*
X150214380Y-37187238D01*
X185218342Y-38158657D02*
X185265961Y-38206276D01*
X185313580Y-38349133D01*
X185313580Y-38444371D01*
X185265961Y-38587228D01*
X185170723Y-38682466D01*
X185075485Y-38730085D01*
X184885009Y-38777704D01*
X184742152Y-38777704D01*
X184551676Y-38730085D01*
X184456438Y-38682466D01*
X184361200Y-38587228D01*
X184313580Y-38444371D01*
X184313580Y-38349133D01*
X184361200Y-38206276D01*
X184408819Y-38158657D01*
X185313580Y-37206276D02*
X185313580Y-37777704D01*
X185313580Y-37491990D02*
X184313580Y-37491990D01*
X184456438Y-37587228D01*
X184551676Y-37682466D01*
X184599295Y-37777704D01*
X184313580Y-36587228D02*
X184313580Y-36491990D01*
X184361200Y-36396752D01*
X184408819Y-36349133D01*
X184504057Y-36301514D01*
X184694533Y-36253895D01*
X184932628Y-36253895D01*
X185123104Y-36301514D01*
X185218342Y-36349133D01*
X185265961Y-36396752D01*
X185313580Y-36491990D01*
X185313580Y-36587228D01*
X185265961Y-36682466D01*
X185218342Y-36730085D01*
X185123104Y-36777704D01*
X184932628Y-36825323D01*
X184694533Y-36825323D01*
X184504057Y-36777704D01*
X184408819Y-36730085D01*
X184361200Y-36682466D01*
X184313580Y-36587228D01*
X27455904Y-29154380D02*
X27455904Y-28154380D01*
X27694000Y-28154380D01*
X27836857Y-28202000D01*
X27932095Y-28297238D01*
X27979714Y-28392476D01*
X28027333Y-28582952D01*
X28027333Y-28725809D01*
X27979714Y-28916285D01*
X27932095Y-29011523D01*
X27836857Y-29106761D01*
X27694000Y-29154380D01*
X27455904Y-29154380D01*
X28979714Y-29154380D02*
X28408285Y-29154380D01*
X28694000Y-29154380D02*
X28694000Y-28154380D01*
X28598761Y-28297238D01*
X28503523Y-28392476D01*
X28408285Y-28440095D01*
X40155904Y-29154380D02*
X40155904Y-28154380D01*
X40394000Y-28154380D01*
X40536857Y-28202000D01*
X40632095Y-28297238D01*
X40679714Y-28392476D01*
X40727333Y-28582952D01*
X40727333Y-28725809D01*
X40679714Y-28916285D01*
X40632095Y-29011523D01*
X40536857Y-29106761D01*
X40394000Y-29154380D01*
X40155904Y-29154380D01*
X41108285Y-28249619D02*
X41155904Y-28202000D01*
X41251142Y-28154380D01*
X41489238Y-28154380D01*
X41584476Y-28202000D01*
X41632095Y-28249619D01*
X41679714Y-28344857D01*
X41679714Y-28440095D01*
X41632095Y-28582952D01*
X41060666Y-29154380D01*
X41679714Y-29154380D01*
X52855904Y-29154380D02*
X52855904Y-28154380D01*
X53094000Y-28154380D01*
X53236857Y-28202000D01*
X53332095Y-28297238D01*
X53379714Y-28392476D01*
X53427333Y-28582952D01*
X53427333Y-28725809D01*
X53379714Y-28916285D01*
X53332095Y-29011523D01*
X53236857Y-29106761D01*
X53094000Y-29154380D01*
X52855904Y-29154380D01*
X53760666Y-28154380D02*
X54379714Y-28154380D01*
X54046380Y-28535333D01*
X54189238Y-28535333D01*
X54284476Y-28582952D01*
X54332095Y-28630571D01*
X54379714Y-28725809D01*
X54379714Y-28963904D01*
X54332095Y-29059142D01*
X54284476Y-29106761D01*
X54189238Y-29154380D01*
X53903523Y-29154380D01*
X53808285Y-29106761D01*
X53760666Y-29059142D01*
X65555904Y-29154380D02*
X65555904Y-28154380D01*
X65794000Y-28154380D01*
X65936857Y-28202000D01*
X66032095Y-28297238D01*
X66079714Y-28392476D01*
X66127333Y-28582952D01*
X66127333Y-28725809D01*
X66079714Y-28916285D01*
X66032095Y-29011523D01*
X65936857Y-29106761D01*
X65794000Y-29154380D01*
X65555904Y-29154380D01*
X66984476Y-28487714D02*
X66984476Y-29154380D01*
X66746380Y-28106761D02*
X66508285Y-28821047D01*
X67127333Y-28821047D01*
X78255904Y-29154380D02*
X78255904Y-28154380D01*
X78494000Y-28154380D01*
X78636857Y-28202000D01*
X78732095Y-28297238D01*
X78779714Y-28392476D01*
X78827333Y-28582952D01*
X78827333Y-28725809D01*
X78779714Y-28916285D01*
X78732095Y-29011523D01*
X78636857Y-29106761D01*
X78494000Y-29154380D01*
X78255904Y-29154380D01*
X79732095Y-28154380D02*
X79255904Y-28154380D01*
X79208285Y-28630571D01*
X79255904Y-28582952D01*
X79351142Y-28535333D01*
X79589238Y-28535333D01*
X79684476Y-28582952D01*
X79732095Y-28630571D01*
X79779714Y-28725809D01*
X79779714Y-28963904D01*
X79732095Y-29059142D01*
X79684476Y-29106761D01*
X79589238Y-29154380D01*
X79351142Y-29154380D01*
X79255904Y-29106761D01*
X79208285Y-29059142D01*
X90955904Y-29154380D02*
X90955904Y-28154380D01*
X91194000Y-28154380D01*
X91336857Y-28202000D01*
X91432095Y-28297238D01*
X91479714Y-28392476D01*
X91527333Y-28582952D01*
X91527333Y-28725809D01*
X91479714Y-28916285D01*
X91432095Y-29011523D01*
X91336857Y-29106761D01*
X91194000Y-29154380D01*
X90955904Y-29154380D01*
X92384476Y-28154380D02*
X92194000Y-28154380D01*
X92098761Y-28202000D01*
X92051142Y-28249619D01*
X91955904Y-28392476D01*
X91908285Y-28582952D01*
X91908285Y-28963904D01*
X91955904Y-29059142D01*
X92003523Y-29106761D01*
X92098761Y-29154380D01*
X92289238Y-29154380D01*
X92384476Y-29106761D01*
X92432095Y-29059142D01*
X92479714Y-28963904D01*
X92479714Y-28725809D01*
X92432095Y-28630571D01*
X92384476Y-28582952D01*
X92289238Y-28535333D01*
X92098761Y-28535333D01*
X92003523Y-28582952D01*
X91955904Y-28630571D01*
X91908285Y-28725809D01*
X103655904Y-29154380D02*
X103655904Y-28154380D01*
X103894000Y-28154380D01*
X104036857Y-28202000D01*
X104132095Y-28297238D01*
X104179714Y-28392476D01*
X104227333Y-28582952D01*
X104227333Y-28725809D01*
X104179714Y-28916285D01*
X104132095Y-29011523D01*
X104036857Y-29106761D01*
X103894000Y-29154380D01*
X103655904Y-29154380D01*
X104560666Y-28154380D02*
X105227333Y-28154380D01*
X104798761Y-29154380D01*
X153952778Y-29154380D02*
X153952778Y-28154380D01*
X154190873Y-28154380D01*
X154333730Y-28202000D01*
X154428968Y-28297238D01*
X154476587Y-28392476D01*
X154524206Y-28582952D01*
X154524206Y-28725809D01*
X154476587Y-28916285D01*
X154428968Y-29011523D01*
X154333730Y-29106761D01*
X154190873Y-29154380D01*
X153952778Y-29154380D01*
X155476587Y-29154380D02*
X154905159Y-29154380D01*
X155190873Y-29154380D02*
X155190873Y-28154380D01*
X155095635Y-28297238D01*
X155000397Y-28392476D01*
X154905159Y-28440095D01*
X156095635Y-28154380D02*
X156190873Y-28154380D01*
X156286111Y-28202000D01*
X156333730Y-28249619D01*
X156381349Y-28344857D01*
X156428968Y-28535333D01*
X156428968Y-28773428D01*
X156381349Y-28963904D01*
X156333730Y-29059142D01*
X156286111Y-29106761D01*
X156190873Y-29154380D01*
X156095635Y-29154380D01*
X156000397Y-29106761D01*
X155952778Y-29059142D01*
X155905159Y-28963904D01*
X155857540Y-28773428D01*
X155857540Y-28535333D01*
X155905159Y-28344857D01*
X155952778Y-28249619D01*
X156000397Y-28202000D01*
X156095635Y-28154380D01*
X166679714Y-29154380D02*
X166679714Y-28154380D01*
X166917809Y-28154380D01*
X167060666Y-28202000D01*
X167155904Y-28297238D01*
X167203523Y-28392476D01*
X167251142Y-28582952D01*
X167251142Y-28725809D01*
X167203523Y-28916285D01*
X167155904Y-29011523D01*
X167060666Y-29106761D01*
X166917809Y-29154380D01*
X166679714Y-29154380D01*
X168203523Y-29154380D02*
X167632095Y-29154380D01*
X167917809Y-29154380D02*
X167917809Y-28154380D01*
X167822571Y-28297238D01*
X167727333Y-28392476D01*
X167632095Y-28440095D01*
X169155904Y-29154380D02*
X168584476Y-29154380D01*
X168870190Y-29154380D02*
X168870190Y-28154380D01*
X168774952Y-28297238D01*
X168679714Y-28392476D01*
X168584476Y-28440095D01*
X179379714Y-29154380D02*
X179379714Y-28154380D01*
X179617809Y-28154380D01*
X179760666Y-28202000D01*
X179855904Y-28297238D01*
X179903523Y-28392476D01*
X179951142Y-28582952D01*
X179951142Y-28725809D01*
X179903523Y-28916285D01*
X179855904Y-29011523D01*
X179760666Y-29106761D01*
X179617809Y-29154380D01*
X179379714Y-29154380D01*
X180903523Y-29154380D02*
X180332095Y-29154380D01*
X180617809Y-29154380D02*
X180617809Y-28154380D01*
X180522571Y-28297238D01*
X180427333Y-28392476D01*
X180332095Y-28440095D01*
X181284476Y-28249619D02*
X181332095Y-28202000D01*
X181427333Y-28154380D01*
X181665428Y-28154380D01*
X181760666Y-28202000D01*
X181808285Y-28249619D01*
X181855904Y-28344857D01*
X181855904Y-28440095D01*
X181808285Y-28582952D01*
X181236857Y-29154380D01*
X181855904Y-29154380D01*
X204779714Y-29154380D02*
X204779714Y-28154380D01*
X205017809Y-28154380D01*
X205160666Y-28202000D01*
X205255904Y-28297238D01*
X205303523Y-28392476D01*
X205351142Y-28582952D01*
X205351142Y-28725809D01*
X205303523Y-28916285D01*
X205255904Y-29011523D01*
X205160666Y-29106761D01*
X205017809Y-29154380D01*
X204779714Y-29154380D01*
X206303523Y-29154380D02*
X205732095Y-29154380D01*
X206017809Y-29154380D02*
X206017809Y-28154380D01*
X205922571Y-28297238D01*
X205827333Y-28392476D01*
X205732095Y-28440095D01*
X207160666Y-28487714D02*
X207160666Y-29154380D01*
X206922571Y-28106761D02*
X206684476Y-28821047D01*
X207303523Y-28821047D01*
X217626778Y-29154380D02*
X217626778Y-28154380D01*
X217864873Y-28154380D01*
X218007730Y-28202000D01*
X218102968Y-28297238D01*
X218150587Y-28392476D01*
X218198206Y-28582952D01*
X218198206Y-28725809D01*
X218150587Y-28916285D01*
X218102968Y-29011523D01*
X218007730Y-29106761D01*
X217864873Y-29154380D01*
X217626778Y-29154380D01*
X219150587Y-29154380D02*
X218579159Y-29154380D01*
X218864873Y-29154380D02*
X218864873Y-28154380D01*
X218769635Y-28297238D01*
X218674397Y-28392476D01*
X218579159Y-28440095D01*
X220055349Y-28154380D02*
X219579159Y-28154380D01*
X219531540Y-28630571D01*
X219579159Y-28582952D01*
X219674397Y-28535333D01*
X219912492Y-28535333D01*
X220007730Y-28582952D01*
X220055349Y-28630571D01*
X220102968Y-28725809D01*
X220102968Y-28963904D01*
X220055349Y-29059142D01*
X220007730Y-29106761D01*
X219912492Y-29154380D01*
X219674397Y-29154380D01*
X219579159Y-29106761D01*
X219531540Y-29059142D01*
X230179714Y-29154380D02*
X230179714Y-28154380D01*
X230417809Y-28154380D01*
X230560666Y-28202000D01*
X230655904Y-28297238D01*
X230703523Y-28392476D01*
X230751142Y-28582952D01*
X230751142Y-28725809D01*
X230703523Y-28916285D01*
X230655904Y-29011523D01*
X230560666Y-29106761D01*
X230417809Y-29154380D01*
X230179714Y-29154380D01*
X231703523Y-29154380D02*
X231132095Y-29154380D01*
X231417809Y-29154380D02*
X231417809Y-28154380D01*
X231322571Y-28297238D01*
X231227333Y-28392476D01*
X231132095Y-28440095D01*
X232560666Y-28154380D02*
X232370190Y-28154380D01*
X232274952Y-28202000D01*
X232227333Y-28249619D01*
X232132095Y-28392476D01*
X232084476Y-28582952D01*
X232084476Y-28963904D01*
X232132095Y-29059142D01*
X232179714Y-29106761D01*
X232274952Y-29154380D01*
X232465428Y-29154380D01*
X232560666Y-29106761D01*
X232608285Y-29059142D01*
X232655904Y-28963904D01*
X232655904Y-28725809D01*
X232608285Y-28630571D01*
X232560666Y-28582952D01*
X232465428Y-28535333D01*
X232274952Y-28535333D01*
X232179714Y-28582952D01*
X232132095Y-28630571D01*
X232084476Y-28725809D01*
X240085714Y-30336380D02*
X240085714Y-29336380D01*
X240323809Y-29336380D01*
X240466666Y-29384000D01*
X240561904Y-29479238D01*
X240609523Y-29574476D01*
X240657142Y-29764952D01*
X240657142Y-29907809D01*
X240609523Y-30098285D01*
X240561904Y-30193523D01*
X240466666Y-30288761D01*
X240323809Y-30336380D01*
X240085714Y-30336380D01*
X241609523Y-30336380D02*
X241038095Y-30336380D01*
X241323809Y-30336380D02*
X241323809Y-29336380D01*
X241228571Y-29479238D01*
X241133333Y-29574476D01*
X241038095Y-29622095D01*
X242180952Y-29764952D02*
X242085714Y-29717333D01*
X242038095Y-29669714D01*
X241990476Y-29574476D01*
X241990476Y-29526857D01*
X242038095Y-29431619D01*
X242085714Y-29384000D01*
X242180952Y-29336380D01*
X242371428Y-29336380D01*
X242466666Y-29384000D01*
X242514285Y-29431619D01*
X242561904Y-29526857D01*
X242561904Y-29574476D01*
X242514285Y-29669714D01*
X242466666Y-29717333D01*
X242371428Y-29764952D01*
X242180952Y-29764952D01*
X242085714Y-29812571D01*
X242038095Y-29860190D01*
X241990476Y-29955428D01*
X241990476Y-30145904D01*
X242038095Y-30241142D01*
X242085714Y-30288761D01*
X242180952Y-30336380D01*
X242371428Y-30336380D01*
X242466666Y-30288761D01*
X242514285Y-30241142D01*
X242561904Y-30145904D01*
X242561904Y-29955428D01*
X242514285Y-29860190D01*
X242466666Y-29812571D01*
X242371428Y-29764952D01*
X193095714Y-71572380D02*
X193095714Y-70572380D01*
X193333809Y-70572380D01*
X193476666Y-70620000D01*
X193571904Y-70715238D01*
X193619523Y-70810476D01*
X193667142Y-71000952D01*
X193667142Y-71143809D01*
X193619523Y-71334285D01*
X193571904Y-71429523D01*
X193476666Y-71524761D01*
X193333809Y-71572380D01*
X193095714Y-71572380D01*
X194048095Y-70667619D02*
X194095714Y-70620000D01*
X194190952Y-70572380D01*
X194429047Y-70572380D01*
X194524285Y-70620000D01*
X194571904Y-70667619D01*
X194619523Y-70762857D01*
X194619523Y-70858095D01*
X194571904Y-71000952D01*
X194000476Y-71572380D01*
X194619523Y-71572380D01*
X195238571Y-70572380D02*
X195333809Y-70572380D01*
X195429047Y-70620000D01*
X195476666Y-70667619D01*
X195524285Y-70762857D01*
X195571904Y-70953333D01*
X195571904Y-71191428D01*
X195524285Y-71381904D01*
X195476666Y-71477142D01*
X195429047Y-71524761D01*
X195333809Y-71572380D01*
X195238571Y-71572380D01*
X195143333Y-71524761D01*
X195095714Y-71477142D01*
X195048095Y-71381904D01*
X195000476Y-71191428D01*
X195000476Y-70953333D01*
X195048095Y-70762857D01*
X195095714Y-70667619D01*
X195143333Y-70620000D01*
X195238571Y-70572380D01*
X198175714Y-71572380D02*
X198175714Y-70572380D01*
X198413809Y-70572380D01*
X198556666Y-70620000D01*
X198651904Y-70715238D01*
X198699523Y-70810476D01*
X198747142Y-71000952D01*
X198747142Y-71143809D01*
X198699523Y-71334285D01*
X198651904Y-71429523D01*
X198556666Y-71524761D01*
X198413809Y-71572380D01*
X198175714Y-71572380D01*
X199128095Y-70667619D02*
X199175714Y-70620000D01*
X199270952Y-70572380D01*
X199509047Y-70572380D01*
X199604285Y-70620000D01*
X199651904Y-70667619D01*
X199699523Y-70762857D01*
X199699523Y-70858095D01*
X199651904Y-71000952D01*
X199080476Y-71572380D01*
X199699523Y-71572380D01*
X200651904Y-71572380D02*
X200080476Y-71572380D01*
X200366190Y-71572380D02*
X200366190Y-70572380D01*
X200270952Y-70715238D01*
X200175714Y-70810476D01*
X200080476Y-70858095D01*
X203255714Y-71572380D02*
X203255714Y-70572380D01*
X203493809Y-70572380D01*
X203636666Y-70620000D01*
X203731904Y-70715238D01*
X203779523Y-70810476D01*
X203827142Y-71000952D01*
X203827142Y-71143809D01*
X203779523Y-71334285D01*
X203731904Y-71429523D01*
X203636666Y-71524761D01*
X203493809Y-71572380D01*
X203255714Y-71572380D01*
X204208095Y-70667619D02*
X204255714Y-70620000D01*
X204350952Y-70572380D01*
X204589047Y-70572380D01*
X204684285Y-70620000D01*
X204731904Y-70667619D01*
X204779523Y-70762857D01*
X204779523Y-70858095D01*
X204731904Y-71000952D01*
X204160476Y-71572380D01*
X204779523Y-71572380D01*
X205160476Y-70667619D02*
X205208095Y-70620000D01*
X205303333Y-70572380D01*
X205541428Y-70572380D01*
X205636666Y-70620000D01*
X205684285Y-70667619D01*
X205731904Y-70762857D01*
X205731904Y-70858095D01*
X205684285Y-71000952D01*
X205112857Y-71572380D01*
X205731904Y-71572380D01*
X208335714Y-71572380D02*
X208335714Y-70572380D01*
X208573809Y-70572380D01*
X208716666Y-70620000D01*
X208811904Y-70715238D01*
X208859523Y-70810476D01*
X208907142Y-71000952D01*
X208907142Y-71143809D01*
X208859523Y-71334285D01*
X208811904Y-71429523D01*
X208716666Y-71524761D01*
X208573809Y-71572380D01*
X208335714Y-71572380D01*
X209288095Y-70667619D02*
X209335714Y-70620000D01*
X209430952Y-70572380D01*
X209669047Y-70572380D01*
X209764285Y-70620000D01*
X209811904Y-70667619D01*
X209859523Y-70762857D01*
X209859523Y-70858095D01*
X209811904Y-71000952D01*
X209240476Y-71572380D01*
X209859523Y-71572380D01*
X210192857Y-70572380D02*
X210811904Y-70572380D01*
X210478571Y-70953333D01*
X210621428Y-70953333D01*
X210716666Y-71000952D01*
X210764285Y-71048571D01*
X210811904Y-71143809D01*
X210811904Y-71381904D01*
X210764285Y-71477142D01*
X210716666Y-71524761D01*
X210621428Y-71572380D01*
X210335714Y-71572380D01*
X210240476Y-71524761D01*
X210192857Y-71477142D01*
X27606666Y-63162380D02*
X27606666Y-63876666D01*
X27559047Y-64019523D01*
X27463809Y-64114761D01*
X27320952Y-64162380D01*
X27225714Y-64162380D01*
X28035238Y-63257619D02*
X28082857Y-63210000D01*
X28178095Y-63162380D01*
X28416190Y-63162380D01*
X28511428Y-63210000D01*
X28559047Y-63257619D01*
X28606666Y-63352857D01*
X28606666Y-63448095D01*
X28559047Y-63590952D01*
X27987619Y-64162380D01*
X28606666Y-64162380D01*
X122126380Y-36536380D02*
X122221619Y-36536380D01*
X122316857Y-36584000D01*
X122364476Y-36631619D01*
X122412095Y-36726857D01*
X122459714Y-36917333D01*
X122459714Y-37155428D01*
X122412095Y-37345904D01*
X122364476Y-37441142D01*
X122316857Y-37488761D01*
X122221619Y-37536380D01*
X122126380Y-37536380D01*
X122031142Y-37488761D01*
X121983523Y-37441142D01*
X121935904Y-37345904D01*
X121888285Y-37155428D01*
X121888285Y-36917333D01*
X121935904Y-36726857D01*
X121983523Y-36631619D01*
X122031142Y-36584000D01*
X122126380Y-36536380D01*
X121761285Y-43743619D02*
X121808904Y-43696000D01*
X121904142Y-43648380D01*
X122142238Y-43648380D01*
X122237476Y-43696000D01*
X122285095Y-43743619D01*
X122332714Y-43838857D01*
X122332714Y-43934095D01*
X122285095Y-44076952D01*
X121713666Y-44648380D01*
X122332714Y-44648380D01*
X122332714Y-41092380D02*
X121761285Y-41092380D01*
X122047000Y-41092380D02*
X122047000Y-40092380D01*
X121951761Y-40235238D01*
X121856523Y-40330476D01*
X121761285Y-40378095D01*
X121713666Y-46950380D02*
X122332714Y-46950380D01*
X121999380Y-47331333D01*
X122142238Y-47331333D01*
X122237476Y-47378952D01*
X122285095Y-47426571D01*
X122332714Y-47521809D01*
X122332714Y-47759904D01*
X122285095Y-47855142D01*
X122237476Y-47902761D01*
X122142238Y-47950380D01*
X121856523Y-47950380D01*
X121761285Y-47902761D01*
X121713666Y-47855142D01*
X45553333Y-29154380D02*
X45220000Y-28678190D01*
X44981904Y-29154380D02*
X44981904Y-28154380D01*
X45362857Y-28154380D01*
X45458095Y-28202000D01*
X45505714Y-28249619D01*
X45553333Y-28344857D01*
X45553333Y-28487714D01*
X45505714Y-28582952D01*
X45458095Y-28630571D01*
X45362857Y-28678190D01*
X44981904Y-28678190D01*
X45934285Y-28249619D02*
X45981904Y-28202000D01*
X46077142Y-28154380D01*
X46315238Y-28154380D01*
X46410476Y-28202000D01*
X46458095Y-28249619D01*
X46505714Y-28344857D01*
X46505714Y-28440095D01*
X46458095Y-28582952D01*
X45886666Y-29154380D01*
X46505714Y-29154380D01*
X70953333Y-29154380D02*
X70620000Y-28678190D01*
X70381904Y-29154380D02*
X70381904Y-28154380D01*
X70762857Y-28154380D01*
X70858095Y-28202000D01*
X70905714Y-28249619D01*
X70953333Y-28344857D01*
X70953333Y-28487714D01*
X70905714Y-28582952D01*
X70858095Y-28630571D01*
X70762857Y-28678190D01*
X70381904Y-28678190D01*
X71810476Y-28487714D02*
X71810476Y-29154380D01*
X71572380Y-28106761D02*
X71334285Y-28821047D01*
X71953333Y-28821047D01*
X83653333Y-29154380D02*
X83320000Y-28678190D01*
X83081904Y-29154380D02*
X83081904Y-28154380D01*
X83462857Y-28154380D01*
X83558095Y-28202000D01*
X83605714Y-28249619D01*
X83653333Y-28344857D01*
X83653333Y-28487714D01*
X83605714Y-28582952D01*
X83558095Y-28630571D01*
X83462857Y-28678190D01*
X83081904Y-28678190D01*
X84558095Y-28154380D02*
X84081904Y-28154380D01*
X84034285Y-28630571D01*
X84081904Y-28582952D01*
X84177142Y-28535333D01*
X84415238Y-28535333D01*
X84510476Y-28582952D01*
X84558095Y-28630571D01*
X84605714Y-28725809D01*
X84605714Y-28963904D01*
X84558095Y-29059142D01*
X84510476Y-29106761D01*
X84415238Y-29154380D01*
X84177142Y-29154380D01*
X84081904Y-29106761D01*
X84034285Y-29059142D01*
X96607333Y-29154380D02*
X96274000Y-28678190D01*
X96035904Y-29154380D02*
X96035904Y-28154380D01*
X96416857Y-28154380D01*
X96512095Y-28202000D01*
X96559714Y-28249619D01*
X96607333Y-28344857D01*
X96607333Y-28487714D01*
X96559714Y-28582952D01*
X96512095Y-28630571D01*
X96416857Y-28678190D01*
X96035904Y-28678190D01*
X97464476Y-28154380D02*
X97274000Y-28154380D01*
X97178761Y-28202000D01*
X97131142Y-28249619D01*
X97035904Y-28392476D01*
X96988285Y-28582952D01*
X96988285Y-28963904D01*
X97035904Y-29059142D01*
X97083523Y-29106761D01*
X97178761Y-29154380D01*
X97369238Y-29154380D01*
X97464476Y-29106761D01*
X97512095Y-29059142D01*
X97559714Y-28963904D01*
X97559714Y-28725809D01*
X97512095Y-28630571D01*
X97464476Y-28582952D01*
X97369238Y-28535333D01*
X97178761Y-28535333D01*
X97083523Y-28582952D01*
X97035904Y-28630571D01*
X96988285Y-28725809D01*
X109307333Y-29154380D02*
X108974000Y-28678190D01*
X108735904Y-29154380D02*
X108735904Y-28154380D01*
X109116857Y-28154380D01*
X109212095Y-28202000D01*
X109259714Y-28249619D01*
X109307333Y-28344857D01*
X109307333Y-28487714D01*
X109259714Y-28582952D01*
X109212095Y-28630571D01*
X109116857Y-28678190D01*
X108735904Y-28678190D01*
X109640666Y-28154380D02*
X110307333Y-28154380D01*
X109878761Y-29154380D01*
X122007333Y-29154380D02*
X121674000Y-28678190D01*
X121435904Y-29154380D02*
X121435904Y-28154380D01*
X121816857Y-28154380D01*
X121912095Y-28202000D01*
X121959714Y-28249619D01*
X122007333Y-28344857D01*
X122007333Y-28487714D01*
X121959714Y-28582952D01*
X121912095Y-28630571D01*
X121816857Y-28678190D01*
X121435904Y-28678190D01*
X122578761Y-28582952D02*
X122483523Y-28535333D01*
X122435904Y-28487714D01*
X122388285Y-28392476D01*
X122388285Y-28344857D01*
X122435904Y-28249619D01*
X122483523Y-28202000D01*
X122578761Y-28154380D01*
X122769238Y-28154380D01*
X122864476Y-28202000D01*
X122912095Y-28249619D01*
X122959714Y-28344857D01*
X122959714Y-28392476D01*
X122912095Y-28487714D01*
X122864476Y-28535333D01*
X122769238Y-28582952D01*
X122578761Y-28582952D01*
X122483523Y-28630571D01*
X122435904Y-28678190D01*
X122388285Y-28773428D01*
X122388285Y-28963904D01*
X122435904Y-29059142D01*
X122483523Y-29106761D01*
X122578761Y-29154380D01*
X122769238Y-29154380D01*
X122864476Y-29106761D01*
X122912095Y-29059142D01*
X122959714Y-28963904D01*
X122959714Y-28773428D01*
X122912095Y-28678190D01*
X122864476Y-28630571D01*
X122769238Y-28582952D01*
X147153333Y-29154380D02*
X146820000Y-28678190D01*
X146581904Y-29154380D02*
X146581904Y-28154380D01*
X146962857Y-28154380D01*
X147058095Y-28202000D01*
X147105714Y-28249619D01*
X147153333Y-28344857D01*
X147153333Y-28487714D01*
X147105714Y-28582952D01*
X147058095Y-28630571D01*
X146962857Y-28678190D01*
X146581904Y-28678190D01*
X147629523Y-29154380D02*
X147820000Y-29154380D01*
X147915238Y-29106761D01*
X147962857Y-29059142D01*
X148058095Y-28916285D01*
X148105714Y-28725809D01*
X148105714Y-28344857D01*
X148058095Y-28249619D01*
X148010476Y-28202000D01*
X147915238Y-28154380D01*
X147724761Y-28154380D01*
X147629523Y-28202000D01*
X147581904Y-28249619D01*
X147534285Y-28344857D01*
X147534285Y-28582952D01*
X147581904Y-28678190D01*
X147629523Y-28725809D01*
X147724761Y-28773428D01*
X147915238Y-28773428D01*
X148010476Y-28725809D01*
X148058095Y-28678190D01*
X148105714Y-28582952D01*
X159377142Y-28900380D02*
X159043809Y-28424190D01*
X158805714Y-28900380D02*
X158805714Y-27900380D01*
X159186666Y-27900380D01*
X159281904Y-27948000D01*
X159329523Y-27995619D01*
X159377142Y-28090857D01*
X159377142Y-28233714D01*
X159329523Y-28328952D01*
X159281904Y-28376571D01*
X159186666Y-28424190D01*
X158805714Y-28424190D01*
X160329523Y-28900380D02*
X159758095Y-28900380D01*
X160043809Y-28900380D02*
X160043809Y-27900380D01*
X159948571Y-28043238D01*
X159853333Y-28138476D01*
X159758095Y-28186095D01*
X160948571Y-27900380D02*
X161043809Y-27900380D01*
X161139047Y-27948000D01*
X161186666Y-27995619D01*
X161234285Y-28090857D01*
X161281904Y-28281333D01*
X161281904Y-28519428D01*
X161234285Y-28709904D01*
X161186666Y-28805142D01*
X161139047Y-28852761D01*
X161043809Y-28900380D01*
X160948571Y-28900380D01*
X160853333Y-28852761D01*
X160805714Y-28805142D01*
X160758095Y-28709904D01*
X160710476Y-28519428D01*
X160710476Y-28281333D01*
X160758095Y-28090857D01*
X160805714Y-27995619D01*
X160853333Y-27948000D01*
X160948571Y-27900380D01*
X172077142Y-29154380D02*
X171743809Y-28678190D01*
X171505714Y-29154380D02*
X171505714Y-28154380D01*
X171886666Y-28154380D01*
X171981904Y-28202000D01*
X172029523Y-28249619D01*
X172077142Y-28344857D01*
X172077142Y-28487714D01*
X172029523Y-28582952D01*
X171981904Y-28630571D01*
X171886666Y-28678190D01*
X171505714Y-28678190D01*
X173029523Y-29154380D02*
X172458095Y-29154380D01*
X172743809Y-29154380D02*
X172743809Y-28154380D01*
X172648571Y-28297238D01*
X172553333Y-28392476D01*
X172458095Y-28440095D01*
X173981904Y-29154380D02*
X173410476Y-29154380D01*
X173696190Y-29154380D02*
X173696190Y-28154380D01*
X173600952Y-28297238D01*
X173505714Y-28392476D01*
X173410476Y-28440095D01*
X184777142Y-28900380D02*
X184443809Y-28424190D01*
X184205714Y-28900380D02*
X184205714Y-27900380D01*
X184586666Y-27900380D01*
X184681904Y-27948000D01*
X184729523Y-27995619D01*
X184777142Y-28090857D01*
X184777142Y-28233714D01*
X184729523Y-28328952D01*
X184681904Y-28376571D01*
X184586666Y-28424190D01*
X184205714Y-28424190D01*
X185729523Y-28900380D02*
X185158095Y-28900380D01*
X185443809Y-28900380D02*
X185443809Y-27900380D01*
X185348571Y-28043238D01*
X185253333Y-28138476D01*
X185158095Y-28186095D01*
X186110476Y-27995619D02*
X186158095Y-27948000D01*
X186253333Y-27900380D01*
X186491428Y-27900380D01*
X186586666Y-27948000D01*
X186634285Y-27995619D01*
X186681904Y-28090857D01*
X186681904Y-28186095D01*
X186634285Y-28328952D01*
X186062857Y-28900380D01*
X186681904Y-28900380D01*
X197477142Y-28900380D02*
X197143809Y-28424190D01*
X196905714Y-28900380D02*
X196905714Y-27900380D01*
X197286666Y-27900380D01*
X197381904Y-27948000D01*
X197429523Y-27995619D01*
X197477142Y-28090857D01*
X197477142Y-28233714D01*
X197429523Y-28328952D01*
X197381904Y-28376571D01*
X197286666Y-28424190D01*
X196905714Y-28424190D01*
X198429523Y-28900380D02*
X197858095Y-28900380D01*
X198143809Y-28900380D02*
X198143809Y-27900380D01*
X198048571Y-28043238D01*
X197953333Y-28138476D01*
X197858095Y-28186095D01*
X198762857Y-27900380D02*
X199381904Y-27900380D01*
X199048571Y-28281333D01*
X199191428Y-28281333D01*
X199286666Y-28328952D01*
X199334285Y-28376571D01*
X199381904Y-28471809D01*
X199381904Y-28709904D01*
X199334285Y-28805142D01*
X199286666Y-28852761D01*
X199191428Y-28900380D01*
X198905714Y-28900380D01*
X198810476Y-28852761D01*
X198762857Y-28805142D01*
X210177142Y-28900380D02*
X209843809Y-28424190D01*
X209605714Y-28900380D02*
X209605714Y-27900380D01*
X209986666Y-27900380D01*
X210081904Y-27948000D01*
X210129523Y-27995619D01*
X210177142Y-28090857D01*
X210177142Y-28233714D01*
X210129523Y-28328952D01*
X210081904Y-28376571D01*
X209986666Y-28424190D01*
X209605714Y-28424190D01*
X211129523Y-28900380D02*
X210558095Y-28900380D01*
X210843809Y-28900380D02*
X210843809Y-27900380D01*
X210748571Y-28043238D01*
X210653333Y-28138476D01*
X210558095Y-28186095D01*
X211986666Y-28233714D02*
X211986666Y-28900380D01*
X211748571Y-27852761D02*
X211510476Y-28567047D01*
X212129523Y-28567047D01*
X222623142Y-28900380D02*
X222289809Y-28424190D01*
X222051714Y-28900380D02*
X222051714Y-27900380D01*
X222432666Y-27900380D01*
X222527904Y-27948000D01*
X222575523Y-27995619D01*
X222623142Y-28090857D01*
X222623142Y-28233714D01*
X222575523Y-28328952D01*
X222527904Y-28376571D01*
X222432666Y-28424190D01*
X222051714Y-28424190D01*
X223575523Y-28900380D02*
X223004095Y-28900380D01*
X223289809Y-28900380D02*
X223289809Y-27900380D01*
X223194571Y-28043238D01*
X223099333Y-28138476D01*
X223004095Y-28186095D01*
X224480285Y-27900380D02*
X224004095Y-27900380D01*
X223956476Y-28376571D01*
X224004095Y-28328952D01*
X224099333Y-28281333D01*
X224337428Y-28281333D01*
X224432666Y-28328952D01*
X224480285Y-28376571D01*
X224527904Y-28471809D01*
X224527904Y-28709904D01*
X224480285Y-28805142D01*
X224432666Y-28852761D01*
X224337428Y-28900380D01*
X224099333Y-28900380D01*
X224004095Y-28852761D01*
X223956476Y-28805142D01*
X235577142Y-28900380D02*
X235243809Y-28424190D01*
X235005714Y-28900380D02*
X235005714Y-27900380D01*
X235386666Y-27900380D01*
X235481904Y-27948000D01*
X235529523Y-27995619D01*
X235577142Y-28090857D01*
X235577142Y-28233714D01*
X235529523Y-28328952D01*
X235481904Y-28376571D01*
X235386666Y-28424190D01*
X235005714Y-28424190D01*
X236529523Y-28900380D02*
X235958095Y-28900380D01*
X236243809Y-28900380D02*
X236243809Y-27900380D01*
X236148571Y-28043238D01*
X236053333Y-28138476D01*
X235958095Y-28186095D01*
X237386666Y-27900380D02*
X237196190Y-27900380D01*
X237100952Y-27948000D01*
X237053333Y-27995619D01*
X236958095Y-28138476D01*
X236910476Y-28328952D01*
X236910476Y-28709904D01*
X236958095Y-28805142D01*
X237005714Y-28852761D01*
X237100952Y-28900380D01*
X237291428Y-28900380D01*
X237386666Y-28852761D01*
X237434285Y-28805142D01*
X237481904Y-28709904D01*
X237481904Y-28471809D01*
X237434285Y-28376571D01*
X237386666Y-28328952D01*
X237291428Y-28281333D01*
X237100952Y-28281333D01*
X237005714Y-28328952D01*
X236958095Y-28376571D01*
X236910476Y-28471809D01*
X133977142Y-29154380D02*
X133643809Y-28678190D01*
X133405714Y-29154380D02*
X133405714Y-28154380D01*
X133786666Y-28154380D01*
X133881904Y-28202000D01*
X133929523Y-28249619D01*
X133977142Y-28344857D01*
X133977142Y-28487714D01*
X133929523Y-28582952D01*
X133881904Y-28630571D01*
X133786666Y-28678190D01*
X133405714Y-28678190D01*
X134929523Y-29154380D02*
X134358095Y-29154380D01*
X134643809Y-29154380D02*
X134643809Y-28154380D01*
X134548571Y-28297238D01*
X134453333Y-28392476D01*
X134358095Y-28440095D01*
X135262857Y-28154380D02*
X135929523Y-28154380D01*
X135500952Y-29154380D01*
X247212380Y-32392857D02*
X246736190Y-32726190D01*
X247212380Y-32964285D02*
X246212380Y-32964285D01*
X246212380Y-32583333D01*
X246260000Y-32488095D01*
X246307619Y-32440476D01*
X246402857Y-32392857D01*
X246545714Y-32392857D01*
X246640952Y-32440476D01*
X246688571Y-32488095D01*
X246736190Y-32583333D01*
X246736190Y-32964285D01*
X247212380Y-31440476D02*
X247212380Y-32011904D01*
X247212380Y-31726190D02*
X246212380Y-31726190D01*
X246355238Y-31821428D01*
X246450476Y-31916666D01*
X246498095Y-32011904D01*
X246640952Y-30869047D02*
X246593333Y-30964285D01*
X246545714Y-31011904D01*
X246450476Y-31059523D01*
X246402857Y-31059523D01*
X246307619Y-31011904D01*
X246260000Y-30964285D01*
X246212380Y-30869047D01*
X246212380Y-30678571D01*
X246260000Y-30583333D01*
X246307619Y-30535714D01*
X246402857Y-30488095D01*
X246450476Y-30488095D01*
X246545714Y-30535714D01*
X246593333Y-30583333D01*
X246640952Y-30678571D01*
X246640952Y-30869047D01*
X246688571Y-30964285D01*
X246736190Y-31011904D01*
X246831428Y-31059523D01*
X247021904Y-31059523D01*
X247117142Y-31011904D01*
X247164761Y-30964285D01*
X247212380Y-30869047D01*
X247212380Y-30678571D01*
X247164761Y-30583333D01*
X247117142Y-30535714D01*
X247021904Y-30488095D01*
X246831428Y-30488095D01*
X246736190Y-30535714D01*
X246688571Y-30583333D01*
X246640952Y-30678571D01*
X194382380Y-69222857D02*
X193906190Y-69556190D01*
X194382380Y-69794285D02*
X193382380Y-69794285D01*
X193382380Y-69413333D01*
X193430000Y-69318095D01*
X193477619Y-69270476D01*
X193572857Y-69222857D01*
X193715714Y-69222857D01*
X193810952Y-69270476D01*
X193858571Y-69318095D01*
X193906190Y-69413333D01*
X193906190Y-69794285D01*
X193477619Y-68841904D02*
X193430000Y-68794285D01*
X193382380Y-68699047D01*
X193382380Y-68460952D01*
X193430000Y-68365714D01*
X193477619Y-68318095D01*
X193572857Y-68270476D01*
X193668095Y-68270476D01*
X193810952Y-68318095D01*
X194382380Y-68889523D01*
X194382380Y-68270476D01*
X193382380Y-67651428D02*
X193382380Y-67556190D01*
X193430000Y-67460952D01*
X193477619Y-67413333D01*
X193572857Y-67365714D01*
X193763333Y-67318095D01*
X194001428Y-67318095D01*
X194191904Y-67365714D01*
X194287142Y-67413333D01*
X194334761Y-67460952D01*
X194382380Y-67556190D01*
X194382380Y-67651428D01*
X194334761Y-67746666D01*
X194287142Y-67794285D01*
X194191904Y-67841904D01*
X194001428Y-67889523D01*
X193763333Y-67889523D01*
X193572857Y-67841904D01*
X193477619Y-67794285D01*
X193430000Y-67746666D01*
X193382380Y-67651428D01*
X199462380Y-69222857D02*
X198986190Y-69556190D01*
X199462380Y-69794285D02*
X198462380Y-69794285D01*
X198462380Y-69413333D01*
X198510000Y-69318095D01*
X198557619Y-69270476D01*
X198652857Y-69222857D01*
X198795714Y-69222857D01*
X198890952Y-69270476D01*
X198938571Y-69318095D01*
X198986190Y-69413333D01*
X198986190Y-69794285D01*
X198557619Y-68841904D02*
X198510000Y-68794285D01*
X198462380Y-68699047D01*
X198462380Y-68460952D01*
X198510000Y-68365714D01*
X198557619Y-68318095D01*
X198652857Y-68270476D01*
X198748095Y-68270476D01*
X198890952Y-68318095D01*
X199462380Y-68889523D01*
X199462380Y-68270476D01*
X199462380Y-67318095D02*
X199462380Y-67889523D01*
X199462380Y-67603809D02*
X198462380Y-67603809D01*
X198605238Y-67699047D01*
X198700476Y-67794285D01*
X198748095Y-67889523D01*
X204617580Y-69222857D02*
X204141390Y-69556190D01*
X204617580Y-69794285D02*
X203617580Y-69794285D01*
X203617580Y-69413333D01*
X203665200Y-69318095D01*
X203712819Y-69270476D01*
X203808057Y-69222857D01*
X203950914Y-69222857D01*
X204046152Y-69270476D01*
X204093771Y-69318095D01*
X204141390Y-69413333D01*
X204141390Y-69794285D01*
X203712819Y-68841904D02*
X203665200Y-68794285D01*
X203617580Y-68699047D01*
X203617580Y-68460952D01*
X203665200Y-68365714D01*
X203712819Y-68318095D01*
X203808057Y-68270476D01*
X203903295Y-68270476D01*
X204046152Y-68318095D01*
X204617580Y-68889523D01*
X204617580Y-68270476D01*
X203712819Y-67889523D02*
X203665200Y-67841904D01*
X203617580Y-67746666D01*
X203617580Y-67508571D01*
X203665200Y-67413333D01*
X203712819Y-67365714D01*
X203808057Y-67318095D01*
X203903295Y-67318095D01*
X204046152Y-67365714D01*
X204617580Y-67937142D01*
X204617580Y-67318095D01*
X209622380Y-69222857D02*
X209146190Y-69556190D01*
X209622380Y-69794285D02*
X208622380Y-69794285D01*
X208622380Y-69413333D01*
X208670000Y-69318095D01*
X208717619Y-69270476D01*
X208812857Y-69222857D01*
X208955714Y-69222857D01*
X209050952Y-69270476D01*
X209098571Y-69318095D01*
X209146190Y-69413333D01*
X209146190Y-69794285D01*
X208717619Y-68841904D02*
X208670000Y-68794285D01*
X208622380Y-68699047D01*
X208622380Y-68460952D01*
X208670000Y-68365714D01*
X208717619Y-68318095D01*
X208812857Y-68270476D01*
X208908095Y-68270476D01*
X209050952Y-68318095D01*
X209622380Y-68889523D01*
X209622380Y-68270476D01*
X208622380Y-67937142D02*
X208622380Y-67318095D01*
X209003333Y-67651428D01*
X209003333Y-67508571D01*
X209050952Y-67413333D01*
X209098571Y-67365714D01*
X209193809Y-67318095D01*
X209431904Y-67318095D01*
X209527142Y-67365714D01*
X209574761Y-67413333D01*
X209622380Y-67508571D01*
X209622380Y-67794285D01*
X209574761Y-67889523D01*
X209527142Y-67937142D01*
X65762380Y-41401904D02*
X66571904Y-41401904D01*
X66667142Y-41354285D01*
X66714761Y-41306666D01*
X66762380Y-41211428D01*
X66762380Y-41020952D01*
X66714761Y-40925714D01*
X66667142Y-40878095D01*
X66571904Y-40830476D01*
X65762380Y-40830476D01*
X66762380Y-39830476D02*
X66762380Y-40401904D01*
X66762380Y-40116190D02*
X65762380Y-40116190D01*
X65905238Y-40211428D01*
X66000476Y-40306666D01*
X66048095Y-40401904D01*
X187301380Y-41401904D02*
X188110904Y-41401904D01*
X188206142Y-41354285D01*
X188253761Y-41306666D01*
X188301380Y-41211428D01*
X188301380Y-41020952D01*
X188253761Y-40925714D01*
X188206142Y-40878095D01*
X188110904Y-40830476D01*
X187301380Y-40830476D01*
X187301380Y-40449523D02*
X187301380Y-39830476D01*
X187682333Y-40163809D01*
X187682333Y-40020952D01*
X187729952Y-39925714D01*
X187777571Y-39878095D01*
X187872809Y-39830476D01*
X188110904Y-39830476D01*
X188206142Y-39878095D01*
X188253761Y-39925714D01*
X188301380Y-40020952D01*
X188301380Y-40306666D01*
X188253761Y-40401904D01*
X188206142Y-40449523D01*
X192079714Y-29154380D02*
X192079714Y-28154380D01*
X192317809Y-28154380D01*
X192460666Y-28202000D01*
X192555904Y-28297238D01*
X192603523Y-28392476D01*
X192651142Y-28582952D01*
X192651142Y-28725809D01*
X192603523Y-28916285D01*
X192555904Y-29011523D01*
X192460666Y-29106761D01*
X192317809Y-29154380D01*
X192079714Y-29154380D01*
X193603523Y-29154380D02*
X193032095Y-29154380D01*
X193317809Y-29154380D02*
X193317809Y-28154380D01*
X193222571Y-28297238D01*
X193127333Y-28392476D01*
X193032095Y-28440095D01*
X193936857Y-28154380D02*
X194555904Y-28154380D01*
X194222571Y-28535333D01*
X194365428Y-28535333D01*
X194460666Y-28582952D01*
X194508285Y-28630571D01*
X194555904Y-28725809D01*
X194555904Y-28963904D01*
X194508285Y-29059142D01*
X194460666Y-29106761D01*
X194365428Y-29154380D01*
X194079714Y-29154380D01*
X193984476Y-29106761D01*
X193936857Y-29059142D01*
X128579714Y-30336380D02*
X128579714Y-29336380D01*
X128817809Y-29336380D01*
X128960666Y-29384000D01*
X129055904Y-29479238D01*
X129103523Y-29574476D01*
X129151142Y-29764952D01*
X129151142Y-29907809D01*
X129103523Y-30098285D01*
X129055904Y-30193523D01*
X128960666Y-30288761D01*
X128817809Y-30336380D01*
X128579714Y-30336380D01*
X130103523Y-30336380D02*
X129532095Y-30336380D01*
X129817809Y-30336380D02*
X129817809Y-29336380D01*
X129722571Y-29479238D01*
X129627333Y-29574476D01*
X129532095Y-29622095D01*
X130436857Y-29336380D02*
X131103523Y-29336380D01*
X130674952Y-30336380D01*
X33080397Y-29154380D02*
X32747064Y-28678190D01*
X32508968Y-29154380D02*
X32508968Y-28154380D01*
X32889921Y-28154380D01*
X32985159Y-28202000D01*
X33032778Y-28249619D01*
X33080397Y-28344857D01*
X33080397Y-28487714D01*
X33032778Y-28582952D01*
X32985159Y-28630571D01*
X32889921Y-28678190D01*
X32508968Y-28678190D01*
X34032778Y-29154380D02*
X33461349Y-29154380D01*
X33747064Y-29154380D02*
X33747064Y-28154380D01*
X33651825Y-28297238D01*
X33556587Y-28392476D01*
X33461349Y-28440095D01*
X58480397Y-29154380D02*
X58147064Y-28678190D01*
X57908968Y-29154380D02*
X57908968Y-28154380D01*
X58289921Y-28154380D01*
X58385159Y-28202000D01*
X58432778Y-28249619D01*
X58480397Y-28344857D01*
X58480397Y-28487714D01*
X58432778Y-28582952D01*
X58385159Y-28630571D01*
X58289921Y-28678190D01*
X57908968Y-28678190D01*
X58813730Y-28154380D02*
X59432778Y-28154380D01*
X59099444Y-28535333D01*
X59242302Y-28535333D01*
X59337540Y-28582952D01*
X59385159Y-28630571D01*
X59432778Y-28725809D01*
X59432778Y-28963904D01*
X59385159Y-29059142D01*
X59337540Y-29106761D01*
X59242302Y-29154380D01*
X58956587Y-29154380D01*
X58861349Y-29106761D01*
X58813730Y-29059142D01*
X116355904Y-29154380D02*
X116355904Y-28154380D01*
X116594000Y-28154380D01*
X116736857Y-28202000D01*
X116832095Y-28297238D01*
X116879714Y-28392476D01*
X116927333Y-28582952D01*
X116927333Y-28725809D01*
X116879714Y-28916285D01*
X116832095Y-29011523D01*
X116736857Y-29106761D01*
X116594000Y-29154380D01*
X116355904Y-29154380D01*
X117498761Y-28582952D02*
X117403523Y-28535333D01*
X117355904Y-28487714D01*
X117308285Y-28392476D01*
X117308285Y-28344857D01*
X117355904Y-28249619D01*
X117403523Y-28202000D01*
X117498761Y-28154380D01*
X117689238Y-28154380D01*
X117784476Y-28202000D01*
X117832095Y-28249619D01*
X117879714Y-28344857D01*
X117879714Y-28392476D01*
X117832095Y-28487714D01*
X117784476Y-28535333D01*
X117689238Y-28582952D01*
X117498761Y-28582952D01*
X117403523Y-28630571D01*
X117355904Y-28678190D01*
X117308285Y-28773428D01*
X117308285Y-28963904D01*
X117355904Y-29059142D01*
X117403523Y-29106761D01*
X117498761Y-29154380D01*
X117689238Y-29154380D01*
X117784476Y-29106761D01*
X117832095Y-29059142D01*
X117879714Y-28963904D01*
X117879714Y-28773428D01*
X117832095Y-28678190D01*
X117784476Y-28630571D01*
X117689238Y-28582952D01*
X189174380Y-69222857D02*
X188698190Y-69556190D01*
X189174380Y-69794285D02*
X188174380Y-69794285D01*
X188174380Y-69413333D01*
X188222000Y-69318095D01*
X188269619Y-69270476D01*
X188364857Y-69222857D01*
X188507714Y-69222857D01*
X188602952Y-69270476D01*
X188650571Y-69318095D01*
X188698190Y-69413333D01*
X188698190Y-69794285D01*
X189174380Y-68270476D02*
X189174380Y-68841904D01*
X189174380Y-68556190D02*
X188174380Y-68556190D01*
X188317238Y-68651428D01*
X188412476Y-68746666D01*
X188460095Y-68841904D01*
X189174380Y-67794285D02*
X189174380Y-67603809D01*
X189126761Y-67508571D01*
X189079142Y-67460952D01*
X188936285Y-67365714D01*
X188745809Y-67318095D01*
X188364857Y-67318095D01*
X188269619Y-67365714D01*
X188222000Y-67413333D01*
X188174380Y-67508571D01*
X188174380Y-67699047D01*
X188222000Y-67794285D01*
X188269619Y-67841904D01*
X188364857Y-67889523D01*
X188602952Y-67889523D01*
X188698190Y-67841904D01*
X188745809Y-67794285D01*
X188793428Y-67699047D01*
X188793428Y-67508571D01*
X188745809Y-67413333D01*
X188698190Y-67365714D01*
X188602952Y-67318095D01*
X188015714Y-71572380D02*
X188015714Y-70572380D01*
X188253809Y-70572380D01*
X188396666Y-70620000D01*
X188491904Y-70715238D01*
X188539523Y-70810476D01*
X188587142Y-71000952D01*
X188587142Y-71143809D01*
X188539523Y-71334285D01*
X188491904Y-71429523D01*
X188396666Y-71524761D01*
X188253809Y-71572380D01*
X188015714Y-71572380D01*
X189539523Y-71572380D02*
X188968095Y-71572380D01*
X189253809Y-71572380D02*
X189253809Y-70572380D01*
X189158571Y-70715238D01*
X189063333Y-70810476D01*
X188968095Y-70858095D01*
X190015714Y-71572380D02*
X190206190Y-71572380D01*
X190301428Y-71524761D01*
X190349047Y-71477142D01*
X190444285Y-71334285D01*
X190491904Y-71143809D01*
X190491904Y-70762857D01*
X190444285Y-70667619D01*
X190396666Y-70620000D01*
X190301428Y-70572380D01*
X190110952Y-70572380D01*
X190015714Y-70620000D01*
X189968095Y-70667619D01*
X189920476Y-70762857D01*
X189920476Y-71000952D01*
X189968095Y-71096190D01*
X190015714Y-71143809D01*
X190110952Y-71191428D01*
X190301428Y-71191428D01*
X190396666Y-71143809D01*
X190444285Y-71096190D01*
X190491904Y-71000952D01*
X149201380Y-41401904D02*
X150010904Y-41401904D01*
X150106142Y-41354285D01*
X150153761Y-41306666D01*
X150201380Y-41211428D01*
X150201380Y-41020952D01*
X150153761Y-40925714D01*
X150106142Y-40878095D01*
X150010904Y-40830476D01*
X149201380Y-40830476D01*
X149296619Y-40401904D02*
X149249000Y-40354285D01*
X149201380Y-40259047D01*
X149201380Y-40020952D01*
X149249000Y-39925714D01*
X149296619Y-39878095D01*
X149391857Y-39830476D01*
X149487095Y-39830476D01*
X149629952Y-39878095D01*
X150201380Y-40449523D01*
X150201380Y-39830476D01*
X213415714Y-71572380D02*
X213415714Y-70572380D01*
X213653809Y-70572380D01*
X213796666Y-70620000D01*
X213891904Y-70715238D01*
X213939523Y-70810476D01*
X213987142Y-71000952D01*
X213987142Y-71143809D01*
X213939523Y-71334285D01*
X213891904Y-71429523D01*
X213796666Y-71524761D01*
X213653809Y-71572380D01*
X213415714Y-71572380D01*
X214368095Y-70667619D02*
X214415714Y-70620000D01*
X214510952Y-70572380D01*
X214749047Y-70572380D01*
X214844285Y-70620000D01*
X214891904Y-70667619D01*
X214939523Y-70762857D01*
X214939523Y-70858095D01*
X214891904Y-71000952D01*
X214320476Y-71572380D01*
X214939523Y-71572380D01*
X215796666Y-70905714D02*
X215796666Y-71572380D01*
X215558571Y-70524761D02*
X215320476Y-71239047D01*
X215939523Y-71239047D01*
X214702380Y-69222857D02*
X214226190Y-69556190D01*
X214702380Y-69794285D02*
X213702380Y-69794285D01*
X213702380Y-69413333D01*
X213750000Y-69318095D01*
X213797619Y-69270476D01*
X213892857Y-69222857D01*
X214035714Y-69222857D01*
X214130952Y-69270476D01*
X214178571Y-69318095D01*
X214226190Y-69413333D01*
X214226190Y-69794285D01*
X213797619Y-68841904D02*
X213750000Y-68794285D01*
X213702380Y-68699047D01*
X213702380Y-68460952D01*
X213750000Y-68365714D01*
X213797619Y-68318095D01*
X213892857Y-68270476D01*
X213988095Y-68270476D01*
X214130952Y-68318095D01*
X214702380Y-68889523D01*
X214702380Y-68270476D01*
X214035714Y-67413333D02*
X214702380Y-67413333D01*
X213654761Y-67651428D02*
X214369047Y-67889523D01*
X214369047Y-67270476D01*
X141755904Y-29154380D02*
X141755904Y-28154380D01*
X141994000Y-28154380D01*
X142136857Y-28202000D01*
X142232095Y-28297238D01*
X142279714Y-28392476D01*
X142327333Y-28582952D01*
X142327333Y-28725809D01*
X142279714Y-28916285D01*
X142232095Y-29011523D01*
X142136857Y-29106761D01*
X141994000Y-29154380D01*
X141755904Y-29154380D01*
X142803523Y-29154380D02*
X142994000Y-29154380D01*
X143089238Y-29106761D01*
X143136857Y-29059142D01*
X143232095Y-28916285D01*
X143279714Y-28725809D01*
X143279714Y-28344857D01*
X143232095Y-28249619D01*
X143184476Y-28202000D01*
X143089238Y-28154380D01*
X142898761Y-28154380D01*
X142803523Y-28202000D01*
X142755904Y-28249619D01*
X142708285Y-28344857D01*
X142708285Y-28582952D01*
X142755904Y-28678190D01*
X142803523Y-28725809D01*
X142898761Y-28773428D01*
X143089238Y-28773428D01*
X143184476Y-28725809D01*
X143232095Y-28678190D01*
X143279714Y-28582952D01*
X244776666Y-63162380D02*
X244776666Y-63876666D01*
X244729047Y-64019523D01*
X244633809Y-64114761D01*
X244490952Y-64162380D01*
X244395714Y-64162380D01*
X245776666Y-64162380D02*
X245205238Y-64162380D01*
X245490952Y-64162380D02*
X245490952Y-63162380D01*
X245395714Y-63305238D01*
X245300476Y-63400476D01*
X245205238Y-63448095D01*
X121417142Y-65194166D02*
X121464761Y-65241785D01*
X121512380Y-65384642D01*
X121512380Y-65479880D01*
X121464761Y-65622738D01*
X121369523Y-65717976D01*
X121274285Y-65765595D01*
X121083809Y-65813214D01*
X120940952Y-65813214D01*
X120750476Y-65765595D01*
X120655238Y-65717976D01*
X120560000Y-65622738D01*
X120512380Y-65479880D01*
X120512380Y-65384642D01*
X120560000Y-65241785D01*
X120607619Y-65194166D01*
X120845714Y-64337023D02*
X121512380Y-64337023D01*
X120464761Y-64575119D02*
X121179047Y-64813214D01*
X121179047Y-64194166D01*
X81597380Y-62759404D02*
X82406904Y-62759404D01*
X82502142Y-62711785D01*
X82549761Y-62664166D01*
X82597380Y-62568928D01*
X82597380Y-62378452D01*
X82549761Y-62283214D01*
X82502142Y-62235595D01*
X82406904Y-62187976D01*
X81597380Y-62187976D01*
X81930714Y-61283214D02*
X82597380Y-61283214D01*
X81549761Y-61521309D02*
X82264047Y-61759404D01*
X82264047Y-61140357D01*
X121732380Y-65556904D02*
X122541904Y-65556904D01*
X122637142Y-65509285D01*
X122684761Y-65461666D01*
X122732380Y-65366428D01*
X122732380Y-65175952D01*
X122684761Y-65080714D01*
X122637142Y-65033095D01*
X122541904Y-64985476D01*
X121732380Y-64985476D01*
X121732380Y-64033095D02*
X121732380Y-64509285D01*
X122208571Y-64556904D01*
X122160952Y-64509285D01*
X122113333Y-64414047D01*
X122113333Y-64175952D01*
X122160952Y-64080714D01*
X122208571Y-64033095D01*
X122303809Y-63985476D01*
X122541904Y-63985476D01*
X122637142Y-64033095D01*
X122684761Y-64080714D01*
X122732380Y-64175952D01*
X122732380Y-64414047D01*
X122684761Y-64509285D01*
X122637142Y-64556904D01*
X171747380Y-73993333D02*
X172461666Y-73993333D01*
X172604523Y-74040952D01*
X172699761Y-74136190D01*
X172747380Y-74279047D01*
X172747380Y-74374285D01*
X171747380Y-73040952D02*
X171747380Y-73517142D01*
X172223571Y-73564761D01*
X172175952Y-73517142D01*
X172128333Y-73421904D01*
X172128333Y-73183809D01*
X172175952Y-73088571D01*
X172223571Y-73040952D01*
X172318809Y-72993333D01*
X172556904Y-72993333D01*
X172652142Y-73040952D01*
X172699761Y-73088571D01*
X172747380Y-73183809D01*
X172747380Y-73421904D01*
X172699761Y-73517142D01*
X172652142Y-73564761D01*
X51302380Y-73968333D02*
X52016666Y-73968333D01*
X52159523Y-74015952D01*
X52254761Y-74111190D01*
X52302380Y-74254047D01*
X52302380Y-74349285D01*
X51302380Y-73587380D02*
X51302380Y-72968333D01*
X51683333Y-73301666D01*
X51683333Y-73158809D01*
X51730952Y-73063571D01*
X51778571Y-73015952D01*
X51873809Y-72968333D01*
X52111904Y-72968333D01*
X52207142Y-73015952D01*
X52254761Y-73063571D01*
X52302380Y-73158809D01*
X52302380Y-73444523D01*
X52254761Y-73539761D01*
X52207142Y-73587380D01*
X158247142Y-64936666D02*
X158294761Y-64984285D01*
X158342380Y-65127142D01*
X158342380Y-65222380D01*
X158294761Y-65365238D01*
X158199523Y-65460476D01*
X158104285Y-65508095D01*
X157913809Y-65555714D01*
X157770952Y-65555714D01*
X157580476Y-65508095D01*
X157485238Y-65460476D01*
X157390000Y-65365238D01*
X157342380Y-65222380D01*
X157342380Y-65127142D01*
X157390000Y-64984285D01*
X157437619Y-64936666D01*
X157770952Y-64365238D02*
X157723333Y-64460476D01*
X157675714Y-64508095D01*
X157580476Y-64555714D01*
X157532857Y-64555714D01*
X157437619Y-64508095D01*
X157390000Y-64460476D01*
X157342380Y-64365238D01*
X157342380Y-64174761D01*
X157390000Y-64079523D01*
X157437619Y-64031904D01*
X157532857Y-63984285D01*
X157580476Y-63984285D01*
X157675714Y-64031904D01*
X157723333Y-64079523D01*
X157770952Y-64174761D01*
X157770952Y-64365238D01*
X157818571Y-64460476D01*
X157866190Y-64508095D01*
X157961428Y-64555714D01*
X158151904Y-64555714D01*
X158247142Y-64508095D01*
X158294761Y-64460476D01*
X158342380Y-64365238D01*
X158342380Y-64174761D01*
X158294761Y-64079523D01*
X158247142Y-64031904D01*
X158151904Y-63984285D01*
X157961428Y-63984285D01*
X157866190Y-64031904D01*
X157818571Y-64079523D01*
X157770952Y-64174761D01*
X180792380Y-70492857D02*
X180316190Y-70826190D01*
X180792380Y-71064285D02*
X179792380Y-71064285D01*
X179792380Y-70683333D01*
X179840000Y-70588095D01*
X179887619Y-70540476D01*
X179982857Y-70492857D01*
X180125714Y-70492857D01*
X180220952Y-70540476D01*
X180268571Y-70588095D01*
X180316190Y-70683333D01*
X180316190Y-71064285D01*
X179887619Y-70111904D02*
X179840000Y-70064285D01*
X179792380Y-69969047D01*
X179792380Y-69730952D01*
X179840000Y-69635714D01*
X179887619Y-69588095D01*
X179982857Y-69540476D01*
X180078095Y-69540476D01*
X180220952Y-69588095D01*
X180792380Y-70159523D01*
X180792380Y-69540476D01*
X179792380Y-68635714D02*
X179792380Y-69111904D01*
X180268571Y-69159523D01*
X180220952Y-69111904D01*
X180173333Y-69016666D01*
X180173333Y-68778571D01*
X180220952Y-68683333D01*
X180268571Y-68635714D01*
X180363809Y-68588095D01*
X180601904Y-68588095D01*
X180697142Y-68635714D01*
X180744761Y-68683333D01*
X180792380Y-68778571D01*
X180792380Y-69016666D01*
X180744761Y-69111904D01*
X180697142Y-69159523D01*
X77827142Y-62164166D02*
X77874761Y-62211785D01*
X77922380Y-62354642D01*
X77922380Y-62449880D01*
X77874761Y-62592738D01*
X77779523Y-62687976D01*
X77684285Y-62735595D01*
X77493809Y-62783214D01*
X77350952Y-62783214D01*
X77160476Y-62735595D01*
X77065238Y-62687976D01*
X76970000Y-62592738D01*
X76922380Y-62449880D01*
X76922380Y-62354642D01*
X76970000Y-62211785D01*
X77017619Y-62164166D01*
X77922380Y-61211785D02*
X77922380Y-61783214D01*
X77922380Y-61497500D02*
X76922380Y-61497500D01*
X77065238Y-61592738D01*
X77160476Y-61687976D01*
X77208095Y-61783214D01*
X146817142Y-65169166D02*
X146864761Y-65216785D01*
X146912380Y-65359642D01*
X146912380Y-65454880D01*
X146864761Y-65597738D01*
X146769523Y-65692976D01*
X146674285Y-65740595D01*
X146483809Y-65788214D01*
X146340952Y-65788214D01*
X146150476Y-65740595D01*
X146055238Y-65692976D01*
X145960000Y-65597738D01*
X145912380Y-65454880D01*
X145912380Y-65359642D01*
X145960000Y-65216785D01*
X146007619Y-65169166D01*
X145912380Y-64312023D02*
X145912380Y-64502500D01*
X145960000Y-64597738D01*
X146007619Y-64645357D01*
X146150476Y-64740595D01*
X146340952Y-64788214D01*
X146721904Y-64788214D01*
X146817142Y-64740595D01*
X146864761Y-64692976D01*
X146912380Y-64597738D01*
X146912380Y-64407261D01*
X146864761Y-64312023D01*
X146817142Y-64264404D01*
X146721904Y-64216785D01*
X146483809Y-64216785D01*
X146388571Y-64264404D01*
X146340952Y-64312023D01*
X146293333Y-64407261D01*
X146293333Y-64597738D01*
X146340952Y-64692976D01*
X146388571Y-64740595D01*
X146483809Y-64788214D01*
X178522380Y-64236904D02*
X179331904Y-64236904D01*
X179427142Y-64189285D01*
X179474761Y-64141666D01*
X179522380Y-64046428D01*
X179522380Y-63855952D01*
X179474761Y-63760714D01*
X179427142Y-63713095D01*
X179331904Y-63665476D01*
X178522380Y-63665476D01*
X178522380Y-63284523D02*
X178522380Y-62617857D01*
X179522380Y-63046428D01*
X171299142Y-63666666D02*
X171346761Y-63714285D01*
X171394380Y-63857142D01*
X171394380Y-63952380D01*
X171346761Y-64095238D01*
X171251523Y-64190476D01*
X171156285Y-64238095D01*
X170965809Y-64285714D01*
X170822952Y-64285714D01*
X170632476Y-64238095D01*
X170537238Y-64190476D01*
X170442000Y-64095238D01*
X170394380Y-63952380D01*
X170394380Y-63857142D01*
X170442000Y-63714285D01*
X170489619Y-63666666D01*
X171394380Y-63190476D02*
X171394380Y-63000000D01*
X171346761Y-62904761D01*
X171299142Y-62857142D01*
X171156285Y-62761904D01*
X170965809Y-62714285D01*
X170584857Y-62714285D01*
X170489619Y-62761904D01*
X170442000Y-62809523D01*
X170394380Y-62904761D01*
X170394380Y-63095238D01*
X170442000Y-63190476D01*
X170489619Y-63238095D01*
X170584857Y-63285714D01*
X170822952Y-63285714D01*
X170918190Y-63238095D01*
X170965809Y-63190476D01*
X171013428Y-63095238D01*
X171013428Y-62904761D01*
X170965809Y-62809523D01*
X170918190Y-62761904D01*
X170822952Y-62714285D01*
X147132380Y-65556904D02*
X147941904Y-65556904D01*
X148037142Y-65509285D01*
X148084761Y-65461666D01*
X148132380Y-65366428D01*
X148132380Y-65175952D01*
X148084761Y-65080714D01*
X148037142Y-65033095D01*
X147941904Y-64985476D01*
X147132380Y-64985476D01*
X147132380Y-64080714D02*
X147132380Y-64271190D01*
X147180000Y-64366428D01*
X147227619Y-64414047D01*
X147370476Y-64509285D01*
X147560952Y-64556904D01*
X147941904Y-64556904D01*
X148037142Y-64509285D01*
X148084761Y-64461666D01*
X148132380Y-64366428D01*
X148132380Y-64175952D01*
X148084761Y-64080714D01*
X148037142Y-64033095D01*
X147941904Y-63985476D01*
X147703809Y-63985476D01*
X147608571Y-64033095D01*
X147560952Y-64080714D01*
X147513333Y-64175952D01*
X147513333Y-64366428D01*
X147560952Y-64461666D01*
X147608571Y-64509285D01*
X147703809Y-64556904D01*
X130757142Y-65169166D02*
X130804761Y-65216785D01*
X130852380Y-65359642D01*
X130852380Y-65454880D01*
X130804761Y-65597738D01*
X130709523Y-65692976D01*
X130614285Y-65740595D01*
X130423809Y-65788214D01*
X130280952Y-65788214D01*
X130090476Y-65740595D01*
X129995238Y-65692976D01*
X129900000Y-65597738D01*
X129852380Y-65454880D01*
X129852380Y-65359642D01*
X129900000Y-65216785D01*
X129947619Y-65169166D01*
X129852380Y-64264404D02*
X129852380Y-64740595D01*
X130328571Y-64788214D01*
X130280952Y-64740595D01*
X130233333Y-64645357D01*
X130233333Y-64407261D01*
X130280952Y-64312023D01*
X130328571Y-64264404D01*
X130423809Y-64216785D01*
X130661904Y-64216785D01*
X130757142Y-64264404D01*
X130804761Y-64312023D01*
X130852380Y-64407261D01*
X130852380Y-64645357D01*
X130804761Y-64740595D01*
X130757142Y-64788214D01*
D11*
X71120000Y-74990000D02*
X111820000Y-74990000D01*
X71120000Y-72330000D02*
X111820000Y-72330000D01*
X68520000Y-73660000D02*
X68520000Y-72330000D01*
X68520000Y-72330000D02*
X69850000Y-72330000D01*
X71120000Y-74990000D02*
X71120000Y-72330000D01*
X111820000Y-74990000D02*
X111820000Y-72330000D01*
X167700000Y-74990000D02*
X167700000Y-72330000D01*
X144780000Y-74990000D02*
X144780000Y-72330000D01*
X142180000Y-74990000D02*
X142180000Y-73660000D01*
X144780000Y-74990000D02*
X167700000Y-74990000D01*
X144780000Y-72330000D02*
X167700000Y-72330000D01*
X143510000Y-74990000D02*
X142180000Y-74990000D01*
X115570000Y-74990000D02*
X114240000Y-74990000D01*
X116840000Y-72330000D02*
X139760000Y-72330000D01*
X116840000Y-74990000D02*
X139760000Y-74990000D01*
X114240000Y-74990000D02*
X114240000Y-73660000D01*
X116840000Y-74990000D02*
X116840000Y-72330000D01*
X139760000Y-74990000D02*
X139760000Y-72330000D01*
X138657000Y-31976748D02*
X138657000Y-32499252D01*
X137187000Y-31976748D02*
X137187000Y-32499252D01*
X65251000Y-40378748D02*
X65251000Y-40901252D01*
X63781000Y-40378748D02*
X63781000Y-40901252D01*
X147347000Y-37330748D02*
X147347000Y-37853252D01*
X148817000Y-37330748D02*
X148817000Y-37853252D01*
X187425000Y-37076748D02*
X187425000Y-37599252D01*
X185955000Y-37076748D02*
X185955000Y-37599252D01*
X194310000Y-72330000D02*
X191710000Y-72330000D01*
X194310000Y-72330000D02*
X194310000Y-74990000D01*
X191710000Y-72330000D02*
X191710000Y-74990000D01*
X195580000Y-72330000D02*
X196910000Y-72330000D01*
X196910000Y-72330000D02*
X196910000Y-73660000D01*
X194310000Y-74990000D02*
X191710000Y-74990000D01*
X199390000Y-72330000D02*
X199390000Y-74990000D01*
X201990000Y-72330000D02*
X201990000Y-73660000D01*
X196790000Y-72330000D02*
X196790000Y-74990000D01*
X200660000Y-72330000D02*
X201990000Y-72330000D01*
X199390000Y-74990000D02*
X196790000Y-74990000D01*
X199390000Y-72330000D02*
X196790000Y-72330000D01*
X207070000Y-72330000D02*
X207070000Y-73660000D01*
X205740000Y-72330000D02*
X207070000Y-72330000D01*
X201870000Y-72330000D02*
X201870000Y-74990000D01*
X204470000Y-72330000D02*
X201870000Y-72330000D01*
X204470000Y-74990000D02*
X201870000Y-74990000D01*
X204470000Y-72330000D02*
X204470000Y-74990000D01*
X209550000Y-72330000D02*
X209550000Y-74990000D01*
X212150000Y-72330000D02*
X212150000Y-73660000D01*
X210820000Y-72330000D02*
X212150000Y-72330000D01*
X209550000Y-72330000D02*
X206950000Y-72330000D01*
X206950000Y-72330000D02*
X206950000Y-74990000D01*
X209550000Y-74990000D02*
X206950000Y-74990000D01*
X26610000Y-66040000D02*
X26610000Y-64710000D01*
X26610000Y-64710000D02*
X27940000Y-64710000D01*
X26610000Y-67310000D02*
X29270000Y-67310000D01*
X26610000Y-74990000D02*
X29270000Y-74990000D01*
X26610000Y-67310000D02*
X26610000Y-74990000D01*
X29270000Y-67310000D02*
X29270000Y-74990000D01*
X120272000Y-38211000D02*
X117472000Y-38211000D01*
X120922000Y-36911000D02*
X120922000Y-37511000D01*
X116822000Y-37511000D02*
X116822000Y-36911000D01*
X117472000Y-36211000D02*
X120272000Y-36211000D01*
X120922000Y-36911000D02*
G75*
G03*
X120222000Y-36211000I-699999J1D01*
G01*
X120222000Y-38211000D02*
G75*
G03*
X120922000Y-37511000I1J699999D01*
G01*
X116822000Y-37511000D02*
G75*
G03*
X117522000Y-38211000I699999J-1D01*
G01*
X117522000Y-36211000D02*
G75*
G03*
X116822000Y-36911000I-1J-699999D01*
G01*
X120922000Y-43769000D02*
X120922000Y-44369000D01*
X120272000Y-45069000D02*
X117472000Y-45069000D01*
X116822000Y-44369000D02*
X116822000Y-43769000D01*
X117472000Y-43069000D02*
X120272000Y-43069000D01*
X120922000Y-43769000D02*
G75*
G03*
X120222000Y-43069000I-699999J1D01*
G01*
X117522000Y-43069000D02*
G75*
G03*
X116822000Y-43769000I-1J-699999D01*
G01*
X116822000Y-44369000D02*
G75*
G03*
X117522000Y-45069000I699999J-1D01*
G01*
X120222000Y-45069000D02*
G75*
G03*
X120922000Y-44369000I1J699999D01*
G01*
X116822000Y-40940000D02*
X116822000Y-40340000D01*
X120272000Y-41640000D02*
X117472000Y-41640000D01*
X117472000Y-39640000D02*
X120272000Y-39640000D01*
X120922000Y-40340000D02*
X120922000Y-40940000D01*
X120922000Y-40340000D02*
G75*
G03*
X120222000Y-39640000I-699999J1D01*
G01*
X117522000Y-39640000D02*
G75*
G03*
X116822000Y-40340000I-1J-699999D01*
G01*
X120222000Y-41640000D02*
G75*
G03*
X120922000Y-40940000I1J699999D01*
G01*
X116822000Y-40940000D02*
G75*
G03*
X117522000Y-41640000I699999J-1D01*
G01*
X120272000Y-48371000D02*
X117472000Y-48371000D01*
X116822000Y-47671000D02*
X116822000Y-47071000D01*
X120922000Y-47071000D02*
X120922000Y-47671000D01*
X117472000Y-46371000D02*
X120272000Y-46371000D01*
X120222000Y-48371000D02*
G75*
G03*
X120922000Y-47671000I1J699999D01*
G01*
X120922000Y-47071000D02*
G75*
G03*
X120222000Y-46371000I-699999J1D01*
G01*
X116822000Y-47671000D02*
G75*
G03*
X117522000Y-48371000I699999J-1D01*
G01*
X117522000Y-46371000D02*
G75*
G03*
X116822000Y-47071000I-1J-699999D01*
G01*
X45492936Y-26189000D02*
X45947064Y-26189000D01*
X45492936Y-27659000D02*
X45947064Y-27659000D01*
X70892936Y-27659000D02*
X71347064Y-27659000D01*
X70892936Y-26189000D02*
X71347064Y-26189000D01*
X83592936Y-27659000D02*
X84047064Y-27659000D01*
X83592936Y-26189000D02*
X84047064Y-26189000D01*
X96292936Y-27659000D02*
X96747064Y-27659000D01*
X96292936Y-26189000D02*
X96747064Y-26189000D01*
X108992936Y-26189000D02*
X109447064Y-26189000D01*
X108992936Y-27659000D02*
X109447064Y-27659000D01*
X121692936Y-27659000D02*
X122147064Y-27659000D01*
X121692936Y-26189000D02*
X122147064Y-26189000D01*
X147092936Y-26189000D02*
X147547064Y-26189000D01*
X147092936Y-27659000D02*
X147547064Y-27659000D01*
X159792936Y-25935000D02*
X160247064Y-25935000D01*
X159792936Y-27405000D02*
X160247064Y-27405000D01*
X172492936Y-27405000D02*
X172947064Y-27405000D01*
X172492936Y-25935000D02*
X172947064Y-25935000D01*
X185192936Y-25935000D02*
X185647064Y-25935000D01*
X185192936Y-27405000D02*
X185647064Y-27405000D01*
X197892936Y-27405000D02*
X198347064Y-27405000D01*
X197892936Y-25935000D02*
X198347064Y-25935000D01*
X210592936Y-25935000D02*
X211047064Y-25935000D01*
X210592936Y-27405000D02*
X211047064Y-27405000D01*
X223292936Y-27405000D02*
X223747064Y-27405000D01*
X223292936Y-25935000D02*
X223747064Y-25935000D01*
X235992936Y-27405000D02*
X236447064Y-27405000D01*
X235992936Y-25935000D02*
X236447064Y-25935000D01*
X134392936Y-27659000D02*
X134847064Y-27659000D01*
X134392936Y-26189000D02*
X134847064Y-26189000D01*
X244375000Y-31522936D02*
X244375000Y-31977064D01*
X245845000Y-31522936D02*
X245845000Y-31977064D01*
X196315000Y-68807064D02*
X196315000Y-68352936D01*
X194845000Y-68807064D02*
X194845000Y-68352936D01*
X199925000Y-68807064D02*
X199925000Y-68352936D01*
X201395000Y-68807064D02*
X201395000Y-68352936D01*
X205005000Y-68807064D02*
X205005000Y-68352936D01*
X206475000Y-68807064D02*
X206475000Y-68352936D01*
X211555000Y-68807064D02*
X211555000Y-68352936D01*
X210085000Y-68807064D02*
X210085000Y-68352936D01*
X80170000Y-44500000D02*
X79935000Y-44500000D01*
X67385000Y-44500000D02*
X67385000Y-46315000D01*
X67150000Y-36780000D02*
X67385000Y-36780000D01*
X80170000Y-40640000D02*
X80170000Y-44500000D01*
X67150000Y-44500000D02*
X67385000Y-44500000D01*
X80170000Y-36780000D02*
X79935000Y-36780000D01*
X80170000Y-40640000D02*
X80170000Y-36780000D01*
X67150000Y-40640000D02*
X67150000Y-36780000D01*
X67150000Y-40640000D02*
X67150000Y-44500000D01*
X201709000Y-40640000D02*
X201709000Y-36780000D01*
X188689000Y-40640000D02*
X188689000Y-36780000D01*
X201709000Y-44500000D02*
X201474000Y-44500000D01*
X188689000Y-36780000D02*
X188924000Y-36780000D01*
X188689000Y-40640000D02*
X188689000Y-44500000D01*
X201709000Y-36780000D02*
X201474000Y-36780000D01*
X188689000Y-44500000D02*
X188924000Y-44500000D01*
X188924000Y-44500000D02*
X188924000Y-46315000D01*
X201709000Y-40640000D02*
X201709000Y-44500000D01*
X32792936Y-26189000D02*
X33247064Y-26189000D01*
X32792936Y-27659000D02*
X33247064Y-27659000D01*
X58192936Y-27659000D02*
X58647064Y-27659000D01*
X58192936Y-26189000D02*
X58647064Y-26189000D01*
X191235000Y-68807064D02*
X191235000Y-68352936D01*
X189765000Y-68807064D02*
X189765000Y-68352936D01*
X189230000Y-74990000D02*
X186630000Y-74990000D01*
X186630000Y-72330000D02*
X186630000Y-74990000D01*
X189230000Y-72330000D02*
X189230000Y-74990000D01*
X189230000Y-72330000D02*
X186630000Y-72330000D01*
X190500000Y-72330000D02*
X191830000Y-72330000D01*
X191830000Y-72330000D02*
X191830000Y-73660000D01*
X150824000Y-44500000D02*
X150824000Y-46315000D01*
X150589000Y-40640000D02*
X150589000Y-44500000D01*
X150589000Y-44500000D02*
X150824000Y-44500000D01*
X163609000Y-40640000D02*
X163609000Y-36780000D01*
X163609000Y-36780000D02*
X163374000Y-36780000D01*
X163609000Y-40640000D02*
X163609000Y-44500000D01*
X150589000Y-36780000D02*
X150824000Y-36780000D01*
X150589000Y-40640000D02*
X150589000Y-36780000D01*
X163609000Y-44500000D02*
X163374000Y-44500000D01*
X217230000Y-72330000D02*
X217230000Y-73660000D01*
X214630000Y-72330000D02*
X212030000Y-72330000D01*
X214630000Y-74990000D02*
X212030000Y-74990000D01*
X215900000Y-72330000D02*
X217230000Y-72330000D01*
X214630000Y-72330000D02*
X214630000Y-74990000D01*
X212030000Y-72330000D02*
X212030000Y-74990000D01*
X216635000Y-68807064D02*
X216635000Y-68352936D01*
X215165000Y-68807064D02*
X215165000Y-68352936D01*
X243780000Y-67310000D02*
X246440000Y-67310000D01*
X246440000Y-67310000D02*
X246440000Y-74990000D01*
X243780000Y-64710000D02*
X245110000Y-64710000D01*
X243780000Y-74990000D02*
X246440000Y-74990000D01*
X243780000Y-67310000D02*
X243780000Y-74990000D01*
X243780000Y-66040000D02*
X243780000Y-64710000D01*
X118645000Y-64766248D02*
X118645000Y-65288752D01*
X120115000Y-64766248D02*
X120115000Y-65288752D01*
X82985000Y-65857500D02*
X83250000Y-65857500D01*
X98605000Y-58137500D02*
X98340000Y-58137500D01*
X82985000Y-61997500D02*
X82985000Y-65857500D01*
X82985000Y-61997500D02*
X82985000Y-58137500D01*
X82985000Y-58137500D02*
X83250000Y-58137500D01*
X83250000Y-65857500D02*
X83250000Y-67672500D01*
X98605000Y-65857500D02*
X98340000Y-65857500D01*
X98605000Y-61997500D02*
X98605000Y-58137500D01*
X98605000Y-61997500D02*
X98605000Y-65857500D01*
X122995000Y-64795000D02*
X122995000Y-62595000D01*
X122995000Y-64795000D02*
X122995000Y-68395000D01*
X128465000Y-64795000D02*
X128465000Y-62595000D01*
X128465000Y-64795000D02*
X128465000Y-66995000D01*
X178495000Y-74990000D02*
X178495000Y-72330000D01*
X173295000Y-74990000D02*
X173295000Y-73660000D01*
X175895000Y-74990000D02*
X178495000Y-74990000D01*
X175895000Y-72330000D02*
X178495000Y-72330000D01*
X175895000Y-74990000D02*
X175895000Y-72330000D01*
X174625000Y-74990000D02*
X173295000Y-74990000D01*
X53290000Y-73635000D02*
X53290000Y-72305000D01*
X55890000Y-74965000D02*
X55890000Y-72305000D01*
X55890000Y-72305000D02*
X63570000Y-72305000D01*
X63570000Y-74965000D02*
X63570000Y-72305000D01*
X53290000Y-72305000D02*
X54620000Y-72305000D01*
X55890000Y-74965000D02*
X63570000Y-74965000D01*
X155475000Y-64508748D02*
X155475000Y-65031252D01*
X156945000Y-64508748D02*
X156945000Y-65031252D01*
X179043000Y-70077064D02*
X179043000Y-69622936D01*
X177573000Y-70077064D02*
X177573000Y-69622936D01*
X79275000Y-61736248D02*
X79275000Y-62258752D01*
X80745000Y-61736248D02*
X80745000Y-62258752D01*
X145515000Y-64741248D02*
X145515000Y-65263752D01*
X144045000Y-64741248D02*
X144045000Y-65263752D01*
D10*
X175080000Y-65150000D02*
X175080000Y-66375000D01*
X178205000Y-61800000D02*
X177905000Y-61800000D01*
X174855000Y-65150000D02*
X175080000Y-65150000D01*
X178205000Y-65150000D02*
X178205000Y-61800000D01*
X174855000Y-65150000D02*
X174855000Y-61800000D01*
X174855000Y-61800000D02*
X175155000Y-61800000D01*
X178205000Y-65150000D02*
X177905000Y-65150000D01*
D11*
X171985000Y-63238748D02*
X171985000Y-63761252D01*
X173455000Y-63238748D02*
X173455000Y-63761252D01*
X148395000Y-64795000D02*
X148395000Y-62595000D01*
X148395000Y-64795000D02*
X148395000Y-68395000D01*
X153865000Y-64795000D02*
X153865000Y-66995000D01*
X153865000Y-64795000D02*
X153865000Y-62595000D01*
X132815000Y-65263752D02*
X132815000Y-64741248D01*
X131345000Y-65263752D02*
X131345000Y-64741248D01*
M02*
