G04 #@! TF.GenerationSoftware,KiCad,Pcbnew,(6.0.1-0)*
G04 #@! TF.CreationDate,2022-02-06T20:22:51-08:00*
G04 #@! TF.ProjectId,led-driver,6c65642d-6472-4697-9665-722e6b696361,rev?*
G04 #@! TF.SameCoordinates,Original*
G04 #@! TF.FileFunction,Copper,L2,Bot*
G04 #@! TF.FilePolarity,Positive*
%FSLAX46Y46*%
G04 Gerber Fmt 4.6, Leading zero omitted, Abs format (unit mm)*
G04 Created by KiCad (PCBNEW (6.0.1-0)) date 2022-02-06 20:22:51*
%MOMM*%
%LPD*%
G01*
G04 APERTURE LIST*
G04 #@! TA.AperFunction,ComponentPad*
%ADD10R,1.700000X1.700000*%
G04 #@! TD*
G04 #@! TA.AperFunction,ComponentPad*
%ADD11O,1.700000X1.700000*%
G04 #@! TD*
G04 #@! TA.AperFunction,ComponentPad*
%ADD12R,1.800000X1.800000*%
G04 #@! TD*
G04 #@! TA.AperFunction,ComponentPad*
%ADD13C,1.800000*%
G04 #@! TD*
G04 #@! TA.AperFunction,ViaPad*
%ADD14C,0.508000*%
G04 #@! TD*
G04 #@! TA.AperFunction,Conductor*
%ADD15C,0.635000*%
G04 #@! TD*
G04 #@! TA.AperFunction,Conductor*
%ADD16C,0.228600*%
G04 #@! TD*
G04 #@! TA.AperFunction,Conductor*
%ADD17C,2.540000*%
G04 #@! TD*
G04 APERTURE END LIST*
D10*
X69850000Y-73660000D03*
D11*
X72390000Y-73660000D03*
X74930000Y-73660000D03*
X77470000Y-73660000D03*
X80010000Y-73660000D03*
X82550000Y-73660000D03*
X85090000Y-73660000D03*
X87630000Y-73660000D03*
X90170000Y-73660000D03*
X92710000Y-73660000D03*
X95250000Y-73660000D03*
X97790000Y-73660000D03*
X100330000Y-73660000D03*
X102870000Y-73660000D03*
X105410000Y-73660000D03*
X107950000Y-73660000D03*
X110490000Y-73660000D03*
D10*
X143510000Y-73660000D03*
D11*
X146050000Y-73660000D03*
X148590000Y-73660000D03*
X151130000Y-73660000D03*
X153670000Y-73660000D03*
X156210000Y-73660000D03*
X158750000Y-73660000D03*
X161290000Y-73660000D03*
X163830000Y-73660000D03*
X166370000Y-73660000D03*
X138430000Y-73660000D03*
X135890000Y-73660000D03*
X133350000Y-73660000D03*
X130810000Y-73660000D03*
X128270000Y-73660000D03*
X125730000Y-73660000D03*
X123190000Y-73660000D03*
X120650000Y-73660000D03*
X118110000Y-73660000D03*
D10*
X115570000Y-73660000D03*
D12*
X29464000Y-26924000D03*
D13*
X26924000Y-26924000D03*
D12*
X42164000Y-26924000D03*
D13*
X39624000Y-26924000D03*
D12*
X54864000Y-26924000D03*
D13*
X52324000Y-26924000D03*
D12*
X67564000Y-26924000D03*
D13*
X65024000Y-26924000D03*
D12*
X80264000Y-26924000D03*
D13*
X77724000Y-26924000D03*
D12*
X92964000Y-26924000D03*
D13*
X90424000Y-26924000D03*
D12*
X105664000Y-26924000D03*
D13*
X103124000Y-26924000D03*
D12*
X156464000Y-26924000D03*
D13*
X153924000Y-26924000D03*
D12*
X169164000Y-26924000D03*
D13*
X166624000Y-26924000D03*
D12*
X181864000Y-26924000D03*
D13*
X179324000Y-26924000D03*
D12*
X207264000Y-26924000D03*
D13*
X204724000Y-26924000D03*
D12*
X219964000Y-26924000D03*
D13*
X217424000Y-26924000D03*
D12*
X232664000Y-26924000D03*
D13*
X230124000Y-26924000D03*
D12*
X245364000Y-26924000D03*
D13*
X242824000Y-26924000D03*
D10*
X195580000Y-73660000D03*
D11*
X193040000Y-73660000D03*
D10*
X200660000Y-73660000D03*
D11*
X198120000Y-73660000D03*
D10*
X205740000Y-73660000D03*
D11*
X203200000Y-73660000D03*
D10*
X210820000Y-73660000D03*
D11*
X208280000Y-73660000D03*
D10*
X27940000Y-66040000D03*
D11*
X27940000Y-68580000D03*
X27940000Y-71120000D03*
X27940000Y-73660000D03*
D12*
X194564000Y-26924000D03*
D13*
X192024000Y-26924000D03*
D12*
X131064000Y-26924000D03*
D13*
X128524000Y-26924000D03*
D12*
X118364000Y-26924000D03*
D13*
X115824000Y-26924000D03*
D10*
X190500000Y-73660000D03*
D11*
X187960000Y-73660000D03*
D10*
X215900000Y-73660000D03*
D11*
X213360000Y-73660000D03*
D12*
X143764000Y-26924000D03*
D13*
X141224000Y-26924000D03*
D10*
X245110000Y-66040000D03*
D11*
X245110000Y-68580000D03*
X245110000Y-71120000D03*
X245110000Y-73660000D03*
X177165000Y-73660000D03*
D10*
X174625000Y-73660000D03*
X54620000Y-73635000D03*
D11*
X57160000Y-73635000D03*
X59700000Y-73635000D03*
X62240000Y-73635000D03*
D14*
X46558200Y-52070000D03*
X137210800Y-52070000D03*
X196748400Y-52070000D03*
X218414600Y-52070000D03*
X189433200Y-48006000D03*
X151455000Y-47935000D03*
X174444000Y-48006000D03*
X73050400Y-35966400D03*
X74295000Y-35941000D03*
X71780400Y-35966400D03*
X234213400Y-56261000D03*
X176542200Y-48578000D03*
X192115568Y-49545368D03*
X71767200Y-50101000D03*
X67945000Y-48031400D03*
X150038800Y-50875200D03*
X155101661Y-50104939D03*
X192786000Y-30480000D03*
X84366600Y-48578000D03*
X69189600Y-48565570D03*
X190766200Y-48578000D03*
X156464000Y-55245000D03*
X152640800Y-48578000D03*
X123444000Y-48768000D03*
X87630000Y-48006000D03*
X193040000Y-49911000D03*
X126700270Y-61925200D03*
X125400270Y-62179200D03*
X128016000Y-61950600D03*
X150799800Y-55245000D03*
X126060200Y-48006000D03*
X85080000Y-53330000D03*
X68503800Y-53340000D03*
X72085200Y-30480000D03*
X70408800Y-49530000D03*
X124105000Y-53339400D03*
X155803600Y-30480000D03*
X153870878Y-49476878D03*
X175530000Y-53356000D03*
X149505000Y-53239000D03*
X152146000Y-53340000D03*
X153213800Y-50875200D03*
X190246000Y-53340000D03*
X235204000Y-58166000D03*
X233680000Y-59690000D03*
X119380000Y-55245000D03*
X144780000Y-55245000D03*
X172720000Y-55245000D03*
X187970000Y-55255000D03*
X83810000Y-55255000D03*
X193853570Y-33108168D03*
X121589800Y-40665400D03*
X187960000Y-71120000D03*
X151638000Y-30480000D03*
X68580000Y-30480000D03*
X189484000Y-30480000D03*
X137922000Y-30480000D03*
X117602000Y-30480000D03*
X30480000Y-38100000D03*
X165100000Y-63500000D03*
X30480000Y-45720000D03*
X114300000Y-63500000D03*
X137160000Y-63500000D03*
X218440000Y-45720000D03*
X170434000Y-41300400D03*
X233680000Y-68580000D03*
X30480000Y-43180000D03*
X185420000Y-58420000D03*
X40640000Y-63500000D03*
X137160000Y-58420000D03*
X129540000Y-35560000D03*
X165100000Y-58420000D03*
X185420000Y-66040000D03*
X218440000Y-63500000D03*
X48260000Y-55880000D03*
X45720000Y-58420000D03*
X218440000Y-66040000D03*
X185420000Y-63500000D03*
X43180000Y-50800000D03*
X114300000Y-66040000D03*
X114300000Y-60960000D03*
X40640000Y-53340000D03*
X185420000Y-60960000D03*
X165100000Y-66040000D03*
X165100000Y-60960000D03*
X218440000Y-35560000D03*
X35560000Y-58420000D03*
X200888600Y-45669200D03*
X185420000Y-68580000D03*
X236220000Y-68580000D03*
X228600000Y-68580000D03*
X129540000Y-40640000D03*
X185420000Y-33020000D03*
X114300000Y-58420000D03*
X35560000Y-68580000D03*
X137160000Y-66040000D03*
X99136200Y-67691000D03*
X137160000Y-68580000D03*
X43180000Y-60960000D03*
X218440000Y-58420000D03*
X71120000Y-68580000D03*
X218440000Y-33020000D03*
X30480000Y-35560000D03*
X30480000Y-40640000D03*
X30480000Y-63500000D03*
X71120000Y-60960000D03*
X231140000Y-68580000D03*
X177800000Y-33020000D03*
X71120000Y-58420000D03*
X137160000Y-60960000D03*
X38100000Y-55880000D03*
X185420000Y-45720000D03*
X218440000Y-60960000D03*
X129540000Y-38100000D03*
X218440000Y-55880000D03*
X170180000Y-33020000D03*
X218440000Y-68580000D03*
X38100000Y-66040000D03*
X71120000Y-66040000D03*
X218440000Y-48260000D03*
X114300000Y-68580000D03*
X104165400Y-71424800D03*
X129540000Y-43180000D03*
X71120000Y-63500000D03*
X165100000Y-68580000D03*
X33020000Y-60960000D03*
X101523800Y-70154800D03*
X191401557Y-50787443D03*
X124918200Y-50875200D03*
X86435200Y-50875200D03*
X69774800Y-50875200D03*
X175959000Y-50787443D03*
X124460000Y-48006000D03*
X86967020Y-49430980D03*
X121666000Y-49530000D03*
X118870641Y-50101000D03*
X74295000Y-45290000D03*
X33782000Y-47752000D03*
X75565000Y-45290000D03*
X46990000Y-46228000D03*
X58928000Y-45466000D03*
X76835000Y-45290000D03*
X78105000Y-45290000D03*
X62230000Y-44196000D03*
X146812000Y-42672000D03*
X157734000Y-45290000D03*
X165608000Y-42418000D03*
X159004000Y-45290000D03*
X173736000Y-43942000D03*
X160274000Y-45290000D03*
X161544000Y-45290000D03*
X181610000Y-45212000D03*
X196264244Y-34447411D03*
X162814000Y-35990000D03*
X161544000Y-36576000D03*
X211836000Y-36068000D03*
X224536000Y-38100000D03*
X160274000Y-37846000D03*
X158750000Y-39370000D03*
X237744000Y-39624000D03*
X195834000Y-42926000D03*
X135636000Y-41402000D03*
X197231000Y-43434000D03*
X242062000Y-42291000D03*
X97790000Y-58928000D03*
X95250000Y-59690000D03*
X96520000Y-59944000D03*
X97536000Y-61722000D03*
X100584000Y-65278000D03*
X103124000Y-68580000D03*
X105410000Y-69850000D03*
D15*
X46558200Y-52070000D02*
X137210800Y-52070000D01*
X137210800Y-52070000D02*
X196748400Y-52070000D01*
X196748400Y-52070000D02*
X218414600Y-52070000D01*
X218414600Y-52070000D02*
X229870000Y-52070000D01*
D16*
X151455000Y-47935000D02*
X126131200Y-47935000D01*
X126131200Y-47935000D02*
X126060200Y-48006000D01*
X174444000Y-48006000D02*
X151526000Y-48006000D01*
X151526000Y-48006000D02*
X151455000Y-47935000D01*
X189433200Y-48006000D02*
X174444000Y-48006000D01*
X67970400Y-48006000D02*
X124460000Y-48006000D01*
X124460000Y-48006000D02*
X126060200Y-48006000D01*
X70408800Y-49530000D02*
X86868000Y-49530000D01*
D15*
X229870000Y-52070000D02*
X233451400Y-55651400D01*
X233451400Y-55651400D02*
X233527600Y-55651400D01*
X233527600Y-55651400D02*
X233603800Y-55651400D01*
X233603800Y-55651400D02*
X234213400Y-56261000D01*
D16*
X190766200Y-48578000D02*
X176542200Y-48578000D01*
X176542200Y-48578000D02*
X152640800Y-48578000D01*
X192115568Y-49545368D02*
X155661231Y-49545368D01*
X118870641Y-50101000D02*
X71767200Y-50101000D01*
X69202030Y-48578000D02*
X69189600Y-48565570D01*
X84366600Y-48578000D02*
X69202030Y-48578000D01*
X67970400Y-48006000D02*
X67945000Y-48031400D01*
D15*
X155497879Y-50787443D02*
X175959000Y-50787443D01*
D16*
X153870878Y-49476878D02*
X155592741Y-49476878D01*
D15*
X153213800Y-50875200D02*
X154778220Y-50875200D01*
D16*
X192846061Y-50104939D02*
X155101661Y-50104939D01*
D15*
X154785710Y-50867710D02*
X155417612Y-50867710D01*
D16*
X155592741Y-49476878D02*
X155661231Y-49545368D01*
X118874580Y-50104939D02*
X118870641Y-50101000D01*
D15*
X155417612Y-50867710D02*
X155497879Y-50787443D01*
X154778220Y-50875200D02*
X154785710Y-50867710D01*
D16*
X193040000Y-49911000D02*
X192846061Y-50104939D01*
X155101661Y-50104939D02*
X118874580Y-50104939D01*
X152640800Y-48578000D02*
X84366600Y-48578000D01*
D15*
X74727289Y-44452289D02*
X75565000Y-45290000D01*
X72202081Y-47382919D02*
X74295000Y-45290000D01*
X71970920Y-46429378D02*
X73948009Y-44452289D01*
X73948009Y-44452289D02*
X74727289Y-44452289D01*
X72130500Y-47382919D02*
X72202081Y-47382919D01*
X47191378Y-46429378D02*
X71970920Y-46429378D01*
X34278341Y-47255659D02*
X72003240Y-47255659D01*
X46990000Y-46228000D02*
X47191378Y-46429378D01*
X72003240Y-47255659D02*
X72130500Y-47382919D01*
X33782000Y-47752000D02*
X34278341Y-47255659D01*
X150799800Y-55245000D02*
X156464000Y-55245000D01*
X156464000Y-55245000D02*
X172720000Y-55245000D01*
X150038800Y-50875200D02*
X153213800Y-50875200D01*
X45644800Y-50875200D02*
X124918200Y-50875200D01*
D16*
X123444000Y-48768000D02*
X123634000Y-48578000D01*
D15*
X144780000Y-55245000D02*
X150799800Y-55245000D01*
X48260000Y-53340000D02*
X68503800Y-53340000D01*
X68503800Y-53340000D02*
X152146000Y-53340000D01*
D17*
X77978000Y-30480000D02*
X72085200Y-30480000D01*
X72085200Y-30480000D02*
X68580000Y-30480000D01*
X166370000Y-30480000D02*
X155803600Y-30480000D01*
X155803600Y-30480000D02*
X154432000Y-30480000D01*
D16*
X121719122Y-49476878D02*
X153870878Y-49476878D01*
D15*
X152146000Y-53340000D02*
X190246000Y-53340000D01*
X190246000Y-53340000D02*
X228600000Y-53340000D01*
X27940000Y-71120000D02*
X30480000Y-71120000D01*
X30480000Y-71120000D02*
X48260000Y-53340000D01*
X233680000Y-58420000D02*
X233680000Y-59690000D01*
X228600000Y-53340000D02*
X233680000Y-58420000D01*
D16*
X121666000Y-49530000D02*
X121719122Y-49476878D01*
D15*
X230722019Y-50787443D02*
X191401557Y-50787443D01*
X235204000Y-58166000D02*
X235204000Y-55269424D01*
X235204000Y-55269424D02*
X230722019Y-50787443D01*
X119380000Y-55245000D02*
X144780000Y-55245000D01*
X172720000Y-55245000D02*
X187960000Y-55245000D01*
X83810000Y-55255000D02*
X83820000Y-55245000D01*
X187960000Y-55245000D02*
X187970000Y-55255000D01*
X83820000Y-55245000D02*
X119380000Y-55245000D01*
X27940000Y-68580000D02*
X45644800Y-50875200D01*
D17*
X65024000Y-26924000D02*
X65024000Y-30226000D01*
X192532000Y-71120000D02*
X187960000Y-71120000D01*
X205740000Y-30480000D02*
X192786000Y-30480000D01*
X189484000Y-30480000D02*
X179832000Y-30480000D01*
X103124000Y-29972000D02*
X102616000Y-30480000D01*
X208280000Y-73660000D02*
X208280000Y-72136000D01*
X217678000Y-30480000D02*
X205740000Y-30480000D01*
X212344000Y-71120000D02*
X207264000Y-71120000D01*
X117602000Y-30480000D02*
X115062000Y-30480000D01*
X39624000Y-29718000D02*
X38862000Y-30480000D01*
X77978000Y-30480000D02*
X102616000Y-30480000D01*
X128524000Y-29972000D02*
X129032000Y-30480000D01*
X242824000Y-29718000D02*
X242062000Y-30480000D01*
X229616000Y-30480000D02*
X217678000Y-30480000D01*
X217424000Y-26924000D02*
X217424000Y-30226000D01*
X192024000Y-29718000D02*
X192786000Y-30480000D01*
X187960000Y-73660000D02*
X187960000Y-71120000D01*
X141732000Y-30480000D02*
X137922000Y-30480000D01*
X137922000Y-30480000D02*
X129032000Y-30480000D01*
X115062000Y-30480000D02*
X102616000Y-30480000D01*
X230124000Y-29972000D02*
X229616000Y-30480000D01*
X65024000Y-30226000D02*
X65278000Y-30480000D01*
X221742000Y-70612000D02*
X221234000Y-71120000D01*
X52324000Y-26924000D02*
X52324000Y-30480000D01*
X39624000Y-26924000D02*
X39624000Y-29718000D01*
X179832000Y-30480000D02*
X166370000Y-30480000D01*
X141224000Y-29972000D02*
X141732000Y-30480000D01*
X27178000Y-30480000D02*
X27940000Y-31242000D01*
X151638000Y-30480000D02*
X141732000Y-30480000D01*
X26924000Y-30226000D02*
X27178000Y-30480000D01*
X65278000Y-30480000D02*
X52324000Y-30480000D01*
X179324000Y-29972000D02*
X179832000Y-30480000D01*
X245110000Y-66040000D02*
X245110000Y-30480000D01*
X103124000Y-26924000D02*
X103124000Y-29972000D01*
X153924000Y-29972000D02*
X154432000Y-30480000D01*
X192024000Y-26924000D02*
X192024000Y-29718000D01*
X154432000Y-30480000D02*
X151638000Y-30480000D01*
X26924000Y-26924000D02*
X26924000Y-30226000D01*
X68580000Y-30480000D02*
X65278000Y-30480000D01*
X245110000Y-30480000D02*
X242062000Y-30480000D01*
X38862000Y-30480000D02*
X27178000Y-30480000D01*
X198120000Y-71120000D02*
X192532000Y-71120000D01*
X226314000Y-66040000D02*
X221742000Y-70612000D01*
X193040000Y-71628000D02*
X192532000Y-71120000D01*
X90424000Y-29972000D02*
X90932000Y-30480000D01*
X217424000Y-30226000D02*
X217678000Y-30480000D01*
X129032000Y-30480000D02*
X117602000Y-30480000D01*
X213360000Y-73660000D02*
X213360000Y-72136000D01*
X77724000Y-26924000D02*
X77724000Y-30226000D01*
X242062000Y-30480000D02*
X229616000Y-30480000D01*
X115824000Y-29718000D02*
X115062000Y-30480000D01*
X141224000Y-26924000D02*
X141224000Y-29972000D01*
X204724000Y-26924000D02*
X204724000Y-29464000D01*
X203200000Y-73660000D02*
X203200000Y-71554578D01*
X204724000Y-29464000D02*
X205740000Y-30480000D01*
X198120000Y-71120000D02*
X207264000Y-71120000D01*
X153924000Y-26924000D02*
X153924000Y-29972000D01*
X128524000Y-26924000D02*
X128524000Y-29972000D01*
X166624000Y-26924000D02*
X166624000Y-30226000D01*
X193040000Y-73660000D02*
X193040000Y-71628000D01*
X213360000Y-72136000D02*
X212344000Y-71120000D01*
X90424000Y-26924000D02*
X90424000Y-29972000D01*
X27940000Y-31242000D02*
X27940000Y-66040000D01*
X198120000Y-73660000D02*
X198120000Y-71120000D01*
X179324000Y-26924000D02*
X179324000Y-29972000D01*
X221234000Y-71120000D02*
X212344000Y-71120000D01*
X115824000Y-26924000D02*
X115824000Y-29718000D01*
X166624000Y-30226000D02*
X166370000Y-30480000D01*
X230124000Y-26924000D02*
X230124000Y-29972000D01*
X192786000Y-30480000D02*
X189484000Y-30480000D01*
X52324000Y-30480000D02*
X38862000Y-30480000D01*
X208280000Y-72136000D02*
X207264000Y-71120000D01*
X77724000Y-30226000D02*
X77978000Y-30480000D01*
X242824000Y-26924000D02*
X242824000Y-29718000D01*
X245110000Y-66040000D02*
X226314000Y-66040000D01*
D15*
X191401557Y-50787443D02*
X175959000Y-50787443D01*
X124918200Y-50875200D02*
X150038800Y-50875200D01*
D16*
X87066040Y-49530000D02*
X86967020Y-49430980D01*
X121666000Y-49530000D02*
X87066040Y-49530000D01*
X86967020Y-49430980D02*
X86868000Y-49530000D01*
D15*
X58928000Y-45466000D02*
X71749596Y-45466000D01*
X71749596Y-45466000D02*
X73601018Y-43614578D01*
X73601018Y-43614578D02*
X75159578Y-43614578D01*
X75159578Y-43614578D02*
X76835000Y-45290000D01*
X62230000Y-44196000D02*
X63649133Y-42776867D01*
X75591867Y-42776867D02*
X78105000Y-45290000D01*
X63649133Y-42776867D02*
X75591867Y-42776867D01*
X146812000Y-42672000D02*
X155116000Y-42672000D01*
X155116000Y-42672000D02*
X157734000Y-45290000D01*
X165608000Y-42418000D02*
X161876000Y-42418000D01*
X161876000Y-42418000D02*
X159004000Y-45290000D01*
X173736000Y-43942000D02*
X161622000Y-43942000D01*
X161622000Y-43942000D02*
X160274000Y-45290000D01*
X161622000Y-45212000D02*
X161544000Y-45290000D01*
X181610000Y-45212000D02*
X161622000Y-45212000D01*
X162814000Y-35990000D02*
X194721655Y-35990000D01*
X194721655Y-35990000D02*
X196264244Y-34447411D01*
X211076289Y-36827711D02*
X161795711Y-36827711D01*
X161795711Y-36827711D02*
X161544000Y-36576000D01*
X211836000Y-36068000D02*
X211076289Y-36827711D01*
X160528000Y-38100000D02*
X160274000Y-37846000D01*
X224536000Y-38100000D02*
X160528000Y-38100000D01*
X159004000Y-39624000D02*
X158750000Y-39370000D01*
X237744000Y-39624000D02*
X159004000Y-39624000D01*
X169418000Y-42926000D02*
X167640000Y-41148000D01*
X167640000Y-41148000D02*
X135890000Y-41148000D01*
X135890000Y-41148000D02*
X135636000Y-41402000D01*
X195834000Y-42926000D02*
X169418000Y-42926000D01*
X242062000Y-42291000D02*
X198374000Y-42291000D01*
X198374000Y-42291000D02*
X197231000Y-43434000D01*
D16*
X90170000Y-63500000D02*
X94742000Y-58928000D01*
X94742000Y-58928000D02*
X97790000Y-58928000D01*
X90170000Y-73635000D02*
X90170000Y-63500000D01*
X95250000Y-71095000D02*
X92710000Y-73635000D01*
X95250000Y-59690000D02*
X95250000Y-71095000D01*
X96520000Y-59944000D02*
X96520000Y-72365000D01*
X96520000Y-72365000D02*
X95250000Y-73635000D01*
X97790000Y-61976000D02*
X97790000Y-73635000D01*
X97536000Y-61722000D02*
X97790000Y-61976000D01*
X100584000Y-65278000D02*
X100330000Y-65532000D01*
X100330000Y-65532000D02*
X100330000Y-73635000D01*
X102870000Y-68834000D02*
X102870000Y-73635000D01*
X103124000Y-68580000D02*
X102870000Y-68834000D01*
X105410000Y-69850000D02*
X105410000Y-73635000D01*
G04 #@! TA.AperFunction,Conductor*
G36*
X247084121Y-25928002D02*
G01*
X247130614Y-25981658D01*
X247142000Y-26034000D01*
X247142000Y-30370334D01*
X247140708Y-30374733D01*
X247142000Y-30384153D01*
X247142000Y-65930334D01*
X247140708Y-65934733D01*
X247142000Y-65944153D01*
X247142000Y-76074000D01*
X247121998Y-76142121D01*
X247068342Y-76188614D01*
X247016000Y-76200000D01*
X222873417Y-76200000D01*
X222805296Y-76179998D01*
X222758803Y-76126342D01*
X222752268Y-76108627D01*
X222750361Y-76101955D01*
X222746783Y-76085191D01*
X222743870Y-76064848D01*
X222743867Y-76064838D01*
X222742595Y-76055955D01*
X222731979Y-76032605D01*
X222725536Y-76015093D01*
X222720954Y-75999063D01*
X222718488Y-75990435D01*
X222702726Y-75965452D01*
X222694596Y-75950386D01*
X222682367Y-75923490D01*
X222665626Y-75904061D01*
X222654521Y-75889053D01*
X222645630Y-75874961D01*
X222640840Y-75867369D01*
X222618703Y-75847818D01*
X222606659Y-75835626D01*
X222593239Y-75820051D01*
X222593237Y-75820050D01*
X222587381Y-75813253D01*
X222579853Y-75808374D01*
X222579850Y-75808371D01*
X222565861Y-75799304D01*
X222550987Y-75788014D01*
X222538502Y-75776988D01*
X222531772Y-75771044D01*
X222523646Y-75767229D01*
X222523645Y-75767228D01*
X222517979Y-75764568D01*
X222505034Y-75758490D01*
X222490065Y-75750176D01*
X222465273Y-75734107D01*
X222440709Y-75726761D01*
X222423264Y-75720099D01*
X222418827Y-75718016D01*
X222400052Y-75709201D01*
X222370870Y-75704657D01*
X222354151Y-75700874D01*
X222334464Y-75694986D01*
X222334461Y-75694985D01*
X222325859Y-75692413D01*
X222316884Y-75692358D01*
X222316883Y-75692358D01*
X222310190Y-75692317D01*
X222291444Y-75692203D01*
X222290672Y-75692170D01*
X222289577Y-75692000D01*
X222258702Y-75692000D01*
X222257932Y-75691998D01*
X222184284Y-75691548D01*
X222184283Y-75691548D01*
X222180348Y-75691524D01*
X222179004Y-75691908D01*
X222177659Y-75692000D01*
X213469666Y-75692000D01*
X213465267Y-75690708D01*
X213455847Y-75692000D01*
X208389666Y-75692000D01*
X208385267Y-75690708D01*
X208375847Y-75692000D01*
X203309666Y-75692000D01*
X203305267Y-75690708D01*
X203295847Y-75692000D01*
X198229666Y-75692000D01*
X198225267Y-75690708D01*
X198215847Y-75692000D01*
X193149666Y-75692000D01*
X193145267Y-75690708D01*
X193135847Y-75692000D01*
X188069666Y-75692000D01*
X188065267Y-75690708D01*
X188055847Y-75692000D01*
X50808702Y-75692000D01*
X50807932Y-75691998D01*
X50807078Y-75691993D01*
X50730348Y-75691524D01*
X50721719Y-75693990D01*
X50721714Y-75693991D01*
X50701952Y-75699639D01*
X50685191Y-75703217D01*
X50664848Y-75706130D01*
X50664838Y-75706133D01*
X50655955Y-75707405D01*
X50632605Y-75718021D01*
X50615093Y-75724464D01*
X50607057Y-75726761D01*
X50590435Y-75731512D01*
X50565452Y-75747274D01*
X50550386Y-75755404D01*
X50523490Y-75767633D01*
X50504061Y-75784374D01*
X50489053Y-75795479D01*
X50467369Y-75809160D01*
X50461427Y-75815888D01*
X50447819Y-75831296D01*
X50435627Y-75843340D01*
X50413253Y-75862619D01*
X50408374Y-75870147D01*
X50408371Y-75870150D01*
X50399304Y-75884139D01*
X50388014Y-75899013D01*
X50371044Y-75918228D01*
X50358490Y-75944966D01*
X50350176Y-75959935D01*
X50334107Y-75984727D01*
X50331535Y-75993327D01*
X50326761Y-76009290D01*
X50320099Y-76026736D01*
X50309201Y-76049948D01*
X50305456Y-76074000D01*
X50304658Y-76079128D01*
X50300873Y-76095854D01*
X50296609Y-76110109D01*
X50257924Y-76169640D01*
X50193195Y-76198807D01*
X50175894Y-76200000D01*
X26034000Y-76200000D01*
X25965879Y-76179998D01*
X25919386Y-76126342D01*
X25908000Y-76074000D01*
X25908000Y-73927966D01*
X26608257Y-73927966D01*
X26638565Y-74062446D01*
X26641645Y-74072275D01*
X26721770Y-74269603D01*
X26726413Y-74278794D01*
X26837694Y-74460388D01*
X26843777Y-74468699D01*
X26983213Y-74629667D01*
X26990580Y-74636883D01*
X27154434Y-74772916D01*
X27162881Y-74778831D01*
X27346756Y-74886279D01*
X27356042Y-74890729D01*
X27555001Y-74966703D01*
X27564899Y-74969579D01*
X27668250Y-74990606D01*
X27682299Y-74989410D01*
X27686000Y-74979065D01*
X27686000Y-74978517D01*
X28194000Y-74978517D01*
X28198064Y-74992359D01*
X28211478Y-74994393D01*
X28218184Y-74993534D01*
X28228262Y-74991392D01*
X28432255Y-74930191D01*
X28441842Y-74926433D01*
X28633095Y-74832739D01*
X28641945Y-74827464D01*
X28815328Y-74703792D01*
X28823200Y-74697139D01*
X28974052Y-74546812D01*
X28980730Y-74538965D01*
X28987410Y-74529669D01*
X53262001Y-74529669D01*
X53262371Y-74536490D01*
X53267895Y-74587352D01*
X53271521Y-74602604D01*
X53316676Y-74723054D01*
X53325214Y-74738649D01*
X53401715Y-74840724D01*
X53414276Y-74853285D01*
X53516351Y-74929786D01*
X53531946Y-74938324D01*
X53652394Y-74983478D01*
X53667649Y-74987105D01*
X53718514Y-74992631D01*
X53725328Y-74993000D01*
X54347885Y-74993000D01*
X54363124Y-74988525D01*
X54364329Y-74987135D01*
X54366000Y-74979452D01*
X54366000Y-74974884D01*
X54874000Y-74974884D01*
X54878475Y-74990123D01*
X54879865Y-74991328D01*
X54887548Y-74992999D01*
X55514669Y-74992999D01*
X55521490Y-74992629D01*
X55572352Y-74987105D01*
X55587604Y-74983479D01*
X55708054Y-74938324D01*
X55723649Y-74929786D01*
X55825724Y-74853285D01*
X55838285Y-74840724D01*
X55914786Y-74738649D01*
X55923325Y-74723052D01*
X55964425Y-74613418D01*
X56007066Y-74556653D01*
X56073628Y-74531953D01*
X56142977Y-74547160D01*
X56177645Y-74575150D01*
X56203219Y-74604674D01*
X56210580Y-74611883D01*
X56374434Y-74747916D01*
X56382881Y-74753831D01*
X56566756Y-74861279D01*
X56576042Y-74865729D01*
X56775001Y-74941703D01*
X56784899Y-74944579D01*
X56888250Y-74965606D01*
X56902299Y-74964410D01*
X56906000Y-74954065D01*
X56906000Y-74953517D01*
X57414000Y-74953517D01*
X57418064Y-74967359D01*
X57431478Y-74969393D01*
X57438184Y-74968534D01*
X57448262Y-74966392D01*
X57652255Y-74905191D01*
X57661842Y-74901433D01*
X57853095Y-74807739D01*
X57861945Y-74802464D01*
X58035328Y-74678792D01*
X58043200Y-74672139D01*
X58194052Y-74521812D01*
X58200730Y-74513965D01*
X58328022Y-74336819D01*
X58329147Y-74337627D01*
X58376669Y-74293876D01*
X58446607Y-74281661D01*
X58512046Y-74309197D01*
X58539870Y-74341028D01*
X58597690Y-74435383D01*
X58603777Y-74443699D01*
X58743213Y-74604667D01*
X58750580Y-74611883D01*
X58914434Y-74747916D01*
X58922881Y-74753831D01*
X59106756Y-74861279D01*
X59116042Y-74865729D01*
X59315001Y-74941703D01*
X59324899Y-74944579D01*
X59428250Y-74965606D01*
X59442299Y-74964410D01*
X59446000Y-74954065D01*
X59446000Y-74953517D01*
X59954000Y-74953517D01*
X59958064Y-74967359D01*
X59971478Y-74969393D01*
X59978184Y-74968534D01*
X59988262Y-74966392D01*
X60192255Y-74905191D01*
X60201842Y-74901433D01*
X60393095Y-74807739D01*
X60401945Y-74802464D01*
X60575328Y-74678792D01*
X60583200Y-74672139D01*
X60734052Y-74521812D01*
X60740730Y-74513965D01*
X60868022Y-74336819D01*
X60869147Y-74337627D01*
X60916669Y-74293876D01*
X60986607Y-74281661D01*
X61052046Y-74309197D01*
X61079870Y-74341028D01*
X61137690Y-74435383D01*
X61143777Y-74443699D01*
X61283213Y-74604667D01*
X61290580Y-74611883D01*
X61454434Y-74747916D01*
X61462881Y-74753831D01*
X61646756Y-74861279D01*
X61656042Y-74865729D01*
X61855001Y-74941703D01*
X61864899Y-74944579D01*
X61968250Y-74965606D01*
X61982299Y-74964410D01*
X61986000Y-74954065D01*
X61986000Y-74953517D01*
X62494000Y-74953517D01*
X62498064Y-74967359D01*
X62511478Y-74969393D01*
X62518184Y-74968534D01*
X62528262Y-74966392D01*
X62732255Y-74905191D01*
X62741842Y-74901433D01*
X62933095Y-74807739D01*
X62941945Y-74802464D01*
X63115328Y-74678792D01*
X63123200Y-74672139D01*
X63237603Y-74558134D01*
X68491500Y-74558134D01*
X68498255Y-74620316D01*
X68549385Y-74756705D01*
X68636739Y-74873261D01*
X68753295Y-74960615D01*
X68889684Y-75011745D01*
X68951866Y-75018500D01*
X70748134Y-75018500D01*
X70810316Y-75011745D01*
X70946705Y-74960615D01*
X71063261Y-74873261D01*
X71150615Y-74756705D01*
X71172799Y-74697529D01*
X71194598Y-74639382D01*
X71237240Y-74582618D01*
X71303802Y-74557918D01*
X71373150Y-74573126D01*
X71407817Y-74601114D01*
X71436250Y-74633938D01*
X71608126Y-74776632D01*
X71801000Y-74889338D01*
X71805825Y-74891180D01*
X71805826Y-74891181D01*
X71837563Y-74903300D01*
X72009692Y-74969030D01*
X72014760Y-74970061D01*
X72014763Y-74970062D01*
X72098533Y-74987105D01*
X72228597Y-75013567D01*
X72233772Y-75013757D01*
X72233774Y-75013757D01*
X72446673Y-75021564D01*
X72446677Y-75021564D01*
X72451837Y-75021753D01*
X72456957Y-75021097D01*
X72456959Y-75021097D01*
X72668288Y-74994025D01*
X72668289Y-74994025D01*
X72673416Y-74993368D01*
X72678366Y-74991883D01*
X72882429Y-74930661D01*
X72882434Y-74930659D01*
X72887384Y-74929174D01*
X73087994Y-74830896D01*
X73269860Y-74701173D01*
X73292320Y-74678792D01*
X73414886Y-74556653D01*
X73428096Y-74543489D01*
X73436386Y-74531953D01*
X73558453Y-74362077D01*
X73559776Y-74363028D01*
X73606645Y-74319857D01*
X73676580Y-74307625D01*
X73742026Y-74335144D01*
X73769875Y-74366994D01*
X73829987Y-74465088D01*
X73976250Y-74633938D01*
X74148126Y-74776632D01*
X74341000Y-74889338D01*
X74345825Y-74891180D01*
X74345826Y-74891181D01*
X74377563Y-74903300D01*
X74549692Y-74969030D01*
X74554760Y-74970061D01*
X74554763Y-74970062D01*
X74638533Y-74987105D01*
X74768597Y-75013567D01*
X74773772Y-75013757D01*
X74773774Y-75013757D01*
X74986673Y-75021564D01*
X74986677Y-75021564D01*
X74991837Y-75021753D01*
X74996957Y-75021097D01*
X74996959Y-75021097D01*
X75208288Y-74994025D01*
X75208289Y-74994025D01*
X75213416Y-74993368D01*
X75218366Y-74991883D01*
X75422429Y-74930661D01*
X75422434Y-74930659D01*
X75427384Y-74929174D01*
X75627994Y-74830896D01*
X75809860Y-74701173D01*
X75832320Y-74678792D01*
X75954886Y-74556653D01*
X75968096Y-74543489D01*
X75976386Y-74531953D01*
X76098453Y-74362077D01*
X76099776Y-74363028D01*
X76146645Y-74319857D01*
X76216580Y-74307625D01*
X76282026Y-74335144D01*
X76309875Y-74366994D01*
X76369987Y-74465088D01*
X76516250Y-74633938D01*
X76688126Y-74776632D01*
X76881000Y-74889338D01*
X76885825Y-74891180D01*
X76885826Y-74891181D01*
X76917563Y-74903300D01*
X77089692Y-74969030D01*
X77094760Y-74970061D01*
X77094763Y-74970062D01*
X77178533Y-74987105D01*
X77308597Y-75013567D01*
X77313772Y-75013757D01*
X77313774Y-75013757D01*
X77526673Y-75021564D01*
X77526677Y-75021564D01*
X77531837Y-75021753D01*
X77536957Y-75021097D01*
X77536959Y-75021097D01*
X77748288Y-74994025D01*
X77748289Y-74994025D01*
X77753416Y-74993368D01*
X77758366Y-74991883D01*
X77962429Y-74930661D01*
X77962434Y-74930659D01*
X77967384Y-74929174D01*
X78167994Y-74830896D01*
X78349860Y-74701173D01*
X78372320Y-74678792D01*
X78494886Y-74556653D01*
X78508096Y-74543489D01*
X78516386Y-74531953D01*
X78638453Y-74362077D01*
X78639776Y-74363028D01*
X78686645Y-74319857D01*
X78756580Y-74307625D01*
X78822026Y-74335144D01*
X78849875Y-74366994D01*
X78909987Y-74465088D01*
X79056250Y-74633938D01*
X79228126Y-74776632D01*
X79421000Y-74889338D01*
X79425825Y-74891180D01*
X79425826Y-74891181D01*
X79457563Y-74903300D01*
X79629692Y-74969030D01*
X79634760Y-74970061D01*
X79634763Y-74970062D01*
X79718533Y-74987105D01*
X79848597Y-75013567D01*
X79853772Y-75013757D01*
X79853774Y-75013757D01*
X80066673Y-75021564D01*
X80066677Y-75021564D01*
X80071837Y-75021753D01*
X80076957Y-75021097D01*
X80076959Y-75021097D01*
X80288288Y-74994025D01*
X80288289Y-74994025D01*
X80293416Y-74993368D01*
X80298366Y-74991883D01*
X80502429Y-74930661D01*
X80502434Y-74930659D01*
X80507384Y-74929174D01*
X80707994Y-74830896D01*
X80889860Y-74701173D01*
X80912320Y-74678792D01*
X81034886Y-74556653D01*
X81048096Y-74543489D01*
X81056386Y-74531953D01*
X81178453Y-74362077D01*
X81179776Y-74363028D01*
X81226645Y-74319857D01*
X81296580Y-74307625D01*
X81362026Y-74335144D01*
X81389875Y-74366994D01*
X81449987Y-74465088D01*
X81596250Y-74633938D01*
X81768126Y-74776632D01*
X81961000Y-74889338D01*
X81965825Y-74891180D01*
X81965826Y-74891181D01*
X81997563Y-74903300D01*
X82169692Y-74969030D01*
X82174760Y-74970061D01*
X82174763Y-74970062D01*
X82258533Y-74987105D01*
X82388597Y-75013567D01*
X82393772Y-75013757D01*
X82393774Y-75013757D01*
X82606673Y-75021564D01*
X82606677Y-75021564D01*
X82611837Y-75021753D01*
X82616957Y-75021097D01*
X82616959Y-75021097D01*
X82828288Y-74994025D01*
X82828289Y-74994025D01*
X82833416Y-74993368D01*
X82838366Y-74991883D01*
X83042429Y-74930661D01*
X83042434Y-74930659D01*
X83047384Y-74929174D01*
X83247994Y-74830896D01*
X83429860Y-74701173D01*
X83452320Y-74678792D01*
X83574886Y-74556653D01*
X83588096Y-74543489D01*
X83596386Y-74531953D01*
X83718453Y-74362077D01*
X83719776Y-74363028D01*
X83766645Y-74319857D01*
X83836580Y-74307625D01*
X83902026Y-74335144D01*
X83929875Y-74366994D01*
X83989987Y-74465088D01*
X84136250Y-74633938D01*
X84308126Y-74776632D01*
X84501000Y-74889338D01*
X84505825Y-74891180D01*
X84505826Y-74891181D01*
X84537563Y-74903300D01*
X84709692Y-74969030D01*
X84714760Y-74970061D01*
X84714763Y-74970062D01*
X84798533Y-74987105D01*
X84928597Y-75013567D01*
X84933772Y-75013757D01*
X84933774Y-75013757D01*
X85146673Y-75021564D01*
X85146677Y-75021564D01*
X85151837Y-75021753D01*
X85156957Y-75021097D01*
X85156959Y-75021097D01*
X85368288Y-74994025D01*
X85368289Y-74994025D01*
X85373416Y-74993368D01*
X85378366Y-74991883D01*
X85582429Y-74930661D01*
X85582434Y-74930659D01*
X85587384Y-74929174D01*
X85787994Y-74830896D01*
X85969860Y-74701173D01*
X85992320Y-74678792D01*
X86114886Y-74556653D01*
X86128096Y-74543489D01*
X86136386Y-74531953D01*
X86258453Y-74362077D01*
X86259776Y-74363028D01*
X86306645Y-74319857D01*
X86376580Y-74307625D01*
X86442026Y-74335144D01*
X86469875Y-74366994D01*
X86529987Y-74465088D01*
X86676250Y-74633938D01*
X86848126Y-74776632D01*
X87041000Y-74889338D01*
X87045825Y-74891180D01*
X87045826Y-74891181D01*
X87077563Y-74903300D01*
X87249692Y-74969030D01*
X87254760Y-74970061D01*
X87254763Y-74970062D01*
X87338533Y-74987105D01*
X87468597Y-75013567D01*
X87473772Y-75013757D01*
X87473774Y-75013757D01*
X87686673Y-75021564D01*
X87686677Y-75021564D01*
X87691837Y-75021753D01*
X87696957Y-75021097D01*
X87696959Y-75021097D01*
X87908288Y-74994025D01*
X87908289Y-74994025D01*
X87913416Y-74993368D01*
X87918366Y-74991883D01*
X88122429Y-74930661D01*
X88122434Y-74930659D01*
X88127384Y-74929174D01*
X88327994Y-74830896D01*
X88509860Y-74701173D01*
X88532320Y-74678792D01*
X88654886Y-74556653D01*
X88668096Y-74543489D01*
X88676386Y-74531953D01*
X88798453Y-74362077D01*
X88799776Y-74363028D01*
X88846645Y-74319857D01*
X88916580Y-74307625D01*
X88982026Y-74335144D01*
X89009875Y-74366994D01*
X89069987Y-74465088D01*
X89216250Y-74633938D01*
X89388126Y-74776632D01*
X89581000Y-74889338D01*
X89585825Y-74891180D01*
X89585826Y-74891181D01*
X89617563Y-74903300D01*
X89789692Y-74969030D01*
X89794760Y-74970061D01*
X89794763Y-74970062D01*
X89878533Y-74987105D01*
X90008597Y-75013567D01*
X90013772Y-75013757D01*
X90013774Y-75013757D01*
X90226673Y-75021564D01*
X90226677Y-75021564D01*
X90231837Y-75021753D01*
X90236957Y-75021097D01*
X90236959Y-75021097D01*
X90448288Y-74994025D01*
X90448289Y-74994025D01*
X90453416Y-74993368D01*
X90458366Y-74991883D01*
X90662429Y-74930661D01*
X90662434Y-74930659D01*
X90667384Y-74929174D01*
X90867994Y-74830896D01*
X91049860Y-74701173D01*
X91072320Y-74678792D01*
X91194886Y-74556653D01*
X91208096Y-74543489D01*
X91216386Y-74531953D01*
X91338453Y-74362077D01*
X91339776Y-74363028D01*
X91386645Y-74319857D01*
X91456580Y-74307625D01*
X91522026Y-74335144D01*
X91549875Y-74366994D01*
X91609987Y-74465088D01*
X91756250Y-74633938D01*
X91928126Y-74776632D01*
X92121000Y-74889338D01*
X92125825Y-74891180D01*
X92125826Y-74891181D01*
X92157563Y-74903300D01*
X92329692Y-74969030D01*
X92334760Y-74970061D01*
X92334763Y-74970062D01*
X92418533Y-74987105D01*
X92548597Y-75013567D01*
X92553772Y-75013757D01*
X92553774Y-75013757D01*
X92766673Y-75021564D01*
X92766677Y-75021564D01*
X92771837Y-75021753D01*
X92776957Y-75021097D01*
X92776959Y-75021097D01*
X92988288Y-74994025D01*
X92988289Y-74994025D01*
X92993416Y-74993368D01*
X92998366Y-74991883D01*
X93202429Y-74930661D01*
X93202434Y-74930659D01*
X93207384Y-74929174D01*
X93407994Y-74830896D01*
X93589860Y-74701173D01*
X93612320Y-74678792D01*
X93734886Y-74556653D01*
X93748096Y-74543489D01*
X93756386Y-74531953D01*
X93878453Y-74362077D01*
X93879776Y-74363028D01*
X93926645Y-74319857D01*
X93996580Y-74307625D01*
X94062026Y-74335144D01*
X94089875Y-74366994D01*
X94149987Y-74465088D01*
X94296250Y-74633938D01*
X94468126Y-74776632D01*
X94661000Y-74889338D01*
X94665825Y-74891180D01*
X94665826Y-74891181D01*
X94697563Y-74903300D01*
X94869692Y-74969030D01*
X94874760Y-74970061D01*
X94874763Y-74970062D01*
X94958533Y-74987105D01*
X95088597Y-75013567D01*
X95093772Y-75013757D01*
X95093774Y-75013757D01*
X95306673Y-75021564D01*
X95306677Y-75021564D01*
X95311837Y-75021753D01*
X95316957Y-75021097D01*
X95316959Y-75021097D01*
X95528288Y-74994025D01*
X95528289Y-74994025D01*
X95533416Y-74993368D01*
X95538366Y-74991883D01*
X95742429Y-74930661D01*
X95742434Y-74930659D01*
X95747384Y-74929174D01*
X95947994Y-74830896D01*
X96129860Y-74701173D01*
X96152320Y-74678792D01*
X96274886Y-74556653D01*
X96288096Y-74543489D01*
X96296386Y-74531953D01*
X96418453Y-74362077D01*
X96419776Y-74363028D01*
X96466645Y-74319857D01*
X96536580Y-74307625D01*
X96602026Y-74335144D01*
X96629875Y-74366994D01*
X96689987Y-74465088D01*
X96836250Y-74633938D01*
X97008126Y-74776632D01*
X97201000Y-74889338D01*
X97205825Y-74891180D01*
X97205826Y-74891181D01*
X97237563Y-74903300D01*
X97409692Y-74969030D01*
X97414760Y-74970061D01*
X97414763Y-74970062D01*
X97498533Y-74987105D01*
X97628597Y-75013567D01*
X97633772Y-75013757D01*
X97633774Y-75013757D01*
X97846673Y-75021564D01*
X97846677Y-75021564D01*
X97851837Y-75021753D01*
X97856957Y-75021097D01*
X97856959Y-75021097D01*
X98068288Y-74994025D01*
X98068289Y-74994025D01*
X98073416Y-74993368D01*
X98078366Y-74991883D01*
X98282429Y-74930661D01*
X98282434Y-74930659D01*
X98287384Y-74929174D01*
X98487994Y-74830896D01*
X98669860Y-74701173D01*
X98692320Y-74678792D01*
X98814886Y-74556653D01*
X98828096Y-74543489D01*
X98836386Y-74531953D01*
X98958453Y-74362077D01*
X98959776Y-74363028D01*
X99006645Y-74319857D01*
X99076580Y-74307625D01*
X99142026Y-74335144D01*
X99169875Y-74366994D01*
X99229987Y-74465088D01*
X99376250Y-74633938D01*
X99548126Y-74776632D01*
X99741000Y-74889338D01*
X99745825Y-74891180D01*
X99745826Y-74891181D01*
X99777563Y-74903300D01*
X99949692Y-74969030D01*
X99954760Y-74970061D01*
X99954763Y-74970062D01*
X100038533Y-74987105D01*
X100168597Y-75013567D01*
X100173772Y-75013757D01*
X100173774Y-75013757D01*
X100386673Y-75021564D01*
X100386677Y-75021564D01*
X100391837Y-75021753D01*
X100396957Y-75021097D01*
X100396959Y-75021097D01*
X100608288Y-74994025D01*
X100608289Y-74994025D01*
X100613416Y-74993368D01*
X100618366Y-74991883D01*
X100822429Y-74930661D01*
X100822434Y-74930659D01*
X100827384Y-74929174D01*
X101027994Y-74830896D01*
X101209860Y-74701173D01*
X101232320Y-74678792D01*
X101354886Y-74556653D01*
X101368096Y-74543489D01*
X101376386Y-74531953D01*
X101498453Y-74362077D01*
X101499776Y-74363028D01*
X101546645Y-74319857D01*
X101616580Y-74307625D01*
X101682026Y-74335144D01*
X101709875Y-74366994D01*
X101769987Y-74465088D01*
X101916250Y-74633938D01*
X102088126Y-74776632D01*
X102281000Y-74889338D01*
X102285825Y-74891180D01*
X102285826Y-74891181D01*
X102317563Y-74903300D01*
X102489692Y-74969030D01*
X102494760Y-74970061D01*
X102494763Y-74970062D01*
X102578533Y-74987105D01*
X102708597Y-75013567D01*
X102713772Y-75013757D01*
X102713774Y-75013757D01*
X102926673Y-75021564D01*
X102926677Y-75021564D01*
X102931837Y-75021753D01*
X102936957Y-75021097D01*
X102936959Y-75021097D01*
X103148288Y-74994025D01*
X103148289Y-74994025D01*
X103153416Y-74993368D01*
X103158366Y-74991883D01*
X103362429Y-74930661D01*
X103362434Y-74930659D01*
X103367384Y-74929174D01*
X103567994Y-74830896D01*
X103749860Y-74701173D01*
X103772320Y-74678792D01*
X103894886Y-74556653D01*
X103908096Y-74543489D01*
X103916386Y-74531953D01*
X104038453Y-74362077D01*
X104039776Y-74363028D01*
X104086645Y-74319857D01*
X104156580Y-74307625D01*
X104222026Y-74335144D01*
X104249875Y-74366994D01*
X104309987Y-74465088D01*
X104456250Y-74633938D01*
X104628126Y-74776632D01*
X104821000Y-74889338D01*
X104825825Y-74891180D01*
X104825826Y-74891181D01*
X104857563Y-74903300D01*
X105029692Y-74969030D01*
X105034760Y-74970061D01*
X105034763Y-74970062D01*
X105118533Y-74987105D01*
X105248597Y-75013567D01*
X105253772Y-75013757D01*
X105253774Y-75013757D01*
X105466673Y-75021564D01*
X105466677Y-75021564D01*
X105471837Y-75021753D01*
X105476957Y-75021097D01*
X105476959Y-75021097D01*
X105688288Y-74994025D01*
X105688289Y-74994025D01*
X105693416Y-74993368D01*
X105698366Y-74991883D01*
X105902429Y-74930661D01*
X105902434Y-74930659D01*
X105907384Y-74929174D01*
X106107994Y-74830896D01*
X106289860Y-74701173D01*
X106312320Y-74678792D01*
X106434886Y-74556653D01*
X106448096Y-74543489D01*
X106456386Y-74531953D01*
X106578453Y-74362077D01*
X106579776Y-74363028D01*
X106626645Y-74319857D01*
X106696580Y-74307625D01*
X106762026Y-74335144D01*
X106789875Y-74366994D01*
X106849987Y-74465088D01*
X106996250Y-74633938D01*
X107168126Y-74776632D01*
X107361000Y-74889338D01*
X107365825Y-74891180D01*
X107365826Y-74891181D01*
X107397563Y-74903300D01*
X107569692Y-74969030D01*
X107574760Y-74970061D01*
X107574763Y-74970062D01*
X107658533Y-74987105D01*
X107788597Y-75013567D01*
X107793772Y-75013757D01*
X107793774Y-75013757D01*
X108006673Y-75021564D01*
X108006677Y-75021564D01*
X108011837Y-75021753D01*
X108016957Y-75021097D01*
X108016959Y-75021097D01*
X108228288Y-74994025D01*
X108228289Y-74994025D01*
X108233416Y-74993368D01*
X108238366Y-74991883D01*
X108442429Y-74930661D01*
X108442434Y-74930659D01*
X108447384Y-74929174D01*
X108647994Y-74830896D01*
X108829860Y-74701173D01*
X108852320Y-74678792D01*
X108974886Y-74556653D01*
X108988096Y-74543489D01*
X108996386Y-74531953D01*
X109118453Y-74362077D01*
X109119640Y-74362930D01*
X109166960Y-74319362D01*
X109236897Y-74307145D01*
X109302338Y-74334678D01*
X109330166Y-74366511D01*
X109387694Y-74460388D01*
X109393777Y-74468699D01*
X109533213Y-74629667D01*
X109540580Y-74636883D01*
X109704434Y-74772916D01*
X109712881Y-74778831D01*
X109896756Y-74886279D01*
X109906042Y-74890729D01*
X110105001Y-74966703D01*
X110114899Y-74969579D01*
X110218250Y-74990606D01*
X110232299Y-74989410D01*
X110236000Y-74979065D01*
X110236000Y-74978517D01*
X110744000Y-74978517D01*
X110748064Y-74992359D01*
X110761478Y-74994393D01*
X110768184Y-74993534D01*
X110778262Y-74991392D01*
X110982255Y-74930191D01*
X110991842Y-74926433D01*
X111183095Y-74832739D01*
X111191945Y-74827464D01*
X111365328Y-74703792D01*
X111373200Y-74697139D01*
X111512690Y-74558134D01*
X114211500Y-74558134D01*
X114218255Y-74620316D01*
X114269385Y-74756705D01*
X114356739Y-74873261D01*
X114473295Y-74960615D01*
X114609684Y-75011745D01*
X114671866Y-75018500D01*
X116468134Y-75018500D01*
X116530316Y-75011745D01*
X116666705Y-74960615D01*
X116783261Y-74873261D01*
X116870615Y-74756705D01*
X116892799Y-74697529D01*
X116914598Y-74639382D01*
X116957240Y-74582618D01*
X117023802Y-74557918D01*
X117093150Y-74573126D01*
X117127817Y-74601114D01*
X117156250Y-74633938D01*
X117328126Y-74776632D01*
X117521000Y-74889338D01*
X117525825Y-74891180D01*
X117525826Y-74891181D01*
X117557563Y-74903300D01*
X117729692Y-74969030D01*
X117734760Y-74970061D01*
X117734763Y-74970062D01*
X117818533Y-74987105D01*
X117948597Y-75013567D01*
X117953772Y-75013757D01*
X117953774Y-75013757D01*
X118166673Y-75021564D01*
X118166677Y-75021564D01*
X118171837Y-75021753D01*
X118176957Y-75021097D01*
X118176959Y-75021097D01*
X118388288Y-74994025D01*
X118388289Y-74994025D01*
X118393416Y-74993368D01*
X118398366Y-74991883D01*
X118602429Y-74930661D01*
X118602434Y-74930659D01*
X118607384Y-74929174D01*
X118807994Y-74830896D01*
X118989860Y-74701173D01*
X119012320Y-74678792D01*
X119134886Y-74556653D01*
X119148096Y-74543489D01*
X119156386Y-74531953D01*
X119278453Y-74362077D01*
X119279776Y-74363028D01*
X119326645Y-74319857D01*
X119396580Y-74307625D01*
X119462026Y-74335144D01*
X119489875Y-74366994D01*
X119549987Y-74465088D01*
X119696250Y-74633938D01*
X119868126Y-74776632D01*
X120061000Y-74889338D01*
X120065825Y-74891180D01*
X120065826Y-74891181D01*
X120097563Y-74903300D01*
X120269692Y-74969030D01*
X120274760Y-74970061D01*
X120274763Y-74970062D01*
X120358533Y-74987105D01*
X120488597Y-75013567D01*
X120493772Y-75013757D01*
X120493774Y-75013757D01*
X120706673Y-75021564D01*
X120706677Y-75021564D01*
X120711837Y-75021753D01*
X120716957Y-75021097D01*
X120716959Y-75021097D01*
X120928288Y-74994025D01*
X120928289Y-74994025D01*
X120933416Y-74993368D01*
X120938366Y-74991883D01*
X121142429Y-74930661D01*
X121142434Y-74930659D01*
X121147384Y-74929174D01*
X121347994Y-74830896D01*
X121529860Y-74701173D01*
X121552320Y-74678792D01*
X121674886Y-74556653D01*
X121688096Y-74543489D01*
X121696386Y-74531953D01*
X121818453Y-74362077D01*
X121819776Y-74363028D01*
X121866645Y-74319857D01*
X121936580Y-74307625D01*
X122002026Y-74335144D01*
X122029875Y-74366994D01*
X122089987Y-74465088D01*
X122236250Y-74633938D01*
X122408126Y-74776632D01*
X122601000Y-74889338D01*
X122605825Y-74891180D01*
X122605826Y-74891181D01*
X122637563Y-74903300D01*
X122809692Y-74969030D01*
X122814760Y-74970061D01*
X122814763Y-74970062D01*
X122898533Y-74987105D01*
X123028597Y-75013567D01*
X123033772Y-75013757D01*
X123033774Y-75013757D01*
X123246673Y-75021564D01*
X123246677Y-75021564D01*
X123251837Y-75021753D01*
X123256957Y-75021097D01*
X123256959Y-75021097D01*
X123468288Y-74994025D01*
X123468289Y-74994025D01*
X123473416Y-74993368D01*
X123478366Y-74991883D01*
X123682429Y-74930661D01*
X123682434Y-74930659D01*
X123687384Y-74929174D01*
X123887994Y-74830896D01*
X124069860Y-74701173D01*
X124092320Y-74678792D01*
X124214886Y-74556653D01*
X124228096Y-74543489D01*
X124236386Y-74531953D01*
X124358453Y-74362077D01*
X124359776Y-74363028D01*
X124406645Y-74319857D01*
X124476580Y-74307625D01*
X124542026Y-74335144D01*
X124569875Y-74366994D01*
X124629987Y-74465088D01*
X124776250Y-74633938D01*
X124948126Y-74776632D01*
X125141000Y-74889338D01*
X125145825Y-74891180D01*
X125145826Y-74891181D01*
X125177563Y-74903300D01*
X125349692Y-74969030D01*
X125354760Y-74970061D01*
X125354763Y-74970062D01*
X125438533Y-74987105D01*
X125568597Y-75013567D01*
X125573772Y-75013757D01*
X125573774Y-75013757D01*
X125786673Y-75021564D01*
X125786677Y-75021564D01*
X125791837Y-75021753D01*
X125796957Y-75021097D01*
X125796959Y-75021097D01*
X126008288Y-74994025D01*
X126008289Y-74994025D01*
X126013416Y-74993368D01*
X126018366Y-74991883D01*
X126222429Y-74930661D01*
X126222434Y-74930659D01*
X126227384Y-74929174D01*
X126427994Y-74830896D01*
X126609860Y-74701173D01*
X126632320Y-74678792D01*
X126754886Y-74556653D01*
X126768096Y-74543489D01*
X126776386Y-74531953D01*
X126898453Y-74362077D01*
X126899776Y-74363028D01*
X126946645Y-74319857D01*
X127016580Y-74307625D01*
X127082026Y-74335144D01*
X127109875Y-74366994D01*
X127169987Y-74465088D01*
X127316250Y-74633938D01*
X127488126Y-74776632D01*
X127681000Y-74889338D01*
X127685825Y-74891180D01*
X127685826Y-74891181D01*
X127717563Y-74903300D01*
X127889692Y-74969030D01*
X127894760Y-74970061D01*
X127894763Y-74970062D01*
X127978533Y-74987105D01*
X128108597Y-75013567D01*
X128113772Y-75013757D01*
X128113774Y-75013757D01*
X128326673Y-75021564D01*
X128326677Y-75021564D01*
X128331837Y-75021753D01*
X128336957Y-75021097D01*
X128336959Y-75021097D01*
X128548288Y-74994025D01*
X128548289Y-74994025D01*
X128553416Y-74993368D01*
X128558366Y-74991883D01*
X128762429Y-74930661D01*
X128762434Y-74930659D01*
X128767384Y-74929174D01*
X128967994Y-74830896D01*
X129149860Y-74701173D01*
X129172320Y-74678792D01*
X129294886Y-74556653D01*
X129308096Y-74543489D01*
X129316386Y-74531953D01*
X129438453Y-74362077D01*
X129439776Y-74363028D01*
X129486645Y-74319857D01*
X129556580Y-74307625D01*
X129622026Y-74335144D01*
X129649875Y-74366994D01*
X129709987Y-74465088D01*
X129856250Y-74633938D01*
X130028126Y-74776632D01*
X130221000Y-74889338D01*
X130225825Y-74891180D01*
X130225826Y-74891181D01*
X130257563Y-74903300D01*
X130429692Y-74969030D01*
X130434760Y-74970061D01*
X130434763Y-74970062D01*
X130518533Y-74987105D01*
X130648597Y-75013567D01*
X130653772Y-75013757D01*
X130653774Y-75013757D01*
X130866673Y-75021564D01*
X130866677Y-75021564D01*
X130871837Y-75021753D01*
X130876957Y-75021097D01*
X130876959Y-75021097D01*
X131088288Y-74994025D01*
X131088289Y-74994025D01*
X131093416Y-74993368D01*
X131098366Y-74991883D01*
X131302429Y-74930661D01*
X131302434Y-74930659D01*
X131307384Y-74929174D01*
X131507994Y-74830896D01*
X131689860Y-74701173D01*
X131712320Y-74678792D01*
X131834886Y-74556653D01*
X131848096Y-74543489D01*
X131856386Y-74531953D01*
X131978453Y-74362077D01*
X131979776Y-74363028D01*
X132026645Y-74319857D01*
X132096580Y-74307625D01*
X132162026Y-74335144D01*
X132189875Y-74366994D01*
X132249987Y-74465088D01*
X132396250Y-74633938D01*
X132568126Y-74776632D01*
X132761000Y-74889338D01*
X132765825Y-74891180D01*
X132765826Y-74891181D01*
X132797563Y-74903300D01*
X132969692Y-74969030D01*
X132974760Y-74970061D01*
X132974763Y-74970062D01*
X133058533Y-74987105D01*
X133188597Y-75013567D01*
X133193772Y-75013757D01*
X133193774Y-75013757D01*
X133406673Y-75021564D01*
X133406677Y-75021564D01*
X133411837Y-75021753D01*
X133416957Y-75021097D01*
X133416959Y-75021097D01*
X133628288Y-74994025D01*
X133628289Y-74994025D01*
X133633416Y-74993368D01*
X133638366Y-74991883D01*
X133842429Y-74930661D01*
X133842434Y-74930659D01*
X133847384Y-74929174D01*
X134047994Y-74830896D01*
X134229860Y-74701173D01*
X134252320Y-74678792D01*
X134374886Y-74556653D01*
X134388096Y-74543489D01*
X134396386Y-74531953D01*
X134518453Y-74362077D01*
X134519640Y-74362930D01*
X134566960Y-74319362D01*
X134636897Y-74307145D01*
X134702338Y-74334678D01*
X134730166Y-74366511D01*
X134787694Y-74460388D01*
X134793777Y-74468699D01*
X134933213Y-74629667D01*
X134940580Y-74636883D01*
X135104434Y-74772916D01*
X135112881Y-74778831D01*
X135296756Y-74886279D01*
X135306042Y-74890729D01*
X135505001Y-74966703D01*
X135514899Y-74969579D01*
X135618250Y-74990606D01*
X135632299Y-74989410D01*
X135636000Y-74979065D01*
X135636000Y-74978517D01*
X136144000Y-74978517D01*
X136148064Y-74992359D01*
X136161478Y-74994393D01*
X136168184Y-74993534D01*
X136178262Y-74991392D01*
X136382255Y-74930191D01*
X136391842Y-74926433D01*
X136583095Y-74832739D01*
X136591945Y-74827464D01*
X136765328Y-74703792D01*
X136773200Y-74697139D01*
X136924052Y-74546812D01*
X136930730Y-74538965D01*
X137058022Y-74361819D01*
X137059279Y-74362722D01*
X137106373Y-74319362D01*
X137176311Y-74307145D01*
X137241751Y-74334678D01*
X137269579Y-74366511D01*
X137329987Y-74465088D01*
X137476250Y-74633938D01*
X137648126Y-74776632D01*
X137841000Y-74889338D01*
X137845825Y-74891180D01*
X137845826Y-74891181D01*
X137877563Y-74903300D01*
X138049692Y-74969030D01*
X138054760Y-74970061D01*
X138054763Y-74970062D01*
X138138533Y-74987105D01*
X138268597Y-75013567D01*
X138273772Y-75013757D01*
X138273774Y-75013757D01*
X138486673Y-75021564D01*
X138486677Y-75021564D01*
X138491837Y-75021753D01*
X138496957Y-75021097D01*
X138496959Y-75021097D01*
X138708288Y-74994025D01*
X138708289Y-74994025D01*
X138713416Y-74993368D01*
X138718366Y-74991883D01*
X138922429Y-74930661D01*
X138922434Y-74930659D01*
X138927384Y-74929174D01*
X139127994Y-74830896D01*
X139309860Y-74701173D01*
X139332320Y-74678792D01*
X139453400Y-74558134D01*
X142151500Y-74558134D01*
X142158255Y-74620316D01*
X142209385Y-74756705D01*
X142296739Y-74873261D01*
X142413295Y-74960615D01*
X142549684Y-75011745D01*
X142611866Y-75018500D01*
X144408134Y-75018500D01*
X144470316Y-75011745D01*
X144606705Y-74960615D01*
X144723261Y-74873261D01*
X144810615Y-74756705D01*
X144832799Y-74697529D01*
X144854598Y-74639382D01*
X144897240Y-74582618D01*
X144963802Y-74557918D01*
X145033150Y-74573126D01*
X145067817Y-74601114D01*
X145096250Y-74633938D01*
X145268126Y-74776632D01*
X145461000Y-74889338D01*
X145465825Y-74891180D01*
X145465826Y-74891181D01*
X145497563Y-74903300D01*
X145669692Y-74969030D01*
X145674760Y-74970061D01*
X145674763Y-74970062D01*
X145758533Y-74987105D01*
X145888597Y-75013567D01*
X145893772Y-75013757D01*
X145893774Y-75013757D01*
X146106673Y-75021564D01*
X146106677Y-75021564D01*
X146111837Y-75021753D01*
X146116957Y-75021097D01*
X146116959Y-75021097D01*
X146328288Y-74994025D01*
X146328289Y-74994025D01*
X146333416Y-74993368D01*
X146338366Y-74991883D01*
X146542429Y-74930661D01*
X146542434Y-74930659D01*
X146547384Y-74929174D01*
X146747994Y-74830896D01*
X146929860Y-74701173D01*
X146952320Y-74678792D01*
X147074886Y-74556653D01*
X147088096Y-74543489D01*
X147096386Y-74531953D01*
X147218453Y-74362077D01*
X147219776Y-74363028D01*
X147266645Y-74319857D01*
X147336580Y-74307625D01*
X147402026Y-74335144D01*
X147429875Y-74366994D01*
X147489987Y-74465088D01*
X147636250Y-74633938D01*
X147808126Y-74776632D01*
X148001000Y-74889338D01*
X148005825Y-74891180D01*
X148005826Y-74891181D01*
X148037563Y-74903300D01*
X148209692Y-74969030D01*
X148214760Y-74970061D01*
X148214763Y-74970062D01*
X148298533Y-74987105D01*
X148428597Y-75013567D01*
X148433772Y-75013757D01*
X148433774Y-75013757D01*
X148646673Y-75021564D01*
X148646677Y-75021564D01*
X148651837Y-75021753D01*
X148656957Y-75021097D01*
X148656959Y-75021097D01*
X148868288Y-74994025D01*
X148868289Y-74994025D01*
X148873416Y-74993368D01*
X148878366Y-74991883D01*
X149082429Y-74930661D01*
X149082434Y-74930659D01*
X149087384Y-74929174D01*
X149287994Y-74830896D01*
X149469860Y-74701173D01*
X149492320Y-74678792D01*
X149614886Y-74556653D01*
X149628096Y-74543489D01*
X149636386Y-74531953D01*
X149758453Y-74362077D01*
X149759776Y-74363028D01*
X149806645Y-74319857D01*
X149876580Y-74307625D01*
X149942026Y-74335144D01*
X149969875Y-74366994D01*
X150029987Y-74465088D01*
X150176250Y-74633938D01*
X150348126Y-74776632D01*
X150541000Y-74889338D01*
X150545825Y-74891180D01*
X150545826Y-74891181D01*
X150577563Y-74903300D01*
X150749692Y-74969030D01*
X150754760Y-74970061D01*
X150754763Y-74970062D01*
X150838533Y-74987105D01*
X150968597Y-75013567D01*
X150973772Y-75013757D01*
X150973774Y-75013757D01*
X151186673Y-75021564D01*
X151186677Y-75021564D01*
X151191837Y-75021753D01*
X151196957Y-75021097D01*
X151196959Y-75021097D01*
X151408288Y-74994025D01*
X151408289Y-74994025D01*
X151413416Y-74993368D01*
X151418366Y-74991883D01*
X151622429Y-74930661D01*
X151622434Y-74930659D01*
X151627384Y-74929174D01*
X151827994Y-74830896D01*
X152009860Y-74701173D01*
X152032320Y-74678792D01*
X152154886Y-74556653D01*
X152168096Y-74543489D01*
X152176386Y-74531953D01*
X152298453Y-74362077D01*
X152299776Y-74363028D01*
X152346645Y-74319857D01*
X152416580Y-74307625D01*
X152482026Y-74335144D01*
X152509875Y-74366994D01*
X152569987Y-74465088D01*
X152716250Y-74633938D01*
X152888126Y-74776632D01*
X153081000Y-74889338D01*
X153085825Y-74891180D01*
X153085826Y-74891181D01*
X153117563Y-74903300D01*
X153289692Y-74969030D01*
X153294760Y-74970061D01*
X153294763Y-74970062D01*
X153378533Y-74987105D01*
X153508597Y-75013567D01*
X153513772Y-75013757D01*
X153513774Y-75013757D01*
X153726673Y-75021564D01*
X153726677Y-75021564D01*
X153731837Y-75021753D01*
X153736957Y-75021097D01*
X153736959Y-75021097D01*
X153948288Y-74994025D01*
X153948289Y-74994025D01*
X153953416Y-74993368D01*
X153958366Y-74991883D01*
X154162429Y-74930661D01*
X154162434Y-74930659D01*
X154167384Y-74929174D01*
X154367994Y-74830896D01*
X154549860Y-74701173D01*
X154572320Y-74678792D01*
X154694886Y-74556653D01*
X154708096Y-74543489D01*
X154716386Y-74531953D01*
X154838453Y-74362077D01*
X154839776Y-74363028D01*
X154886645Y-74319857D01*
X154956580Y-74307625D01*
X155022026Y-74335144D01*
X155049875Y-74366994D01*
X155109987Y-74465088D01*
X155256250Y-74633938D01*
X155428126Y-74776632D01*
X155621000Y-74889338D01*
X155625825Y-74891180D01*
X155625826Y-74891181D01*
X155657563Y-74903300D01*
X155829692Y-74969030D01*
X155834760Y-74970061D01*
X155834763Y-74970062D01*
X155918533Y-74987105D01*
X156048597Y-75013567D01*
X156053772Y-75013757D01*
X156053774Y-75013757D01*
X156266673Y-75021564D01*
X156266677Y-75021564D01*
X156271837Y-75021753D01*
X156276957Y-75021097D01*
X156276959Y-75021097D01*
X156488288Y-74994025D01*
X156488289Y-74994025D01*
X156493416Y-74993368D01*
X156498366Y-74991883D01*
X156702429Y-74930661D01*
X156702434Y-74930659D01*
X156707384Y-74929174D01*
X156907994Y-74830896D01*
X157089860Y-74701173D01*
X157112320Y-74678792D01*
X157234886Y-74556653D01*
X157248096Y-74543489D01*
X157256386Y-74531953D01*
X157378453Y-74362077D01*
X157379776Y-74363028D01*
X157426645Y-74319857D01*
X157496580Y-74307625D01*
X157562026Y-74335144D01*
X157589875Y-74366994D01*
X157649987Y-74465088D01*
X157796250Y-74633938D01*
X157968126Y-74776632D01*
X158161000Y-74889338D01*
X158165825Y-74891180D01*
X158165826Y-74891181D01*
X158197563Y-74903300D01*
X158369692Y-74969030D01*
X158374760Y-74970061D01*
X158374763Y-74970062D01*
X158458533Y-74987105D01*
X158588597Y-75013567D01*
X158593772Y-75013757D01*
X158593774Y-75013757D01*
X158806673Y-75021564D01*
X158806677Y-75021564D01*
X158811837Y-75021753D01*
X158816957Y-75021097D01*
X158816959Y-75021097D01*
X159028288Y-74994025D01*
X159028289Y-74994025D01*
X159033416Y-74993368D01*
X159038366Y-74991883D01*
X159242429Y-74930661D01*
X159242434Y-74930659D01*
X159247384Y-74929174D01*
X159447994Y-74830896D01*
X159629860Y-74701173D01*
X159652320Y-74678792D01*
X159774886Y-74556653D01*
X159788096Y-74543489D01*
X159796386Y-74531953D01*
X159918453Y-74362077D01*
X159919776Y-74363028D01*
X159966645Y-74319857D01*
X160036580Y-74307625D01*
X160102026Y-74335144D01*
X160129875Y-74366994D01*
X160189987Y-74465088D01*
X160336250Y-74633938D01*
X160508126Y-74776632D01*
X160701000Y-74889338D01*
X160705825Y-74891180D01*
X160705826Y-74891181D01*
X160737563Y-74903300D01*
X160909692Y-74969030D01*
X160914760Y-74970061D01*
X160914763Y-74970062D01*
X160998533Y-74987105D01*
X161128597Y-75013567D01*
X161133772Y-75013757D01*
X161133774Y-75013757D01*
X161346673Y-75021564D01*
X161346677Y-75021564D01*
X161351837Y-75021753D01*
X161356957Y-75021097D01*
X161356959Y-75021097D01*
X161568288Y-74994025D01*
X161568289Y-74994025D01*
X161573416Y-74993368D01*
X161578366Y-74991883D01*
X161782429Y-74930661D01*
X161782434Y-74930659D01*
X161787384Y-74929174D01*
X161987994Y-74830896D01*
X162169860Y-74701173D01*
X162192320Y-74678792D01*
X162314886Y-74556653D01*
X162328096Y-74543489D01*
X162336386Y-74531953D01*
X162458453Y-74362077D01*
X162459640Y-74362930D01*
X162506960Y-74319362D01*
X162576897Y-74307145D01*
X162642338Y-74334678D01*
X162670166Y-74366511D01*
X162727694Y-74460388D01*
X162733777Y-74468699D01*
X162873213Y-74629667D01*
X162880580Y-74636883D01*
X163044434Y-74772916D01*
X163052881Y-74778831D01*
X163236756Y-74886279D01*
X163246042Y-74890729D01*
X163445001Y-74966703D01*
X163454899Y-74969579D01*
X163558250Y-74990606D01*
X163572299Y-74989410D01*
X163576000Y-74979065D01*
X163576000Y-74978517D01*
X164084000Y-74978517D01*
X164088064Y-74992359D01*
X164101478Y-74994393D01*
X164108184Y-74993534D01*
X164118262Y-74991392D01*
X164322255Y-74930191D01*
X164331842Y-74926433D01*
X164523095Y-74832739D01*
X164531945Y-74827464D01*
X164705328Y-74703792D01*
X164713200Y-74697139D01*
X164864052Y-74546812D01*
X164870730Y-74538965D01*
X164998022Y-74361819D01*
X164999279Y-74362722D01*
X165046373Y-74319362D01*
X165116311Y-74307145D01*
X165181751Y-74334678D01*
X165209579Y-74366511D01*
X165269987Y-74465088D01*
X165416250Y-74633938D01*
X165588126Y-74776632D01*
X165781000Y-74889338D01*
X165785825Y-74891180D01*
X165785826Y-74891181D01*
X165817563Y-74903300D01*
X165989692Y-74969030D01*
X165994760Y-74970061D01*
X165994763Y-74970062D01*
X166078533Y-74987105D01*
X166208597Y-75013567D01*
X166213772Y-75013757D01*
X166213774Y-75013757D01*
X166426673Y-75021564D01*
X166426677Y-75021564D01*
X166431837Y-75021753D01*
X166436957Y-75021097D01*
X166436959Y-75021097D01*
X166648288Y-74994025D01*
X166648289Y-74994025D01*
X166653416Y-74993368D01*
X166658366Y-74991883D01*
X166862429Y-74930661D01*
X166862434Y-74930659D01*
X166867384Y-74929174D01*
X167067994Y-74830896D01*
X167249860Y-74701173D01*
X167272320Y-74678792D01*
X167393400Y-74558134D01*
X173266500Y-74558134D01*
X173273255Y-74620316D01*
X173324385Y-74756705D01*
X173411739Y-74873261D01*
X173528295Y-74960615D01*
X173664684Y-75011745D01*
X173726866Y-75018500D01*
X175523134Y-75018500D01*
X175585316Y-75011745D01*
X175721705Y-74960615D01*
X175838261Y-74873261D01*
X175925615Y-74756705D01*
X175947945Y-74697139D01*
X175969798Y-74638848D01*
X176012440Y-74582084D01*
X176079001Y-74557384D01*
X176148350Y-74572592D01*
X176183017Y-74600580D01*
X176208218Y-74629673D01*
X176215580Y-74636883D01*
X176379434Y-74772916D01*
X176387881Y-74778831D01*
X176571756Y-74886279D01*
X176581042Y-74890729D01*
X176780001Y-74966703D01*
X176789899Y-74969579D01*
X176893250Y-74990606D01*
X176907299Y-74989410D01*
X176911000Y-74979065D01*
X176911000Y-74978517D01*
X177419000Y-74978517D01*
X177423064Y-74992359D01*
X177436478Y-74994393D01*
X177443184Y-74993534D01*
X177453262Y-74991392D01*
X177657255Y-74930191D01*
X177666842Y-74926433D01*
X177858095Y-74832739D01*
X177866945Y-74827464D01*
X178040328Y-74703792D01*
X178048200Y-74697139D01*
X178199052Y-74546812D01*
X178205730Y-74538965D01*
X178330003Y-74366020D01*
X178335313Y-74357183D01*
X178429670Y-74166267D01*
X178433469Y-74156672D01*
X178495377Y-73952910D01*
X178497555Y-73942837D01*
X178498986Y-73931962D01*
X178496775Y-73917778D01*
X178483617Y-73914000D01*
X177437115Y-73914000D01*
X177421876Y-73918475D01*
X177420671Y-73919865D01*
X177419000Y-73927548D01*
X177419000Y-74978517D01*
X176911000Y-74978517D01*
X176911000Y-73387885D01*
X177419000Y-73387885D01*
X177423475Y-73403124D01*
X177424865Y-73404329D01*
X177432548Y-73406000D01*
X178483344Y-73406000D01*
X178496875Y-73402027D01*
X178498180Y-73392947D01*
X178456214Y-73225875D01*
X178452894Y-73216124D01*
X178367972Y-73020814D01*
X178363105Y-73011739D01*
X178247426Y-72832926D01*
X178241136Y-72824757D01*
X178097806Y-72667240D01*
X178090273Y-72660215D01*
X177923139Y-72528222D01*
X177914552Y-72522517D01*
X177728117Y-72419599D01*
X177718705Y-72415369D01*
X177517959Y-72344280D01*
X177507988Y-72341646D01*
X177436837Y-72328972D01*
X177423540Y-72330432D01*
X177419000Y-72344989D01*
X177419000Y-73387885D01*
X176911000Y-73387885D01*
X176911000Y-72343102D01*
X176907082Y-72329758D01*
X176892806Y-72327771D01*
X176854324Y-72333660D01*
X176844288Y-72336051D01*
X176641868Y-72402212D01*
X176632359Y-72406209D01*
X176443463Y-72504542D01*
X176434738Y-72510036D01*
X176264433Y-72637905D01*
X176256726Y-72644748D01*
X176179478Y-72725584D01*
X176117954Y-72761014D01*
X176047042Y-72757557D01*
X175989255Y-72716311D01*
X175970402Y-72682763D01*
X175928767Y-72571703D01*
X175925615Y-72563295D01*
X175838261Y-72446739D01*
X175721705Y-72359385D01*
X175585316Y-72308255D01*
X175523134Y-72301500D01*
X173726866Y-72301500D01*
X173664684Y-72308255D01*
X173528295Y-72359385D01*
X173411739Y-72446739D01*
X173324385Y-72563295D01*
X173273255Y-72699684D01*
X173266500Y-72761866D01*
X173266500Y-74558134D01*
X167393400Y-74558134D01*
X167394886Y-74556653D01*
X167408096Y-74543489D01*
X167416386Y-74531953D01*
X167535435Y-74366277D01*
X167538453Y-74362077D01*
X167551995Y-74334678D01*
X167635136Y-74166453D01*
X167635137Y-74166451D01*
X167637430Y-74161811D01*
X167702370Y-73948069D01*
X167731529Y-73726590D01*
X167733156Y-73660000D01*
X167714852Y-73437361D01*
X167660431Y-73220702D01*
X167571354Y-73015840D01*
X167491541Y-72892468D01*
X167452822Y-72832617D01*
X167452820Y-72832614D01*
X167450014Y-72828277D01*
X167299670Y-72663051D01*
X167295619Y-72659852D01*
X167295615Y-72659848D01*
X167128414Y-72527800D01*
X167128410Y-72527798D01*
X167124359Y-72524598D01*
X167093977Y-72507826D01*
X167072136Y-72495769D01*
X166928789Y-72416638D01*
X166923920Y-72414914D01*
X166923916Y-72414912D01*
X166723087Y-72343795D01*
X166723083Y-72343794D01*
X166718212Y-72342069D01*
X166713119Y-72341162D01*
X166713116Y-72341161D01*
X166503373Y-72303800D01*
X166503367Y-72303799D01*
X166498284Y-72302894D01*
X166424452Y-72301992D01*
X166280081Y-72300228D01*
X166280079Y-72300228D01*
X166274911Y-72300165D01*
X166054091Y-72333955D01*
X165841756Y-72403357D01*
X165792439Y-72429030D01*
X165655479Y-72500327D01*
X165643607Y-72506507D01*
X165639474Y-72509610D01*
X165639471Y-72509612D01*
X165469100Y-72637530D01*
X165464965Y-72640635D01*
X165425203Y-72682243D01*
X165339409Y-72772022D01*
X165310629Y-72802138D01*
X165307720Y-72806403D01*
X165307714Y-72806411D01*
X165300282Y-72817306D01*
X165203204Y-72959618D01*
X165202898Y-72960066D01*
X165147987Y-73005069D01*
X165077462Y-73013240D01*
X165013715Y-72981986D01*
X164993018Y-72957502D01*
X164912426Y-72832926D01*
X164906136Y-72824757D01*
X164762806Y-72667240D01*
X164755273Y-72660215D01*
X164588139Y-72528222D01*
X164579552Y-72522517D01*
X164393117Y-72419599D01*
X164383705Y-72415369D01*
X164182959Y-72344280D01*
X164172988Y-72341646D01*
X164101837Y-72328972D01*
X164088540Y-72330432D01*
X164084000Y-72344989D01*
X164084000Y-74978517D01*
X163576000Y-74978517D01*
X163576000Y-72343102D01*
X163572082Y-72329758D01*
X163557806Y-72327771D01*
X163519324Y-72333660D01*
X163509288Y-72336051D01*
X163306868Y-72402212D01*
X163297359Y-72406209D01*
X163108463Y-72504542D01*
X163099738Y-72510036D01*
X162929433Y-72637905D01*
X162921726Y-72644748D01*
X162774590Y-72798717D01*
X162768109Y-72806722D01*
X162663498Y-72960074D01*
X162608587Y-73005076D01*
X162538062Y-73013247D01*
X162474315Y-72981993D01*
X162453618Y-72957509D01*
X162372822Y-72832617D01*
X162372820Y-72832614D01*
X162370014Y-72828277D01*
X162219670Y-72663051D01*
X162215619Y-72659852D01*
X162215615Y-72659848D01*
X162048414Y-72527800D01*
X162048410Y-72527798D01*
X162044359Y-72524598D01*
X162013977Y-72507826D01*
X161992136Y-72495769D01*
X161848789Y-72416638D01*
X161843920Y-72414914D01*
X161843916Y-72414912D01*
X161643087Y-72343795D01*
X161643083Y-72343794D01*
X161638212Y-72342069D01*
X161633119Y-72341162D01*
X161633116Y-72341161D01*
X161423373Y-72303800D01*
X161423367Y-72303799D01*
X161418284Y-72302894D01*
X161344452Y-72301992D01*
X161200081Y-72300228D01*
X161200079Y-72300228D01*
X161194911Y-72300165D01*
X160974091Y-72333955D01*
X160761756Y-72403357D01*
X160712439Y-72429030D01*
X160575479Y-72500327D01*
X160563607Y-72506507D01*
X160559474Y-72509610D01*
X160559471Y-72509612D01*
X160389100Y-72637530D01*
X160384965Y-72640635D01*
X160345203Y-72682243D01*
X160259409Y-72772022D01*
X160230629Y-72802138D01*
X160123201Y-72959621D01*
X160068293Y-73004621D01*
X159997768Y-73012792D01*
X159934021Y-72981538D01*
X159913324Y-72957054D01*
X159832822Y-72832617D01*
X159832820Y-72832614D01*
X159830014Y-72828277D01*
X159679670Y-72663051D01*
X159675619Y-72659852D01*
X159675615Y-72659848D01*
X159508414Y-72527800D01*
X159508410Y-72527798D01*
X159504359Y-72524598D01*
X159473977Y-72507826D01*
X159452136Y-72495769D01*
X159308789Y-72416638D01*
X159303920Y-72414914D01*
X159303916Y-72414912D01*
X159103087Y-72343795D01*
X159103083Y-72343794D01*
X159098212Y-72342069D01*
X159093119Y-72341162D01*
X159093116Y-72341161D01*
X158883373Y-72303800D01*
X158883367Y-72303799D01*
X158878284Y-72302894D01*
X158804452Y-72301992D01*
X158660081Y-72300228D01*
X158660079Y-72300228D01*
X158654911Y-72300165D01*
X158434091Y-72333955D01*
X158221756Y-72403357D01*
X158172439Y-72429030D01*
X158035479Y-72500327D01*
X158023607Y-72506507D01*
X158019474Y-72509610D01*
X158019471Y-72509612D01*
X157849100Y-72637530D01*
X157844965Y-72640635D01*
X157805203Y-72682243D01*
X157719409Y-72772022D01*
X157690629Y-72802138D01*
X157583201Y-72959621D01*
X157528293Y-73004621D01*
X157457768Y-73012792D01*
X157394021Y-72981538D01*
X157373324Y-72957054D01*
X157292822Y-72832617D01*
X157292820Y-72832614D01*
X157290014Y-72828277D01*
X157139670Y-72663051D01*
X157135619Y-72659852D01*
X157135615Y-72659848D01*
X156968414Y-72527800D01*
X156968410Y-72527798D01*
X156964359Y-72524598D01*
X156933977Y-72507826D01*
X156912136Y-72495769D01*
X156768789Y-72416638D01*
X156763920Y-72414914D01*
X156763916Y-72414912D01*
X156563087Y-72343795D01*
X156563083Y-72343794D01*
X156558212Y-72342069D01*
X156553119Y-72341162D01*
X156553116Y-72341161D01*
X156343373Y-72303800D01*
X156343367Y-72303799D01*
X156338284Y-72302894D01*
X156264452Y-72301992D01*
X156120081Y-72300228D01*
X156120079Y-72300228D01*
X156114911Y-72300165D01*
X155894091Y-72333955D01*
X155681756Y-72403357D01*
X155632439Y-72429030D01*
X155495479Y-72500327D01*
X155483607Y-72506507D01*
X155479474Y-72509610D01*
X155479471Y-72509612D01*
X155309100Y-72637530D01*
X155304965Y-72640635D01*
X155265203Y-72682243D01*
X155179409Y-72772022D01*
X155150629Y-72802138D01*
X155043201Y-72959621D01*
X154988293Y-73004621D01*
X154917768Y-73012792D01*
X154854021Y-72981538D01*
X154833324Y-72957054D01*
X154752822Y-72832617D01*
X154752820Y-72832614D01*
X154750014Y-72828277D01*
X154599670Y-72663051D01*
X154595619Y-72659852D01*
X154595615Y-72659848D01*
X154428414Y-72527800D01*
X154428410Y-72527798D01*
X154424359Y-72524598D01*
X154393977Y-72507826D01*
X154372136Y-72495769D01*
X154228789Y-72416638D01*
X154223920Y-72414914D01*
X154223916Y-72414912D01*
X154023087Y-72343795D01*
X154023083Y-72343794D01*
X154018212Y-72342069D01*
X154013119Y-72341162D01*
X154013116Y-72341161D01*
X153803373Y-72303800D01*
X153803367Y-72303799D01*
X153798284Y-72302894D01*
X153724452Y-72301992D01*
X153580081Y-72300228D01*
X153580079Y-72300228D01*
X153574911Y-72300165D01*
X153354091Y-72333955D01*
X153141756Y-72403357D01*
X153092439Y-72429030D01*
X152955479Y-72500327D01*
X152943607Y-72506507D01*
X152939474Y-72509610D01*
X152939471Y-72509612D01*
X152769100Y-72637530D01*
X152764965Y-72640635D01*
X152725203Y-72682243D01*
X152639409Y-72772022D01*
X152610629Y-72802138D01*
X152503201Y-72959621D01*
X152448293Y-73004621D01*
X152377768Y-73012792D01*
X152314021Y-72981538D01*
X152293324Y-72957054D01*
X152212822Y-72832617D01*
X152212820Y-72832614D01*
X152210014Y-72828277D01*
X152059670Y-72663051D01*
X152055619Y-72659852D01*
X152055615Y-72659848D01*
X151888414Y-72527800D01*
X151888410Y-72527798D01*
X151884359Y-72524598D01*
X151853977Y-72507826D01*
X151832136Y-72495769D01*
X151688789Y-72416638D01*
X151683920Y-72414914D01*
X151683916Y-72414912D01*
X151483087Y-72343795D01*
X151483083Y-72343794D01*
X151478212Y-72342069D01*
X151473119Y-72341162D01*
X151473116Y-72341161D01*
X151263373Y-72303800D01*
X151263367Y-72303799D01*
X151258284Y-72302894D01*
X151184452Y-72301992D01*
X151040081Y-72300228D01*
X151040079Y-72300228D01*
X151034911Y-72300165D01*
X150814091Y-72333955D01*
X150601756Y-72403357D01*
X150552439Y-72429030D01*
X150415479Y-72500327D01*
X150403607Y-72506507D01*
X150399474Y-72509610D01*
X150399471Y-72509612D01*
X150229100Y-72637530D01*
X150224965Y-72640635D01*
X150185203Y-72682243D01*
X150099409Y-72772022D01*
X150070629Y-72802138D01*
X149963201Y-72959621D01*
X149908293Y-73004621D01*
X149837768Y-73012792D01*
X149774021Y-72981538D01*
X149753324Y-72957054D01*
X149672822Y-72832617D01*
X149672820Y-72832614D01*
X149670014Y-72828277D01*
X149519670Y-72663051D01*
X149515619Y-72659852D01*
X149515615Y-72659848D01*
X149348414Y-72527800D01*
X149348410Y-72527798D01*
X149344359Y-72524598D01*
X149313977Y-72507826D01*
X149292136Y-72495769D01*
X149148789Y-72416638D01*
X149143920Y-72414914D01*
X149143916Y-72414912D01*
X148943087Y-72343795D01*
X148943083Y-72343794D01*
X148938212Y-72342069D01*
X148933119Y-72341162D01*
X148933116Y-72341161D01*
X148723373Y-72303800D01*
X148723367Y-72303799D01*
X148718284Y-72302894D01*
X148644452Y-72301992D01*
X148500081Y-72300228D01*
X148500079Y-72300228D01*
X148494911Y-72300165D01*
X148274091Y-72333955D01*
X148061756Y-72403357D01*
X148012439Y-72429030D01*
X147875479Y-72500327D01*
X147863607Y-72506507D01*
X147859474Y-72509610D01*
X147859471Y-72509612D01*
X147689100Y-72637530D01*
X147684965Y-72640635D01*
X147645203Y-72682243D01*
X147559409Y-72772022D01*
X147530629Y-72802138D01*
X147423201Y-72959621D01*
X147368293Y-73004621D01*
X147297768Y-73012792D01*
X147234021Y-72981538D01*
X147213324Y-72957054D01*
X147132822Y-72832617D01*
X147132820Y-72832614D01*
X147130014Y-72828277D01*
X146979670Y-72663051D01*
X146975619Y-72659852D01*
X146975615Y-72659848D01*
X146808414Y-72527800D01*
X146808410Y-72527798D01*
X146804359Y-72524598D01*
X146773977Y-72507826D01*
X146752136Y-72495769D01*
X146608789Y-72416638D01*
X146603920Y-72414914D01*
X146603916Y-72414912D01*
X146403087Y-72343795D01*
X146403083Y-72343794D01*
X146398212Y-72342069D01*
X146393119Y-72341162D01*
X146393116Y-72341161D01*
X146183373Y-72303800D01*
X146183367Y-72303799D01*
X146178284Y-72302894D01*
X146104452Y-72301992D01*
X145960081Y-72300228D01*
X145960079Y-72300228D01*
X145954911Y-72300165D01*
X145734091Y-72333955D01*
X145521756Y-72403357D01*
X145472439Y-72429030D01*
X145335479Y-72500327D01*
X145323607Y-72506507D01*
X145319474Y-72509610D01*
X145319471Y-72509612D01*
X145149100Y-72637530D01*
X145144965Y-72640635D01*
X145070189Y-72718884D01*
X145064283Y-72725064D01*
X145002759Y-72760494D01*
X144931846Y-72757037D01*
X144874060Y-72715791D01*
X144855207Y-72682243D01*
X144813767Y-72571703D01*
X144810615Y-72563295D01*
X144723261Y-72446739D01*
X144606705Y-72359385D01*
X144470316Y-72308255D01*
X144408134Y-72301500D01*
X142611866Y-72301500D01*
X142549684Y-72308255D01*
X142413295Y-72359385D01*
X142296739Y-72446739D01*
X142209385Y-72563295D01*
X142158255Y-72699684D01*
X142151500Y-72761866D01*
X142151500Y-74558134D01*
X139453400Y-74558134D01*
X139454886Y-74556653D01*
X139468096Y-74543489D01*
X139476386Y-74531953D01*
X139595435Y-74366277D01*
X139598453Y-74362077D01*
X139611995Y-74334678D01*
X139695136Y-74166453D01*
X139695137Y-74166451D01*
X139697430Y-74161811D01*
X139762370Y-73948069D01*
X139791529Y-73726590D01*
X139793156Y-73660000D01*
X139774852Y-73437361D01*
X139720431Y-73220702D01*
X139631354Y-73015840D01*
X139551541Y-72892468D01*
X139512822Y-72832617D01*
X139512820Y-72832614D01*
X139510014Y-72828277D01*
X139359670Y-72663051D01*
X139355619Y-72659852D01*
X139355615Y-72659848D01*
X139188414Y-72527800D01*
X139188410Y-72527798D01*
X139184359Y-72524598D01*
X139153977Y-72507826D01*
X139132136Y-72495769D01*
X138988789Y-72416638D01*
X138983920Y-72414914D01*
X138983916Y-72414912D01*
X138783087Y-72343795D01*
X138783083Y-72343794D01*
X138778212Y-72342069D01*
X138773119Y-72341162D01*
X138773116Y-72341161D01*
X138563373Y-72303800D01*
X138563367Y-72303799D01*
X138558284Y-72302894D01*
X138484452Y-72301992D01*
X138340081Y-72300228D01*
X138340079Y-72300228D01*
X138334911Y-72300165D01*
X138114091Y-72333955D01*
X137901756Y-72403357D01*
X137852439Y-72429030D01*
X137715479Y-72500327D01*
X137703607Y-72506507D01*
X137699474Y-72509610D01*
X137699471Y-72509612D01*
X137529100Y-72637530D01*
X137524965Y-72640635D01*
X137485203Y-72682243D01*
X137399409Y-72772022D01*
X137370629Y-72802138D01*
X137367720Y-72806403D01*
X137367714Y-72806411D01*
X137360282Y-72817306D01*
X137263204Y-72959618D01*
X137262898Y-72960066D01*
X137207987Y-73005069D01*
X137137462Y-73013240D01*
X137073715Y-72981986D01*
X137053018Y-72957502D01*
X136972426Y-72832926D01*
X136966136Y-72824757D01*
X136822806Y-72667240D01*
X136815273Y-72660215D01*
X136648139Y-72528222D01*
X136639552Y-72522517D01*
X136453117Y-72419599D01*
X136443705Y-72415369D01*
X136242959Y-72344280D01*
X136232988Y-72341646D01*
X136161837Y-72328972D01*
X136148540Y-72330432D01*
X136144000Y-72344989D01*
X136144000Y-74978517D01*
X135636000Y-74978517D01*
X135636000Y-72343102D01*
X135632082Y-72329758D01*
X135617806Y-72327771D01*
X135579324Y-72333660D01*
X135569288Y-72336051D01*
X135366868Y-72402212D01*
X135357359Y-72406209D01*
X135168463Y-72504542D01*
X135159738Y-72510036D01*
X134989433Y-72637905D01*
X134981726Y-72644748D01*
X134834590Y-72798717D01*
X134828109Y-72806722D01*
X134723498Y-72960074D01*
X134668587Y-73005076D01*
X134598062Y-73013247D01*
X134534315Y-72981993D01*
X134513618Y-72957509D01*
X134432822Y-72832617D01*
X134432820Y-72832614D01*
X134430014Y-72828277D01*
X134279670Y-72663051D01*
X134275619Y-72659852D01*
X134275615Y-72659848D01*
X134108414Y-72527800D01*
X134108410Y-72527798D01*
X134104359Y-72524598D01*
X134073977Y-72507826D01*
X134052136Y-72495769D01*
X133908789Y-72416638D01*
X133903920Y-72414914D01*
X133903916Y-72414912D01*
X133703087Y-72343795D01*
X133703083Y-72343794D01*
X133698212Y-72342069D01*
X133693119Y-72341162D01*
X133693116Y-72341161D01*
X133483373Y-72303800D01*
X133483367Y-72303799D01*
X133478284Y-72302894D01*
X133404452Y-72301992D01*
X133260081Y-72300228D01*
X133260079Y-72300228D01*
X133254911Y-72300165D01*
X133034091Y-72333955D01*
X132821756Y-72403357D01*
X132772439Y-72429030D01*
X132635479Y-72500327D01*
X132623607Y-72506507D01*
X132619474Y-72509610D01*
X132619471Y-72509612D01*
X132449100Y-72637530D01*
X132444965Y-72640635D01*
X132405203Y-72682243D01*
X132319409Y-72772022D01*
X132290629Y-72802138D01*
X132183201Y-72959621D01*
X132128293Y-73004621D01*
X132057768Y-73012792D01*
X131994021Y-72981538D01*
X131973324Y-72957054D01*
X131892822Y-72832617D01*
X131892820Y-72832614D01*
X131890014Y-72828277D01*
X131739670Y-72663051D01*
X131735619Y-72659852D01*
X131735615Y-72659848D01*
X131568414Y-72527800D01*
X131568410Y-72527798D01*
X131564359Y-72524598D01*
X131533977Y-72507826D01*
X131512136Y-72495769D01*
X131368789Y-72416638D01*
X131363920Y-72414914D01*
X131363916Y-72414912D01*
X131163087Y-72343795D01*
X131163083Y-72343794D01*
X131158212Y-72342069D01*
X131153119Y-72341162D01*
X131153116Y-72341161D01*
X130943373Y-72303800D01*
X130943367Y-72303799D01*
X130938284Y-72302894D01*
X130864452Y-72301992D01*
X130720081Y-72300228D01*
X130720079Y-72300228D01*
X130714911Y-72300165D01*
X130494091Y-72333955D01*
X130281756Y-72403357D01*
X130232439Y-72429030D01*
X130095479Y-72500327D01*
X130083607Y-72506507D01*
X130079474Y-72509610D01*
X130079471Y-72509612D01*
X129909100Y-72637530D01*
X129904965Y-72640635D01*
X129865203Y-72682243D01*
X129779409Y-72772022D01*
X129750629Y-72802138D01*
X129643201Y-72959621D01*
X129588293Y-73004621D01*
X129517768Y-73012792D01*
X129454021Y-72981538D01*
X129433324Y-72957054D01*
X129352822Y-72832617D01*
X129352820Y-72832614D01*
X129350014Y-72828277D01*
X129199670Y-72663051D01*
X129195619Y-72659852D01*
X129195615Y-72659848D01*
X129028414Y-72527800D01*
X129028410Y-72527798D01*
X129024359Y-72524598D01*
X128993977Y-72507826D01*
X128972136Y-72495769D01*
X128828789Y-72416638D01*
X128823920Y-72414914D01*
X128823916Y-72414912D01*
X128623087Y-72343795D01*
X128623083Y-72343794D01*
X128618212Y-72342069D01*
X128613119Y-72341162D01*
X128613116Y-72341161D01*
X128403373Y-72303800D01*
X128403367Y-72303799D01*
X128398284Y-72302894D01*
X128324452Y-72301992D01*
X128180081Y-72300228D01*
X128180079Y-72300228D01*
X128174911Y-72300165D01*
X127954091Y-72333955D01*
X127741756Y-72403357D01*
X127692439Y-72429030D01*
X127555479Y-72500327D01*
X127543607Y-72506507D01*
X127539474Y-72509610D01*
X127539471Y-72509612D01*
X127369100Y-72637530D01*
X127364965Y-72640635D01*
X127325203Y-72682243D01*
X127239409Y-72772022D01*
X127210629Y-72802138D01*
X127103201Y-72959621D01*
X127048293Y-73004621D01*
X126977768Y-73012792D01*
X126914021Y-72981538D01*
X126893324Y-72957054D01*
X126812822Y-72832617D01*
X126812820Y-72832614D01*
X126810014Y-72828277D01*
X126659670Y-72663051D01*
X126655619Y-72659852D01*
X126655615Y-72659848D01*
X126488414Y-72527800D01*
X126488410Y-72527798D01*
X126484359Y-72524598D01*
X126453977Y-72507826D01*
X126432136Y-72495769D01*
X126288789Y-72416638D01*
X126283920Y-72414914D01*
X126283916Y-72414912D01*
X126083087Y-72343795D01*
X126083083Y-72343794D01*
X126078212Y-72342069D01*
X126073119Y-72341162D01*
X126073116Y-72341161D01*
X125863373Y-72303800D01*
X125863367Y-72303799D01*
X125858284Y-72302894D01*
X125784452Y-72301992D01*
X125640081Y-72300228D01*
X125640079Y-72300228D01*
X125634911Y-72300165D01*
X125414091Y-72333955D01*
X125201756Y-72403357D01*
X125152439Y-72429030D01*
X125015479Y-72500327D01*
X125003607Y-72506507D01*
X124999474Y-72509610D01*
X124999471Y-72509612D01*
X124829100Y-72637530D01*
X124824965Y-72640635D01*
X124785203Y-72682243D01*
X124699409Y-72772022D01*
X124670629Y-72802138D01*
X124563201Y-72959621D01*
X124508293Y-73004621D01*
X124437768Y-73012792D01*
X124374021Y-72981538D01*
X124353324Y-72957054D01*
X124272822Y-72832617D01*
X124272820Y-72832614D01*
X124270014Y-72828277D01*
X124119670Y-72663051D01*
X124115619Y-72659852D01*
X124115615Y-72659848D01*
X123948414Y-72527800D01*
X123948410Y-72527798D01*
X123944359Y-72524598D01*
X123913977Y-72507826D01*
X123892136Y-72495769D01*
X123748789Y-72416638D01*
X123743920Y-72414914D01*
X123743916Y-72414912D01*
X123543087Y-72343795D01*
X123543083Y-72343794D01*
X123538212Y-72342069D01*
X123533119Y-72341162D01*
X123533116Y-72341161D01*
X123323373Y-72303800D01*
X123323367Y-72303799D01*
X123318284Y-72302894D01*
X123244452Y-72301992D01*
X123100081Y-72300228D01*
X123100079Y-72300228D01*
X123094911Y-72300165D01*
X122874091Y-72333955D01*
X122661756Y-72403357D01*
X122612439Y-72429030D01*
X122475479Y-72500327D01*
X122463607Y-72506507D01*
X122459474Y-72509610D01*
X122459471Y-72509612D01*
X122289100Y-72637530D01*
X122284965Y-72640635D01*
X122245203Y-72682243D01*
X122159409Y-72772022D01*
X122130629Y-72802138D01*
X122023201Y-72959621D01*
X121968293Y-73004621D01*
X121897768Y-73012792D01*
X121834021Y-72981538D01*
X121813324Y-72957054D01*
X121732822Y-72832617D01*
X121732820Y-72832614D01*
X121730014Y-72828277D01*
X121579670Y-72663051D01*
X121575619Y-72659852D01*
X121575615Y-72659848D01*
X121408414Y-72527800D01*
X121408410Y-72527798D01*
X121404359Y-72524598D01*
X121373977Y-72507826D01*
X121352136Y-72495769D01*
X121208789Y-72416638D01*
X121203920Y-72414914D01*
X121203916Y-72414912D01*
X121003087Y-72343795D01*
X121003083Y-72343794D01*
X120998212Y-72342069D01*
X120993119Y-72341162D01*
X120993116Y-72341161D01*
X120783373Y-72303800D01*
X120783367Y-72303799D01*
X120778284Y-72302894D01*
X120704452Y-72301992D01*
X120560081Y-72300228D01*
X120560079Y-72300228D01*
X120554911Y-72300165D01*
X120334091Y-72333955D01*
X120121756Y-72403357D01*
X120072439Y-72429030D01*
X119935479Y-72500327D01*
X119923607Y-72506507D01*
X119919474Y-72509610D01*
X119919471Y-72509612D01*
X119749100Y-72637530D01*
X119744965Y-72640635D01*
X119705203Y-72682243D01*
X119619409Y-72772022D01*
X119590629Y-72802138D01*
X119483201Y-72959621D01*
X119428293Y-73004621D01*
X119357768Y-73012792D01*
X119294021Y-72981538D01*
X119273324Y-72957054D01*
X119192822Y-72832617D01*
X119192820Y-72832614D01*
X119190014Y-72828277D01*
X119039670Y-72663051D01*
X119035619Y-72659852D01*
X119035615Y-72659848D01*
X118868414Y-72527800D01*
X118868410Y-72527798D01*
X118864359Y-72524598D01*
X118833977Y-72507826D01*
X118812136Y-72495769D01*
X118668789Y-72416638D01*
X118663920Y-72414914D01*
X118663916Y-72414912D01*
X118463087Y-72343795D01*
X118463083Y-72343794D01*
X118458212Y-72342069D01*
X118453119Y-72341162D01*
X118453116Y-72341161D01*
X118243373Y-72303800D01*
X118243367Y-72303799D01*
X118238284Y-72302894D01*
X118164452Y-72301992D01*
X118020081Y-72300228D01*
X118020079Y-72300228D01*
X118014911Y-72300165D01*
X117794091Y-72333955D01*
X117581756Y-72403357D01*
X117532439Y-72429030D01*
X117395479Y-72500327D01*
X117383607Y-72506507D01*
X117379474Y-72509610D01*
X117379471Y-72509612D01*
X117209100Y-72637530D01*
X117204965Y-72640635D01*
X117130189Y-72718884D01*
X117124283Y-72725064D01*
X117062759Y-72760494D01*
X116991846Y-72757037D01*
X116934060Y-72715791D01*
X116915207Y-72682243D01*
X116873767Y-72571703D01*
X116870615Y-72563295D01*
X116783261Y-72446739D01*
X116666705Y-72359385D01*
X116530316Y-72308255D01*
X116468134Y-72301500D01*
X114671866Y-72301500D01*
X114609684Y-72308255D01*
X114473295Y-72359385D01*
X114356739Y-72446739D01*
X114269385Y-72563295D01*
X114218255Y-72699684D01*
X114211500Y-72761866D01*
X114211500Y-74558134D01*
X111512690Y-74558134D01*
X111524052Y-74546812D01*
X111530730Y-74538965D01*
X111655003Y-74366020D01*
X111660313Y-74357183D01*
X111754670Y-74166267D01*
X111758469Y-74156672D01*
X111820377Y-73952910D01*
X111822555Y-73942837D01*
X111823986Y-73931962D01*
X111821775Y-73917778D01*
X111808617Y-73914000D01*
X110762115Y-73914000D01*
X110746876Y-73918475D01*
X110745671Y-73919865D01*
X110744000Y-73927548D01*
X110744000Y-74978517D01*
X110236000Y-74978517D01*
X110236000Y-73387885D01*
X110744000Y-73387885D01*
X110748475Y-73403124D01*
X110749865Y-73404329D01*
X110757548Y-73406000D01*
X111808344Y-73406000D01*
X111821875Y-73402027D01*
X111823180Y-73392947D01*
X111781214Y-73225875D01*
X111777894Y-73216124D01*
X111692972Y-73020814D01*
X111688105Y-73011739D01*
X111572426Y-72832926D01*
X111566136Y-72824757D01*
X111422806Y-72667240D01*
X111415273Y-72660215D01*
X111248139Y-72528222D01*
X111239552Y-72522517D01*
X111053117Y-72419599D01*
X111043705Y-72415369D01*
X110842959Y-72344280D01*
X110832988Y-72341646D01*
X110761837Y-72328972D01*
X110748540Y-72330432D01*
X110744000Y-72344989D01*
X110744000Y-73387885D01*
X110236000Y-73387885D01*
X110236000Y-72343102D01*
X110232082Y-72329758D01*
X110217806Y-72327771D01*
X110179324Y-72333660D01*
X110169288Y-72336051D01*
X109966868Y-72402212D01*
X109957359Y-72406209D01*
X109768463Y-72504542D01*
X109759738Y-72510036D01*
X109589433Y-72637905D01*
X109581726Y-72644748D01*
X109434590Y-72798717D01*
X109428109Y-72806722D01*
X109323498Y-72960074D01*
X109268587Y-73005076D01*
X109198062Y-73013247D01*
X109134315Y-72981993D01*
X109113618Y-72957509D01*
X109032822Y-72832617D01*
X109032820Y-72832614D01*
X109030014Y-72828277D01*
X108879670Y-72663051D01*
X108875619Y-72659852D01*
X108875615Y-72659848D01*
X108708414Y-72527800D01*
X108708410Y-72527798D01*
X108704359Y-72524598D01*
X108673977Y-72507826D01*
X108652136Y-72495769D01*
X108508789Y-72416638D01*
X108503920Y-72414914D01*
X108503916Y-72414912D01*
X108303087Y-72343795D01*
X108303083Y-72343794D01*
X108298212Y-72342069D01*
X108293119Y-72341162D01*
X108293116Y-72341161D01*
X108083373Y-72303800D01*
X108083367Y-72303799D01*
X108078284Y-72302894D01*
X108004452Y-72301992D01*
X107860081Y-72300228D01*
X107860079Y-72300228D01*
X107854911Y-72300165D01*
X107634091Y-72333955D01*
X107421756Y-72403357D01*
X107372439Y-72429030D01*
X107235479Y-72500327D01*
X107223607Y-72506507D01*
X107219474Y-72509610D01*
X107219471Y-72509612D01*
X107049100Y-72637530D01*
X107044965Y-72640635D01*
X107005203Y-72682243D01*
X106919409Y-72772022D01*
X106890629Y-72802138D01*
X106783201Y-72959621D01*
X106728293Y-73004621D01*
X106657768Y-73012792D01*
X106594021Y-72981538D01*
X106573324Y-72957054D01*
X106492822Y-72832617D01*
X106492820Y-72832614D01*
X106490014Y-72828277D01*
X106339670Y-72663051D01*
X106335619Y-72659852D01*
X106335615Y-72659848D01*
X106168414Y-72527800D01*
X106168410Y-72527798D01*
X106164359Y-72524598D01*
X106097906Y-72487914D01*
X106047936Y-72437482D01*
X106032800Y-72377606D01*
X106032800Y-70328596D01*
X106053851Y-70258870D01*
X106092471Y-70200743D01*
X106153218Y-70040826D01*
X106159771Y-69994199D01*
X106176475Y-69875347D01*
X106176475Y-69875344D01*
X106177026Y-69871425D01*
X106177325Y-69850000D01*
X106158256Y-69680000D01*
X106145831Y-69644318D01*
X106104314Y-69525097D01*
X106104313Y-69525095D01*
X106101999Y-69518450D01*
X106058070Y-69448148D01*
X106015081Y-69379352D01*
X106011348Y-69373378D01*
X105998159Y-69360096D01*
X105924853Y-69286277D01*
X105890809Y-69251994D01*
X105800395Y-69194616D01*
X105752316Y-69164104D01*
X105752313Y-69164102D01*
X105746373Y-69160333D01*
X105739740Y-69157971D01*
X105591854Y-69105311D01*
X105591849Y-69105310D01*
X105585219Y-69102949D01*
X105578231Y-69102116D01*
X105578228Y-69102115D01*
X105462655Y-69088334D01*
X105415357Y-69082694D01*
X105408354Y-69083430D01*
X105408353Y-69083430D01*
X105363958Y-69088096D01*
X105245228Y-69100575D01*
X105235071Y-69104033D01*
X105089956Y-69153434D01*
X105089953Y-69153435D01*
X105083289Y-69155704D01*
X104937588Y-69245340D01*
X104932557Y-69250267D01*
X104932554Y-69250269D01*
X104925689Y-69256992D01*
X104815366Y-69365028D01*
X104811547Y-69370953D01*
X104811546Y-69370955D01*
X104769796Y-69435738D01*
X104722698Y-69508820D01*
X104720287Y-69515443D01*
X104720286Y-69515446D01*
X104666600Y-69662947D01*
X104666599Y-69662952D01*
X104664190Y-69669570D01*
X104642750Y-69839286D01*
X104659443Y-70009536D01*
X104713440Y-70171856D01*
X104717087Y-70177879D01*
X104717088Y-70177880D01*
X104768976Y-70263558D01*
X104787200Y-70328829D01*
X104787200Y-72376122D01*
X104767198Y-72444243D01*
X104719383Y-72487883D01*
X104683607Y-72506507D01*
X104679474Y-72509610D01*
X104679471Y-72509612D01*
X104509100Y-72637530D01*
X104504965Y-72640635D01*
X104465203Y-72682243D01*
X104379409Y-72772022D01*
X104350629Y-72802138D01*
X104243201Y-72959621D01*
X104188293Y-73004621D01*
X104117768Y-73012792D01*
X104054021Y-72981538D01*
X104033324Y-72957054D01*
X103952822Y-72832617D01*
X103952820Y-72832614D01*
X103950014Y-72828277D01*
X103799670Y-72663051D01*
X103795619Y-72659852D01*
X103795615Y-72659848D01*
X103628414Y-72527800D01*
X103628410Y-72527798D01*
X103624359Y-72524598D01*
X103557906Y-72487914D01*
X103507936Y-72437482D01*
X103492800Y-72377606D01*
X103492800Y-69319480D01*
X103512802Y-69251359D01*
X103554283Y-69211251D01*
X103581872Y-69194805D01*
X103581874Y-69194804D01*
X103587924Y-69191197D01*
X103711805Y-69073227D01*
X103806471Y-68930743D01*
X103853685Y-68806452D01*
X103864718Y-68777408D01*
X103864719Y-68777406D01*
X103867218Y-68770826D01*
X103875300Y-68713319D01*
X103890475Y-68605347D01*
X103890475Y-68605344D01*
X103891026Y-68601425D01*
X103891325Y-68580000D01*
X103872256Y-68410000D01*
X103854336Y-68358538D01*
X103818314Y-68255097D01*
X103818313Y-68255095D01*
X103815999Y-68248450D01*
X103725348Y-68103378D01*
X103712159Y-68090096D01*
X103609772Y-67986992D01*
X103604809Y-67981994D01*
X103525230Y-67931492D01*
X103466316Y-67894104D01*
X103466313Y-67894102D01*
X103460373Y-67890333D01*
X103453740Y-67887971D01*
X103305854Y-67835311D01*
X103305849Y-67835310D01*
X103299219Y-67832949D01*
X103292231Y-67832116D01*
X103292228Y-67832115D01*
X103176655Y-67818334D01*
X103129357Y-67812694D01*
X103122354Y-67813430D01*
X103122353Y-67813430D01*
X103077958Y-67818096D01*
X102959228Y-67830575D01*
X102949071Y-67834033D01*
X102803956Y-67883434D01*
X102803953Y-67883435D01*
X102797289Y-67885704D01*
X102651588Y-67975340D01*
X102646557Y-67980267D01*
X102646554Y-67980269D01*
X102587573Y-68038028D01*
X102529366Y-68095028D01*
X102525547Y-68100953D01*
X102525546Y-68100955D01*
X102520165Y-68109305D01*
X102436698Y-68238820D01*
X102434287Y-68245443D01*
X102434286Y-68245446D01*
X102393553Y-68357361D01*
X102378190Y-68399570D01*
X102377308Y-68406555D01*
X102377306Y-68406562D01*
X102375255Y-68422795D01*
X102360664Y-68467703D01*
X102352631Y-68482315D01*
X102341777Y-68498839D01*
X102329669Y-68514449D01*
X102312437Y-68554268D01*
X102307230Y-68564898D01*
X102286333Y-68602910D01*
X102284362Y-68610588D01*
X102284359Y-68610595D01*
X102281422Y-68622034D01*
X102275018Y-68640739D01*
X102267175Y-68658863D01*
X102265935Y-68666692D01*
X102260391Y-68701696D01*
X102257984Y-68713319D01*
X102247200Y-68755322D01*
X102247200Y-68775068D01*
X102245649Y-68794778D01*
X102242560Y-68814282D01*
X102243306Y-68822174D01*
X102246641Y-68857456D01*
X102247200Y-68869313D01*
X102247200Y-72376122D01*
X102227198Y-72444243D01*
X102179383Y-72487883D01*
X102143607Y-72506507D01*
X102139474Y-72509610D01*
X102139471Y-72509612D01*
X101969100Y-72637530D01*
X101964965Y-72640635D01*
X101925203Y-72682243D01*
X101839409Y-72772022D01*
X101810629Y-72802138D01*
X101703201Y-72959621D01*
X101648293Y-73004621D01*
X101577768Y-73012792D01*
X101514021Y-72981538D01*
X101493324Y-72957054D01*
X101412822Y-72832617D01*
X101412820Y-72832614D01*
X101410014Y-72828277D01*
X101259670Y-72663051D01*
X101255619Y-72659852D01*
X101255615Y-72659848D01*
X101088414Y-72527800D01*
X101088410Y-72527798D01*
X101084359Y-72524598D01*
X101017906Y-72487914D01*
X100967936Y-72437482D01*
X100952800Y-72377606D01*
X100952800Y-66017480D01*
X100972802Y-65949359D01*
X101014283Y-65909251D01*
X101041872Y-65892805D01*
X101041874Y-65892804D01*
X101047924Y-65889197D01*
X101171805Y-65771227D01*
X101266471Y-65628743D01*
X101313685Y-65504452D01*
X101324718Y-65475408D01*
X101324719Y-65475406D01*
X101327218Y-65468826D01*
X101335300Y-65411319D01*
X101350475Y-65303347D01*
X101350475Y-65303344D01*
X101351026Y-65299425D01*
X101351325Y-65278000D01*
X101332256Y-65108000D01*
X101275999Y-64946450D01*
X101185348Y-64801378D01*
X101172159Y-64788096D01*
X101069772Y-64684992D01*
X101064809Y-64679994D01*
X100999539Y-64638573D01*
X100926316Y-64592104D01*
X100926313Y-64592102D01*
X100920373Y-64588333D01*
X100913740Y-64585971D01*
X100765854Y-64533311D01*
X100765849Y-64533310D01*
X100759219Y-64530949D01*
X100752231Y-64530116D01*
X100752228Y-64530115D01*
X100636655Y-64516334D01*
X100589357Y-64510694D01*
X100582354Y-64511430D01*
X100582353Y-64511430D01*
X100537958Y-64516096D01*
X100419228Y-64528575D01*
X100409071Y-64532033D01*
X100263956Y-64581434D01*
X100263953Y-64581435D01*
X100257289Y-64583704D01*
X100111588Y-64673340D01*
X100106557Y-64678267D01*
X100106554Y-64678269D01*
X100099689Y-64684992D01*
X99989366Y-64793028D01*
X99985547Y-64798953D01*
X99985546Y-64798955D01*
X99981706Y-64804914D01*
X99896698Y-64936820D01*
X99894287Y-64943443D01*
X99894286Y-64943446D01*
X99840599Y-65090951D01*
X99838190Y-65097570D01*
X99837308Y-65104555D01*
X99837306Y-65104562D01*
X99835255Y-65120795D01*
X99820664Y-65165703D01*
X99812631Y-65180315D01*
X99801777Y-65196839D01*
X99789669Y-65212449D01*
X99772437Y-65252268D01*
X99767230Y-65262898D01*
X99746333Y-65300910D01*
X99744362Y-65308588D01*
X99744359Y-65308595D01*
X99741422Y-65320034D01*
X99735018Y-65338739D01*
X99727175Y-65356863D01*
X99725935Y-65364692D01*
X99720391Y-65399696D01*
X99717984Y-65411319D01*
X99707200Y-65453322D01*
X99707200Y-65473068D01*
X99705649Y-65492778D01*
X99702560Y-65512282D01*
X99703306Y-65520174D01*
X99706641Y-65555456D01*
X99707200Y-65567313D01*
X99707200Y-72376122D01*
X99687198Y-72444243D01*
X99639383Y-72487883D01*
X99603607Y-72506507D01*
X99599474Y-72509610D01*
X99599471Y-72509612D01*
X99429100Y-72637530D01*
X99424965Y-72640635D01*
X99385203Y-72682243D01*
X99299409Y-72772022D01*
X99270629Y-72802138D01*
X99163201Y-72959621D01*
X99108293Y-73004621D01*
X99037768Y-73012792D01*
X98974021Y-72981538D01*
X98953324Y-72957054D01*
X98872822Y-72832617D01*
X98872820Y-72832614D01*
X98870014Y-72828277D01*
X98719670Y-72663051D01*
X98715619Y-72659852D01*
X98715615Y-72659848D01*
X98548414Y-72527800D01*
X98548410Y-72527798D01*
X98544359Y-72524598D01*
X98477906Y-72487914D01*
X98427936Y-72437482D01*
X98412800Y-72377606D01*
X98412800Y-62053351D01*
X98413313Y-62042461D01*
X98414964Y-62035076D01*
X98412862Y-61968193D01*
X98412800Y-61964236D01*
X98412800Y-61936817D01*
X98412304Y-61932888D01*
X98412284Y-61932574D01*
X98411383Y-61921140D01*
X98410270Y-61885724D01*
X98410021Y-61877798D01*
X98404512Y-61858835D01*
X98400503Y-61839475D01*
X98399022Y-61827752D01*
X98399022Y-61827751D01*
X98398028Y-61819885D01*
X98395109Y-61812512D01*
X98382061Y-61779555D01*
X98378216Y-61768325D01*
X98368331Y-61734300D01*
X98368331Y-61734299D01*
X98366120Y-61726690D01*
X98356072Y-61709700D01*
X98347372Y-61691941D01*
X98343020Y-61680950D01*
X98340102Y-61673579D01*
X98314610Y-61638492D01*
X98308104Y-61628589D01*
X98303028Y-61620007D01*
X98286265Y-61569911D01*
X98285041Y-61558997D01*
X98285041Y-61558996D01*
X98284256Y-61552000D01*
X98227999Y-61390450D01*
X98137348Y-61245378D01*
X98016809Y-61123994D01*
X97929534Y-61068608D01*
X97878316Y-61036104D01*
X97878313Y-61036102D01*
X97872373Y-61032333D01*
X97865740Y-61029971D01*
X97717854Y-60977311D01*
X97717849Y-60977310D01*
X97711219Y-60974949D01*
X97704231Y-60974116D01*
X97704228Y-60974115D01*
X97588655Y-60960334D01*
X97541357Y-60954694D01*
X97534354Y-60955430D01*
X97534353Y-60955430D01*
X97489958Y-60960096D01*
X97371228Y-60972575D01*
X97360445Y-60976246D01*
X97309406Y-60993621D01*
X97238473Y-60996639D01*
X97177169Y-60960829D01*
X97144958Y-60897560D01*
X97142800Y-60874343D01*
X97142800Y-60422596D01*
X97163851Y-60352870D01*
X97202471Y-60294743D01*
X97263218Y-60134826D01*
X97264482Y-60125835D01*
X97286475Y-59969347D01*
X97286475Y-59969344D01*
X97287026Y-59965425D01*
X97287325Y-59944000D01*
X97268256Y-59774000D01*
X97264851Y-59764222D01*
X97264745Y-59762089D01*
X97264379Y-59760477D01*
X97264662Y-59760413D01*
X97261337Y-59693313D01*
X97296717Y-59631760D01*
X97359758Y-59599106D01*
X97430446Y-59605719D01*
X97438812Y-59609488D01*
X97444030Y-59612903D01*
X97450630Y-59615358D01*
X97450631Y-59615358D01*
X97597757Y-59670074D01*
X97597759Y-59670074D01*
X97604367Y-59672532D01*
X97683454Y-59683085D01*
X97766949Y-59694226D01*
X97766953Y-59694226D01*
X97773930Y-59695157D01*
X97780941Y-59694519D01*
X97780945Y-59694519D01*
X97937273Y-59680292D01*
X97937275Y-59680292D01*
X97944292Y-59679653D01*
X97950990Y-59677477D01*
X97950993Y-59677476D01*
X98100289Y-59628966D01*
X98100291Y-59628965D01*
X98106985Y-59626790D01*
X98142369Y-59605697D01*
X98247872Y-59542805D01*
X98247874Y-59542804D01*
X98253924Y-59539197D01*
X98377805Y-59421227D01*
X98472471Y-59278743D01*
X98533218Y-59118826D01*
X98551860Y-58986183D01*
X98556475Y-58953347D01*
X98556475Y-58953344D01*
X98557026Y-58949425D01*
X98557325Y-58928000D01*
X98538256Y-58758000D01*
X98531635Y-58738985D01*
X98484314Y-58603097D01*
X98484313Y-58603095D01*
X98481999Y-58596450D01*
X98407044Y-58476496D01*
X98395081Y-58457352D01*
X98391348Y-58451378D01*
X98270809Y-58329994D01*
X98166284Y-58263661D01*
X98132316Y-58242104D01*
X98132313Y-58242102D01*
X98126373Y-58238333D01*
X98119740Y-58235971D01*
X97971854Y-58183311D01*
X97971849Y-58183310D01*
X97965219Y-58180949D01*
X97958231Y-58180116D01*
X97958228Y-58180115D01*
X97842655Y-58166334D01*
X97795357Y-58160694D01*
X97788354Y-58161430D01*
X97788353Y-58161430D01*
X97743958Y-58166096D01*
X97625228Y-58178575D01*
X97615071Y-58182033D01*
X97469956Y-58231434D01*
X97469953Y-58231435D01*
X97463289Y-58233704D01*
X97422795Y-58258616D01*
X97377441Y-58286518D01*
X97311419Y-58305200D01*
X94819351Y-58305200D01*
X94808461Y-58304687D01*
X94801076Y-58303036D01*
X94793151Y-58303285D01*
X94793150Y-58303285D01*
X94734194Y-58305138D01*
X94730236Y-58305200D01*
X94702817Y-58305200D01*
X94698888Y-58305696D01*
X94698574Y-58305716D01*
X94687147Y-58306616D01*
X94643798Y-58307979D01*
X94624836Y-58313488D01*
X94605475Y-58317497D01*
X94593752Y-58318978D01*
X94593751Y-58318978D01*
X94585885Y-58319972D01*
X94578513Y-58322891D01*
X94578512Y-58322891D01*
X94545555Y-58335939D01*
X94534325Y-58339784D01*
X94500300Y-58349669D01*
X94492690Y-58351880D01*
X94475700Y-58361928D01*
X94457941Y-58370628D01*
X94452062Y-58372956D01*
X94439579Y-58377898D01*
X94433165Y-58382558D01*
X94404501Y-58403384D01*
X94394577Y-58409903D01*
X94364070Y-58427944D01*
X94364065Y-58427948D01*
X94357247Y-58431980D01*
X94343283Y-58445944D01*
X94328250Y-58458784D01*
X94312276Y-58470390D01*
X94307225Y-58476496D01*
X94284631Y-58503807D01*
X94276641Y-58512586D01*
X89784314Y-63004913D01*
X89776247Y-63012255D01*
X89769857Y-63016310D01*
X89724065Y-63065074D01*
X89721310Y-63067917D01*
X89701907Y-63087320D01*
X89699476Y-63090454D01*
X89699313Y-63090639D01*
X89691822Y-63099410D01*
X89662140Y-63131018D01*
X89658323Y-63137961D01*
X89652630Y-63148317D01*
X89641777Y-63164839D01*
X89629669Y-63180449D01*
X89612437Y-63220268D01*
X89607230Y-63230898D01*
X89586333Y-63268910D01*
X89584362Y-63276588D01*
X89584359Y-63276595D01*
X89581422Y-63288034D01*
X89575018Y-63306739D01*
X89567175Y-63324863D01*
X89565935Y-63332692D01*
X89560391Y-63367696D01*
X89557984Y-63379319D01*
X89547200Y-63421322D01*
X89547200Y-63441068D01*
X89545649Y-63460778D01*
X89542560Y-63480282D01*
X89543306Y-63488174D01*
X89546641Y-63523456D01*
X89547200Y-63535313D01*
X89547200Y-72376122D01*
X89527198Y-72444243D01*
X89479383Y-72487883D01*
X89443607Y-72506507D01*
X89439474Y-72509610D01*
X89439471Y-72509612D01*
X89269100Y-72637530D01*
X89264965Y-72640635D01*
X89225203Y-72682243D01*
X89139409Y-72772022D01*
X89110629Y-72802138D01*
X89003201Y-72959621D01*
X88948293Y-73004621D01*
X88877768Y-73012792D01*
X88814021Y-72981538D01*
X88793324Y-72957054D01*
X88712822Y-72832617D01*
X88712820Y-72832614D01*
X88710014Y-72828277D01*
X88559670Y-72663051D01*
X88555619Y-72659852D01*
X88555615Y-72659848D01*
X88388414Y-72527800D01*
X88388410Y-72527798D01*
X88384359Y-72524598D01*
X88353977Y-72507826D01*
X88332136Y-72495769D01*
X88188789Y-72416638D01*
X88183920Y-72414914D01*
X88183916Y-72414912D01*
X87983087Y-72343795D01*
X87983083Y-72343794D01*
X87978212Y-72342069D01*
X87973119Y-72341162D01*
X87973116Y-72341161D01*
X87763373Y-72303800D01*
X87763367Y-72303799D01*
X87758284Y-72302894D01*
X87684452Y-72301992D01*
X87540081Y-72300228D01*
X87540079Y-72300228D01*
X87534911Y-72300165D01*
X87314091Y-72333955D01*
X87101756Y-72403357D01*
X87052439Y-72429030D01*
X86915479Y-72500327D01*
X86903607Y-72506507D01*
X86899474Y-72509610D01*
X86899471Y-72509612D01*
X86729100Y-72637530D01*
X86724965Y-72640635D01*
X86685203Y-72682243D01*
X86599409Y-72772022D01*
X86570629Y-72802138D01*
X86463201Y-72959621D01*
X86408293Y-73004621D01*
X86337768Y-73012792D01*
X86274021Y-72981538D01*
X86253324Y-72957054D01*
X86172822Y-72832617D01*
X86172820Y-72832614D01*
X86170014Y-72828277D01*
X86019670Y-72663051D01*
X86015619Y-72659852D01*
X86015615Y-72659848D01*
X85848414Y-72527800D01*
X85848410Y-72527798D01*
X85844359Y-72524598D01*
X85813977Y-72507826D01*
X85792136Y-72495769D01*
X85648789Y-72416638D01*
X85643920Y-72414914D01*
X85643916Y-72414912D01*
X85443087Y-72343795D01*
X85443083Y-72343794D01*
X85438212Y-72342069D01*
X85433119Y-72341162D01*
X85433116Y-72341161D01*
X85223373Y-72303800D01*
X85223367Y-72303799D01*
X85218284Y-72302894D01*
X85144452Y-72301992D01*
X85000081Y-72300228D01*
X85000079Y-72300228D01*
X84994911Y-72300165D01*
X84774091Y-72333955D01*
X84561756Y-72403357D01*
X84512439Y-72429030D01*
X84375479Y-72500327D01*
X84363607Y-72506507D01*
X84359474Y-72509610D01*
X84359471Y-72509612D01*
X84189100Y-72637530D01*
X84184965Y-72640635D01*
X84145203Y-72682243D01*
X84059409Y-72772022D01*
X84030629Y-72802138D01*
X83923201Y-72959621D01*
X83868293Y-73004621D01*
X83797768Y-73012792D01*
X83734021Y-72981538D01*
X83713324Y-72957054D01*
X83632822Y-72832617D01*
X83632820Y-72832614D01*
X83630014Y-72828277D01*
X83479670Y-72663051D01*
X83475619Y-72659852D01*
X83475615Y-72659848D01*
X83308414Y-72527800D01*
X83308410Y-72527798D01*
X83304359Y-72524598D01*
X83273977Y-72507826D01*
X83252136Y-72495769D01*
X83108789Y-72416638D01*
X83103920Y-72414914D01*
X83103916Y-72414912D01*
X82903087Y-72343795D01*
X82903083Y-72343794D01*
X82898212Y-72342069D01*
X82893119Y-72341162D01*
X82893116Y-72341161D01*
X82683373Y-72303800D01*
X82683367Y-72303799D01*
X82678284Y-72302894D01*
X82604452Y-72301992D01*
X82460081Y-72300228D01*
X82460079Y-72300228D01*
X82454911Y-72300165D01*
X82234091Y-72333955D01*
X82021756Y-72403357D01*
X81972439Y-72429030D01*
X81835479Y-72500327D01*
X81823607Y-72506507D01*
X81819474Y-72509610D01*
X81819471Y-72509612D01*
X81649100Y-72637530D01*
X81644965Y-72640635D01*
X81605203Y-72682243D01*
X81519409Y-72772022D01*
X81490629Y-72802138D01*
X81383201Y-72959621D01*
X81328293Y-73004621D01*
X81257768Y-73012792D01*
X81194021Y-72981538D01*
X81173324Y-72957054D01*
X81092822Y-72832617D01*
X81092820Y-72832614D01*
X81090014Y-72828277D01*
X80939670Y-72663051D01*
X80935619Y-72659852D01*
X80935615Y-72659848D01*
X80768414Y-72527800D01*
X80768410Y-72527798D01*
X80764359Y-72524598D01*
X80733977Y-72507826D01*
X80712136Y-72495769D01*
X80568789Y-72416638D01*
X80563920Y-72414914D01*
X80563916Y-72414912D01*
X80363087Y-72343795D01*
X80363083Y-72343794D01*
X80358212Y-72342069D01*
X80353119Y-72341162D01*
X80353116Y-72341161D01*
X80143373Y-72303800D01*
X80143367Y-72303799D01*
X80138284Y-72302894D01*
X80064452Y-72301992D01*
X79920081Y-72300228D01*
X79920079Y-72300228D01*
X79914911Y-72300165D01*
X79694091Y-72333955D01*
X79481756Y-72403357D01*
X79432439Y-72429030D01*
X79295479Y-72500327D01*
X79283607Y-72506507D01*
X79279474Y-72509610D01*
X79279471Y-72509612D01*
X79109100Y-72637530D01*
X79104965Y-72640635D01*
X79065203Y-72682243D01*
X78979409Y-72772022D01*
X78950629Y-72802138D01*
X78843201Y-72959621D01*
X78788293Y-73004621D01*
X78717768Y-73012792D01*
X78654021Y-72981538D01*
X78633324Y-72957054D01*
X78552822Y-72832617D01*
X78552820Y-72832614D01*
X78550014Y-72828277D01*
X78399670Y-72663051D01*
X78395619Y-72659852D01*
X78395615Y-72659848D01*
X78228414Y-72527800D01*
X78228410Y-72527798D01*
X78224359Y-72524598D01*
X78193977Y-72507826D01*
X78172136Y-72495769D01*
X78028789Y-72416638D01*
X78023920Y-72414914D01*
X78023916Y-72414912D01*
X77823087Y-72343795D01*
X77823083Y-72343794D01*
X77818212Y-72342069D01*
X77813119Y-72341162D01*
X77813116Y-72341161D01*
X77603373Y-72303800D01*
X77603367Y-72303799D01*
X77598284Y-72302894D01*
X77524452Y-72301992D01*
X77380081Y-72300228D01*
X77380079Y-72300228D01*
X77374911Y-72300165D01*
X77154091Y-72333955D01*
X76941756Y-72403357D01*
X76892439Y-72429030D01*
X76755479Y-72500327D01*
X76743607Y-72506507D01*
X76739474Y-72509610D01*
X76739471Y-72509612D01*
X76569100Y-72637530D01*
X76564965Y-72640635D01*
X76525203Y-72682243D01*
X76439409Y-72772022D01*
X76410629Y-72802138D01*
X76303201Y-72959621D01*
X76248293Y-73004621D01*
X76177768Y-73012792D01*
X76114021Y-72981538D01*
X76093324Y-72957054D01*
X76012822Y-72832617D01*
X76012820Y-72832614D01*
X76010014Y-72828277D01*
X75859670Y-72663051D01*
X75855619Y-72659852D01*
X75855615Y-72659848D01*
X75688414Y-72527800D01*
X75688410Y-72527798D01*
X75684359Y-72524598D01*
X75653977Y-72507826D01*
X75632136Y-72495769D01*
X75488789Y-72416638D01*
X75483920Y-72414914D01*
X75483916Y-72414912D01*
X75283087Y-72343795D01*
X75283083Y-72343794D01*
X75278212Y-72342069D01*
X75273119Y-72341162D01*
X75273116Y-72341161D01*
X75063373Y-72303800D01*
X75063367Y-72303799D01*
X75058284Y-72302894D01*
X74984452Y-72301992D01*
X74840081Y-72300228D01*
X74840079Y-72300228D01*
X74834911Y-72300165D01*
X74614091Y-72333955D01*
X74401756Y-72403357D01*
X74352439Y-72429030D01*
X74215479Y-72500327D01*
X74203607Y-72506507D01*
X74199474Y-72509610D01*
X74199471Y-72509612D01*
X74029100Y-72637530D01*
X74024965Y-72640635D01*
X73985203Y-72682243D01*
X73899409Y-72772022D01*
X73870629Y-72802138D01*
X73763201Y-72959621D01*
X73708293Y-73004621D01*
X73637768Y-73012792D01*
X73574021Y-72981538D01*
X73553324Y-72957054D01*
X73472822Y-72832617D01*
X73472820Y-72832614D01*
X73470014Y-72828277D01*
X73319670Y-72663051D01*
X73315619Y-72659852D01*
X73315615Y-72659848D01*
X73148414Y-72527800D01*
X73148410Y-72527798D01*
X73144359Y-72524598D01*
X73113977Y-72507826D01*
X73092136Y-72495769D01*
X72948789Y-72416638D01*
X72943920Y-72414914D01*
X72943916Y-72414912D01*
X72743087Y-72343795D01*
X72743083Y-72343794D01*
X72738212Y-72342069D01*
X72733119Y-72341162D01*
X72733116Y-72341161D01*
X72523373Y-72303800D01*
X72523367Y-72303799D01*
X72518284Y-72302894D01*
X72444452Y-72301992D01*
X72300081Y-72300228D01*
X72300079Y-72300228D01*
X72294911Y-72300165D01*
X72074091Y-72333955D01*
X71861756Y-72403357D01*
X71812439Y-72429030D01*
X71675479Y-72500327D01*
X71663607Y-72506507D01*
X71659474Y-72509610D01*
X71659471Y-72509612D01*
X71489100Y-72637530D01*
X71484965Y-72640635D01*
X71410189Y-72718884D01*
X71404283Y-72725064D01*
X71342759Y-72760494D01*
X71271846Y-72757037D01*
X71214060Y-72715791D01*
X71195207Y-72682243D01*
X71153767Y-72571703D01*
X71150615Y-72563295D01*
X71063261Y-72446739D01*
X70946705Y-72359385D01*
X70810316Y-72308255D01*
X70748134Y-72301500D01*
X68951866Y-72301500D01*
X68889684Y-72308255D01*
X68753295Y-72359385D01*
X68636739Y-72446739D01*
X68549385Y-72563295D01*
X68498255Y-72699684D01*
X68491500Y-72761866D01*
X68491500Y-74558134D01*
X63237603Y-74558134D01*
X63274052Y-74521812D01*
X63280730Y-74513965D01*
X63405003Y-74341020D01*
X63410313Y-74332183D01*
X63504670Y-74141267D01*
X63508469Y-74131672D01*
X63570377Y-73927910D01*
X63572555Y-73917837D01*
X63573986Y-73906962D01*
X63571775Y-73892778D01*
X63558617Y-73889000D01*
X62512115Y-73889000D01*
X62496876Y-73893475D01*
X62495671Y-73894865D01*
X62494000Y-73902548D01*
X62494000Y-74953517D01*
X61986000Y-74953517D01*
X61986000Y-73907115D01*
X61981525Y-73891876D01*
X61980135Y-73890671D01*
X61972452Y-73889000D01*
X59972115Y-73889000D01*
X59956876Y-73893475D01*
X59955671Y-73894865D01*
X59954000Y-73902548D01*
X59954000Y-74953517D01*
X59446000Y-74953517D01*
X59446000Y-73907115D01*
X59441525Y-73891876D01*
X59440135Y-73890671D01*
X59432452Y-73889000D01*
X57432115Y-73889000D01*
X57416876Y-73893475D01*
X57415671Y-73894865D01*
X57414000Y-73902548D01*
X57414000Y-74953517D01*
X56906000Y-74953517D01*
X56906000Y-73907115D01*
X56901525Y-73891876D01*
X56900135Y-73890671D01*
X56892452Y-73889000D01*
X54892115Y-73889000D01*
X54876876Y-73893475D01*
X54875671Y-73894865D01*
X54874000Y-73902548D01*
X54874000Y-74974884D01*
X54366000Y-74974884D01*
X54366000Y-73907115D01*
X54361525Y-73891876D01*
X54360135Y-73890671D01*
X54352452Y-73889000D01*
X53280116Y-73889000D01*
X53264877Y-73893475D01*
X53263672Y-73894865D01*
X53262001Y-73902548D01*
X53262001Y-74529669D01*
X28987410Y-74529669D01*
X29105003Y-74366020D01*
X29110313Y-74357183D01*
X29204670Y-74166267D01*
X29208469Y-74156672D01*
X29270377Y-73952910D01*
X29272555Y-73942837D01*
X29273986Y-73931962D01*
X29271775Y-73917778D01*
X29258617Y-73914000D01*
X28212115Y-73914000D01*
X28196876Y-73918475D01*
X28195671Y-73919865D01*
X28194000Y-73927548D01*
X28194000Y-74978517D01*
X27686000Y-74978517D01*
X27686000Y-73932115D01*
X27681525Y-73916876D01*
X27680135Y-73915671D01*
X27672452Y-73914000D01*
X26623225Y-73914000D01*
X26609694Y-73917973D01*
X26608257Y-73927966D01*
X25908000Y-73927966D01*
X25908000Y-32029369D01*
X25928002Y-31961248D01*
X25981658Y-31914755D01*
X26051932Y-31904651D01*
X26116512Y-31934145D01*
X26123095Y-31940274D01*
X26124595Y-31941774D01*
X26158621Y-32004086D01*
X26161500Y-32030869D01*
X26161500Y-66107108D01*
X26161673Y-66109433D01*
X26161673Y-66109439D01*
X26174057Y-66276079D01*
X26176103Y-66303616D01*
X26234443Y-66561441D01*
X26236135Y-66565793D01*
X26236136Y-66565795D01*
X26318620Y-66777901D01*
X26330251Y-66807811D01*
X26461422Y-67037313D01*
X26625075Y-67244906D01*
X26817615Y-67426030D01*
X26821458Y-67428696D01*
X26904561Y-67486346D01*
X26949131Y-67541609D01*
X26956749Y-67612196D01*
X26923835Y-67676925D01*
X26880629Y-67722138D01*
X26754743Y-67906680D01*
X26739003Y-67940590D01*
X26665760Y-68098379D01*
X26660688Y-68109305D01*
X26600989Y-68324570D01*
X26577251Y-68546695D01*
X26577548Y-68551848D01*
X26577548Y-68551851D01*
X26583011Y-68646590D01*
X26590110Y-68769715D01*
X26591247Y-68774761D01*
X26591248Y-68774767D01*
X26611119Y-68862939D01*
X26639222Y-68987639D01*
X26723266Y-69194616D01*
X26725965Y-69199020D01*
X26834906Y-69376796D01*
X26839987Y-69385088D01*
X26986250Y-69553938D01*
X27158126Y-69696632D01*
X27177885Y-69708178D01*
X27231445Y-69739476D01*
X27280169Y-69791114D01*
X27293240Y-69860897D01*
X27266509Y-69926669D01*
X27226055Y-69960027D01*
X27213607Y-69966507D01*
X27209474Y-69969610D01*
X27209471Y-69969612D01*
X27061477Y-70080729D01*
X27034965Y-70100635D01*
X26990108Y-70147575D01*
X26889554Y-70252799D01*
X26880629Y-70262138D01*
X26877715Y-70266410D01*
X26877714Y-70266411D01*
X26844824Y-70314626D01*
X26754743Y-70446680D01*
X26739003Y-70480590D01*
X26668171Y-70633185D01*
X26660688Y-70649305D01*
X26600989Y-70864570D01*
X26600440Y-70869707D01*
X26599456Y-70878913D01*
X26577251Y-71086695D01*
X26577548Y-71091848D01*
X26577548Y-71091851D01*
X26583011Y-71186590D01*
X26590110Y-71309715D01*
X26591247Y-71314761D01*
X26591248Y-71314767D01*
X26593800Y-71326090D01*
X26639222Y-71527639D01*
X26685083Y-71640581D01*
X26714287Y-71712502D01*
X26723266Y-71734616D01*
X26748420Y-71775663D01*
X26824730Y-71900190D01*
X26839987Y-71925088D01*
X26986250Y-72093938D01*
X27158126Y-72236632D01*
X27227208Y-72277000D01*
X27231955Y-72279774D01*
X27280679Y-72331412D01*
X27293750Y-72401195D01*
X27267019Y-72466967D01*
X27226562Y-72500327D01*
X27218457Y-72504546D01*
X27209738Y-72510036D01*
X27039433Y-72637905D01*
X27031726Y-72644748D01*
X26884590Y-72798717D01*
X26878104Y-72806727D01*
X26758098Y-72982649D01*
X26753000Y-72991623D01*
X26663338Y-73184783D01*
X26659775Y-73194470D01*
X26604389Y-73394183D01*
X26605912Y-73402607D01*
X26618292Y-73406000D01*
X29258344Y-73406000D01*
X29271875Y-73402027D01*
X29273180Y-73392947D01*
X29265629Y-73362885D01*
X53262000Y-73362885D01*
X53266475Y-73378124D01*
X53267865Y-73379329D01*
X53275548Y-73381000D01*
X54347885Y-73381000D01*
X54363124Y-73376525D01*
X54364329Y-73375135D01*
X54366000Y-73367452D01*
X54366000Y-73362885D01*
X54874000Y-73362885D01*
X54878475Y-73378124D01*
X54879865Y-73379329D01*
X54887548Y-73381000D01*
X56887885Y-73381000D01*
X56903124Y-73376525D01*
X56904329Y-73375135D01*
X56906000Y-73367452D01*
X56906000Y-73362885D01*
X57414000Y-73362885D01*
X57418475Y-73378124D01*
X57419865Y-73379329D01*
X57427548Y-73381000D01*
X59427885Y-73381000D01*
X59443124Y-73376525D01*
X59444329Y-73375135D01*
X59446000Y-73367452D01*
X59446000Y-73362885D01*
X59954000Y-73362885D01*
X59958475Y-73378124D01*
X59959865Y-73379329D01*
X59967548Y-73381000D01*
X61967885Y-73381000D01*
X61983124Y-73376525D01*
X61984329Y-73375135D01*
X61986000Y-73367452D01*
X61986000Y-73362885D01*
X62494000Y-73362885D01*
X62498475Y-73378124D01*
X62499865Y-73379329D01*
X62507548Y-73381000D01*
X63558344Y-73381000D01*
X63571875Y-73377027D01*
X63573180Y-73367947D01*
X63531214Y-73200875D01*
X63527894Y-73191124D01*
X63442972Y-72995814D01*
X63438105Y-72986739D01*
X63322426Y-72807926D01*
X63316136Y-72799757D01*
X63172806Y-72642240D01*
X63165273Y-72635215D01*
X62998139Y-72503222D01*
X62989552Y-72497517D01*
X62803117Y-72394599D01*
X62793705Y-72390369D01*
X62592959Y-72319280D01*
X62582988Y-72316646D01*
X62511837Y-72303972D01*
X62498540Y-72305432D01*
X62494000Y-72319989D01*
X62494000Y-73362885D01*
X61986000Y-73362885D01*
X61986000Y-72318102D01*
X61982082Y-72304758D01*
X61967806Y-72302771D01*
X61929324Y-72308660D01*
X61919288Y-72311051D01*
X61716868Y-72377212D01*
X61707359Y-72381209D01*
X61518463Y-72479542D01*
X61509738Y-72485036D01*
X61339433Y-72612905D01*
X61331726Y-72619748D01*
X61184590Y-72773717D01*
X61178104Y-72781727D01*
X61073193Y-72935521D01*
X61018282Y-72980524D01*
X60947757Y-72988695D01*
X60884010Y-72957441D01*
X60863313Y-72932957D01*
X60782427Y-72807926D01*
X60776136Y-72799757D01*
X60632806Y-72642240D01*
X60625273Y-72635215D01*
X60458139Y-72503222D01*
X60449552Y-72497517D01*
X60263117Y-72394599D01*
X60253705Y-72390369D01*
X60052959Y-72319280D01*
X60042988Y-72316646D01*
X59971837Y-72303972D01*
X59958540Y-72305432D01*
X59954000Y-72319989D01*
X59954000Y-73362885D01*
X59446000Y-73362885D01*
X59446000Y-72318102D01*
X59442082Y-72304758D01*
X59427806Y-72302771D01*
X59389324Y-72308660D01*
X59379288Y-72311051D01*
X59176868Y-72377212D01*
X59167359Y-72381209D01*
X58978463Y-72479542D01*
X58969738Y-72485036D01*
X58799433Y-72612905D01*
X58791726Y-72619748D01*
X58644590Y-72773717D01*
X58638104Y-72781727D01*
X58533193Y-72935521D01*
X58478282Y-72980524D01*
X58407757Y-72988695D01*
X58344010Y-72957441D01*
X58323313Y-72932957D01*
X58242427Y-72807926D01*
X58236136Y-72799757D01*
X58092806Y-72642240D01*
X58085273Y-72635215D01*
X57918139Y-72503222D01*
X57909552Y-72497517D01*
X57723117Y-72394599D01*
X57713705Y-72390369D01*
X57512959Y-72319280D01*
X57502988Y-72316646D01*
X57431837Y-72303972D01*
X57418540Y-72305432D01*
X57414000Y-72319989D01*
X57414000Y-73362885D01*
X56906000Y-73362885D01*
X56906000Y-72318102D01*
X56902082Y-72304758D01*
X56887806Y-72302771D01*
X56849324Y-72308660D01*
X56839288Y-72311051D01*
X56636868Y-72377212D01*
X56627359Y-72381209D01*
X56438463Y-72479542D01*
X56429738Y-72485036D01*
X56259433Y-72612905D01*
X56251726Y-72619748D01*
X56174094Y-72700985D01*
X56112570Y-72736415D01*
X56041657Y-72732958D01*
X55983871Y-72691712D01*
X55965018Y-72658164D01*
X55923324Y-72546946D01*
X55914786Y-72531351D01*
X55838285Y-72429276D01*
X55825724Y-72416715D01*
X55723649Y-72340214D01*
X55708054Y-72331676D01*
X55587606Y-72286522D01*
X55572351Y-72282895D01*
X55521486Y-72277369D01*
X55514672Y-72277000D01*
X54892115Y-72277000D01*
X54876876Y-72281475D01*
X54875671Y-72282865D01*
X54874000Y-72290548D01*
X54874000Y-73362885D01*
X54366000Y-73362885D01*
X54366000Y-72295116D01*
X54361525Y-72279877D01*
X54360135Y-72278672D01*
X54352452Y-72277001D01*
X53725331Y-72277001D01*
X53718510Y-72277371D01*
X53667648Y-72282895D01*
X53652396Y-72286521D01*
X53531946Y-72331676D01*
X53516351Y-72340214D01*
X53414276Y-72416715D01*
X53401715Y-72429276D01*
X53325214Y-72531351D01*
X53316676Y-72546946D01*
X53271522Y-72667394D01*
X53267895Y-72682649D01*
X53262369Y-72733514D01*
X53262000Y-72740328D01*
X53262000Y-73362885D01*
X29265629Y-73362885D01*
X29231214Y-73225875D01*
X29227894Y-73216124D01*
X29142972Y-73020814D01*
X29138105Y-73011739D01*
X29022426Y-72832926D01*
X29016136Y-72824757D01*
X28872806Y-72667240D01*
X28865273Y-72660215D01*
X28698139Y-72528222D01*
X28689556Y-72522520D01*
X28652602Y-72502120D01*
X28602631Y-72451687D01*
X28587859Y-72382245D01*
X28612975Y-72315839D01*
X28640327Y-72289232D01*
X28663797Y-72272491D01*
X28819860Y-72161173D01*
X28825448Y-72155605D01*
X28974435Y-72007137D01*
X28978096Y-72003489D01*
X28981112Y-71999292D01*
X28981117Y-71999286D01*
X28981704Y-71998469D01*
X28982025Y-71998218D01*
X28984465Y-71995352D01*
X28985057Y-71995856D01*
X29037701Y-71954824D01*
X29084023Y-71946000D01*
X30439967Y-71946000D01*
X30450512Y-71946442D01*
X30500300Y-71950623D01*
X30577743Y-71940289D01*
X30580743Y-71939927D01*
X30622498Y-71935391D01*
X30651634Y-71932226D01*
X30651636Y-71932226D01*
X30658417Y-71931489D01*
X30664883Y-71929313D01*
X30667233Y-71928796D01*
X30667783Y-71928699D01*
X30668550Y-71928520D01*
X30669085Y-71928365D01*
X30671432Y-71927789D01*
X30678190Y-71926887D01*
X30751542Y-71900189D01*
X30754443Y-71899174D01*
X30822039Y-71876425D01*
X30822046Y-71876422D01*
X30828511Y-71874246D01*
X30834360Y-71870731D01*
X30836553Y-71869718D01*
X30837068Y-71869506D01*
X30837766Y-71869173D01*
X30838267Y-71868900D01*
X30840421Y-71867840D01*
X30846834Y-71865506D01*
X30912802Y-71823641D01*
X30915394Y-71822041D01*
X30976502Y-71785324D01*
X30982344Y-71781814D01*
X30987295Y-71777133D01*
X30989231Y-71775663D01*
X30990162Y-71775015D01*
X30993996Y-71772115D01*
X30998364Y-71769343D01*
X31002464Y-71765677D01*
X31054387Y-71713754D01*
X31056909Y-71711301D01*
X31107782Y-71663193D01*
X31107784Y-71663191D01*
X31112740Y-71658504D01*
X31116574Y-71652863D01*
X31120703Y-71648011D01*
X31127560Y-71640581D01*
X47446505Y-55321635D01*
X82981805Y-55321635D01*
X83015434Y-55497924D01*
X83086133Y-55662878D01*
X83190606Y-55808802D01*
X83323976Y-55928890D01*
X83329905Y-55932258D01*
X83329909Y-55932261D01*
X83416686Y-55981556D01*
X83480022Y-56017535D01*
X83651462Y-56070605D01*
X83830300Y-56085623D01*
X83837060Y-56084721D01*
X83837062Y-56084721D01*
X83931596Y-56072107D01*
X83948261Y-56071000D01*
X187812954Y-56071000D01*
X187843436Y-56074743D01*
X187850615Y-56076533D01*
X187850618Y-56076533D01*
X187857238Y-56078184D01*
X187944501Y-56080621D01*
X188029814Y-56083004D01*
X188029819Y-56083004D01*
X188036635Y-56083194D01*
X188094757Y-56072107D01*
X188206220Y-56050845D01*
X188206222Y-56050845D01*
X188212924Y-56049566D01*
X188377877Y-55978867D01*
X188523802Y-55874394D01*
X188643890Y-55741024D01*
X188647258Y-55735095D01*
X188647261Y-55735091D01*
X188729164Y-55590912D01*
X188732535Y-55584978D01*
X188735730Y-55574659D01*
X188783586Y-55420058D01*
X188785605Y-55413537D01*
X188800623Y-55234700D01*
X188776887Y-55056810D01*
X188715505Y-54888166D01*
X188664219Y-54807350D01*
X188659976Y-54800664D01*
X188654908Y-54791921D01*
X188652011Y-54786427D01*
X188652006Y-54786419D01*
X188648823Y-54780383D01*
X188644417Y-54775169D01*
X188640604Y-54769517D01*
X188640643Y-54769490D01*
X188637320Y-54764965D01*
X188622109Y-54740996D01*
X188622108Y-54740995D01*
X188619342Y-54736636D01*
X188615677Y-54732536D01*
X188614417Y-54731276D01*
X188614399Y-54731257D01*
X188572378Y-54689237D01*
X188565233Y-54681468D01*
X188537390Y-54648519D01*
X188537387Y-54648516D01*
X188532985Y-54643307D01*
X188524323Y-54636684D01*
X188470938Y-54595869D01*
X188468514Y-54593968D01*
X188407650Y-54545031D01*
X188401540Y-54541998D01*
X188399504Y-54540696D01*
X188399048Y-54540377D01*
X188398390Y-54539967D01*
X188397900Y-54539698D01*
X188395834Y-54538447D01*
X188390414Y-54534303D01*
X188319646Y-54501304D01*
X188316875Y-54499970D01*
X188307449Y-54495291D01*
X188246898Y-54465233D01*
X188240273Y-54463581D01*
X188238006Y-54462747D01*
X188237481Y-54462528D01*
X188236777Y-54462279D01*
X188236227Y-54462117D01*
X188233943Y-54461339D01*
X188227761Y-54458457D01*
X188221103Y-54456969D01*
X188221095Y-54456966D01*
X188151542Y-54441419D01*
X188148546Y-54440711D01*
X188079385Y-54423467D01*
X188079382Y-54423467D01*
X188072762Y-54421816D01*
X188065941Y-54421625D01*
X188063544Y-54421297D01*
X188062430Y-54421096D01*
X188057656Y-54420434D01*
X188052616Y-54419307D01*
X188047125Y-54419000D01*
X187973711Y-54419000D01*
X187970193Y-54418951D01*
X187934392Y-54417951D01*
X187918361Y-54412754D01*
X187918140Y-54412896D01*
X187896535Y-54416894D01*
X187893365Y-54416805D01*
X187886660Y-54418084D01*
X187880323Y-54418594D01*
X187870216Y-54419000D01*
X83860033Y-54419000D01*
X83849490Y-54418558D01*
X83837581Y-54417558D01*
X83809400Y-54406648D01*
X83799678Y-54412896D01*
X83780848Y-54416892D01*
X83722257Y-54424711D01*
X83719257Y-54425073D01*
X83677502Y-54429609D01*
X83648366Y-54432774D01*
X83648364Y-54432774D01*
X83641583Y-54433511D01*
X83635117Y-54435687D01*
X83632767Y-54436204D01*
X83632218Y-54436301D01*
X83631459Y-54436478D01*
X83630914Y-54436636D01*
X83628575Y-54437211D01*
X83621810Y-54438113D01*
X83548404Y-54464831D01*
X83545569Y-54465824D01*
X83471489Y-54490754D01*
X83465639Y-54494269D01*
X83463427Y-54495291D01*
X83462922Y-54495499D01*
X83462239Y-54495825D01*
X83461723Y-54496106D01*
X83459582Y-54497160D01*
X83453166Y-54499495D01*
X83447401Y-54503153D01*
X83447402Y-54503153D01*
X83387241Y-54541331D01*
X83384623Y-54542948D01*
X83381157Y-54545031D01*
X83317656Y-54583186D01*
X83312699Y-54587874D01*
X83310763Y-54589343D01*
X83309840Y-54589984D01*
X83305995Y-54592892D01*
X83301636Y-54595658D01*
X83297536Y-54599323D01*
X83296275Y-54600584D01*
X83245624Y-54651236D01*
X83243101Y-54653690D01*
X83199378Y-54695037D01*
X83187260Y-54706496D01*
X83183427Y-54712137D01*
X83183423Y-54712141D01*
X83169018Y-54733338D01*
X83163005Y-54741465D01*
X83110031Y-54807350D01*
X83086488Y-54854777D01*
X83086451Y-54854759D01*
X83086419Y-54854878D01*
X83086384Y-54854930D01*
X83086268Y-54855221D01*
X83083936Y-54859919D01*
X83083935Y-54859920D01*
X83057660Y-54912851D01*
X83030233Y-54968102D01*
X83028582Y-54974724D01*
X83002114Y-55080883D01*
X82986816Y-55142238D01*
X82981805Y-55321635D01*
X47446505Y-55321635D01*
X48565235Y-54202905D01*
X48627547Y-54168879D01*
X48654330Y-54166000D01*
X83764180Y-54166000D01*
X83805052Y-54178001D01*
X83822866Y-54168558D01*
X83848124Y-54166000D01*
X187882642Y-54166000D01*
X187902859Y-54171936D01*
X187905801Y-54170160D01*
X187937910Y-54166000D01*
X228205669Y-54166000D01*
X228273790Y-54186002D01*
X228294764Y-54202905D01*
X232817095Y-58725235D01*
X232851121Y-58787547D01*
X232854000Y-58814330D01*
X232854000Y-59734839D01*
X232868511Y-59868417D01*
X232925754Y-60038511D01*
X233018186Y-60192344D01*
X233022877Y-60197304D01*
X233022878Y-60197306D01*
X233120568Y-60300609D01*
X233141496Y-60322740D01*
X233289930Y-60423616D01*
X233296264Y-60426149D01*
X233296267Y-60426151D01*
X233450225Y-60487730D01*
X233450230Y-60487731D01*
X233456562Y-60490264D01*
X233545709Y-60505022D01*
X233626882Y-60518460D01*
X233626886Y-60518460D01*
X233633620Y-60519575D01*
X233640437Y-60519218D01*
X233640441Y-60519218D01*
X233806029Y-60510540D01*
X233812841Y-60510183D01*
X233881112Y-60491378D01*
X233979282Y-60464337D01*
X233985864Y-60462524D01*
X234144617Y-60378823D01*
X234281693Y-60262985D01*
X234315496Y-60218773D01*
X234386553Y-60125835D01*
X234386556Y-60125831D01*
X234390697Y-60120414D01*
X234466543Y-59957761D01*
X234505693Y-59782616D01*
X234506000Y-59777125D01*
X234506000Y-58928319D01*
X234526002Y-58860198D01*
X234579658Y-58813705D01*
X234649932Y-58803601D01*
X234702821Y-58824106D01*
X234813930Y-58899616D01*
X234820264Y-58902149D01*
X234820267Y-58902151D01*
X234974225Y-58963730D01*
X234974230Y-58963731D01*
X234980562Y-58966264D01*
X235069709Y-58981022D01*
X235150882Y-58994460D01*
X235150886Y-58994460D01*
X235157620Y-58995575D01*
X235164437Y-58995218D01*
X235164441Y-58995218D01*
X235330029Y-58986540D01*
X235336841Y-58986183D01*
X235405112Y-58967378D01*
X235503282Y-58940337D01*
X235509864Y-58938524D01*
X235668617Y-58854823D01*
X235805693Y-58738985D01*
X235816206Y-58725235D01*
X235910553Y-58601835D01*
X235910556Y-58601831D01*
X235914697Y-58596414D01*
X235990543Y-58433761D01*
X236029693Y-58258616D01*
X236030000Y-58253125D01*
X236030000Y-55309457D01*
X236030442Y-55298913D01*
X236034052Y-55255922D01*
X236034623Y-55249124D01*
X236024289Y-55171681D01*
X236023924Y-55168660D01*
X236016226Y-55097790D01*
X236016226Y-55097788D01*
X236015489Y-55091007D01*
X236013313Y-55084541D01*
X236012796Y-55082191D01*
X236012699Y-55081642D01*
X236012522Y-55080883D01*
X236012364Y-55080338D01*
X236011789Y-55077999D01*
X236010887Y-55071234D01*
X235984169Y-54997828D01*
X235983168Y-54994969D01*
X235974127Y-54968102D01*
X235958246Y-54920913D01*
X235954731Y-54915063D01*
X235953709Y-54912851D01*
X235953499Y-54912342D01*
X235953175Y-54911663D01*
X235952894Y-54911147D01*
X235951840Y-54909006D01*
X235949505Y-54902590D01*
X235936695Y-54882404D01*
X235907669Y-54836665D01*
X235906052Y-54834047D01*
X235869328Y-54772928D01*
X235869327Y-54772927D01*
X235865814Y-54767080D01*
X235861126Y-54762123D01*
X235859657Y-54760187D01*
X235859016Y-54759264D01*
X235856108Y-54755419D01*
X235853342Y-54751060D01*
X235849677Y-54746960D01*
X235797754Y-54695037D01*
X235795301Y-54692515D01*
X235747193Y-54641642D01*
X235747191Y-54641640D01*
X235742504Y-54636684D01*
X235736863Y-54632850D01*
X235732011Y-54628721D01*
X235724581Y-54621864D01*
X231334404Y-50231688D01*
X231327261Y-50223921D01*
X231299409Y-50190963D01*
X231295004Y-50185750D01*
X231232953Y-50138309D01*
X231230533Y-50136411D01*
X231174987Y-50091750D01*
X231169669Y-50087474D01*
X231163559Y-50084441D01*
X231161523Y-50083139D01*
X231161067Y-50082820D01*
X231160409Y-50082410D01*
X231159919Y-50082141D01*
X231157853Y-50080890D01*
X231152433Y-50076746D01*
X231081665Y-50043747D01*
X231078894Y-50042413D01*
X231072357Y-50039168D01*
X231008917Y-50007676D01*
X231002292Y-50006024D01*
X231000025Y-50005190D01*
X230999500Y-50004971D01*
X230998796Y-50004722D01*
X230998246Y-50004560D01*
X230995962Y-50003782D01*
X230989780Y-50000900D01*
X230983122Y-49999412D01*
X230983114Y-49999409D01*
X230913561Y-49983862D01*
X230910565Y-49983154D01*
X230841404Y-49965910D01*
X230841401Y-49965910D01*
X230834781Y-49964259D01*
X230827960Y-49964068D01*
X230825563Y-49963740D01*
X230824449Y-49963539D01*
X230819675Y-49962877D01*
X230814635Y-49961750D01*
X230809144Y-49961443D01*
X230735730Y-49961443D01*
X230732212Y-49961394D01*
X230731302Y-49961369D01*
X230655384Y-49959248D01*
X230648677Y-49960527D01*
X230642342Y-49961037D01*
X230632235Y-49961443D01*
X193925640Y-49961443D01*
X193857519Y-49941441D01*
X193811026Y-49887785D01*
X193800425Y-49849488D01*
X193789041Y-49747997D01*
X193789041Y-49747996D01*
X193788256Y-49741000D01*
X193772663Y-49696221D01*
X193734314Y-49586097D01*
X193734313Y-49586095D01*
X193731999Y-49579450D01*
X193641348Y-49434378D01*
X193520809Y-49312994D01*
X193444173Y-49264360D01*
X193382316Y-49225104D01*
X193382313Y-49225102D01*
X193376373Y-49221333D01*
X193369740Y-49218971D01*
X193221854Y-49166311D01*
X193221849Y-49166310D01*
X193215219Y-49163949D01*
X193208231Y-49163116D01*
X193208228Y-49163115D01*
X193092655Y-49149334D01*
X193045357Y-49143694D01*
X193038354Y-49144430D01*
X193038353Y-49144430D01*
X193001834Y-49148268D01*
X192875228Y-49161575D01*
X192872601Y-49162469D01*
X192803459Y-49157676D01*
X192746530Y-49115254D01*
X192740379Y-49106295D01*
X192716916Y-49068746D01*
X192596377Y-48947362D01*
X192525789Y-48902566D01*
X192457884Y-48859472D01*
X192457881Y-48859470D01*
X192451941Y-48855701D01*
X192445308Y-48853339D01*
X192297422Y-48800679D01*
X192297417Y-48800678D01*
X192290787Y-48798317D01*
X192283799Y-48797484D01*
X192283796Y-48797483D01*
X192162780Y-48783053D01*
X192120925Y-48778062D01*
X192113922Y-48778798D01*
X192113921Y-48778798D01*
X192073438Y-48783053D01*
X191950796Y-48795943D01*
X191940639Y-48799401D01*
X191795524Y-48848802D01*
X191795521Y-48848803D01*
X191788857Y-48851072D01*
X191719973Y-48893450D01*
X191703009Y-48903886D01*
X191636987Y-48922568D01*
X191631571Y-48922568D01*
X191563450Y-48902566D01*
X191516957Y-48848910D01*
X191506853Y-48778636D01*
X191508141Y-48772189D01*
X191509418Y-48768826D01*
X191516455Y-48718760D01*
X191532675Y-48603347D01*
X191532675Y-48603344D01*
X191533226Y-48599425D01*
X191533373Y-48588878D01*
X191533470Y-48581962D01*
X191533470Y-48581957D01*
X191533525Y-48578000D01*
X191514456Y-48408000D01*
X191510862Y-48397677D01*
X191460514Y-48253097D01*
X191460513Y-48253095D01*
X191458199Y-48246450D01*
X191367548Y-48101378D01*
X191247009Y-47979994D01*
X191156672Y-47922665D01*
X191108516Y-47892104D01*
X191108513Y-47892102D01*
X191102573Y-47888333D01*
X191095940Y-47885971D01*
X190948054Y-47833311D01*
X190948049Y-47833310D01*
X190941419Y-47830949D01*
X190934431Y-47830116D01*
X190934428Y-47830115D01*
X190818855Y-47816334D01*
X190771557Y-47810694D01*
X190764554Y-47811430D01*
X190764553Y-47811430D01*
X190720158Y-47816096D01*
X190601428Y-47828575D01*
X190591271Y-47832033D01*
X190446156Y-47881434D01*
X190446153Y-47881435D01*
X190439489Y-47883704D01*
X190376159Y-47922665D01*
X190371801Y-47925346D01*
X190303300Y-47944004D01*
X190235586Y-47922665D01*
X190190158Y-47868105D01*
X190182910Y-47845943D01*
X190182241Y-47842999D01*
X190181456Y-47836000D01*
X190125199Y-47674450D01*
X190034548Y-47529378D01*
X189914009Y-47407994D01*
X189796180Y-47333218D01*
X189775516Y-47320104D01*
X189775513Y-47320102D01*
X189769573Y-47316333D01*
X189757966Y-47312200D01*
X189615054Y-47261311D01*
X189615049Y-47261310D01*
X189608419Y-47258949D01*
X189601431Y-47258116D01*
X189601428Y-47258115D01*
X189485855Y-47244334D01*
X189438557Y-47238694D01*
X189431554Y-47239430D01*
X189431553Y-47239430D01*
X189397863Y-47242971D01*
X189268428Y-47256575D01*
X189258271Y-47260033D01*
X189113156Y-47309434D01*
X189113153Y-47309435D01*
X189106489Y-47311704D01*
X189092832Y-47320106D01*
X189020641Y-47364518D01*
X188954619Y-47383200D01*
X174922347Y-47383200D01*
X174854834Y-47363586D01*
X174786320Y-47320106D01*
X174786313Y-47320103D01*
X174780373Y-47316333D01*
X174768766Y-47312200D01*
X174625854Y-47261311D01*
X174625849Y-47261310D01*
X174619219Y-47258949D01*
X174612231Y-47258116D01*
X174612228Y-47258115D01*
X174496655Y-47244334D01*
X174449357Y-47238694D01*
X174442354Y-47239430D01*
X174442353Y-47239430D01*
X174408663Y-47242971D01*
X174279228Y-47256575D01*
X174269071Y-47260033D01*
X174123956Y-47309434D01*
X174123953Y-47309435D01*
X174117289Y-47311704D01*
X174103632Y-47320106D01*
X174031441Y-47364518D01*
X173965419Y-47383200D01*
X152034141Y-47383200D01*
X151966020Y-47363198D01*
X151944740Y-47345988D01*
X151935809Y-47336994D01*
X151909198Y-47320106D01*
X151797316Y-47249104D01*
X151797313Y-47249102D01*
X151791373Y-47245333D01*
X151784740Y-47242971D01*
X151636854Y-47190311D01*
X151636849Y-47190310D01*
X151630219Y-47187949D01*
X151623231Y-47187116D01*
X151623228Y-47187115D01*
X151507655Y-47173334D01*
X151460357Y-47167694D01*
X151453354Y-47168430D01*
X151453353Y-47168430D01*
X151408958Y-47173096D01*
X151290228Y-47185575D01*
X151280071Y-47189033D01*
X151134956Y-47238434D01*
X151134953Y-47238435D01*
X151128289Y-47240704D01*
X151094793Y-47261311D01*
X151042441Y-47293518D01*
X150976419Y-47312200D01*
X126406729Y-47312200D01*
X126364462Y-47304899D01*
X126362921Y-47304350D01*
X126332501Y-47293518D01*
X126242054Y-47261311D01*
X126242049Y-47261310D01*
X126235419Y-47258949D01*
X126228431Y-47258116D01*
X126228428Y-47258115D01*
X126112855Y-47244334D01*
X126065557Y-47238694D01*
X126058554Y-47239430D01*
X126058553Y-47239430D01*
X126024863Y-47242971D01*
X125895428Y-47256575D01*
X125885271Y-47260033D01*
X125740156Y-47309434D01*
X125740153Y-47309435D01*
X125733489Y-47311704D01*
X125719832Y-47320106D01*
X125647641Y-47364518D01*
X125581619Y-47383200D01*
X124938347Y-47383200D01*
X124870834Y-47363586D01*
X124802320Y-47320106D01*
X124802313Y-47320103D01*
X124796373Y-47316333D01*
X124784766Y-47312200D01*
X124641854Y-47261311D01*
X124641849Y-47261310D01*
X124635219Y-47258949D01*
X124628231Y-47258116D01*
X124628228Y-47258115D01*
X124512655Y-47244334D01*
X124465357Y-47238694D01*
X124458354Y-47239430D01*
X124458353Y-47239430D01*
X124424663Y-47242971D01*
X124295228Y-47256575D01*
X124285071Y-47260033D01*
X124139956Y-47309434D01*
X124139953Y-47309435D01*
X124133289Y-47311704D01*
X124119632Y-47320106D01*
X124047441Y-47364518D01*
X123981419Y-47383200D01*
X88108347Y-47383200D01*
X88040834Y-47363586D01*
X87972320Y-47320106D01*
X87972313Y-47320103D01*
X87966373Y-47316333D01*
X87954766Y-47312200D01*
X87811854Y-47261311D01*
X87811849Y-47261310D01*
X87805219Y-47258949D01*
X87798231Y-47258116D01*
X87798228Y-47258115D01*
X87682655Y-47244334D01*
X87635357Y-47238694D01*
X87628354Y-47239430D01*
X87628353Y-47239430D01*
X87594663Y-47242971D01*
X87465228Y-47256575D01*
X87455071Y-47260033D01*
X87309956Y-47309434D01*
X87309953Y-47309435D01*
X87303289Y-47311704D01*
X87289632Y-47320106D01*
X87217441Y-47364518D01*
X87151419Y-47383200D01*
X73674131Y-47383200D01*
X73606010Y-47363198D01*
X73559517Y-47309542D01*
X73549413Y-47239268D01*
X73578907Y-47174688D01*
X73585036Y-47168105D01*
X74841255Y-45911886D01*
X74903567Y-45877860D01*
X74974382Y-45882925D01*
X75012475Y-45905976D01*
X75012636Y-45905776D01*
X75013231Y-45906254D01*
X75015293Y-45907912D01*
X75015296Y-45907915D01*
X75112035Y-45985696D01*
X75112037Y-45985698D01*
X75117350Y-45989969D01*
X75123458Y-45993001D01*
X75271991Y-46066734D01*
X75271995Y-46066736D01*
X75278102Y-46069767D01*
X75284725Y-46071418D01*
X75284724Y-46071418D01*
X75424130Y-46106176D01*
X75452237Y-46113184D01*
X75541936Y-46115689D01*
X75624814Y-46118004D01*
X75624819Y-46118004D01*
X75631635Y-46118194D01*
X75666554Y-46111533D01*
X75801220Y-46085845D01*
X75801222Y-46085845D01*
X75807924Y-46084566D01*
X75972877Y-46013866D01*
X76045840Y-45961630D01*
X76113253Y-45913367D01*
X76113255Y-45913365D01*
X76118802Y-45909394D01*
X76120055Y-45908002D01*
X76182458Y-45878327D01*
X76252880Y-45887340D01*
X76282253Y-45906254D01*
X76282636Y-45905777D01*
X76320378Y-45936122D01*
X76387351Y-45989970D01*
X76393457Y-45993001D01*
X76393460Y-45993003D01*
X76541991Y-46066734D01*
X76541995Y-46066735D01*
X76548102Y-46069767D01*
X76554724Y-46071418D01*
X76715615Y-46111533D01*
X76715618Y-46111533D01*
X76722238Y-46113184D01*
X76729055Y-46113374D01*
X76729059Y-46113375D01*
X76811937Y-46115690D01*
X76901635Y-46118195D01*
X77077924Y-46084566D01*
X77220428Y-46023489D01*
X77236602Y-46016557D01*
X77236603Y-46016557D01*
X77242878Y-46013867D01*
X77388803Y-45909394D01*
X77390055Y-45908003D01*
X77452460Y-45878326D01*
X77522882Y-45887340D01*
X77552253Y-45906252D01*
X77552636Y-45905776D01*
X77627846Y-45966246D01*
X77657351Y-45989969D01*
X77818102Y-46069767D01*
X77824724Y-46071418D01*
X77985615Y-46111533D01*
X77985618Y-46111533D01*
X77992238Y-46113184D01*
X77999055Y-46113374D01*
X77999059Y-46113375D01*
X78081937Y-46115690D01*
X78171635Y-46118195D01*
X78347924Y-46084566D01*
X78490428Y-46023489D01*
X78506602Y-46016557D01*
X78506603Y-46016557D01*
X78512878Y-46013867D01*
X78658803Y-45909394D01*
X78778890Y-45776024D01*
X78793388Y-45750504D01*
X78864164Y-45625914D01*
X78867536Y-45619979D01*
X78920605Y-45448538D01*
X78935623Y-45269701D01*
X78934113Y-45258380D01*
X78912790Y-45098579D01*
X78911887Y-45091810D01*
X78850506Y-44923166D01*
X78754343Y-44771636D01*
X78750677Y-44767537D01*
X76204252Y-42221112D01*
X76197109Y-42213345D01*
X76169257Y-42180387D01*
X76164852Y-42175174D01*
X76153574Y-42166551D01*
X76102805Y-42127736D01*
X76100381Y-42125835D01*
X76039517Y-42076898D01*
X76033407Y-42073865D01*
X76031371Y-42072563D01*
X76030915Y-42072244D01*
X76030257Y-42071834D01*
X76029767Y-42071565D01*
X76027701Y-42070314D01*
X76022281Y-42066170D01*
X75951513Y-42033171D01*
X75948742Y-42031837D01*
X75939316Y-42027158D01*
X75878765Y-41997100D01*
X75872140Y-41995448D01*
X75869873Y-41994614D01*
X75869348Y-41994395D01*
X75868644Y-41994146D01*
X75868094Y-41993984D01*
X75865810Y-41993206D01*
X75859628Y-41990324D01*
X75852970Y-41988836D01*
X75852962Y-41988833D01*
X75783409Y-41973286D01*
X75780413Y-41972578D01*
X75711252Y-41955334D01*
X75711249Y-41955334D01*
X75704629Y-41953683D01*
X75697808Y-41953492D01*
X75695411Y-41953164D01*
X75694297Y-41952963D01*
X75689523Y-41952301D01*
X75684483Y-41951174D01*
X75678992Y-41950867D01*
X75605578Y-41950867D01*
X75602060Y-41950818D01*
X75601150Y-41950793D01*
X75525232Y-41948672D01*
X75518525Y-41949951D01*
X75512190Y-41950461D01*
X75502083Y-41950867D01*
X63689166Y-41950867D01*
X63678622Y-41950425D01*
X63669133Y-41949628D01*
X63628833Y-41946244D01*
X63551390Y-41956578D01*
X63548390Y-41956940D01*
X63516837Y-41960368D01*
X63477499Y-41964641D01*
X63477497Y-41964641D01*
X63470716Y-41965378D01*
X63464250Y-41967554D01*
X63461900Y-41968071D01*
X63461351Y-41968168D01*
X63460592Y-41968345D01*
X63460047Y-41968503D01*
X63457708Y-41969078D01*
X63450943Y-41969980D01*
X63377537Y-41996698D01*
X63374702Y-41997691D01*
X63300622Y-42022621D01*
X63294772Y-42026136D01*
X63292560Y-42027158D01*
X63292055Y-42027366D01*
X63291372Y-42027692D01*
X63290856Y-42027973D01*
X63288715Y-42029027D01*
X63282299Y-42031362D01*
X63276534Y-42035020D01*
X63276535Y-42035020D01*
X63216374Y-42073198D01*
X63213756Y-42074815D01*
X63210290Y-42076898D01*
X63146789Y-42115053D01*
X63141832Y-42119741D01*
X63139896Y-42121210D01*
X63138973Y-42121851D01*
X63135128Y-42124759D01*
X63130769Y-42127525D01*
X63126669Y-42131190D01*
X63074747Y-42183112D01*
X63072225Y-42185565D01*
X63022463Y-42232623D01*
X63016393Y-42238363D01*
X63012559Y-42244004D01*
X63008430Y-42248856D01*
X63001573Y-42256286D01*
X62305046Y-42952814D01*
X61614224Y-43643636D01*
X61612088Y-43646293D01*
X61612085Y-43646296D01*
X61538764Y-43737489D01*
X61530031Y-43748350D01*
X61526999Y-43754458D01*
X61453266Y-43902991D01*
X61453264Y-43902995D01*
X61450233Y-43909102D01*
X61406816Y-44083238D01*
X61401805Y-44262635D01*
X61435434Y-44438924D01*
X61438122Y-44445195D01*
X61438122Y-44445196D01*
X61446337Y-44464362D01*
X61454789Y-44534853D01*
X61423789Y-44598724D01*
X61363178Y-44635696D01*
X61330527Y-44640000D01*
X58883161Y-44640000D01*
X58749583Y-44654511D01*
X58579489Y-44711754D01*
X58425656Y-44804186D01*
X58295260Y-44927496D01*
X58194384Y-45075930D01*
X58191851Y-45082264D01*
X58191849Y-45082267D01*
X58130270Y-45236225D01*
X58130269Y-45236230D01*
X58127736Y-45242562D01*
X58122118Y-45276498D01*
X58100876Y-45404816D01*
X58098425Y-45419620D01*
X58098782Y-45426437D01*
X58098782Y-45426442D01*
X58101106Y-45470785D01*
X58084696Y-45539859D01*
X58033547Y-45589096D01*
X57975279Y-45603378D01*
X47575733Y-45603378D01*
X47507612Y-45583376D01*
X47496790Y-45575581D01*
X47437650Y-45528031D01*
X47322329Y-45470785D01*
X47283009Y-45451266D01*
X47283005Y-45451264D01*
X47276898Y-45448233D01*
X47247001Y-45440779D01*
X47109385Y-45406467D01*
X47109382Y-45406467D01*
X47102762Y-45404816D01*
X47095945Y-45404626D01*
X47095941Y-45404625D01*
X47013064Y-45402311D01*
X46923365Y-45399805D01*
X46747076Y-45433434D01*
X46582122Y-45504133D01*
X46436198Y-45608606D01*
X46316110Y-45741976D01*
X46312742Y-45747905D01*
X46312739Y-45747909D01*
X46243882Y-45869122D01*
X46227465Y-45898022D01*
X46174395Y-46069462D01*
X46159377Y-46248300D01*
X46160279Y-46255060D01*
X46160279Y-46255062D01*
X46164540Y-46286994D01*
X46153723Y-46357162D01*
X46106688Y-46410343D01*
X46039647Y-46429659D01*
X34318374Y-46429659D01*
X34307830Y-46429217D01*
X34298341Y-46428420D01*
X34258041Y-46425036D01*
X34180598Y-46435370D01*
X34177598Y-46435732D01*
X34135843Y-46440268D01*
X34106707Y-46443433D01*
X34106705Y-46443433D01*
X34099924Y-46444170D01*
X34093458Y-46446346D01*
X34091108Y-46446863D01*
X34090559Y-46446960D01*
X34089800Y-46447137D01*
X34089255Y-46447295D01*
X34086916Y-46447870D01*
X34080151Y-46448772D01*
X34006745Y-46475490D01*
X34003910Y-46476483D01*
X33929830Y-46501413D01*
X33923980Y-46504928D01*
X33921768Y-46505950D01*
X33921263Y-46506158D01*
X33920580Y-46506484D01*
X33920064Y-46506765D01*
X33917923Y-46507819D01*
X33911507Y-46510154D01*
X33905742Y-46513812D01*
X33905743Y-46513812D01*
X33845582Y-46551990D01*
X33842964Y-46553607D01*
X33775997Y-46593845D01*
X33771040Y-46598533D01*
X33769104Y-46600002D01*
X33768181Y-46600643D01*
X33764336Y-46603551D01*
X33759977Y-46606317D01*
X33755877Y-46609982D01*
X33703956Y-46661903D01*
X33701434Y-46664356D01*
X33645601Y-46717155D01*
X33641767Y-46722797D01*
X33637644Y-46727641D01*
X33630788Y-46735071D01*
X33166224Y-47199636D01*
X33164091Y-47202289D01*
X33116636Y-47261311D01*
X33082031Y-47304350D01*
X33078999Y-47310458D01*
X33005266Y-47458991D01*
X33005264Y-47458995D01*
X33002233Y-47465102D01*
X32958816Y-47639238D01*
X32953805Y-47818635D01*
X32987434Y-47994924D01*
X33058133Y-48159878D01*
X33162606Y-48305802D01*
X33295976Y-48425890D01*
X33301905Y-48429258D01*
X33301909Y-48429261D01*
X33422045Y-48497506D01*
X33452022Y-48514535D01*
X33623462Y-48567605D01*
X33802300Y-48582623D01*
X33809060Y-48581721D01*
X33809062Y-48581721D01*
X33929977Y-48565587D01*
X33980190Y-48558887D01*
X33986598Y-48556555D01*
X33986601Y-48556554D01*
X34111300Y-48511167D01*
X34148834Y-48497506D01*
X34300364Y-48401343D01*
X34304464Y-48397677D01*
X34583576Y-48118564D01*
X34645889Y-48084539D01*
X34672672Y-48081659D01*
X67069985Y-48081659D01*
X67138106Y-48101661D01*
X67184599Y-48155317D01*
X67193231Y-48181458D01*
X67193756Y-48183925D01*
X67194443Y-48190936D01*
X67248440Y-48353256D01*
X67252087Y-48359278D01*
X67252088Y-48359280D01*
X67333406Y-48493554D01*
X67333409Y-48493557D01*
X67337056Y-48499580D01*
X67455889Y-48622634D01*
X67599030Y-48716303D01*
X67605634Y-48718759D01*
X67605636Y-48718760D01*
X67752757Y-48773474D01*
X67752759Y-48773474D01*
X67759367Y-48775932D01*
X67838454Y-48786485D01*
X67921949Y-48797626D01*
X67921953Y-48797626D01*
X67928930Y-48798557D01*
X67935941Y-48797919D01*
X67935945Y-48797919D01*
X68092273Y-48783692D01*
X68092275Y-48783692D01*
X68099292Y-48783053D01*
X68105990Y-48780877D01*
X68105993Y-48780876D01*
X68255289Y-48732366D01*
X68255291Y-48732365D01*
X68261985Y-48730190D01*
X68276548Y-48721509D01*
X68345303Y-48703811D01*
X68412712Y-48726095D01*
X68457372Y-48781285D01*
X68460619Y-48789964D01*
X68493040Y-48887426D01*
X68496687Y-48893448D01*
X68496688Y-48893450D01*
X68578006Y-49027724D01*
X68578009Y-49027727D01*
X68581656Y-49033750D01*
X68700489Y-49156804D01*
X68843630Y-49250473D01*
X68850234Y-49252929D01*
X68850236Y-49252930D01*
X68997357Y-49307644D01*
X68997359Y-49307644D01*
X69003967Y-49310102D01*
X69063099Y-49317992D01*
X69166549Y-49331796D01*
X69166553Y-49331796D01*
X69173530Y-49332727D01*
X69180541Y-49332089D01*
X69180545Y-49332089D01*
X69336873Y-49317862D01*
X69336875Y-49317862D01*
X69343892Y-49317223D01*
X69350590Y-49315047D01*
X69350593Y-49315046D01*
X69492083Y-49269072D01*
X69563051Y-49267044D01*
X69623849Y-49303706D01*
X69655174Y-49367419D01*
X69656026Y-49404696D01*
X69641550Y-49519286D01*
X69658243Y-49689536D01*
X69712240Y-49851856D01*
X69715888Y-49857879D01*
X69715889Y-49857882D01*
X69715917Y-49857928D01*
X69715926Y-49857961D01*
X69718844Y-49864277D01*
X69717735Y-49864790D01*
X69734097Y-49926557D01*
X69712287Y-49994121D01*
X69657412Y-50039168D01*
X69608142Y-50049200D01*
X45684833Y-50049200D01*
X45674289Y-50048758D01*
X45664800Y-50047961D01*
X45624500Y-50044577D01*
X45547057Y-50054911D01*
X45544057Y-50055273D01*
X45502302Y-50059809D01*
X45473166Y-50062974D01*
X45473164Y-50062974D01*
X45466383Y-50063711D01*
X45459917Y-50065887D01*
X45457567Y-50066404D01*
X45457018Y-50066501D01*
X45456259Y-50066678D01*
X45455714Y-50066836D01*
X45453375Y-50067411D01*
X45446610Y-50068313D01*
X45373204Y-50095031D01*
X45370369Y-50096024D01*
X45296289Y-50120954D01*
X45290439Y-50124469D01*
X45288227Y-50125491D01*
X45287722Y-50125699D01*
X45287039Y-50126025D01*
X45286523Y-50126306D01*
X45284382Y-50127360D01*
X45277966Y-50129695D01*
X45272201Y-50133353D01*
X45272202Y-50133353D01*
X45212041Y-50171531D01*
X45209423Y-50173148D01*
X45142456Y-50213386D01*
X45137499Y-50218074D01*
X45135563Y-50219543D01*
X45134640Y-50220184D01*
X45130795Y-50223092D01*
X45126436Y-50225858D01*
X45122336Y-50229523D01*
X45070413Y-50281446D01*
X45067892Y-50283898D01*
X45012060Y-50336696D01*
X45008226Y-50342337D01*
X45004097Y-50347189D01*
X44997240Y-50354619D01*
X37373980Y-57977880D01*
X29933595Y-65418265D01*
X29871283Y-65452291D01*
X29800468Y-65447226D01*
X29743632Y-65404679D01*
X29718821Y-65338159D01*
X29718500Y-65329170D01*
X29718500Y-41468635D01*
X134807805Y-41468635D01*
X134841434Y-41644924D01*
X134912133Y-41809878D01*
X135016606Y-41955802D01*
X135149976Y-42075890D01*
X135155905Y-42079258D01*
X135155909Y-42079261D01*
X135294798Y-42158159D01*
X135306022Y-42164535D01*
X135477462Y-42217605D01*
X135656300Y-42232623D01*
X135663060Y-42231721D01*
X135663062Y-42231721D01*
X135807704Y-42212421D01*
X135834190Y-42208887D01*
X135840598Y-42206555D01*
X135840601Y-42206554D01*
X135965300Y-42161167D01*
X136002834Y-42147506D01*
X136154364Y-42051343D01*
X136158464Y-42047677D01*
X136195236Y-42010905D01*
X136257548Y-41976879D01*
X136284331Y-41974000D01*
X146049681Y-41974000D01*
X146117802Y-41994002D01*
X146164295Y-42047658D01*
X146174399Y-42117932D01*
X146153894Y-42170821D01*
X146078384Y-42281930D01*
X146075851Y-42288264D01*
X146075849Y-42288267D01*
X146014270Y-42442225D01*
X146014269Y-42442230D01*
X146011736Y-42448562D01*
X146008002Y-42471118D01*
X145984333Y-42614097D01*
X145982425Y-42625620D01*
X145982782Y-42632437D01*
X145982782Y-42632441D01*
X145986735Y-42707863D01*
X145991817Y-42804841D01*
X146039476Y-42977864D01*
X146123177Y-43136617D01*
X146239015Y-43273693D01*
X146244439Y-43277840D01*
X146244440Y-43277841D01*
X146376165Y-43378553D01*
X146376169Y-43378556D01*
X146381586Y-43382697D01*
X146544239Y-43458543D01*
X146719384Y-43497693D01*
X146724875Y-43498000D01*
X154721669Y-43498000D01*
X154789790Y-43518002D01*
X154810764Y-43534905D01*
X156013496Y-44737636D01*
X157181636Y-45905776D01*
X157184293Y-45907912D01*
X157184296Y-45907915D01*
X157281035Y-45985696D01*
X157281037Y-45985698D01*
X157286350Y-45989969D01*
X157292458Y-45993001D01*
X157440991Y-46066734D01*
X157440995Y-46066736D01*
X157447102Y-46069767D01*
X157453724Y-46071418D01*
X157582747Y-46103587D01*
X157621238Y-46113184D01*
X157710936Y-46115689D01*
X157793814Y-46118004D01*
X157793819Y-46118004D01*
X157800635Y-46118194D01*
X157976924Y-46084566D01*
X158119428Y-46023489D01*
X158135602Y-46016557D01*
X158135603Y-46016557D01*
X158141878Y-46013867D01*
X158287802Y-45909394D01*
X158289554Y-45907448D01*
X158352214Y-45877649D01*
X158422637Y-45886661D01*
X158456389Y-45908436D01*
X158517976Y-45963890D01*
X158523905Y-45967258D01*
X158523909Y-45967261D01*
X158648157Y-46037842D01*
X158674022Y-46052535D01*
X158845462Y-46105605D01*
X159024300Y-46120623D01*
X159031060Y-46119721D01*
X159031062Y-46119721D01*
X159151977Y-46103587D01*
X159202190Y-46096887D01*
X159208598Y-46094555D01*
X159208601Y-46094554D01*
X159333300Y-46049167D01*
X159370834Y-46035506D01*
X159522364Y-45939343D01*
X159526464Y-45935677D01*
X159550973Y-45911168D01*
X159613285Y-45877142D01*
X159684100Y-45882207D01*
X159724378Y-45906627D01*
X159782900Y-45959320D01*
X159782903Y-45959322D01*
X159787976Y-45963890D01*
X159793905Y-45967258D01*
X159793909Y-45967261D01*
X159918157Y-46037842D01*
X159944022Y-46052535D01*
X160115462Y-46105605D01*
X160294300Y-46120623D01*
X160301060Y-46119721D01*
X160301062Y-46119721D01*
X160421977Y-46103587D01*
X160472190Y-46096887D01*
X160478598Y-46094555D01*
X160478601Y-46094554D01*
X160603300Y-46049167D01*
X160640834Y-46035506D01*
X160792364Y-45939343D01*
X160796464Y-45935677D01*
X160820973Y-45911168D01*
X160883285Y-45877142D01*
X160954100Y-45882207D01*
X160994378Y-45906627D01*
X161052900Y-45959320D01*
X161052903Y-45959322D01*
X161057976Y-45963890D01*
X161063905Y-45967258D01*
X161063909Y-45967261D01*
X161188157Y-46037842D01*
X161214022Y-46052535D01*
X161385462Y-46105605D01*
X161564300Y-46120623D01*
X161571060Y-46119721D01*
X161571062Y-46119721D01*
X161691977Y-46103587D01*
X161742190Y-46096887D01*
X161748598Y-46094555D01*
X161748601Y-46094554D01*
X161883104Y-46045599D01*
X161926198Y-46038000D01*
X181654839Y-46038000D01*
X181788417Y-46023489D01*
X181958511Y-45966246D01*
X182112344Y-45873814D01*
X182144081Y-45843802D01*
X182237782Y-45755193D01*
X182237784Y-45755191D01*
X182242740Y-45750504D01*
X182343616Y-45602070D01*
X182346151Y-45595733D01*
X182407730Y-45441775D01*
X182407731Y-45441770D01*
X182410264Y-45435438D01*
X182439575Y-45258380D01*
X182430183Y-45079159D01*
X182382524Y-44906136D01*
X182298823Y-44747383D01*
X182182985Y-44610307D01*
X182177560Y-44606159D01*
X182045835Y-44505447D01*
X182045831Y-44505444D01*
X182040414Y-44501303D01*
X181877761Y-44425457D01*
X181702616Y-44386307D01*
X181697125Y-44386000D01*
X174634146Y-44386000D01*
X174566025Y-44365998D01*
X174519532Y-44312342D01*
X174509428Y-44242068D01*
X174517155Y-44213213D01*
X174536264Y-44165438D01*
X174565575Y-43988380D01*
X174561768Y-43915724D01*
X174560136Y-43884594D01*
X174576545Y-43815520D01*
X174627694Y-43766283D01*
X174685963Y-43752000D01*
X195878839Y-43752000D01*
X196012417Y-43737489D01*
X196182511Y-43680246D01*
X196261759Y-43632629D01*
X196330452Y-43614689D01*
X196397939Y-43636736D01*
X196442465Y-43690995D01*
X196507133Y-43841878D01*
X196611606Y-43987802D01*
X196744976Y-44107890D01*
X196750905Y-44111258D01*
X196750909Y-44111261D01*
X196871045Y-44179506D01*
X196901022Y-44196535D01*
X197072462Y-44249605D01*
X197251300Y-44264623D01*
X197258060Y-44263721D01*
X197258062Y-44263721D01*
X197378977Y-44247587D01*
X197429190Y-44240887D01*
X197435598Y-44238555D01*
X197435601Y-44238554D01*
X197560300Y-44193167D01*
X197597834Y-44179506D01*
X197749364Y-44083343D01*
X197753464Y-44079677D01*
X198679235Y-43153905D01*
X198741548Y-43119880D01*
X198768331Y-43117000D01*
X242106839Y-43117000D01*
X242240417Y-43102489D01*
X242410511Y-43045246D01*
X242564344Y-42952814D01*
X242694740Y-42829504D01*
X242795616Y-42681070D01*
X242798151Y-42674733D01*
X242859730Y-42520775D01*
X242859731Y-42520770D01*
X242862264Y-42514438D01*
X242891575Y-42337380D01*
X242891164Y-42329521D01*
X242882540Y-42164971D01*
X242882183Y-42158159D01*
X242870310Y-42115053D01*
X242836337Y-41991718D01*
X242834524Y-41985136D01*
X242750823Y-41826383D01*
X242634985Y-41689307D01*
X242579089Y-41646571D01*
X242497835Y-41584447D01*
X242497831Y-41584444D01*
X242492414Y-41580303D01*
X242329761Y-41504457D01*
X242154616Y-41465307D01*
X242149125Y-41465000D01*
X198414033Y-41465000D01*
X198403489Y-41464558D01*
X198394000Y-41463761D01*
X198353700Y-41460377D01*
X198276257Y-41470711D01*
X198273257Y-41471073D01*
X198231502Y-41475609D01*
X198202366Y-41478774D01*
X198202364Y-41478774D01*
X198195583Y-41479511D01*
X198189117Y-41481687D01*
X198186767Y-41482204D01*
X198186218Y-41482301D01*
X198185459Y-41482478D01*
X198184914Y-41482636D01*
X198182575Y-41483211D01*
X198175810Y-41484113D01*
X198102404Y-41510831D01*
X198099569Y-41511824D01*
X198025489Y-41536754D01*
X198019639Y-41540269D01*
X198017427Y-41541291D01*
X198016922Y-41541499D01*
X198016239Y-41541825D01*
X198015723Y-41542106D01*
X198013582Y-41543160D01*
X198007166Y-41545495D01*
X198001401Y-41549153D01*
X198001402Y-41549153D01*
X197941241Y-41587331D01*
X197938623Y-41588948D01*
X197871656Y-41629186D01*
X197866699Y-41633874D01*
X197864763Y-41635343D01*
X197863840Y-41635984D01*
X197859995Y-41638892D01*
X197855636Y-41641658D01*
X197851536Y-41645323D01*
X197799614Y-41697245D01*
X197797093Y-41699698D01*
X197741260Y-41752496D01*
X197737426Y-41758137D01*
X197733297Y-41762989D01*
X197726453Y-41770406D01*
X196817956Y-42678903D01*
X196755646Y-42712927D01*
X196684831Y-42707863D01*
X196627995Y-42665316D01*
X196611966Y-42632617D01*
X196610848Y-42633060D01*
X196608337Y-42626718D01*
X196606524Y-42620136D01*
X196522823Y-42461383D01*
X196406985Y-42324307D01*
X196401560Y-42320159D01*
X196269835Y-42219447D01*
X196269831Y-42219444D01*
X196264414Y-42215303D01*
X196101761Y-42139457D01*
X195926616Y-42100307D01*
X195921125Y-42100000D01*
X169812330Y-42100000D01*
X169744209Y-42079998D01*
X169723235Y-42063095D01*
X168325235Y-40665095D01*
X168291209Y-40602783D01*
X168296274Y-40531968D01*
X168338821Y-40475132D01*
X168405341Y-40450321D01*
X168414330Y-40450000D01*
X237788839Y-40450000D01*
X237922417Y-40435489D01*
X238092511Y-40378246D01*
X238246344Y-40285814D01*
X238251306Y-40281122D01*
X238371782Y-40167193D01*
X238371784Y-40167191D01*
X238376740Y-40162504D01*
X238477616Y-40014070D01*
X238526255Y-39892464D01*
X238541730Y-39853775D01*
X238541731Y-39853770D01*
X238544264Y-39847438D01*
X238573575Y-39670380D01*
X238567866Y-39561429D01*
X238564540Y-39497971D01*
X238564183Y-39491159D01*
X238536402Y-39390300D01*
X238518337Y-39324718D01*
X238516524Y-39318136D01*
X238432823Y-39159383D01*
X238316985Y-39022307D01*
X238311560Y-39018159D01*
X238179835Y-38917447D01*
X238179831Y-38917444D01*
X238174414Y-38913303D01*
X238011761Y-38837457D01*
X237836616Y-38798307D01*
X237831125Y-38798000D01*
X225298319Y-38798000D01*
X225230198Y-38777998D01*
X225183705Y-38724342D01*
X225173601Y-38654068D01*
X225194107Y-38601177D01*
X225199484Y-38593266D01*
X225269616Y-38490070D01*
X225318255Y-38368464D01*
X225333730Y-38329775D01*
X225333731Y-38329770D01*
X225336264Y-38323438D01*
X225365575Y-38146380D01*
X225359866Y-38037429D01*
X225356540Y-37973971D01*
X225356183Y-37967159D01*
X225328402Y-37866300D01*
X225310337Y-37800718D01*
X225308524Y-37794136D01*
X225224823Y-37635383D01*
X225108985Y-37498307D01*
X225103560Y-37494159D01*
X224971835Y-37393447D01*
X224971831Y-37393444D01*
X224966414Y-37389303D01*
X224803761Y-37313457D01*
X224628616Y-37274307D01*
X224623125Y-37274000D01*
X212102332Y-37274000D01*
X212034211Y-37253998D01*
X211987718Y-37200342D01*
X211977614Y-37130068D01*
X212007108Y-37065488D01*
X212013236Y-37058905D01*
X212449368Y-36622772D01*
X212451776Y-36620364D01*
X212535970Y-36515649D01*
X212587946Y-36410944D01*
X212612734Y-36361009D01*
X212612735Y-36361005D01*
X212615767Y-36354898D01*
X212659184Y-36180762D01*
X212664195Y-36001365D01*
X212630566Y-35825076D01*
X212559867Y-35660122D01*
X212455394Y-35514197D01*
X212322024Y-35394110D01*
X212316089Y-35390738D01*
X212316087Y-35390737D01*
X212214236Y-35332878D01*
X212165979Y-35305464D01*
X212159461Y-35303446D01*
X212159458Y-35303445D01*
X212001058Y-35254412D01*
X212001056Y-35254412D01*
X211994538Y-35252394D01*
X211815701Y-35237377D01*
X211808941Y-35238279D01*
X211808939Y-35238279D01*
X211644576Y-35260209D01*
X211644574Y-35260210D01*
X211637810Y-35261112D01*
X211631400Y-35263445D01*
X211631396Y-35263446D01*
X211475580Y-35320159D01*
X211475576Y-35320161D01*
X211469166Y-35322494D01*
X211317637Y-35418657D01*
X211313537Y-35422323D01*
X210771054Y-35964806D01*
X210708742Y-35998832D01*
X210681959Y-36001711D01*
X196182275Y-36001711D01*
X196114154Y-35981709D01*
X196067661Y-35928053D01*
X196057557Y-35857779D01*
X196087051Y-35793199D01*
X196093168Y-35786627D01*
X196880020Y-34999775D01*
X196964213Y-34895061D01*
X196972210Y-34878951D01*
X197040978Y-34740420D01*
X197040980Y-34740416D01*
X197044011Y-34734309D01*
X197087428Y-34560174D01*
X197092438Y-34380776D01*
X197058810Y-34204487D01*
X196988110Y-34039534D01*
X196883638Y-33893609D01*
X196750268Y-33773521D01*
X196744339Y-33770153D01*
X196744335Y-33770150D01*
X196600156Y-33688247D01*
X196600157Y-33688247D01*
X196594222Y-33684876D01*
X196587704Y-33682858D01*
X196587701Y-33682857D01*
X196458487Y-33642859D01*
X196422781Y-33631806D01*
X196243944Y-33616788D01*
X196237184Y-33617690D01*
X196237182Y-33617690D01*
X196072821Y-33639621D01*
X196072820Y-33639621D01*
X196066054Y-33640524D01*
X196059638Y-33642859D01*
X196059639Y-33642859D01*
X195903822Y-33699572D01*
X195903820Y-33699573D01*
X195897410Y-33701906D01*
X195891651Y-33705561D01*
X195750239Y-33795302D01*
X195750233Y-33795306D01*
X195745880Y-33798069D01*
X195741780Y-33801734D01*
X195740532Y-33802982D01*
X194416420Y-35127095D01*
X194354108Y-35161120D01*
X194327325Y-35164000D01*
X162769161Y-35164000D01*
X162635583Y-35178511D01*
X162465489Y-35235754D01*
X162311656Y-35328186D01*
X162306696Y-35332877D01*
X162306694Y-35332878D01*
X162212575Y-35421883D01*
X162181260Y-35451496D01*
X162080384Y-35599930D01*
X162024254Y-35740265D01*
X161980386Y-35796085D01*
X161913302Y-35819327D01*
X161851241Y-35806331D01*
X161837012Y-35799268D01*
X161830898Y-35796233D01*
X161792326Y-35786616D01*
X161663385Y-35754467D01*
X161663382Y-35754467D01*
X161656762Y-35752816D01*
X161649945Y-35752626D01*
X161649941Y-35752625D01*
X161567063Y-35750310D01*
X161477365Y-35747805D01*
X161301076Y-35781434D01*
X161136122Y-35852133D01*
X160990198Y-35956606D01*
X160870110Y-36089976D01*
X160866742Y-36095905D01*
X160866739Y-36095909D01*
X160822412Y-36173941D01*
X160781465Y-36246022D01*
X160728395Y-36417462D01*
X160713377Y-36596300D01*
X160737113Y-36774190D01*
X160739445Y-36780598D01*
X160739446Y-36780601D01*
X160797962Y-36941373D01*
X160802465Y-37012227D01*
X160767947Y-37074267D01*
X160705366Y-37107796D01*
X160634593Y-37102169D01*
X160623537Y-37097327D01*
X160567009Y-37069266D01*
X160567005Y-37069264D01*
X160560898Y-37066233D01*
X160531001Y-37058779D01*
X160393385Y-37024467D01*
X160393382Y-37024467D01*
X160386762Y-37022816D01*
X160379945Y-37022626D01*
X160379941Y-37022625D01*
X160297064Y-37020311D01*
X160207365Y-37017805D01*
X160031076Y-37051434D01*
X159866122Y-37122133D01*
X159720198Y-37226606D01*
X159600110Y-37359976D01*
X159596742Y-37365905D01*
X159596739Y-37365909D01*
X159585087Y-37386421D01*
X159511465Y-37516022D01*
X159458395Y-37687462D01*
X159443377Y-37866300D01*
X159467113Y-38044190D01*
X159528494Y-38212834D01*
X159624657Y-38364364D01*
X159628323Y-38368464D01*
X159755573Y-38495713D01*
X159842764Y-38582904D01*
X159876789Y-38645216D01*
X159871725Y-38716032D01*
X159829178Y-38772868D01*
X159762658Y-38797679D01*
X159753669Y-38798000D01*
X159398330Y-38798000D01*
X159330209Y-38777998D01*
X159309235Y-38761095D01*
X159302364Y-38754224D01*
X159299704Y-38752085D01*
X159202965Y-38674304D01*
X159202963Y-38674302D01*
X159197650Y-38670031D01*
X159165493Y-38654068D01*
X159043009Y-38593266D01*
X159043005Y-38593264D01*
X159036898Y-38590233D01*
X159007001Y-38582779D01*
X158869385Y-38548467D01*
X158869382Y-38548467D01*
X158862762Y-38546816D01*
X158855945Y-38546626D01*
X158855941Y-38546625D01*
X158773064Y-38544311D01*
X158683365Y-38541805D01*
X158507076Y-38575434D01*
X158342122Y-38646133D01*
X158196198Y-38750606D01*
X158076110Y-38883976D01*
X158072742Y-38889905D01*
X158072739Y-38889909D01*
X158061087Y-38910421D01*
X157987465Y-39040022D01*
X157934395Y-39211462D01*
X157919377Y-39390300D01*
X157943113Y-39568190D01*
X158004494Y-39736834D01*
X158100657Y-39888364D01*
X158104323Y-39892464D01*
X158231573Y-40019713D01*
X158318764Y-40106904D01*
X158352789Y-40169216D01*
X158347725Y-40240032D01*
X158305178Y-40296868D01*
X158238658Y-40321679D01*
X158229669Y-40322000D01*
X135930033Y-40322000D01*
X135919489Y-40321558D01*
X135910000Y-40320761D01*
X135869700Y-40317377D01*
X135792257Y-40327711D01*
X135789257Y-40328073D01*
X135747502Y-40332609D01*
X135718366Y-40335774D01*
X135718364Y-40335774D01*
X135711583Y-40336511D01*
X135705117Y-40338687D01*
X135702767Y-40339204D01*
X135702218Y-40339301D01*
X135701459Y-40339478D01*
X135700914Y-40339636D01*
X135698575Y-40340211D01*
X135691810Y-40341113D01*
X135618404Y-40367831D01*
X135615569Y-40368824D01*
X135541489Y-40393754D01*
X135535639Y-40397269D01*
X135533427Y-40398291D01*
X135532922Y-40398499D01*
X135532239Y-40398825D01*
X135531723Y-40399106D01*
X135529582Y-40400160D01*
X135523166Y-40402495D01*
X135517401Y-40406153D01*
X135517402Y-40406153D01*
X135457241Y-40444331D01*
X135454623Y-40445948D01*
X135447880Y-40450000D01*
X135387656Y-40486186D01*
X135382699Y-40490874D01*
X135380763Y-40492343D01*
X135379840Y-40492984D01*
X135375995Y-40495892D01*
X135371636Y-40498658D01*
X135367536Y-40502323D01*
X135315616Y-40554243D01*
X135313094Y-40556696D01*
X135264359Y-40602783D01*
X135257260Y-40609496D01*
X135253424Y-40615141D01*
X135249306Y-40619979D01*
X135242449Y-40627410D01*
X135020224Y-40849636D01*
X134936031Y-40954350D01*
X134932999Y-40960458D01*
X134859266Y-41108991D01*
X134859264Y-41108995D01*
X134856233Y-41115102D01*
X134812816Y-41289238D01*
X134807805Y-41468635D01*
X29718500Y-41468635D01*
X29718500Y-32384500D01*
X29738502Y-32316379D01*
X29792158Y-32269886D01*
X29844500Y-32258500D01*
X38806522Y-32258500D01*
X38813665Y-32258703D01*
X38888450Y-32262950D01*
X38888457Y-32262950D01*
X38893126Y-32263215D01*
X38938682Y-32259029D01*
X38950211Y-32258500D01*
X52305258Y-32258500D01*
X52306907Y-32258511D01*
X52428202Y-32260099D01*
X52428205Y-32260099D01*
X52432879Y-32260160D01*
X52437513Y-32259529D01*
X52442177Y-32259244D01*
X52442179Y-32259274D01*
X52453609Y-32258500D01*
X65164982Y-32258500D01*
X65179791Y-32259373D01*
X65185926Y-32260099D01*
X65200205Y-32261789D01*
X65305932Y-32258559D01*
X65309781Y-32258500D01*
X77864982Y-32258500D01*
X77879791Y-32259373D01*
X77885926Y-32260099D01*
X77900205Y-32261789D01*
X78005932Y-32258559D01*
X78009781Y-32258500D01*
X90818981Y-32258500D01*
X90833790Y-32259373D01*
X90839925Y-32260099D01*
X90854204Y-32261789D01*
X90959931Y-32258559D01*
X90963780Y-32258500D01*
X102560522Y-32258500D01*
X102567665Y-32258703D01*
X102642450Y-32262950D01*
X102642457Y-32262950D01*
X102647126Y-32263215D01*
X102692682Y-32259029D01*
X102704211Y-32258500D01*
X115006522Y-32258500D01*
X115013665Y-32258703D01*
X115088450Y-32262950D01*
X115088457Y-32262950D01*
X115093126Y-32263215D01*
X115138682Y-32259029D01*
X115150211Y-32258500D01*
X128918981Y-32258500D01*
X128933790Y-32259373D01*
X128939925Y-32260099D01*
X128954204Y-32261789D01*
X129059931Y-32258559D01*
X129063780Y-32258500D01*
X141618981Y-32258500D01*
X141633790Y-32259373D01*
X141639925Y-32260099D01*
X141654204Y-32261789D01*
X141759931Y-32258559D01*
X141763780Y-32258500D01*
X154318981Y-32258500D01*
X154333790Y-32259373D01*
X154339925Y-32260099D01*
X154354204Y-32261789D01*
X154459931Y-32258559D01*
X154463780Y-32258500D01*
X166314522Y-32258500D01*
X166321665Y-32258703D01*
X166396450Y-32262950D01*
X166396457Y-32262950D01*
X166401126Y-32263215D01*
X166446682Y-32259029D01*
X166458211Y-32258500D01*
X179718981Y-32258500D01*
X179733790Y-32259373D01*
X179739925Y-32260099D01*
X179754204Y-32261789D01*
X179859931Y-32258559D01*
X179863780Y-32258500D01*
X192672974Y-32258500D01*
X192687784Y-32259373D01*
X192708205Y-32261790D01*
X192813952Y-32258559D01*
X192817800Y-32258500D01*
X205626975Y-32258500D01*
X205641783Y-32259373D01*
X205662205Y-32261790D01*
X205767952Y-32258559D01*
X205771800Y-32258500D01*
X217564982Y-32258500D01*
X217579791Y-32259373D01*
X217585926Y-32260099D01*
X217600205Y-32261789D01*
X217705932Y-32258559D01*
X217709781Y-32258500D01*
X229560522Y-32258500D01*
X229567665Y-32258703D01*
X229642450Y-32262950D01*
X229642457Y-32262950D01*
X229647126Y-32263215D01*
X229692682Y-32259029D01*
X229704211Y-32258500D01*
X242006522Y-32258500D01*
X242013665Y-32258703D01*
X242088450Y-32262950D01*
X242088457Y-32262950D01*
X242093126Y-32263215D01*
X242138682Y-32259029D01*
X242150211Y-32258500D01*
X243205500Y-32258500D01*
X243273621Y-32278502D01*
X243320114Y-32332158D01*
X243331500Y-32384500D01*
X243331500Y-64135500D01*
X243311498Y-64203621D01*
X243257842Y-64250114D01*
X243205500Y-64261500D01*
X226369473Y-64261500D01*
X226362329Y-64261297D01*
X226287549Y-64257050D01*
X226287543Y-64257050D01*
X226282874Y-64256785D01*
X226237497Y-64260954D01*
X226167887Y-64267350D01*
X226165697Y-64267532D01*
X226055053Y-64275755D01*
X226055039Y-64275757D01*
X226050384Y-64276103D01*
X226045828Y-64277134D01*
X226045827Y-64277134D01*
X226043214Y-64277725D01*
X226026943Y-64280302D01*
X226019640Y-64280973D01*
X226015101Y-64282084D01*
X226015093Y-64282085D01*
X225907411Y-64308434D01*
X225905273Y-64308938D01*
X225871698Y-64316535D01*
X225792559Y-64334443D01*
X225788207Y-64336135D01*
X225788205Y-64336136D01*
X225785727Y-64337100D01*
X225770007Y-64342057D01*
X225762871Y-64343803D01*
X225758547Y-64345572D01*
X225758544Y-64345573D01*
X225655896Y-64387568D01*
X225653853Y-64388383D01*
X225550547Y-64428556D01*
X225550544Y-64428558D01*
X225546189Y-64430251D01*
X225542130Y-64432571D01*
X225539811Y-64433896D01*
X225525011Y-64441114D01*
X225522540Y-64442125D01*
X225522537Y-64442127D01*
X225518212Y-64443896D01*
X225514195Y-64446286D01*
X225418892Y-64502985D01*
X225416995Y-64504092D01*
X225316687Y-64561422D01*
X225313014Y-64564318D01*
X225313012Y-64564319D01*
X225310920Y-64565968D01*
X225297346Y-64575297D01*
X225291033Y-64579053D01*
X225287413Y-64582011D01*
X225287404Y-64582017D01*
X225201503Y-64652202D01*
X225199787Y-64653579D01*
X225109094Y-64725075D01*
X225105896Y-64728474D01*
X225105890Y-64728480D01*
X225036587Y-64802152D01*
X225033907Y-64804914D01*
X220534226Y-69304595D01*
X220471914Y-69338621D01*
X220445131Y-69341500D01*
X212457025Y-69341500D01*
X212442217Y-69340627D01*
X212421795Y-69338210D01*
X212316088Y-69341440D01*
X212316048Y-69341441D01*
X212312200Y-69341500D01*
X207377025Y-69341500D01*
X207362217Y-69340627D01*
X207341795Y-69338210D01*
X207236088Y-69341440D01*
X207236048Y-69341441D01*
X207232200Y-69341500D01*
X198138742Y-69341500D01*
X198137093Y-69341489D01*
X198015798Y-69339901D01*
X198015795Y-69339901D01*
X198011121Y-69339840D01*
X198006487Y-69340471D01*
X198001823Y-69340756D01*
X198001821Y-69340726D01*
X197990391Y-69341500D01*
X192645025Y-69341500D01*
X192630217Y-69340627D01*
X192609795Y-69338210D01*
X192504088Y-69341440D01*
X192504048Y-69341441D01*
X192500200Y-69341500D01*
X187978742Y-69341500D01*
X187977093Y-69341489D01*
X187855798Y-69339901D01*
X187855795Y-69339901D01*
X187851121Y-69339840D01*
X187777811Y-69349817D01*
X187770187Y-69350619D01*
X187733270Y-69353362D01*
X187701049Y-69355756D01*
X187701044Y-69355757D01*
X187696384Y-69356103D01*
X187648572Y-69366922D01*
X187637763Y-69368876D01*
X187593834Y-69374854D01*
X187593830Y-69374855D01*
X187589192Y-69375486D01*
X187518135Y-69396198D01*
X187510718Y-69398115D01*
X187463961Y-69408695D01*
X187443119Y-69413411D01*
X187443117Y-69413412D01*
X187438559Y-69414443D01*
X187392881Y-69432206D01*
X187382476Y-69435738D01*
X187369498Y-69439521D01*
X187335410Y-69449457D01*
X187268204Y-69480439D01*
X187261129Y-69483442D01*
X187196551Y-69508554D01*
X187196543Y-69508558D01*
X187192189Y-69510251D01*
X187188133Y-69512569D01*
X187188125Y-69512573D01*
X187149628Y-69534576D01*
X187139859Y-69539607D01*
X187095348Y-69560127D01*
X187091433Y-69562694D01*
X187033480Y-69600690D01*
X187026918Y-69604711D01*
X186992870Y-69624171D01*
X186962687Y-69641422D01*
X186924176Y-69671781D01*
X186915283Y-69678183D01*
X186874282Y-69705065D01*
X186870795Y-69708177D01*
X186870794Y-69708178D01*
X186819088Y-69754327D01*
X186813193Y-69759273D01*
X186755094Y-69805075D01*
X186751894Y-69808477D01*
X186751886Y-69808484D01*
X186721506Y-69840778D01*
X186713635Y-69848446D01*
X186680559Y-69877968D01*
X186680550Y-69877977D01*
X186677067Y-69881086D01*
X186674078Y-69884680D01*
X186674074Y-69884684D01*
X186629764Y-69937961D01*
X186624664Y-69943725D01*
X186577182Y-69994199D01*
X186577173Y-69994210D01*
X186573970Y-69997615D01*
X186561063Y-70016221D01*
X186546026Y-70037896D01*
X186539373Y-70046645D01*
X186508036Y-70084324D01*
X186505613Y-70088317D01*
X186469654Y-70147575D01*
X186465463Y-70154028D01*
X186423296Y-70214812D01*
X186401613Y-70258781D01*
X186396335Y-70268400D01*
X186370901Y-70310314D01*
X186369093Y-70314626D01*
X186342287Y-70378550D01*
X186339096Y-70385550D01*
X186311061Y-70442401D01*
X186306380Y-70451894D01*
X186291433Y-70498586D01*
X186287642Y-70508863D01*
X186268677Y-70554091D01*
X186267527Y-70558621D01*
X186250469Y-70625787D01*
X186248348Y-70633185D01*
X186227217Y-70699197D01*
X186225791Y-70703653D01*
X186217909Y-70752047D01*
X186215676Y-70762784D01*
X186203608Y-70810301D01*
X186203139Y-70814957D01*
X186203139Y-70814958D01*
X186196195Y-70883921D01*
X186195195Y-70891525D01*
X186183300Y-70964559D01*
X186183239Y-70969233D01*
X186182658Y-71013563D01*
X186182036Y-71024529D01*
X186181500Y-71029856D01*
X186181500Y-71101258D01*
X186181489Y-71102907D01*
X186180394Y-71186590D01*
X186179840Y-71228879D01*
X186180471Y-71233513D01*
X186180756Y-71238177D01*
X186180726Y-71238179D01*
X186181500Y-71249609D01*
X186181500Y-73727108D01*
X186181673Y-73729433D01*
X186181673Y-73729439D01*
X186195684Y-73917973D01*
X186196103Y-73923616D01*
X186254443Y-74181441D01*
X186256135Y-74185793D01*
X186256136Y-74185795D01*
X186326601Y-74366994D01*
X186350251Y-74427811D01*
X186352568Y-74431865D01*
X186352569Y-74431867D01*
X186373620Y-74468699D01*
X186481422Y-74657313D01*
X186645075Y-74864906D01*
X186774976Y-74987105D01*
X186811111Y-75021097D01*
X186837615Y-75046030D01*
X186841458Y-75048696D01*
X187050974Y-75194042D01*
X187050979Y-75194045D01*
X187054812Y-75196704D01*
X187059001Y-75198770D01*
X187059003Y-75198771D01*
X187287706Y-75311555D01*
X187287709Y-75311556D01*
X187291894Y-75313620D01*
X187296337Y-75315042D01*
X187296339Y-75315043D01*
X187417774Y-75353915D01*
X187543653Y-75394209D01*
X187610803Y-75405145D01*
X187799947Y-75435949D01*
X187799948Y-75435949D01*
X187804559Y-75436700D01*
X188051331Y-75439930D01*
X188057496Y-75440011D01*
X188059583Y-75440654D01*
X188061974Y-75440235D01*
X188064201Y-75440099D01*
X188068879Y-75440160D01*
X188330808Y-75404514D01*
X188335298Y-75403205D01*
X188335304Y-75403204D01*
X188443268Y-75371735D01*
X188584590Y-75330543D01*
X188588837Y-75328585D01*
X188588840Y-75328584D01*
X188679050Y-75286996D01*
X188824652Y-75219873D01*
X188872737Y-75188347D01*
X189041805Y-75077501D01*
X189041810Y-75077497D01*
X189045718Y-75074935D01*
X189201610Y-74935796D01*
X189265751Y-74905358D01*
X189336166Y-74914430D01*
X189361075Y-74928973D01*
X189403295Y-74960615D01*
X189539684Y-75011745D01*
X189601866Y-75018500D01*
X191398134Y-75018500D01*
X191460316Y-75011745D01*
X191596705Y-74960615D01*
X191640028Y-74928146D01*
X191706533Y-74903300D01*
X191775915Y-74918353D01*
X191801924Y-74937199D01*
X191891607Y-75021564D01*
X191917615Y-75046030D01*
X191921458Y-75048696D01*
X192130974Y-75194042D01*
X192130979Y-75194045D01*
X192134812Y-75196704D01*
X192139001Y-75198770D01*
X192139003Y-75198771D01*
X192367706Y-75311555D01*
X192367709Y-75311556D01*
X192371894Y-75313620D01*
X192376337Y-75315042D01*
X192376339Y-75315043D01*
X192497774Y-75353915D01*
X192623653Y-75394209D01*
X192690803Y-75405145D01*
X192879947Y-75435949D01*
X192879948Y-75435949D01*
X192884559Y-75436700D01*
X193131331Y-75439930D01*
X193137496Y-75440011D01*
X193139583Y-75440654D01*
X193141974Y-75440235D01*
X193144201Y-75440099D01*
X193148879Y-75440160D01*
X193410808Y-75404514D01*
X193415298Y-75403205D01*
X193415304Y-75403204D01*
X193523268Y-75371735D01*
X193664590Y-75330543D01*
X193668837Y-75328585D01*
X193668840Y-75328584D01*
X193759050Y-75286996D01*
X193904652Y-75219873D01*
X193952737Y-75188347D01*
X194121805Y-75077501D01*
X194121810Y-75077497D01*
X194125718Y-75074935D01*
X194281610Y-74935796D01*
X194345751Y-74905358D01*
X194416166Y-74914430D01*
X194441075Y-74928973D01*
X194483295Y-74960615D01*
X194619684Y-75011745D01*
X194681866Y-75018500D01*
X196478134Y-75018500D01*
X196540316Y-75011745D01*
X196676705Y-74960615D01*
X196720028Y-74928146D01*
X196786533Y-74903300D01*
X196855915Y-74918353D01*
X196881924Y-74937199D01*
X196971607Y-75021564D01*
X196997615Y-75046030D01*
X197001458Y-75048696D01*
X197210974Y-75194042D01*
X197210979Y-75194045D01*
X197214812Y-75196704D01*
X197219001Y-75198770D01*
X197219003Y-75198771D01*
X197447706Y-75311555D01*
X197447709Y-75311556D01*
X197451894Y-75313620D01*
X197456337Y-75315042D01*
X197456339Y-75315043D01*
X197577774Y-75353915D01*
X197703653Y-75394209D01*
X197770803Y-75405145D01*
X197959947Y-75435949D01*
X197959948Y-75435949D01*
X197964559Y-75436700D01*
X198211331Y-75439930D01*
X198217496Y-75440011D01*
X198219583Y-75440654D01*
X198221974Y-75440235D01*
X198224201Y-75440099D01*
X198228879Y-75440160D01*
X198490808Y-75404514D01*
X198495298Y-75403205D01*
X198495304Y-75403204D01*
X198603268Y-75371735D01*
X198744590Y-75330543D01*
X198748837Y-75328585D01*
X198748840Y-75328584D01*
X198839050Y-75286996D01*
X198984652Y-75219873D01*
X199032737Y-75188347D01*
X199201805Y-75077501D01*
X199201810Y-75077497D01*
X199205718Y-75074935D01*
X199361610Y-74935796D01*
X199425751Y-74905358D01*
X199496166Y-74914430D01*
X199521075Y-74928973D01*
X199563295Y-74960615D01*
X199699684Y-75011745D01*
X199761866Y-75018500D01*
X201558134Y-75018500D01*
X201620316Y-75011745D01*
X201756705Y-74960615D01*
X201800028Y-74928146D01*
X201866533Y-74903300D01*
X201935915Y-74918353D01*
X201961924Y-74937199D01*
X202051607Y-75021564D01*
X202077615Y-75046030D01*
X202081458Y-75048696D01*
X202290974Y-75194042D01*
X202290979Y-75194045D01*
X202294812Y-75196704D01*
X202299001Y-75198770D01*
X202299003Y-75198771D01*
X202527706Y-75311555D01*
X202527709Y-75311556D01*
X202531894Y-75313620D01*
X202536337Y-75315042D01*
X202536339Y-75315043D01*
X202657774Y-75353915D01*
X202783653Y-75394209D01*
X202850803Y-75405145D01*
X203039947Y-75435949D01*
X203039948Y-75435949D01*
X203044559Y-75436700D01*
X203291331Y-75439930D01*
X203297496Y-75440011D01*
X203299583Y-75440654D01*
X203301974Y-75440235D01*
X203304201Y-75440099D01*
X203308879Y-75440160D01*
X203570808Y-75404514D01*
X203575298Y-75403205D01*
X203575304Y-75403204D01*
X203683268Y-75371735D01*
X203824590Y-75330543D01*
X203828837Y-75328585D01*
X203828840Y-75328584D01*
X203919050Y-75286996D01*
X204064652Y-75219873D01*
X204112737Y-75188347D01*
X204281805Y-75077501D01*
X204281810Y-75077497D01*
X204285718Y-75074935D01*
X204441610Y-74935796D01*
X204505751Y-74905358D01*
X204576166Y-74914430D01*
X204601075Y-74928973D01*
X204643295Y-74960615D01*
X204779684Y-75011745D01*
X204841866Y-75018500D01*
X206638134Y-75018500D01*
X206700316Y-75011745D01*
X206836705Y-74960615D01*
X206880028Y-74928146D01*
X206946533Y-74903300D01*
X207015915Y-74918353D01*
X207041924Y-74937199D01*
X207131607Y-75021564D01*
X207157615Y-75046030D01*
X207161458Y-75048696D01*
X207370974Y-75194042D01*
X207370979Y-75194045D01*
X207374812Y-75196704D01*
X207379001Y-75198770D01*
X207379003Y-75198771D01*
X207607706Y-75311555D01*
X207607709Y-75311556D01*
X207611894Y-75313620D01*
X207616337Y-75315042D01*
X207616339Y-75315043D01*
X207737774Y-75353915D01*
X207863653Y-75394209D01*
X207930803Y-75405145D01*
X208119947Y-75435949D01*
X208119948Y-75435949D01*
X208124559Y-75436700D01*
X208371331Y-75439930D01*
X208377496Y-75440011D01*
X208379583Y-75440654D01*
X208381974Y-75440235D01*
X208384201Y-75440099D01*
X208388879Y-75440160D01*
X208650808Y-75404514D01*
X208655298Y-75403205D01*
X208655304Y-75403204D01*
X208763268Y-75371735D01*
X208904590Y-75330543D01*
X208908837Y-75328585D01*
X208908840Y-75328584D01*
X208999050Y-75286996D01*
X209144652Y-75219873D01*
X209192737Y-75188347D01*
X209361805Y-75077501D01*
X209361810Y-75077497D01*
X209365718Y-75074935D01*
X209521610Y-74935796D01*
X209585751Y-74905358D01*
X209656166Y-74914430D01*
X209681075Y-74928973D01*
X209723295Y-74960615D01*
X209859684Y-75011745D01*
X209921866Y-75018500D01*
X211718134Y-75018500D01*
X211780316Y-75011745D01*
X211916705Y-74960615D01*
X211960028Y-74928146D01*
X212026533Y-74903300D01*
X212095915Y-74918353D01*
X212121924Y-74937199D01*
X212211607Y-75021564D01*
X212237615Y-75046030D01*
X212241458Y-75048696D01*
X212450974Y-75194042D01*
X212450979Y-75194045D01*
X212454812Y-75196704D01*
X212459001Y-75198770D01*
X212459003Y-75198771D01*
X212687706Y-75311555D01*
X212687709Y-75311556D01*
X212691894Y-75313620D01*
X212696337Y-75315042D01*
X212696339Y-75315043D01*
X212817774Y-75353915D01*
X212943653Y-75394209D01*
X213010803Y-75405145D01*
X213199947Y-75435949D01*
X213199948Y-75435949D01*
X213204559Y-75436700D01*
X213451331Y-75439930D01*
X213457496Y-75440011D01*
X213459583Y-75440654D01*
X213461974Y-75440235D01*
X213464201Y-75440099D01*
X213468879Y-75440160D01*
X213730808Y-75404514D01*
X213735298Y-75403205D01*
X213735304Y-75403204D01*
X213843268Y-75371735D01*
X213984590Y-75330543D01*
X213988837Y-75328585D01*
X213988840Y-75328584D01*
X214079050Y-75286996D01*
X214224652Y-75219873D01*
X214272737Y-75188347D01*
X214441805Y-75077501D01*
X214441810Y-75077497D01*
X214445718Y-75074935D01*
X214601610Y-74935796D01*
X214665751Y-74905358D01*
X214736166Y-74914430D01*
X214761075Y-74928973D01*
X214803295Y-74960615D01*
X214939684Y-75011745D01*
X215001866Y-75018500D01*
X216798134Y-75018500D01*
X216860316Y-75011745D01*
X216996705Y-74960615D01*
X217113261Y-74873261D01*
X217200615Y-74756705D01*
X217251745Y-74620316D01*
X217258500Y-74558134D01*
X217258500Y-73927966D01*
X243778257Y-73927966D01*
X243808565Y-74062446D01*
X243811645Y-74072275D01*
X243891770Y-74269603D01*
X243896413Y-74278794D01*
X244007694Y-74460388D01*
X244013777Y-74468699D01*
X244153213Y-74629667D01*
X244160580Y-74636883D01*
X244324434Y-74772916D01*
X244332881Y-74778831D01*
X244516756Y-74886279D01*
X244526042Y-74890729D01*
X244725001Y-74966703D01*
X244734899Y-74969579D01*
X244838250Y-74990606D01*
X244852299Y-74989410D01*
X244856000Y-74979065D01*
X244856000Y-74978517D01*
X245364000Y-74978517D01*
X245368064Y-74992359D01*
X245381478Y-74994393D01*
X245388184Y-74993534D01*
X245398262Y-74991392D01*
X245602255Y-74930191D01*
X245611842Y-74926433D01*
X245803095Y-74832739D01*
X245811945Y-74827464D01*
X245985328Y-74703792D01*
X245993200Y-74697139D01*
X246144052Y-74546812D01*
X246150730Y-74538965D01*
X246275003Y-74366020D01*
X246280313Y-74357183D01*
X246374670Y-74166267D01*
X246378469Y-74156672D01*
X246440377Y-73952910D01*
X246442555Y-73942837D01*
X246443986Y-73931962D01*
X246441775Y-73917778D01*
X246428617Y-73914000D01*
X245382115Y-73914000D01*
X245366876Y-73918475D01*
X245365671Y-73919865D01*
X245364000Y-73927548D01*
X245364000Y-74978517D01*
X244856000Y-74978517D01*
X244856000Y-73932115D01*
X244851525Y-73916876D01*
X244850135Y-73915671D01*
X244842452Y-73914000D01*
X243793225Y-73914000D01*
X243779694Y-73917973D01*
X243778257Y-73927966D01*
X217258500Y-73927966D01*
X217258500Y-73024500D01*
X217278502Y-72956379D01*
X217332158Y-72909886D01*
X217384500Y-72898500D01*
X221178522Y-72898500D01*
X221185665Y-72898703D01*
X221260450Y-72902950D01*
X221260457Y-72902950D01*
X221265126Y-72903215D01*
X221303161Y-72899720D01*
X221380113Y-72892650D01*
X221382303Y-72892468D01*
X221492947Y-72884245D01*
X221492961Y-72884243D01*
X221497616Y-72883897D01*
X221502173Y-72882866D01*
X221504786Y-72882275D01*
X221521057Y-72879698D01*
X221528360Y-72879027D01*
X221551987Y-72873246D01*
X221640582Y-72851567D01*
X221642722Y-72851063D01*
X221743420Y-72828277D01*
X221755441Y-72825557D01*
X221762283Y-72822897D01*
X221777993Y-72817943D01*
X221785128Y-72816197D01*
X221892075Y-72772444D01*
X221894115Y-72771630D01*
X221930303Y-72757557D01*
X222001811Y-72729749D01*
X222005860Y-72727435D01*
X222005872Y-72727429D01*
X222008184Y-72726107D01*
X222022993Y-72718884D01*
X222025453Y-72717878D01*
X222025460Y-72717875D01*
X222029788Y-72716104D01*
X222129099Y-72657020D01*
X222130997Y-72655913D01*
X222227247Y-72600902D01*
X222227248Y-72600901D01*
X222231313Y-72598578D01*
X222237078Y-72594033D01*
X222250656Y-72584701D01*
X222252947Y-72583338D01*
X222252946Y-72583338D01*
X222256966Y-72580947D01*
X222260584Y-72577991D01*
X222260594Y-72577984D01*
X222346462Y-72507826D01*
X222348178Y-72506449D01*
X222352272Y-72503222D01*
X222359508Y-72497517D01*
X222435232Y-72437822D01*
X222435237Y-72437817D01*
X222438906Y-72434925D01*
X222511413Y-72357848D01*
X222514093Y-72355086D01*
X227013774Y-67855405D01*
X227076086Y-67821379D01*
X227102869Y-67818500D01*
X243768275Y-67818500D01*
X243836396Y-67838502D01*
X243882889Y-67892158D01*
X243892993Y-67962432D01*
X243882564Y-67997547D01*
X243830688Y-68109305D01*
X243770989Y-68324570D01*
X243747251Y-68546695D01*
X243747548Y-68551848D01*
X243747548Y-68551851D01*
X243753011Y-68646590D01*
X243760110Y-68769715D01*
X243761247Y-68774761D01*
X243761248Y-68774767D01*
X243781119Y-68862939D01*
X243809222Y-68987639D01*
X243893266Y-69194616D01*
X243895965Y-69199020D01*
X244004906Y-69376796D01*
X244009987Y-69385088D01*
X244156250Y-69553938D01*
X244328126Y-69696632D01*
X244347885Y-69708178D01*
X244401445Y-69739476D01*
X244450169Y-69791114D01*
X244463240Y-69860897D01*
X244436509Y-69926669D01*
X244396055Y-69960027D01*
X244383607Y-69966507D01*
X244379474Y-69969610D01*
X244379471Y-69969612D01*
X244231477Y-70080729D01*
X244204965Y-70100635D01*
X244160108Y-70147575D01*
X244059554Y-70252799D01*
X244050629Y-70262138D01*
X244047715Y-70266410D01*
X244047714Y-70266411D01*
X244014824Y-70314626D01*
X243924743Y-70446680D01*
X243909003Y-70480590D01*
X243838171Y-70633185D01*
X243830688Y-70649305D01*
X243770989Y-70864570D01*
X243770440Y-70869707D01*
X243769456Y-70878913D01*
X243747251Y-71086695D01*
X243747548Y-71091848D01*
X243747548Y-71091851D01*
X243753011Y-71186590D01*
X243760110Y-71309715D01*
X243761247Y-71314761D01*
X243761248Y-71314767D01*
X243763800Y-71326090D01*
X243809222Y-71527639D01*
X243855083Y-71640581D01*
X243884287Y-71712502D01*
X243893266Y-71734616D01*
X243918420Y-71775663D01*
X243994730Y-71900190D01*
X244009987Y-71925088D01*
X244156250Y-72093938D01*
X244328126Y-72236632D01*
X244397208Y-72277000D01*
X244401955Y-72279774D01*
X244450679Y-72331412D01*
X244463750Y-72401195D01*
X244437019Y-72466967D01*
X244396562Y-72500327D01*
X244388457Y-72504546D01*
X244379738Y-72510036D01*
X244209433Y-72637905D01*
X244201726Y-72644748D01*
X244054590Y-72798717D01*
X244048104Y-72806727D01*
X243928098Y-72982649D01*
X243923000Y-72991623D01*
X243833338Y-73184783D01*
X243829775Y-73194470D01*
X243774389Y-73394183D01*
X243775912Y-73402607D01*
X243788292Y-73406000D01*
X246428344Y-73406000D01*
X246441875Y-73402027D01*
X246443180Y-73392947D01*
X246401214Y-73225875D01*
X246397894Y-73216124D01*
X246312972Y-73020814D01*
X246308105Y-73011739D01*
X246192426Y-72832926D01*
X246186136Y-72824757D01*
X246042806Y-72667240D01*
X246035273Y-72660215D01*
X245868139Y-72528222D01*
X245859556Y-72522520D01*
X245822602Y-72502120D01*
X245772631Y-72451687D01*
X245757859Y-72382245D01*
X245782975Y-72315839D01*
X245810327Y-72289232D01*
X245833797Y-72272491D01*
X245989860Y-72161173D01*
X245995448Y-72155605D01*
X246144435Y-72007137D01*
X246148096Y-72003489D01*
X246207594Y-71920689D01*
X246275435Y-71826277D01*
X246278453Y-71822077D01*
X246296618Y-71785324D01*
X246375136Y-71626453D01*
X246375137Y-71626451D01*
X246377430Y-71621811D01*
X246442370Y-71408069D01*
X246471529Y-71186590D01*
X246471611Y-71183240D01*
X246473074Y-71123365D01*
X246473074Y-71123361D01*
X246473156Y-71120000D01*
X246454852Y-70897361D01*
X246400431Y-70680702D01*
X246311354Y-70475840D01*
X246248414Y-70378550D01*
X246192822Y-70292617D01*
X246192820Y-70292614D01*
X246190014Y-70288277D01*
X246039670Y-70123051D01*
X246035619Y-70119852D01*
X246035615Y-70119848D01*
X245868414Y-69987800D01*
X245868410Y-69987798D01*
X245864359Y-69984598D01*
X245823053Y-69961796D01*
X245773084Y-69911364D01*
X245758312Y-69841921D01*
X245783428Y-69775516D01*
X245810780Y-69748909D01*
X245875842Y-69702501D01*
X245989860Y-69621173D01*
X246008296Y-69602802D01*
X246098840Y-69512573D01*
X246148096Y-69463489D01*
X246182123Y-69416136D01*
X246275435Y-69286277D01*
X246278453Y-69282077D01*
X246294174Y-69250269D01*
X246375136Y-69086453D01*
X246375137Y-69086451D01*
X246377430Y-69081811D01*
X246442370Y-68868069D01*
X246471529Y-68646590D01*
X246471672Y-68640739D01*
X246473074Y-68583365D01*
X246473074Y-68583361D01*
X246473156Y-68580000D01*
X246454852Y-68357361D01*
X246400431Y-68140702D01*
X246311354Y-67935840D01*
X246232227Y-67813528D01*
X246192822Y-67752617D01*
X246192820Y-67752614D01*
X246190014Y-67748277D01*
X246186540Y-67744459D01*
X246186533Y-67744450D01*
X246124780Y-67676585D01*
X246093728Y-67612739D01*
X246102122Y-67542240D01*
X246139965Y-67492838D01*
X246145820Y-67488222D01*
X246154717Y-67481817D01*
X246195718Y-67454935D01*
X246231694Y-67422826D01*
X246250912Y-67405673D01*
X246256807Y-67400727D01*
X246311238Y-67357817D01*
X246311241Y-67357814D01*
X246314906Y-67354925D01*
X246318106Y-67351523D01*
X246318114Y-67351516D01*
X246348494Y-67319222D01*
X246356365Y-67311554D01*
X246389441Y-67282032D01*
X246389450Y-67282023D01*
X246392933Y-67278914D01*
X246395922Y-67275320D01*
X246395926Y-67275316D01*
X246440236Y-67222039D01*
X246445336Y-67216275D01*
X246492818Y-67165801D01*
X246492827Y-67165790D01*
X246496030Y-67162385D01*
X246523975Y-67122103D01*
X246530627Y-67113355D01*
X246558974Y-67079271D01*
X246561964Y-67075676D01*
X246600346Y-67012425D01*
X246604537Y-67005972D01*
X246644038Y-66949031D01*
X246646704Y-66945188D01*
X246668387Y-66901219D01*
X246673667Y-66891597D01*
X246696671Y-66853687D01*
X246699099Y-66849686D01*
X246727713Y-66781450D01*
X246730904Y-66774450D01*
X246761547Y-66712310D01*
X246761548Y-66712308D01*
X246763620Y-66708106D01*
X246778567Y-66661414D01*
X246782358Y-66651137D01*
X246801323Y-66605909D01*
X246819531Y-66534213D01*
X246821652Y-66526815D01*
X246842783Y-66460803D01*
X246842784Y-66460798D01*
X246844209Y-66456347D01*
X246852091Y-66407953D01*
X246854325Y-66397213D01*
X246865240Y-66354236D01*
X246865241Y-66354233D01*
X246866392Y-66349699D01*
X246873805Y-66276079D01*
X246874805Y-66268475D01*
X246886700Y-66195441D01*
X246887342Y-66146437D01*
X246887964Y-66135471D01*
X246888183Y-66133290D01*
X246888500Y-66130144D01*
X246888500Y-66058742D01*
X246888511Y-66057093D01*
X246890011Y-65942504D01*
X246890654Y-65940417D01*
X246890235Y-65938026D01*
X246890099Y-65935799D01*
X246890160Y-65931121D01*
X246889529Y-65926486D01*
X246889244Y-65921823D01*
X246889274Y-65921821D01*
X246888500Y-65910391D01*
X246888500Y-30498742D01*
X246888511Y-30497093D01*
X246890011Y-30382504D01*
X246890654Y-30380417D01*
X246890235Y-30378026D01*
X246890099Y-30375800D01*
X246890160Y-30371121D01*
X246880183Y-30297811D01*
X246879380Y-30290174D01*
X246874244Y-30221049D01*
X246874243Y-30221044D01*
X246873897Y-30216384D01*
X246863078Y-30168572D01*
X246861124Y-30157763D01*
X246855146Y-30113834D01*
X246855145Y-30113830D01*
X246854514Y-30109192D01*
X246833802Y-30038135D01*
X246831881Y-30030704D01*
X246816589Y-29963119D01*
X246816588Y-29963117D01*
X246815557Y-29958559D01*
X246797793Y-29912878D01*
X246794262Y-29902476D01*
X246781852Y-29859902D01*
X246780543Y-29855410D01*
X246749561Y-29788204D01*
X246746558Y-29781129D01*
X246721446Y-29716551D01*
X246721442Y-29716543D01*
X246719749Y-29712189D01*
X246717431Y-29708133D01*
X246717427Y-29708125D01*
X246695424Y-29669628D01*
X246690391Y-29659856D01*
X246669873Y-29615348D01*
X246629310Y-29553480D01*
X246625289Y-29546918D01*
X246590902Y-29486753D01*
X246590901Y-29486752D01*
X246588578Y-29482687D01*
X246558219Y-29444176D01*
X246551817Y-29435283D01*
X246524935Y-29394282D01*
X246475673Y-29339088D01*
X246470727Y-29333193D01*
X246427817Y-29278762D01*
X246427814Y-29278759D01*
X246424925Y-29275094D01*
X246421523Y-29271894D01*
X246421516Y-29271886D01*
X246389222Y-29241506D01*
X246381554Y-29233635D01*
X246352032Y-29200559D01*
X246352023Y-29200550D01*
X246348914Y-29197067D01*
X246345320Y-29194078D01*
X246345316Y-29194074D01*
X246292039Y-29149764D01*
X246286275Y-29144664D01*
X246235801Y-29097182D01*
X246235790Y-29097173D01*
X246232385Y-29093970D01*
X246192103Y-29066025D01*
X246183355Y-29059373D01*
X246149271Y-29031026D01*
X246145676Y-29028036D01*
X246082425Y-28989654D01*
X246075972Y-28985463D01*
X246019031Y-28945962D01*
X246015188Y-28943296D01*
X245971219Y-28921613D01*
X245961597Y-28916333D01*
X245923687Y-28893329D01*
X245919686Y-28890901D01*
X245887201Y-28877279D01*
X245851450Y-28862287D01*
X245844450Y-28859096D01*
X245782310Y-28828453D01*
X245782308Y-28828452D01*
X245778106Y-28826380D01*
X245731414Y-28811433D01*
X245721137Y-28807642D01*
X245675909Y-28788677D01*
X245604213Y-28770469D01*
X245596815Y-28768348D01*
X245530803Y-28747217D01*
X245530798Y-28747216D01*
X245526347Y-28745791D01*
X245477953Y-28737909D01*
X245467213Y-28735675D01*
X245424236Y-28724760D01*
X245424233Y-28724759D01*
X245419699Y-28723608D01*
X245415043Y-28723139D01*
X245415042Y-28723139D01*
X245346079Y-28716195D01*
X245338475Y-28715195D01*
X245265441Y-28703300D01*
X245228569Y-28702817D01*
X245216437Y-28702658D01*
X245205471Y-28702036D01*
X245204811Y-28701970D01*
X245200144Y-28701500D01*
X245128742Y-28701500D01*
X245127093Y-28701489D01*
X245005798Y-28699901D01*
X245005795Y-28699901D01*
X245001121Y-28699840D01*
X244996487Y-28700471D01*
X244991823Y-28700756D01*
X244991821Y-28700726D01*
X244980391Y-28701500D01*
X244728500Y-28701500D01*
X244660379Y-28681498D01*
X244613886Y-28627842D01*
X244602500Y-28575500D01*
X244602500Y-28458500D01*
X244622502Y-28390379D01*
X244676158Y-28343886D01*
X244728500Y-28332500D01*
X246312134Y-28332500D01*
X246374316Y-28325745D01*
X246510705Y-28274615D01*
X246627261Y-28187261D01*
X246714615Y-28070705D01*
X246765745Y-27934316D01*
X246772500Y-27872134D01*
X246772500Y-26034000D01*
X246792502Y-25965879D01*
X246846158Y-25919386D01*
X246898500Y-25908000D01*
X247016000Y-25908000D01*
X247084121Y-25928002D01*
G37*
G04 #@! TD.AperFunction*
G04 #@! TA.AperFunction,Conductor*
G36*
X230395809Y-51633445D02*
G01*
X230416783Y-51650348D01*
X234341095Y-55574659D01*
X234375121Y-55636971D01*
X234378000Y-55663754D01*
X234378000Y-57645670D01*
X234357998Y-57713791D01*
X234304342Y-57760284D01*
X234234068Y-57770388D01*
X234169488Y-57740894D01*
X234162905Y-57734765D01*
X229212385Y-52784245D01*
X229205242Y-52776478D01*
X229177390Y-52743520D01*
X229172985Y-52738307D01*
X229110934Y-52690866D01*
X229108514Y-52688968D01*
X229047650Y-52640031D01*
X229041540Y-52636998D01*
X229039504Y-52635696D01*
X229039048Y-52635377D01*
X229038390Y-52634967D01*
X229037900Y-52634698D01*
X229035834Y-52633447D01*
X229030414Y-52629303D01*
X228959646Y-52596304D01*
X228956875Y-52594970D01*
X228947449Y-52590291D01*
X228886898Y-52560233D01*
X228880273Y-52558581D01*
X228878006Y-52557747D01*
X228877481Y-52557528D01*
X228876777Y-52557279D01*
X228876227Y-52557117D01*
X228873943Y-52556339D01*
X228867761Y-52553457D01*
X228861103Y-52551969D01*
X228861095Y-52551966D01*
X228791542Y-52536419D01*
X228788546Y-52535711D01*
X228719385Y-52518467D01*
X228719382Y-52518467D01*
X228712762Y-52516816D01*
X228705941Y-52516625D01*
X228703544Y-52516297D01*
X228702430Y-52516096D01*
X228697656Y-52515434D01*
X228692616Y-52514307D01*
X228687125Y-52514000D01*
X228613711Y-52514000D01*
X228610193Y-52513951D01*
X228609283Y-52513926D01*
X228533365Y-52511805D01*
X228526658Y-52513084D01*
X228520323Y-52513594D01*
X228510216Y-52514000D01*
X149763909Y-52514000D01*
X149721642Y-52506699D01*
X149686854Y-52494311D01*
X149686849Y-52494310D01*
X149680219Y-52491949D01*
X149673231Y-52491116D01*
X149673228Y-52491115D01*
X149557655Y-52477334D01*
X149510357Y-52471694D01*
X149503354Y-52472430D01*
X149503353Y-52472430D01*
X149458958Y-52477096D01*
X149340228Y-52489575D01*
X149333560Y-52491845D01*
X149288226Y-52507278D01*
X149247620Y-52514000D01*
X48300033Y-52514000D01*
X48289489Y-52513558D01*
X48280000Y-52512761D01*
X48239700Y-52509377D01*
X48162257Y-52519711D01*
X48159257Y-52520073D01*
X48117502Y-52524609D01*
X48088366Y-52527774D01*
X48088364Y-52527774D01*
X48081583Y-52528511D01*
X48075117Y-52530687D01*
X48072767Y-52531204D01*
X48072218Y-52531301D01*
X48071459Y-52531478D01*
X48070914Y-52531636D01*
X48068575Y-52532211D01*
X48061810Y-52533113D01*
X47988404Y-52559831D01*
X47985569Y-52560824D01*
X47911489Y-52585754D01*
X47905639Y-52589269D01*
X47903427Y-52590291D01*
X47902922Y-52590499D01*
X47902239Y-52590825D01*
X47901723Y-52591106D01*
X47899582Y-52592160D01*
X47893166Y-52594495D01*
X47887401Y-52598153D01*
X47887402Y-52598153D01*
X47827241Y-52636331D01*
X47824623Y-52637948D01*
X47821157Y-52640031D01*
X47757656Y-52678186D01*
X47752699Y-52682874D01*
X47750763Y-52684343D01*
X47749840Y-52684984D01*
X47745995Y-52687892D01*
X47741636Y-52690658D01*
X47737536Y-52694323D01*
X47685613Y-52746246D01*
X47683091Y-52748699D01*
X47653716Y-52776478D01*
X47627260Y-52801496D01*
X47623426Y-52807137D01*
X47619297Y-52811989D01*
X47612440Y-52819419D01*
X38879860Y-61552000D01*
X30174765Y-70257095D01*
X30112453Y-70291121D01*
X30085670Y-70294000D01*
X29080926Y-70294000D01*
X29012805Y-70273998D01*
X28987732Y-70252799D01*
X28873151Y-70126876D01*
X28873145Y-70126870D01*
X28869670Y-70123051D01*
X28865619Y-70119852D01*
X28865615Y-70119848D01*
X28698414Y-69987800D01*
X28698410Y-69987798D01*
X28694359Y-69984598D01*
X28653053Y-69961796D01*
X28603084Y-69911364D01*
X28588312Y-69841921D01*
X28613428Y-69775516D01*
X28640780Y-69748909D01*
X28705842Y-69702501D01*
X28819860Y-69621173D01*
X28838296Y-69602802D01*
X28928840Y-69512573D01*
X28978096Y-69463489D01*
X29012123Y-69416136D01*
X29105435Y-69286277D01*
X29108453Y-69282077D01*
X29124174Y-69250269D01*
X29205136Y-69086453D01*
X29205137Y-69086451D01*
X29207430Y-69081811D01*
X29272370Y-68868069D01*
X29301529Y-68646590D01*
X29301672Y-68640739D01*
X29303074Y-68583365D01*
X29303074Y-68583361D01*
X29303156Y-68580000D01*
X29293122Y-68457956D01*
X29307475Y-68388427D01*
X29329603Y-68358538D01*
X45950035Y-51738105D01*
X46012347Y-51704079D01*
X46039130Y-51701200D01*
X154738187Y-51701200D01*
X154748732Y-51701642D01*
X154798520Y-51705823D01*
X154805280Y-51704921D01*
X154805281Y-51704921D01*
X154875936Y-51695493D01*
X154878996Y-51695123D01*
X154879365Y-51695083D01*
X154885221Y-51694447D01*
X154898825Y-51693710D01*
X155377579Y-51693710D01*
X155388124Y-51694152D01*
X155437912Y-51698333D01*
X155515355Y-51687999D01*
X155518355Y-51687637D01*
X155560110Y-51683101D01*
X155589246Y-51679936D01*
X155589248Y-51679936D01*
X155596029Y-51679199D01*
X155602495Y-51677023D01*
X155604845Y-51676506D01*
X155605395Y-51676409D01*
X155606162Y-51676230D01*
X155606697Y-51676075D01*
X155609044Y-51675499D01*
X155615802Y-51674597D01*
X155689154Y-51647899D01*
X155692055Y-51646884D01*
X155766122Y-51621957D01*
X155766511Y-51623113D01*
X155810493Y-51613443D01*
X230327688Y-51613443D01*
X230395809Y-51633445D01*
G37*
G04 #@! TD.AperFunction*
M02*
