M48
INCH,TZ
T1C0.0079
T2C0.0354
T3C0.0394
%
G90
G05
T1
X12000Y-14000
X12000Y-15000
X12000Y-16000
X12000Y-17000
X12000Y-18000
X12000Y-25000
X13000Y-24000
X13300Y-18800
X14000Y-23000
X14000Y-27000
X15000Y-22000
X15000Y-26000
X16000Y-21000
X16000Y-25000
X17000Y-20000
X17000Y-24000
X18000Y-23000
X18330Y-20500
X18500Y-18200
X19000Y-22000
X23200Y-17900
X24500Y-17400
X26750Y-18910
X26970Y-21000
X27000Y-12000
X27240Y-19120
X27470Y-20030
X27720Y-19500
X28000Y-23000
X28000Y-24000
X28000Y-25000
X28000Y-26000
X28000Y-27000
X28255Y-19725
X28260Y-14160
X28380Y-12000
X28760Y-14160
X29250Y-14150
X29250Y-17831
X29750Y-17831
X30250Y-17831
X30750Y-17831
X32996Y-21754
X33215Y-19125
X33496Y-20996
X34030Y-20030
X34239Y-19461
X34500Y-18900
X37500Y-23500
X38000Y-23600
X38400Y-24300
X38500Y-23200
X39030Y-26650
X39600Y-25700
X39970Y-27620
X40600Y-27000
X41010Y-28120
X41500Y-27500
X45000Y-23000
X45000Y-24000
X45000Y-25000
X45000Y-26000
X45000Y-27000
X46300Y-12000
X46799Y-19725
X47000Y-21750
X47870Y-16010
X47900Y-19500
X48600Y-19200
X48860Y-21000
X49000Y-18900
X49180Y-20030
X49370Y-24480
X49630Y-18900
X49882Y-24380
X50400Y-24390
X51000Y-14000
X51000Y-15000
X51000Y-16000
X51000Y-17000
X53400Y-16300
X54000Y-23000
X54000Y-24000
X54000Y-25000
X54000Y-26000
X54000Y-27000
X54020Y-20500
X54300Y-12000
X57000Y-21750
X57800Y-16800
X58860Y-20960
X59070Y-20030
X59370Y-21750
X59628Y-18872
X59700Y-12000
X59900Y-21000
X60095Y-19125
X60320Y-20030
X60579Y-19479
X61064Y-19726
X61340Y-12000
X61600Y-21750
X62100Y-17831
X62500Y-15500
X62600Y-17831
X63100Y-14900
X63100Y-17831
X63600Y-14400
X63600Y-17831
X64100Y-14169
X65000Y-23000
X65000Y-24000
X65000Y-25000
X65000Y-26000
X65000Y-27000
X65200Y-16700
X67000Y-13000
X67100Y-16260
X68000Y-21750
X68400Y-17300
X68679Y-18900
X69106Y-21006
X69275Y-19995
X69505Y-19125
X70000Y-13000
X71500Y-17800
X73000Y-13000
X73000Y-18000
X73000Y-23000
X73000Y-24000
X73000Y-25000
X73000Y-26000
X73000Y-27000
X74000Y-28000
X74004Y-21754
X74580Y-18900
X74600Y-12000
X74900Y-21000
X75105Y-19125
X75355Y-19995
X75636Y-19506
X75900Y-12000
X76000Y-19650
X76320Y-13035
X77100Y-16900
X77269Y-13562
X77460Y-20500
X77650Y-17100
X79090Y-17980
X83400Y-14200
X85990Y-20500
X86000Y-13000
X86000Y-14000
X86000Y-18000
X86000Y-19000
X86000Y-22000
X86000Y-23000
X86000Y-24000
X86000Y-25000
X86000Y-26000
X86000Y-27000
X88400Y-15000
X90000Y-27000
X91000Y-27000
X92000Y-23500
X92000Y-27000
X92210Y-22150
X92600Y-22900
X93000Y-27000
X93600Y-15600
X95300Y-16650
T2
X10600Y-10600
X11600Y-10600
X15600Y-10600
X16600Y-10600
X20600Y-10600
X21600Y-10600
X25600Y-10600
X26600Y-10600
X30600Y-10600
X31600Y-10600
X35600Y-10600
X36600Y-10600
X40600Y-10600
X41600Y-10600
X45600Y-10600
X46600Y-10600
X50600Y-10600
X51600Y-10600
X55600Y-10600
X56600Y-10600
X60600Y-10600
X61600Y-10600
X65600Y-10600
X66600Y-10600
X70600Y-10600
X71600Y-10600
X75600Y-10600
X76600Y-10600
X80600Y-10600
X81600Y-10600
X85600Y-10600
X86600Y-10600
X90600Y-10600
X91600Y-10600
X95600Y-10600
X96600Y-10600
T3
X11000Y-26000
X11000Y-27000
X11000Y-28000
X11000Y-29000
X21504Y-28990
X22504Y-28990
X23504Y-28990
X24504Y-28990
X27500Y-29000
X28500Y-29000
X29500Y-29000
X30500Y-29000
X31500Y-29000
X32500Y-29000
X33500Y-29000
X34500Y-29000
X35500Y-29000
X36500Y-29000
X37500Y-29000
X38500Y-29000
X39500Y-29000
X40500Y-29000
X41500Y-29000
X42500Y-29000
X43500Y-29000
X45500Y-29000
X46500Y-29000
X47500Y-29000
X48500Y-29000
X49500Y-29000
X50500Y-29000
X51500Y-29000
X52500Y-29000
X53500Y-29000
X54500Y-29000
X56500Y-29000
X57500Y-29000
X58500Y-29000
X59500Y-29000
X60500Y-29000
X61500Y-29000
X62500Y-29000
X63500Y-29000
X64500Y-29000
X65500Y-29000
X68750Y-29000
X69750Y-29000
X74000Y-29000
X75000Y-29000
X76000Y-29000
X77000Y-29000
X78000Y-29000
X79000Y-29000
X80000Y-29000
X81000Y-29000
X82000Y-29000
X83000Y-29000
X84000Y-29000
X85000Y-29000
X96500Y-26000
X96500Y-27000
X96500Y-28000
X96500Y-29000
T0
M30
