G04 #@! TF.GenerationSoftware,KiCad,Pcbnew,(6.0.1-0)*
G04 #@! TF.CreationDate,2022-02-06T20:22:52-08:00*
G04 #@! TF.ProjectId,led-driver,6c65642d-6472-4697-9665-722e6b696361,rev?*
G04 #@! TF.SameCoordinates,Original*
G04 #@! TF.FileFunction,Soldermask,Bot*
G04 #@! TF.FilePolarity,Negative*
%FSLAX46Y46*%
G04 Gerber Fmt 4.6, Leading zero omitted, Abs format (unit mm)*
G04 Created by KiCad (PCBNEW (6.0.1-0)) date 2022-02-06 20:22:52*
%MOMM*%
%LPD*%
G01*
G04 APERTURE LIST*
%ADD10R,1.700000X1.700000*%
%ADD11O,1.700000X1.700000*%
%ADD12C,3.700000*%
%ADD13R,1.800000X1.800000*%
%ADD14C,1.800000*%
G04 APERTURE END LIST*
D10*
X69850000Y-73660000D03*
D11*
X72390000Y-73660000D03*
X74930000Y-73660000D03*
X77470000Y-73660000D03*
X80010000Y-73660000D03*
X82550000Y-73660000D03*
X85090000Y-73660000D03*
X87630000Y-73660000D03*
X90170000Y-73660000D03*
X92710000Y-73660000D03*
X95250000Y-73660000D03*
X97790000Y-73660000D03*
X100330000Y-73660000D03*
X102870000Y-73660000D03*
X105410000Y-73660000D03*
X107950000Y-73660000D03*
X110490000Y-73660000D03*
D10*
X143510000Y-73660000D03*
D11*
X146050000Y-73660000D03*
X148590000Y-73660000D03*
X151130000Y-73660000D03*
X153670000Y-73660000D03*
X156210000Y-73660000D03*
X158750000Y-73660000D03*
X161290000Y-73660000D03*
X163830000Y-73660000D03*
X166370000Y-73660000D03*
X138430000Y-73660000D03*
X135890000Y-73660000D03*
X133350000Y-73660000D03*
X130810000Y-73660000D03*
X128270000Y-73660000D03*
X125730000Y-73660000D03*
X123190000Y-73660000D03*
X120650000Y-73660000D03*
X118110000Y-73660000D03*
D10*
X115570000Y-73660000D03*
D12*
X38100000Y-79375000D03*
X234950000Y-79375000D03*
D13*
X29464000Y-26924000D03*
D14*
X26924000Y-26924000D03*
D13*
X42164000Y-26924000D03*
D14*
X39624000Y-26924000D03*
D13*
X54864000Y-26924000D03*
D14*
X52324000Y-26924000D03*
D13*
X67564000Y-26924000D03*
D14*
X65024000Y-26924000D03*
D13*
X80264000Y-26924000D03*
D14*
X77724000Y-26924000D03*
D13*
X92964000Y-26924000D03*
D14*
X90424000Y-26924000D03*
D13*
X105664000Y-26924000D03*
D14*
X103124000Y-26924000D03*
D13*
X156464000Y-26924000D03*
D14*
X153924000Y-26924000D03*
D13*
X169164000Y-26924000D03*
D14*
X166624000Y-26924000D03*
D13*
X181864000Y-26924000D03*
D14*
X179324000Y-26924000D03*
D13*
X207264000Y-26924000D03*
D14*
X204724000Y-26924000D03*
D13*
X219964000Y-26924000D03*
D14*
X217424000Y-26924000D03*
D13*
X232664000Y-26924000D03*
D14*
X230124000Y-26924000D03*
D13*
X245364000Y-26924000D03*
D14*
X242824000Y-26924000D03*
D10*
X195580000Y-73660000D03*
D11*
X193040000Y-73660000D03*
D10*
X200660000Y-73660000D03*
D11*
X198120000Y-73660000D03*
D10*
X205740000Y-73660000D03*
D11*
X203200000Y-73660000D03*
D10*
X210820000Y-73660000D03*
D11*
X208280000Y-73660000D03*
D10*
X27940000Y-66040000D03*
D11*
X27940000Y-68580000D03*
X27940000Y-71120000D03*
X27940000Y-73660000D03*
D13*
X194564000Y-26924000D03*
D14*
X192024000Y-26924000D03*
D13*
X131064000Y-26924000D03*
D14*
X128524000Y-26924000D03*
D13*
X118364000Y-26924000D03*
D14*
X115824000Y-26924000D03*
D10*
X190500000Y-73660000D03*
D11*
X187960000Y-73660000D03*
D10*
X215900000Y-73660000D03*
D11*
X213360000Y-73660000D03*
D13*
X143764000Y-26924000D03*
D14*
X141224000Y-26924000D03*
D10*
X245110000Y-66040000D03*
D11*
X245110000Y-68580000D03*
X245110000Y-71120000D03*
X245110000Y-73660000D03*
X177165000Y-73660000D03*
D10*
X174625000Y-73660000D03*
X54620000Y-73635000D03*
D11*
X57160000Y-73635000D03*
X59700000Y-73635000D03*
X62240000Y-73635000D03*
M02*
